<?xml version="1.0" encoding="utf-8"?>
<!-- Generator: Adobe Illustrator 25.4.1, SVG Export Plug-In . SVG Version: 6.00 Build 0)  -->
<svg version="1.1" id="Layer_1" xmlns="http://www.w3.org/2000/svg" xmlns:xlink="http://www.w3.org/1999/xlink" x="0px" y="0px"
	 viewBox="0 0 1080 1080" style="enable-background:new 0 0 1080 1080;" xml:space="preserve">
<path id="IDN1223" style="fill:#7D7D7D;stroke:#FFFFFF;stroke-width:4.8965;stroke-linecap:round;stroke-linejoin:round;" d="
	M208.9,458.9l-3.7,4.2l-1.2,2.2l-0.2,0.7l-0.5,2.7v1.7l0.2,1l-0.2,0.7l-0.5,0.5l-0.5,0.7l-0.7,0.7l-0.7,0.7l-1.2,1l-1.2,0.5H197
	l-2-0.2h-1l-1,0.2l-0.5,0.5l-0.5,0.7l-0.2,0.7v1.2l-1.2,4.2l0.2,1.7l2.7,0.7l0.2,0.7l0.5,0.5l0.5,0.2l1.2-0.5h0.7l0.2,0.2l0.2,1.7
	l1.7,0.7l0.2,0.2l0.2,1.5l0.2,2.2l1.2,3.9v1.5l-0.5,1.5v0.7l0.5,0.7l2.9,2.4l-0.5,0.5l-1.5,1l-1.7-1l-0.7-0.5h-0.5l-0.7,0.5l-1,1
	l0.2,1v0.5h-0.2l-1.2-0.2l-0.2-1.2l-0.2-0.2h-0.7h-3.7l-1,0.2l-1.7,1.5l-0.2,2.4l-0.5,1.5l-2.2,1.5l-6.6-0.2l-10-1.5l-9.8-2.7h-2.7
	l-2.2,0.2l-1.7-0.7v-1.5l-1.2-0.7l-1.5-0.5l-3.4-0.5l-1.5-0.5l-0.5-1.2l-1-1.2l-1.7-1l-2-1.5l-2-0.5l-1.5-0.5l-2.4-0.7l-0.5-1.2h-1
	l-1.2-0.5h-0.5l-0.5-0.5l-2.7,0.5l-3.4-0.5l-4.4-0.5l-1.7-0.7l-2-0.2l-2-0.7l-12.5-1h-4.4l-9.5-1l-4.7-0.5l-2.2-1.7l-1.2-0.7h-1.2
	l-1.5,0.5l-0.5,0.2v-1v-1.2l-1.2-1.5l0.5-2.2l-0.2-1.2l0.2-0.7l0.7-1.2l1-1.2l1-0.5l0.7,0.2l1-0.2l0.2-0.5l-0.7-1.2l1-1l2-2.4
	l1.5-1.5v-2l-0.2-1.7l-1.5-1.2l-1.5,0.2l-1.5-0.7l-1.5,0.5l-1.2,1.5l-0.2-1.2v-0.7l0.2-1.2l0.5-1.5l2-3.7l2.9-2.7l0.2-0.7l-1-1
	l-0.7-0.5l-1.7-0.5l-0.5-0.7l-0.5-1.2l-1-9.3v-1.7l1-1.5l0.5-1.2l-0.2-1.5l-0.2-1.5l-0.2-0.7l0.5-1.2l1.2-0.7h0.5l0.2,0.5l0.2,0.7
	l0.5,0.7l0.5,0.2l0.7-0.2l0.5-0.7l1-0.2h1.5l1.2,0.5l1,0.7l1.7,0.5h5.6l1.5-0.7l-0.2-1v-2.7l0.7,0.2l0.5,1l0.2,0.2l0.7,0.5l0.5,0.5
	H99h0.5l1-0.7l1.7,0.7l2,1.7l1-0.5l0.5-1.5l1-3.7l0.5-0.7l0.2-0.7v-0.7v-1.7l0.2-3.2v-3.2v-0.2h0.2l0.7-0.5l0.2-1l0.2-0.5v-0.7
	l-1-1.5l0.5-0.7l1-1.5l-0.2-2l1.2-0.5l2,0.5l2,0.7l0.5,0.7l0.5,0.5l0.7,0.7l1.2,0.2h0.7h1l4.2-1.2l2,0.2l2,0.7l1.2,2l1.7,2.7
	l1.7,2.2l1.5,2.2l2.2,1.2l2.7,1l3.2,0.2l1.7,2l1.2,0.7l1.2-0.7l0.7,0.5l1-0.2l0.5-0.5l1.2-0.5l0.5-0.2h0.5l1,0.2h0.5v-0.5v-0.7
	l0.7-0.2l1.2,0.5v0.7h0.7l0.7-1h0.5l0.5,1.2v1l2.7,1.7l2.4,1l3.2,1.5l1.2,0.5l1,0.5h2l0.7-0.2l0.7-0.5l1.5-0.7l0.5-0.7l0.5-0.5
	l0.2-0.7l-0.2-0.7l-0.2-0.5l-0.7-0.5l0.7-0.2l1,0.7l1.7,0.5h3.2l1.2,0.7l0.2-0.7h1.2l0.2,1.2l0.5,3.7l4.4,5.4l1,0.5l0.7,0.2l2.7,1.7
	l2,9.8l1.5,4.9l3.2,0.2l2.2,1.7l2.2,0.7h2.4l2.2-1.2l0.5,0.5l0.7,0.2l1,0.2l0.7,0.2L208.9,458.9L208.9,458.9z"/>
<path id="IDN1224" style="fill:#7D7D7D;stroke:#FFFFFF;stroke-width:4.8965;stroke-linecap:round;stroke-linejoin:round;" d="
	M212.4,507.4l2.7,1.7l0.7,0.5h1l0.2,0.5l-0.2,0.5h-0.2H216l-1.5-0.2l-2.9-1l-3.2-0.7l-0.7-0.2l-0.7-0.2l-2.2,0.2l-0.7-0.2l-0.5-0.7
	l0.2-1l0.5-0.7l0.7-0.5l2.9,1.2l2.7,0.5L212.4,507.4L212.4,507.4z M356.6,454.5l-0.2,0.2l-2,3.4l-0.5,1.2v1l-1.2,6.4l0.2,4.7
	l-0.2,1.7v0.7l0.5,2.2l0.2,0.5l-0.2,0.5l-0.7,0.5l-2.2,2l-0.7,1l-1,0.7l-1.5,1l-1,0.7l-0.7,0.5l-0.7,1v0.5v0.5l-2.2-0.2l-3.4-1.2
	l-0.7-0.5l-0.7-0.2l-0.2-0.2l-1,0.2h-0.5l-1-0.2l-0.7-0.5l-1.5-0.2l-1,1l-0.2,2.2v2.4l0.2,1.7v1l-1,6.6l0.7,2.9l0.5,1l0.5,0.7
	l-0.2,0.5l-1.2,1l-0.2,0.5v0.2l0.2,1v1l0.2,0.7l0.7,0.5l2,0.2l0.5,0.2l0.7,0.5l1.2,1.5l0.7,0.7l0.2,0.5l0.2,0.7l-0.2,2.2L337,515
	l-1,2.2l-0.2,2l-1,0.7h-0.5l-1.2-0.7h-0.7l-1.2,1l-0.7,0.5l-1.5,0.7l-2.7,1.5l-3.4,2.9l-2,1.2l-1,0.7l-0.7,1l-0.5,1l0.2,1.2v0.7
	l-1,2.4v0.5l-0.7-0.2l-4.4-1l-0.2-0.2l-0.2-3.4h-0.7l-0.2,0.2h-0.5l-0.5-0.5l-0.2-0.5l-0.2-9.3l-0.2-1.5v-2.4l-0.2-1.2l-0.5-0.5
	l-1-0.5l-2.7-0.5l-0.7-0.2l-2,0.2l-1-0.2h-2.9l-2.2-0.5l-1.7-1.5l-0.7-1.5l-1-2l-1.7-8.1l-0.2-0.5l-1.5,1.5l-5.9,4.4l-0.7,0.7
	l-1,1.2l-0.5,0.5l-0.2-0.7l-0.2-1.2l-0.2-0.2l-0.2-0.2l-0.5,0.2h-0.5l-3.2-0.5l-1.2,0.7l-0.5,0.5v0.5v1.5l-0.2,1l-0.5,1l-2.7,4.2
	l-0.7,1l-0.2,0.5l-0.2,1.2l-0.5-0.2l-5.4-1.5l-1.2-1l-1.2,0.2l-2-0.2l-2-0.7l-3.2-0.7l-4.9-1.5l-9.3-1.2l-2,0.5l-1,0.2l-0.5-0.5
	l-0.2-0.5l-0.7-0.2l-0.2-0.2v-0.2l0.5-0.7v-0.2h-0.5l-1.5-0.5l-9.1-1l-5.4-0.5l-2.7,0.7l-0.7,1l-0.5,0.7h-0.5l-1.7-1.5l-0.5-0.2
	h-0.5l-1.2-0.2h-1.2l-0.7-0.5l-0.7-0.5l-0.5-2.4l-0.5-1.2l-0.7,0.2l-0.2,0.2l-1.5,0.5L205,503l-0.7,1l-0.5,0.5l-2.9-2.4l-0.5-0.7
	v-0.7l0.5-1.5v-1.5l-1.2-3.9l-0.2-2.2l-0.2-1.5l-0.2-0.2l-1.7-0.7l-0.2-1.7l-0.2-0.2H196l-1.2,0.5l-0.5-0.2l-0.5-0.5l-0.2-0.7
	l-2.7-0.7l-0.2-1.7l1.2-4.2v-1.2l0.2-0.7l0.5-0.7l0.5-0.5l1-0.2h1l2,0.2h1.5l1.2-0.5l1.2-1l0.7-0.7l0.7-0.7l0.5-0.7l0.5-0.5l0.2-0.7
	l-0.2-1v-1.7l0.5-2.7l0.2-0.7l1.2-2.2l3.7-4.2l0.5,0.2l0.5,0.7l0.5,0.5l1.2,0.2h1.2l0.7-0.2l0.5-0.7v-1.2l0.5-1h1l1.2,0.5l0.7,0.2
	l2,1.5l1.2,0.5l1.5,1h0.5h1.2l9.3,1l4.7-0.7l2.9-3.2l2,1.7l10.3,1.5l9.3,2.9l2.2,0.5l2.4-0.2l6.9-1l1.2-0.2l0.7-0.5v-0.5l1-1
	l0.5-0.2l0.5,0.2l0.2,0.5v0.5l0.2,0.5l0.7,0.5l2.4,1.2l2,0.5l2.2,1.7l1,0.5l1.5,0.2l1-0.5l0.7-0.5l1-0.2h1.2l1-0.2l0.7-0.5l2.2-2.4
	l2.2-3.2l3.9-7.8l0.7-2.4l0.2-2v-2.2l0.2-1l0.5-0.7l0.2-0.5l-0.5-1.2l1-0.2l0.5-0.5l1-1.2l0.7-0.2l2.7-1.2l1.5-0.2l1.2-0.5l0.5-0.2
	l3.2-0.5l1.2-0.2l0.5,0.2l1.5,1l0.5,0.2h1.2h0.5l0.5-0.5l0.2,0.2l0.5,0.5l0.7,0.5l0.5,0.5l0.5,0.7l0.2,2.2l1,2l2,5.6l1,1.7l0.5,0.5
	h0.5l10,1h1.2l2.2-0.5l1-0.2l1-0.5l1.7-2.4l0.7-1l1.5,1l2.9,0.5l2,0.7l0.5,0.5l1.7,2.2L356.6,454.5L356.6,454.5z M291.7,408.5
	L291,409l-0.2-0.5l-0.2-0.7l-0.2-0.5L290,407l0.7-0.5l1.5-0.2l0.2,0.5v0.7L291.7,408.5L291.7,408.5z"/>
<path id="IDN1226" style="fill:#7D7D7D;stroke:#FFFFFF;stroke-width:4.8965;stroke-linecap:round;stroke-linejoin:round;" d="
	M16,443.5v1.5v2l-0.5,2l-0.7,0.7l-1,0.5l-1,1.2l-0.7,0.2l-0.5-0.5l0.2-0.7l0.2-1l0.5-0.7l-0.5-0.2l-0.5-0.7l-0.2-1.2l-2.4,2.4
	l-0.5,0.2l-0.2-1l1-1.5l2.7-2.2l0.5,0.5l0.5-0.5l0.5-0.5h0.5h0.2l0.2-0.2l0.5-0.2H16L16,443.5z M93.9,418.5h-0.2l-1.7,1.5l-0.5,0.7
	l1,5.9l1.5,1.7l0.7,2.2l0.5,0.7l0.5,0.2v2.7l0.2,1l-1.5,0.7h-5.6l-1.7-0.5l-1-0.7l-1.2-0.5h-1.5l-1,0.2l-0.5,0.7l-0.7,0.2l-0.5-0.2
	l-0.5-0.7l-0.2-0.7l-0.2-0.5h-0.5l-1.2,0.7l-0.5,1.2l0.2,0.7l0.2,1.5l0.2,1.5l-0.5,1.2l-1,1.5v1.7l1,9.3l0.5,1.2l0.5,0.7l1.7,0.5
	l0.7,0.5l1,1l-0.2,0.7l-2.9,2.7l-2,3.7l-0.5,1.5l-0.2,1.2v0.7l0.2,1.2l-1.2,0.5l-1.2,0.2l-1.2-0.2l-0.7-0.2l-1-0.2l-0.7-0.2h-0.2
	l-0.5-0.7l-0.2-0.2l-0.7-0.2l-0.2-0.5l-0.2-0.5l-2.4-1.7l-1.7,0.2l-2.2-1l-3.9-3.2l-2.4-1l-1.5-0.2h-1l-2.2,0.5l-1,0.2l-0.2,0.7
	l-0.7,0.2l-0.5-0.7l-1,0.2h-1.7l-2.4,0.7l-1-0.5l-1.7-0.2l-1.2-0.2l-5.6,0.7l-2.2,0.5l-1,0.7l-2-0.5l-0.7,0.2l-0.7-0.7l-0.7-0.5h-1
	l-0.5,0.5l-0.5,0.2l-0.2-0.2l-0.5-0.7l-0.5-0.5l-2.2-1h-2.4l-0.5,0.2l-0.2,1l-0.2,0.5l-0.5,0.2h-0.5l-1-0.2l-0.5-1l-0.5-2l-0.7-0.5
	l-0.2-0.5v-0.2l0.5-0.2l1.7,0.2l0.7-0.2l1-0.7l1.5-1.5l0.5-1l0.2-1l0.7-0.7l0.7-0.2l0.7,0.2l0.7,0.7l0.7,0.7l0.2,0.5l0.2,0.7v1
	l1.2,2.2l0.2,0.7l0.7,0.7l1,0.5l1-0.2l0.7-1l0.7-2.7l0.5-1l4.2-3.9l1-1l0.2-1l-0.5-4.4l1.2-2.7l0.7-0.5h1.2l0.2,2L39,443l0.7,0.7
	h1.5l2.2-1l1.5-2l0.7-2.2v-2l0.5-9.1l0.5-2l1.5-4.4l1-2.2l3.7-3.9l0.5-0.2l0.7-0.5l1-3.4l1.2-1.5l1.7-0.5l1.7,0.2l1.2,1.2l0.2,3.4
	l0.2,0.7l0.7,0.2l1.5,1l1,0.2l1.7-1l1.2-1.7l1.2-1.2l2.2,0.2l3.4,2.4l1.2,0.5l1.2,0.2l3.4,1.5h1.2l1-0.5l0.7-0.7l1.2-0.2h6.1l1,0.2
	l1.2,0.5l0.7,0.5l0.5,1L93.9,418.5L93.9,418.5z"/>
<path id="IDN1232" style="fill:#7D7D7D;stroke:#FFFFFF;stroke-width:4.8965;stroke-linecap:round;stroke-linejoin:round;" d="
	M563.9,558.6l1,1.2l0.2,1.2l1,1.2l0.5,1.5l-1,1l-0.7,1.2l-1.7-0.5l-2.9-2.2l-0.7-1l-0.7-0.2l-0.5-0.2l0.2-0.5l2-2.4l0.5-0.2h1
	l0.7-0.2L563.9,558.6L563.9,558.6z M560.3,531.6l1.7,1.2l1.5,1.5l2.9,3.7l1.7,1.5l2.2,1.5l1.2,1.7l-0.7,2.2l-0.5,0.7l-1.7,1.2
	l-1,0.7l-1.5,1.2l-0.5,0.5l-3.7,0.5l-0.7,0.2l-0.2,1.2l-1,0.7l-7.1,2.4l-2.2,1.5l-1.7,2l-1.2,2.2l-0.7,0.7l-1.2,0.5l-1,0.2l-0.5,1
	v1.2l1,1.2l0.2-0.5l-0.2-0.2l-0.5-0.7l1-0.5l0.2,1v2.4l-0.5,0.7l-0.7,0.5l-1,0.2l-0.7,0.2h-1.2h-1.2l-1.2-0.2l-1-0.7v-0.7l1.2-0.7
	l2.2-1.2l0.7-0.7l0.5-1.2l0.2-1.2l-0.5-1l-0.2-0.5l-0.7-1.7l-1.5-0.5l-1.5-1.2l-0.7-1l-0.2-0.7l-0.5-0.7l-1-0.7l-1.7-1.2l-3.7-3.4
	l-1.5-1l-6.9-3.4l-2.2-0.2h-6.4l-1.7-0.7l-1.7-1.2l-1.2-1.5l-4.4-6.4l-1-5.1l0.2-1.5l1.5-0.2h1.2l0.7,0.5l0.5,0.7l0.7,0.7l0.7,0.5
	l1-0.2l1.2-1l1,0.5l1,0.2l2.2,0.2l1,0.2l8.8,3.2l1.7-0.7h4.9l2.2-0.5l2-1.5l3.9-3.9l2-0.7l1.2-0.2l1,0.2l1.2,0.5l0.7,0.7l1,0.5
	l3.7,0.7L560.3,531.6L560.3,531.6z"/>
<path id="IDN1233" style="fill:#7D7D7D;stroke:#FFFFFF;stroke-width:4.8965;stroke-linecap:round;stroke-linejoin:round;" d="
	M446.9,549h-4.2l-0.5-0.2l-0.2-1l0.2-0.7l0.7-0.7l-0.5-0.7l2.7,0.7h2.9l0.7,0.5l0.2,0.7v0.7l-0.2,0.2l-0.5,0.2L446.9,549L446.9,549z
	 M513.5,476.8v0.7l-0.2,0.2l-4.7-0.5h-1h-0.7l-0.2-0.2v-0.5l0.2-0.5h0.2l2-1h0.5h0.5l1.2,0.5l0.5,0.2h1.2l0.5,0.2L513.5,476.8
	L513.5,476.8z M581.1,475.6v2l-1,1.2l-2,0.5l-2.4-0.2l-2-1.2l-0.7-1l0.5-0.5h0.5h0.5l0.5-1.2h0.2l0.2,0.5l0.2,0.5l0.5,0.5l0.2,0.2
	h0.7l1.2,0.5h1.5h0.5l-0.7-0.5V476l0.2-0.5l0.2-0.2l0.5,0.2l0.2-0.7h0.2L581.1,475.6L581.1,475.6z M501.5,475.8l-0.2,1.5v1h-0.7
	l-1.2-0.5l-1.2-0.5l-0.5-0.5h-1l-0.7-0.2l-1-2.4l-0.2-1l1.5-1.5l1.5-0.2l1,0.2l0.7,0.7l1.5,2.4L501.5,475.8L501.5,475.8z
	 M479.7,462.3l1.2,0.5l1,0.5l0.7,1l1.2,0.2l1.5,0.7l0.7,0.7l1,1.7l-1.5,0.2l-2.4,1.5l-3.9,0.5l-1.2,1.2l-1,0.2h-1.5l-1,0.5l-1.2,2
	l1,0.2l0.5,0.5v0.7l-1.2,0.2l-2.2,0.2l-2.9-0.2l-3.7-0.7h-1l-1.2-0.2l-1,1.2h-2l-1,0.5l-0.5,0.7l-0.2,0.7l-0.5,0.7l-0.5,1.7l-0.5,1
	l-2,1l-0.2-0.5l-0.7-0.5l-1.2-0.5l-2.7,0.2l-8.1-0.5l-1-0.5h-1l-2.4,0.7l-1.2-0.2l-0.2-1.7l-0.7-0.7v-0.2l0.7-0.5v-0.5h-0.7
	l-1.2-0.5h-0.5l-0.2,0.5v1.2l-0.2,0.2l0.7,0.7l1,0.7l0.7,0.5l-0.2,0.7l-1,0.2l-16.4-3.7l-2.2-0.2l-1.7,0.2l-1-0.2l-0.2-0.5l-0.2-1.7
	v-0.7l0.5-0.7l-0.2-0.5l-0.7,1l-0.2-0.5l-0.5-0.7v-1v-1l0.5-0.2l0.5-0.2l1.2-0.2l1.5-0.7l1.5-1.5l2.9-3.2l-0.2-1l1.7-0.5l2.2-0.2
	l1.5-0.2l2,0.2l4.7-0.7l4.2,0.7h6.9l9.1-0.5l4.4,0.7l7.6-1l6.6,0.2l6.9-1l2.4,0.2L479.7,462.3L479.7,462.3z M553.7,459.9l4.4,0.5
	l1.2,0.5l3.7,2l1,0.7v1.5l-0.7,0.5h-2.4l-0.5-0.2l-1-0.5h-1l-0.7-0.5l-0.5-0.2h-0.2l-0.2,0.2l-0.5,0.2l-0.2,0.2l-0.7-0.2l-0.7-0.5
	h-0.5l-1.7,0.7l-0.2,0.2v0.5l0.5,0.2l0.7,0.2l0.5,0.2l0.7,0.5l0.5,0.5l-1.2,1l-1.2-0.5l-2-1.5l-0.7,0.7l-0.2,0.5l0.2,0.5l0.2,0.5
	v0.2l-0.5,0.5H549l-0.2-0.2l-1.2-1v-0.5l0.7-2l-2.2,0.2l-0.7-0.2l-0.5-0.5l0.2-1.5l0.5-0.5l0.7-0.7l0.7-1l-0.5-0.7l0.5-0.5l1.2-0.2
	h1L553.7,459.9L553.7,459.9z M317.9,534.6v-0.5l1-2.4v-0.7l-0.2-1.2l0.5-1l0.7-1l1-0.7l2-1.2l3.4-2.9l2.7-1.5l1.5-0.7l0.7-0.5l1.2-1
	h0.7l1.2,0.7h0.5l1-0.7l0.2-2l1-2.2l0.2-1.2l0.2-2.2l-0.2-0.7l-0.2-0.5l-0.7-0.7l-1.2-1.5l-0.7-0.5l-0.5-0.2l-2-0.2l-0.7-0.5
	l-0.2-0.7v-1l-0.2-1v-0.2l0.2-0.5l1.2-1l0.2-0.5l-0.5-0.7l-0.5-1l-0.7-2.9l1-6.6v-1l-0.2-1.7v-2.4l0.2-2.2l1-1l1.5,0.2l0.7,0.5
	l1,0.2h0.5l1-0.2l0.2,0.2l0.7,0.2l0.7,0.5l3.4,1.2l2.2,0.2v-0.5v-0.5l0.7-1l0.7-0.5l1-0.7l1.5-1l1-0.7l0.7-1l2.2-2l0.7-0.5l0.2-0.5
	l-0.2-0.5l-0.5-2.2v-0.7l0.2-1.7l-0.2-4.7l1.2-6.4v-1l0.5-1.2l2-3.4l0.2-0.2l1.2,1.2l1.2,0.7l1.2,0.7l3.4,0.7l2.4,0.2l0.7,0.2h1
	l1.2-0.2l1.7-1l1-0.2l1,0.2l1.7,2l3.2,3.9l1,0.7l1.2,0.2h2.2l2.2-0.5l2-0.5l0.5-0.2h2.2h1l2.2-0.7l1.2-0.2l2,0.2l0.7,0.5l1.2-0.7
	l1,0.2l1,0.7l0.7,0.7l0.7,0.5l1.2,0.2h1l0.7-0.5l0.5-1l-0.2-1.2h0.5l0.7,0.2l0.2,0.2l0.5,0.5l0.2,1v1.2l-0.7,2.2l-0.2,1.2l0.2,0.5
	l1.2,2l0.5,0.2l0.5,0.2l0.7-0.2h0.7l0.5,0.7l-1.7,0.5l-1,0.5l-0.2,0.5l0.2,0.5l0.2,1l0.7,0.7l0.5,0.5l0.7,0.2l1,1l0.5,1.2l-0.2,0.7
	l-0.7,0.5L406,479l1,1.2l1.2,1l2.9,1.2l1-0.7l0.7-1l0.7-1l1.2-0.2l1,0.2l0.7,0.7l0.5,1l0.7,1.5l0.2,0.7v0.7l-0.5,2v1v2.2l-0.5,1
	l-2,1.5l-0.5,1v4.4l4.4,3.2l6.6,2.9l1,0.2h1.5l1,0.2l1.2,0.2l1,1l2,1.7l1,1l1.7,0.2l1.2,0.5l0.7,0.2h0.5l1-0.2h0.7l1,0.5l1.2,1.7
	l0.7,0.2l1.5-0.2l1-0.2l1.7-1.2l2-1l1.2-0.5l1.2-0.2l0.7-0.2l1.7-1h1.2l7.1,1h0.5l1-0.5l0.5-0.2h1.2l2.2,1h1.2l1-0.2l0.7-0.5l1-1.2
	l1-0.5h0.7l1,0.2l1.2,0.2l1-0.2l1-0.2l3.7-3.2l1.5-0.5l1.7,1l2.2,2.7l1.2,1.2l1.7,0.7h1.2l2.2-0.7h1.2l0.7,0.2l2,2l0.7,0.5h0.5
	l0.7,0.2l1.2-0.2h0.5l0.5,0.2l1,1l2,1l0.7,1l0.5,1v1.2l-0.5,2.2v0.5l-0.7,1l-0.2,0.7v0.5l0.5,1.2v2.7l-2.4,7.6l-2,10.8l-0.2,1.5
	l-0.2,1.2v0.5l0.2,0.7l0.5,1.2l0.2,2.4v1l0.7,0.5l0.7-0.5l0.2-1.5v-2.4l0.7,1l0.2,1.7v3.7l0.5,1l0.5,1.2l1,0.7l0.7,0.2l1.2,0.2h0.5
	l1.5,1l2.7,1l0.5,0.7l0.5,0.5l0.5,0.7l0.5,1v1.2l-1.5,2h-2.2l-4.7-1.5l-1.2-0.2l-2.9,0.2l-1.2-0.5l0.2-0.7l1.2-1.5l-0.5-2l-2-1.7
	l-2.4-1l-2.2-0.2l-2,1.5l-1.5,0.5l-0.5-0.5l-0.5-1l-1.5,0.2l-2.4,0.7h-0.5l-2-0.2l-0.2-0.2l-0.5-1l-0.5-0.2l-1.2,0.2l-1,0.5
	l-0.7,0.2l-0.5-1v-0.5l0.2-0.7v-0.7l-0.5-0.2H478l-1.2,0.5l-0.5,0.2l-1-0.2l-1.5-0.2l-1.2-0.7l-1-0.7l-0.5,0.5l-0.5-0.5l-0.2-1.7
	l-0.5-0.5l-0.7,0.2l-1,0.2l-0.7,0.5l-0.5,0.5h-0.5h-0.7h-0.2v-1v-0.5l-0.7-0.5l-1,0.2h-1l-0.7-0.5l-1-1.5l-0.5-0.2l-1.7-0.5
	l-0.2-0.2l-0.7-0.7h-0.2l-1.7,0.2h-0.7l-2-1.2l-0.7-0.7l-0.2-0.7l-0.2-0.2h-1.2l-0.7,0.5l-1,0.2l-1-0.5l-2.4-2.9l-1.2-1l-2.2-1
	l-2.2-0.5l-2.4-0.2l-6.6,1l-2.4,0.5l-2,1l-2.7,3.2l-2,1.2l-1.7-0.7l-0.7,0.2l-1.2-1l-0.2,0.7l-0.5,0.2l-0.5,0.2l-0.5-0.2l-0.5-0.2
	l-0.2-0.2l-1,0.5l-0.7,0.7l-0.2,0.2l-0.7,0.2h-1l-0.7,0.2l-0.7,0.5l-1,0.7l-0.7-0.5l-2.4-1l-2-0.5l-2.9-1h-4.2l-0.7-0.2l-0.7-0.2
	l-0.7-0.5H394l0.5-0.7l-1-1l-1.5-0.5h-1.2h-1.2h-0.5l-1.5,0.7l-0.7-0.2h-0.2l-0.5-0.5l-1-0.5l-9.8-1l-1.2-0.2l-1.7-1.2H372l-1.5,1
	l-0.2,0.5h-0.5l-1.2-0.5l-1.2-1.2l-0.7-0.2l-1.5,0.2l-0.5-0.2l-1.2-0.5h-0.5l-0.5,0.2l-0.5,1v1.2l-0.2,0.7l-1,0.2l-0.2-0.2l-0.2-0.5
	l-0.2-0.7l-0.5-0.2l-0.5,0.2l-0.2,0.5l-0.5,1l-0.5,0.7v0.5l0.7,0.5l0.2,0.5l-0.2,0.2l-0.7,0.2l-1.2-0.2l-1-0.5l-0.7-0.7l-0.5-1.2
	h-0.2l-0.7,0.7h-0.7l-2-1H350l-0.7,0.5l-0.7,0.2l-3.7-1l-0.5-0.7v-0.7v-0.5l-1-0.5h-0.2l-1,0.5h-0.5l-0.2-0.2l-0.7-0.5h-0.5h-2.7
	h-0.7h-0.2L336,536l-0.5-0.2H335l-0.5,0.2l-0.2,0.2l-4.4,1.2h-0.5l-0.2-1l-0.5-0.5l-0.5-0.2h-0.5l-0.7-0.5l-0.2-0.5v-0.7l-0.2-0.5
	H326l-0.5,1l-0.7,1.2l-0.2,0.2H324h-2.2l-1-0.2L317.9,534.6L317.9,534.6z M411.9,401.1l0.7,0.7l0.5,0.7l0.2,1.2v1.2l-0.5,1l-0.7,0.7
	l-1,0.5h-0.5h-1.5L409,407l-0.2-0.5l-0.2,0.2l-1,0.5l-1.2-0.2l-0.5-0.5l-0.2-1l-0.5-1.2l0.2-0.5l1.7-1.2v-0.2l1.2-1.5l0.7,0.2
	l0.7-0.2l0.7-0.2h0.7L411.9,401.1L411.9,401.1z"/>
<path id="IDN1235" style="fill:#7D7D7D;stroke:#FFFFFF;stroke-width:4.8965;stroke-linecap:round;stroke-linejoin:round;" d="
	M884.2,662.6h1h0.2l0.7,0.2l-0.2,0.5l-0.7,0.7l-1,0.2l-1.2,0.5h-1.2l-1-0.2l-0.2-0.5l0.7-0.7l1.2-0.5L884.2,662.6z M978.4,660.9
	l-0.5,0.5l-0.2,0.2l0.2,0.5h0.2h0.7h0.5l1.2,0.7l0.5,0.7l-0.2,2.4l-0.2,0.7h-1.2l-1.2-0.2h-1l-0.7,0.5l-2.9,2.2l-0.5,0.2l-1.2,0.5
	l-0.2,0.5l-0.2,1.2l-0.2,1.2l-1.2,1.2l-1.7,0.2l-2,0.2l-8.1,2.2l-1,0.7l-0.7,0.5l1,0.7v0.2l-4.9,1h-2.2l-1-1.5l-0.5-4.9l-0.2-1
	l0.2-0.5l1-0.2l1.2-1l3.4-1h1.2h1.2h0.5l1-0.7h0.7h1l1.2-0.7l2.7-2.4l1.2-0.7l2.2-1l0.7-0.7l0.2-0.5l0.2-1.2l0.2-0.5l0.5-0.2h0.5
	h0.2l0.2-0.7l0.5-1l0.7-0.7l2.2-1l2.7-1.2l1-0.5l1.2-2l0.7-0.5l0.5,0.7v1l-0.2,0.5l-1,1.2l1,0.7l-0.2,1l-0.7,1v0.5l0.2,0.2
	L978.4,660.9L978.4,660.9z M902.5,653.3l1,0.5h1l1,0.2l0.5,1.5l-0.5,2.2l-0.2,0.5l-2.2,1.7l-1.2,0.7l-0.7,0.7h-0.7h-0.5l-0.5,1
	l-1.2,0.5l-3.4-0.5l-2.2,0.2l-1.2-0.2l-1-0.7l-1-0.7l-0.2-0.2l1-0.7l6.4-3.2l1.7-2.9l1-0.5l1.2-0.5h1.2L902.5,653.3L902.5,653.3z
	 M983.1,641.8l-0.2,0.5l-0.2,0.7l-0.7,0.2l-0.7-0.5l-0.5-0.7l-0.7,0.5l1.2,2.2l0.2,1.5l-0.7,0.7l0.2,0.7l-0.2,0.5h-0.5l-0.7-0.2
	v-0.2l-0.5-0.7l-0.7-0.5l-0.2,0.2l-0.2,0.7l-1,1H976l-0.5-1.5v-1.5l0.2-1l0.7-0.7l1.2-1l0.7-1l1-2.2l0.7-1l0.7-0.5l1.2-0.5h1
	l0.5,0.5l0.5,0.7l1.5,0.5l0.2,0.7l-0.7,0.7L983.1,641.8L983.1,641.8z M800,595.5l3.2,4.4l1.2,1l0.7,0.7l1,0.2l1,0.2l1-0.5l1-0.2
	l1.2,0.5l1.2,0.7l0.7,1v2.2l0.5,1.5v2l0.5,1l0.5,0.5l3.2,1.5l1,0.2l0.2-1l0.5-0.5l1.5-0.5l2.4-0.2h1.2l1,0.5l0.7,1l0.2,1.2l0.7,0.7
	l3.7,2.2l1.5,1.7l2.2,4.7l1.2,1.7l1.5,1l3.4,2l1.5,1.2l1.2,1.2l1,1.5l0.5,2.2l-0.7,2l-0.5,0.7l-1.7,1.2l-2.4,2.4l-0.7,1.5l-0.7,0.5
	l-3.2,1l-0.5,0.2l-0.7,0.2l-3.4-0.2l-1,0.2l-2.4,1.2l-0.5,0.5v1l-0.5,1l-0.7,0.5h-1l-1-0.7l-1.2-1.5l-1-0.5l-7.8-1h-0.7L811,643
	l-3.4-1l-0.2-0.2l-0.5-1.2l-0.2-0.5l-2.2-1l-0.5-0.2l-1.5-2.4l-0.5-0.2l-0.5,0.2l-0.2-0.2l-0.5-2.4l-0.5-1.2l-2.2-2.7l-0.5-0.5
	l-0.5-0.5h-0.5l-1-0.2h-0.5l-0.5-0.5l-0.2-0.7l-0.5,0.2l-0.2-0.2l-0.2-0.5l-0.5-0.2l-1-0.7h-0.5l-2.2-0.2l-0.7-0.2l-2-1.5l-3.2-1.7
	l-0.5-0.7l-0.2-1.5l-0.5-0.7l-2.2-0.5v-1.2h-0.2l-1,0.5l-1.2-0.2l-2.7-0.2l-2-0.7l-1.2-0.2h-1l-1,0.2l-1,0.5l-0.5,0.5l-0.5,1l-1-0.5
	l-2.2-1.5h-0.2l-0.7,0.5H763l-0.2-0.2l-1.5-1l-1.2,0.2h-2.2l-2.2-0.2l-2.2-1l-2.2-0.2l-0.7-0.5l-2.4-1.7l-0.5-1l-1-1.7l-0.5-0.5
	l-0.7-0.7l-1.5-1l-1-0.7l-0.2-1l0.5-1.5l0.7-1.5l1.2-1.2l2.4-2.2l1.2-0.7l1.5-0.5h1.7l0.7-0.2l1.5-1l1-0.2l2-0.5h1.7h0.5l0.7-0.5
	l0.2-0.2h2l4.4,0.7h0.5l0.7-0.5l2.4-0.5h1.2l2,1h0.7l1-0.7l1.2-0.5l3.2-0.7h1l0.7,0.5l0.2,0.5l0.7,0.7l6.4,0.5l1-0.2l6.9-4.9
	l0.5,0.2l0.2,1.2l0.5,0.5L800,595.5L800,595.5z M1073.2,585.5v0.2v0.5l-0.5,0.2l-1.2-0.2h-0.7l-0.7,0.5l-0.5,0.5l-0.5,0.2h-0.7
	l-0.5-0.2l-0.5-0.5l-0.5-0.5h-0.2h-1.2l-1.7,0.2l-0.7,1.2l-0.2,1.5l0.2,2l0.5,1l0.2,0.5l1.2,1.2l1.2,0.7l0.2,0.2v0.2v1v0.2l1.2,2
	l0.2,0.7l0.5,3.4l-1.5,1.2l-1.7,1.5l-0.7,2.2l-0.2,3.9l-0.5,0.7l-5.1,3.4l-1.5,1.2l-4.9,5.4l-0.5,2l-0.7,0.7l-2.9,1.7l-2,1.5
	l-1.7,1.5l-2.7,1.7l-1,1l-0.7,2.7l-0.7,0.5l-0.7,1l-2.4,2l-1.7,0.7l-2.2,0.5l-5.6-0.2l-3.9,0.5l-1.7,0.2h-0.7l-1-0.5h-0.7l-0.7,0.7
	l-1,2.2l-0.5,0.5l-1.2,0.2l-0.5,0.5l-0.2,0.7l-0.5,0.7l-0.7,0.2l-4.7,0.7l-5.6,3.9l-1.5,0.5l-0.5-0.2l-0.5-0.7l-1.2,0.2l-2,0.5
	l-1.2-0.2l-1-0.5l-1-0.5l-1,0.5l-1.2,0.5l-1-0.2l-1.5-1.2l-0.7-0.2l-1.2-0.2l-1,0.2l-0.7,1l-0.5,0.5l-0.7,0.2h-0.5l-0.2-0.5l0.2-0.7
	l0.7-1l0.5-1.2v-1v-2.2l0.2-0.7l1-1l1.5-1.5l2.7-1l1-0.5l0.2-0.2l2-0.2l0.5-0.2l4.4-2.4l1-1.2l-1-1.5l-1.2-0.5l-1-0.5l-1.2-0.2
	l-1.2-0.2l-1.2,0.5l-1.7,1.2l-1-0.2l-0.5-0.7v-1.2l0.2-3.7l0.5-0.7l2-1.2l1.2-1l0.5-1l0.2-1.2v-1.2l-0.2-0.5l-0.7-1.2l-0.2-0.7
	l0.2-0.2l0.7-0.5l0.2-0.2l0.2-1.2v-4.9l0.5-1l0.5-1l1.2-1.2l2-1l0.5-0.2l1.5-2.2l0.5-0.5l1.5-0.5l0.2-0.2l0.5-0.7l0.5-0.2h1l1.7-2.4
	l0.7-0.5l0.2-0.2l2.4-2.2l1-1.5l0.7-0.5l1-0.2l1-0.2l1.7,3.2l1.5,1.2l1.7,0.2l0.7-0.5l1-1.5l0.7-0.5l1-0.5h0.7l0.7,0.2l0.7,0.7
	l0.5,0.7l0.5,1l0.5,1l0.2,0.7l-0.2,1.5v1l1-0.2h1l1-0.2l0.7-0.5l0.5-0.7v-0.5l-0.2-1v-0.5l0.2-0.2l0.5-0.7l0.2-0.5v-1.7l0.5-0.5
	l1-0.2l1.5-1.5l1-1.2l0.5-0.5l0.2-0.5l0.2-2l0.7-2.9v-1l3.4-0.2l2.4-0.2l2.2-1l3.4-2.2l0.7-2.2l0.5-0.2l3.4-1l0.5-0.5l1.2-1.2l2-0.5
	l0.7-0.5l1.7-0.2l1.5-1.2l1-0.5l0.2,1.2l-0.7,1.7v1l0.2,1l0.5,0.5l0.5,0.5l1,0.2h0.7l0.7-0.2l1.5-1l2.4-1l0.7-0.7l0.2-0.2l0.2-1.2
	l0.2-0.2l0.5-0.2l0.7,0.7l1,0.7l1,0.5l0.7,1l0.5,1v1.2l-1,3.4l0.2,0.5L1073.2,585.5L1073.2,585.5z M782.1,557.8l1,0.5l0.7-0.5l0.5-1
	l0.2-1l0.7-0.2h1.7l1.2,0.2l-0.2,1l-1.5,1.2l-0.7,0.5l0.2,0.7l-0.7,0.2h-0.7l-0.7,0.2l-0.2,0.5v1l1,1v1.2l-0.2,0.5l-0.7,1l-0.2,0.5
	h-0.5l-0.5-0.5l-0.7-0.5l-0.2-0.5l-0.2-0.2l-0.7,0.2l-0.5,0.2l-0.5,0.2l-0.5-0.2l-0.5-0.5l0.5-1.5l0.2-0.5l0.7-0.2l-0.5-0.7l1-0.5
	l0.7-0.5l0.2-0.5l-1.2-0.5l0.5-1l-1.2-2.2l0.5-1.2l1,1l0.5,0.2l0.2,0.5v1.2L782.1,557.8L782.1,557.8z M927.3,548.5l-1.7,1l-1.2-1.2
	l-0.5-1.7l1-1l1.5,0.2l1.2,0.5l0.5,0.7L927.3,548.5z M771.1,548.3l0.5,0.2l2.7-0.2h1l0.7,0.2l0.5,0.7l0.2,0.5l-0.2,0.2l-0.5,0.2v0.7
	l1,1l0.5,0.7l-1,0.2v0.5v0.5v0.2l-1.7,0.2l-0.7-0.2l-0.5-1l-0.5-0.2l-0.7,0.2l-0.7,1l-0.5,0.2h-0.7l0.5,0.7l0.2,0.2h0.5l0.2-0.5
	l0.5,0.2l-0.7,1.5l-0.2,0.5l-0.5,0.2l-0.5-0.2l-0.5,0.5l-0.2,1.2v0.7l0.5,1l0.2,1l0.7,0.7l-1.2,0.2l-2.4-1l-1,0.7V562l-0.2-0.7
	l0.2-0.7l1-1.7v-0.5v-1.5v-0.2l-0.7-0.2l-0.2-0.2v-1.5l-0.2-1.5l0.2-0.2l0.2-0.7h0.5l0.7,0.2l0.2-0.2l0.5-1v-0.5l-0.2-1.7l0.5-0.5
	l-0.2-0.7l-0.5-1.5l0.5-0.2l1.7-0.7l0.2,0.7l0.2,1.2L771.1,548.3L771.1,548.3z M967.9,545.6l0.5,0.7l-0.2,0.7l-0.7,0.7l-2.2,0.7
	l-4.4,0.2l-1.7,1l-2.7,4.2l-1.2,1l-1,0.2l-0.5-0.2l-1.2-1.2l1.5-3.7l4.9-3.4h0.5l1,0.2l0.7-0.2l1.7-0.5h0.5h1h0.7l1.2-0.7h0.2
	L967.9,545.6L967.9,545.6z M891.3,541.2l-1.2,0.2l-0.7-0.5l-1-2l0.5-0.2l0.7-0.5l0.7-0.2l1.2,0.2l0.5,1v1.2L891.3,541.2L891.3,541.2
	z M974,535.5l1.5,1l0.2-0.5h0.5l0.7,0.2l0.2,0.5l0.2,0.7l-1,1l-0.2,3.7l-0.5,1l-1.7,1h-2.2l-4.4-0.7l-4.4,1l-2,0.2l-1.2-1.2v-1.7
	l1-1.5l4.7-3.9l0.7-0.5l1-0.2l1.7-0.5h0.7h1.7l1.5,0.2L974,535.5L974,535.5z M1008.8,535.5l-0.2,1.2l-0.2,0.2l-0.5,0.2l-2.4,0.5
	l-3.4,0.2l-1.2,0.2l-0.7,0.5l-0.5,1l-0.7,2l-1.2,2l-2.2,2.2l-0.5,0.2l-0.5-0.7l-0.2-0.7l-0.5-0.5l-0.7,0.5l-1,0.7l-0.7,1l-0.5,0.7
	l-0.2,0.2l-1.2,0.5l-0.2,0.5l0.2,0.5l2,2.4l-0.7,1l-0.7,0.7h-1h-1l-0.5-0.2L986,551l-0.7-0.5l-2.4,2.4l-0.5,0.2l-0.7,0.7l-0.5,0.2
	h-0.7l-0.5-0.2l-0.7-1l-2-1.2l-1.2-0.5l-0.7,0.7l-0.5,0.2h-1h-0.2l-1.2-0.7l-0.5,0.5h-0.2l-0.7-1.2l1.5-1.7l3.2-2.2l2.2-2.2l1-0.5
	h0.7l4.2-2l0.7-0.5l0.2-0.5v-1l-0.7-0.5l-1.7-0.2h-3.7l-0.2-0.7l0.7-0.7l1-1l1-0.2l0.5,0.2l1,0.2l0.7,0.2l0.5-0.7h0.7l1.2-1.2
	l0.7-0.2l1.2,0.2l1.5,0.2l-0.2,0.2v1l-0.2,0.5l-0.2,0.5l-1.5,1.5l-0.5,1v1l0.5,0.5l1,0.5l1.2,0.2l1.2-0.2l0.7-0.5l0.2-1l-0.5-0.7
	l-0.7-0.7l-0.2-0.5l1-0.7l0.7,0.7h0.7l0.5-0.7l0.2-1l-0.2-0.7l-0.7-1l0.2-0.5l0.7-0.7h0.5h0.2l0.5,0.2l0.2,0.7v0.5l0.7,0.2h1
	l0.5-0.5l-0.2-0.5v-0.5l1.2-0.2l1.2-0.7l0.7-0.7l1.7-0.7h0.7l0.2,0.5l0.2,0.2l1,0.7l0.5,0.2l0.7,0.2l1.2,0.2l2.2,0.2l0.5,0.2
	L1008.8,535.5L1008.8,535.5z M1024.2,542.9l-0.7,1.2l-0.5,1l-0.5,2.4l-0.5,1.2l-0.5,1.2l-0.7,0.7l-1,0.7l-1,0.5l-1.2,0.2h-1.2
	l-1.2-0.2l-0.5-0.5l0.2-2.2l-0.2-1l-1-1.2l-0.2-0.7l-0.5-0.7h-1l-1.2,0.2l-2,1.2h-1l-0.7-0.2l0.2-0.7l1-0.7l2-3.4l1-1.2l2-1.5l1-0.5
	l0.7,0.2l1,0.7l0.5,1.5v0.2l0.7,1.2l0.7,0.5v-1.2l0.5-0.7l1.5-1l2-3.2l1-1l1.5-2.4l0.7-0.7l0.7-0.7h0.5l1,0.2l0.5,0.5l0.7,1.5
	l-0.7,2l-0.2,1.2l0.2,1l0.2,1l-1,1.2l-2,1.2L1024.2,542.9L1024.2,542.9z M1042.1,529.4l1,0.7l0.2,2.4l0.7,1l2-1.5l1.2-0.5l1.2-0.2
	l4.7-0.5l6.6,0.5l2-0.5l1-0.5l0.7,0.2l0.7,0.5l0.7,0.2l2.7-0.5h1.7l0.7,0.2l0.5,0.5l1.2,2l0.5,0.5l0.2,1v4.7l-0.2,1l-0.5,0.7
	l-1.2,0.2h-1.2l-2.9,0.7l-4.9,0.2l-8.8,1.7h-2.2l-2.9-0.2h-1l-0.5,0.2l-1.2,0.7l-1.2,0.2l-1,0.5l-1,0.2l-0.7,0.2h-0.2l-0.7-0.5
	l-0.2-0.2h-1h-1l-2,1l-0.5,0.7l-0.5,0.2l-0.5-0.2l-0.7-0.7l-0.5-0.2l-0.2,0.2l-1.2,0.5h-0.7l-0.2-0.5l-0.2-0.5l-0.5-0.5l-0.2-1
	l0.7-1l1.7-1.2l0.5-0.7l1-2l0.2-0.7l3.2-2.2l1.7-0.2h0.5l1.2-1l0.5-0.2l0.2-0.5v-0.5h-0.5l-1.2,0.2l-1.2,0.5l-3.9,1.7h-1.5l0.2-2.4
	l0.5-0.5l0.7-0.5l0.7-0.7l0.2-0.7l0.2-0.7l0.5-0.7l0.5-0.5l0.7-0.5l1.2,0.5l2.4-0.5L1042.1,529.4L1042.1,529.4z M957.9,531.1
	l-0.2,1.7l1.5,3.7l0.7,1l0.2,0.5l0.2,0.5l-0.2,1.2l-0.2,0.7l-1,0.2l-3.2,0.2l-1,0.2l-1,0.7l-0.5,1.5l0.5,2v1l-0.5,0.7l-1,0.2
	l-1.2-0.5l-1.2-0.5l-0.5-0.5l-0.2-0.5h-0.2l-0.5,0.5l-0.2,0.7v1l0.5,1l2.2,3.7v1.5l-2.2,1.5l-0.5,0.2l-2.7,0.2l-0.5,0.2l-0.5,0.7
	h-0.5l-1.7-0.2h-0.5l-1.2,0.7l-0.2,0.5h-0.7l-3.9,0.7l-0.5,0.5l-1.5,1.5l-0.7,0.5l-3.4,1.2l-2.2,0.2h-5.4h-1l-1.2,0.5h-0.7l-1.2-0.7
	l-3.4-0.5l-2.7,0.2l-2,1.2l-1.7,1.5l-2,1l-6.9,2l-2.2,1.2l-2.2,1.2l-0.7,0.2h-0.5l-1.2-0.2h-0.7l-1-0.5l-1-0.7l-0.5-0.5l-0.7,0.7
	l-0.7,2l-0.7,0.2l-0.2-0.5l-0.7-2.2l-0.5-1l-2-1l-2.2-0.2l-2.2,0.2l-2.2-0.5l-2-0.5l-1.5-0.2l-0.7,0.2l-0.7,1l0.2,1.2l0.2,1.2v1
	l-2,2h-2.2l-4.7-1.5l-2.4,0.2l-2,0.7L856,573l-1,0.2l-2.9-0.2l-1.5-0.5l-0.5-0.2h-1.2h-0.5l-1-0.7l-2.2-2.4l-0.5-0.7l-0.5-1.2
	l-0.7-0.7l-1-0.2l-1.2,0.5l-0.5,0.7l-0.5,1l-0.5,0.5l-0.7,0.5l-1.2-0.2l-0.7-0.5l-0.7-0.5l-0.7-0.2H835h-1h-0.5l-1-1l-0.5-0.2
	l-0.7-1.2l-0.5-0.2l-0.7-0.2h-1.2h-1.2l-2.2,0.5h-1.2l-1.7-0.2H822l-1.2,0.2h-0.5l-0.7-0.2l-3.2,2l-2.2-0.2l-2-0.2l-1-0.5l-2.2-2
	l-1-0.5h-1l-0.7,0.2l-2,1l-2,0.5l-4.4,0.7l-1.5,1H796l-0.2,0.5l0.5,0.7v0.2l-0.5,0.2l-0.7,0.5h-0.7l-0.2-0.5l-0.5-2.9l-0.5-0.2
	l-1.2-0.2l-1.2-0.5l-0.7-0.5l-0.5-1l-0.5-1.2v-7.8l0.2-1.5l0.5-1.2l2.7-2.7l0.2-1.2l-0.2-1.2l-0.2-2l1.7,1.7l1.2,1l0.7-0.5l1.5-0.7
	l0.7-0.2l0.5,0.2l0.2,0.2l0.7-0.2l0.2-0.7l0.5-1.2l0.5-1h0.5l1,0.2l0.7-0.2h0.5h0.5v0.7h0.5l0.7-0.5l0.2-0.5v-0.7l0.5-1l0.7,0.7
	l0.2,0.5h0.5l0.5-1.2l2-1.7l0.2-1l0.7-0.2l3.2-1.5l5.4,0.5l0.7-0.5l1.2-1.7l0.5-0.5l0.7,0.2l0.5,1l0.2,0.7l0.5,0.7l1.2,0.2l2.2-1.5
	l1,0.7l0.5,0.2l1,0.5l0.7,0.2l0.5-0.2l0.5-0.5v-0.7l-0.5-1.2l2.2,0.7l1,0.7l0.5,0.7l0.5,1l2.9,1.5l1,0.5l3.7-0.5l1,0.2l0.7,0.5
	l1.2,0.2l2.2,0.2l2.4-0.5h1l1,0.7l1.2,1.5l0.7,1l1.2,0.5l2.7,1l1.2,0.2h1l0.7,0.2l0.2,0.2l0.5,0.2h1.5h0.5l0.5,0.2l0.5,0.7l2.2,0.2
	l0.5,0.2l0.5,0.5l1.5,2l1.2,0.7l2.2,2.4l1.5,0.5h1l0.5-0.5l0.7-0.2h1.2l1,0.5l0.2,0.2l0.2,1l0.5,0.2l0.7-0.5l0.2-0.2l2-1.2h0.5v-1
	v-0.7h0.5l1.2,0.2l-0.2-1V549l0.5-1l0.7-0.5l0.7,0.2l2.2,2.2l1-0.2l2.9-1l1-0.2l0.7,0.2l0.5,0.2h0.7l0.2-0.2l1.2-1l0.7,0.7l1.2,0.2
	l1,0.2l2.2-1.2l0.5-0.2V547l0.2-0.2l2-0.5l0.5-0.2l0.7-0.7h0.7l0.5,0.2l0.5,0.5v0.5l-0.7,0.7l-0.2,1l0.2,1l0.7,0.7l0.5,0.2l1.2-0.2
	h0.5l0.7,0.2l1,0.7l0.7,0.2l0.7,0.2l4.7,4.2l1.7,0.7l1.5,0.2l8.6-1.7l1.5-0.5l1.2-1l0.7-1.2v-1.5l-0.5-0.2l-0.7-0.2l-0.2-0.2
	l-0.2-0.5l0.2-1l0.5-0.5l2.7-1.2l0.7-0.7l2-2.4l1-0.5h2l1-0.5l1,0.5l0.7-0.2l1-0.7l0.7-0.2h1.2l0.7-0.5l1.2-1.7l1.5-1l3.2-1l3.4-3.7
	l0.2-0.7l-0.5-0.5l-1.2-0.2l-2.2-0.2l-1.2,0.2l-1.2,0.7l-1.2,0.7l-1,0.7h-0.2l-2,0.2l-0.2-0.2l-0.2-0.5l0.2-0.7l1.7-2.4l0.2-0.7
	l0.2-1.2l0.5-0.7l2.2-1.2l1-0.7l0.5-0.2h0.7l0.5,0.2l0.5,1l0.2,0.2l1,0.2l1,0.5l1.5,1l0.7,1L957.9,531.1L957.9,531.1z"/>
<path id="IDN555" style="fill:#7D7D7D;stroke:#FFFFFF;stroke-width:4.8965;stroke-linecap:round;stroke-linejoin:round;" d="
	M626.1,543.4l-0.5,1l-1.7,2.7l-0.5,0.5l-0.2,0.7l-0.2,3.9l-0.7,1l-2.2,2.2l-0.5,1.2l-1,1.7l-2.4,4.2l-1.7,1.7l-1.2,1.5l0.5,1.5v0.7
	v0.7h0.7l0.5-1l0.5-0.2l0.5,0.5l0.5,0.2l0.7,0.5l1,0.2l-1.2,1.7l-2.2,0.2l-1-0.2l-1.7,1.2h-1.5l-0.7-0.5l1-1.2l0.5-1.2l0.5-1.2
	l-0.7-0.5l-1.7,0.2l-1.5,1v1.5l0.2,2v2l-0.7-0.2V572l-0.5-0.5l-0.5-0.2l-0.5,0.7l-0.5,0.2l-0.7-1.2l-0.5-0.2l-1,0.2l-2,0.7h-1h-0.2
	l-0.5-0.5l-0.2-0.2l-0.5,0.2l-0.7,0.5h-0.5l-0.5-0.2l-0.7-1.5l-0.7-0.5h-0.7l-2.4-0.2l-0.2,1l-0.7,0.2h-0.5l-0.7-0.7h0.5l0.5-0.5
	v-0.5l-0.2-0.2l-0.5-0.2l-1,0.5h-0.5l-0.2,0.5v0.5l0.2,1.2l-0.7,0.2h-0.5l-0.5-0.2l-0.5-0.2l-0.2-0.5l-0.5-1.2l-0.2-0.5l-0.7-0.5
	l-0.5,0.2l-0.7,0.2l-1-0.2l-3.2-1.7l-1.5-0.2l-0.5-1.5v-1.2l0.2-1l0.7-1.2l1,0.2l0.7-0.2l0.2,0.2v0.7l0.2,0.5h1.5h1.2h0.7l0.7-0.5
	l0.7-0.5l0.5,0.2h0.5l1.2,0.5l1-0.7h0.5l0.2,0.7l0.5,0.5l0.7-0.7l0.5-0.5l0.2-0.5l-1.7-0.7l0.2-2.2l0.2-1.7l0.2-3.4l-0.7-2.9
	l-1.2-1.2l-0.5-2.9l1.2-1.7l1-0.2h1.5l0.5-0.2l0.2-0.2l0.2-1l0.2-0.2l1-0.7l1.5-0.7l0.7-0.7l4.7-4.7l1-0.7l4.7-1.7h1l1.7,0.7l3.9,1
	l2.2,0.5l0.7,0.5l1,0.5l1,0.5l2.2,0.2l2,0.7l2,1.5l1.5,2L626.1,543.4L626.1,543.4z M669.2,542.9l-1,0.2l-0.5-0.2l-1.7-1l-0.5-0.7
	v-0.2l0.7-0.7l0.7-2v-0.7l-0.7-0.7l-0.7-1l-0.2-2.2v-0.7l0.5-0.5l0.2-0.5l2.9-1.5l0.7-0.2l5.4,0.2l1,0.5l0.5,0.5l0.2,0.5l-0.2,0.5
	l-0.2,0.2l-1,0.5l-1.5,1.5l-1,1.5l-2.9,5.9L669.2,542.9L669.2,542.9z M751.5,536l-1.2,0.5h-1.5l-1.5-1.5v-2.4l1-2.2l2.4-1l1.5,1l1,1
	l0.2,1.2l-0.5,1.7l-0.7,0.7L751.5,536L751.5,536z M691.5,527.7l0.2,0.5h0.5l0.5-0.5h0.5l1,0.2l2.7,0.2l2.2,0.2l2,1.2l1,2l0.2,2.2
	l0.2,1l0.2,0.5l0.2,0.5l1.7,2.2l1.2,2.2l0.5,0.5l0.2,0.2l0.7-0.5l1.7,1.7l0.5,0.2l0.7-0.2l1-0.5l1-0.7l1.5-1.5l0.5-0.5v-0.5l1-0.5
	l0.5-0.5l0.7-1.2l1.2-0.5l1.2-0.2l0.7,0.2l0.5,0.2l1,0.7h0.7h2l0.5,0.2l1,0.5l1.7,0.2l0.5,0.2l0.7,0.7l1.7,3.7l-0.2,1l-0.2,1.2
	l-0.2,2.4l-1.2,3.7l-0.2,0.7l0.7,0.5l0.7-1l0.7-1l1-2.2l0.7-1v-0.7l-0.5-1.2v-2l0.7-1.7l1.2-1.2l1.2-1l1.7-0.7l2.7-0.2h2.4l2.2,0.2
	l1.2,0.5l1,0.2l0.5,0.7l0.2,1.2l0.2,1.5l0.7,2.4l1.5,2.9l-0.2,2l-0.7,2.2l0.5,1.7l-0.2,1.5l0.2,1.2l0.7,0.7l1.2,0.5l0.7-0.2l1-0.5
	l1-0.5l0.7-0.5v-0.5l-0.5-0.7l1.2-0.2l0.2-0.5v-0.5v-0.5l0.5-0.5l0.5,0.7l1,1.2l0.2,0.7l-0.7,0.5l0.2,0.5l-0.7,0.5l-0.2,0.5v0.7
	l0.2,0.7l0.2,0.7l0.2,0.7l-0.5,0.5l0.2,0.7l-1,0.5l-0.7,0.5l-0.7,0.2l-1-0.5v0.7L752,563h-0.5l-0.5-0.5l-0.7-0.2h-0.7l-0.5,0.2
	l-3.4,0.5l-1-0.2l-1.5-1l-1-1.7l-0.5-0.5h-1l-0.2,0.2l-0.2,0.5l-0.5,0.5l-1.2,0.5l-2.2-0.7l-1.2,0.7l-1.5-0.7l-1,0.5l-1,0.7l-1.5,1
	l0.7,0.2l0.7,0.7l0.5,0.2l0.5,0.2h4.2l4.4,0.7l1,0.2l0.5,0.5l0.2,0.5l0.5,0.7v0.2l-0.2,0.5l-0.5,0.2l-1.5,0.2h-0.5l-1.2-0.2H739
	l-0.7-0.5l-0.2,0.2l-0.7,0.5H737l-0.5-0.2l-2.2-1.7l-1.2-0.7h-2.2l-2.4,0.5l-10.8,2.9l-2.7-0.5l-1.5-3.2l0.2-1.5l0.7-1l1-1l0.7-1.5
	v-0.7l0.2-1l-0.2-0.7v-0.7l-0.5-0.7l-0.5-0.7l-0.2-1v-1l-0.7,0.7l-0.2,1.2l0.2,2.4l-0.2,0.5l-1,0.5l-1.2,0.2l-0.7,0.2l-1.5,2
	l-0.7,1.7l-0.2,0.2l-0.5,0.5h-0.5l-6.4,5.1l-0.7,0.2l-1.2-0.5l-1.2-0.7l-1-0.2h-0.5l-1.7,0.7v-0.2l-0.7-0.2l-0.2,0.7l-0.5,0.2
	l-0.5,0.7l-5.9,2.9l-0.5-0.5h-0.5l-0.7,0.2l-0.2-0.2l-0.5-1l-0.2-0.2h-0.7l-0.5,0.2l-0.5,1l-1,0.2H681h-0.2l-1.2-0.5l-0.5-0.7
	l-0.7,0.2l-0.7,0.2l-2.2,1l-5.9,3.4l-2.2,1l-6.9,2l-2.9,0.2l-1.7-0.7l-1.5-0.2l-2.4-1h-1.7l-1.2,0.5l-1,1.5l-0.5,1l-1,0.7l-2.9,0.5
	l-3.2,0.5l-1-1.2l-1.2-0.7l-1-0.7l-1.2,0.2h-1l-3.2-1l-1-0.2l-1.2-0.2l-1.7-1.2h-0.7v-0.5l-0.7-1.2l-1-1l0.2-1l0.7-1.2l-0.2-1
	l-0.5-1.7l1.5-1.2l0.7-1.2l2.2-0.5l0.5-1l-0.2-0.7l-1-0.7l-0.2-1l-0.5-0.5l-1,0.2l-0.2-0.7l0.2-1.7V559l-1.2-0.7l2.2-4.4l2.2-0.5
	l0.5-1.2v-2.4l1,0.7l0.5,0.2h0.7h0.5l5.1-1.7l2.4-1.5l3.2-2.2l1.7-1.2l-0.5-1l1.2-0.7l2-0.2l1-0.5l1.2,1.5l0.7,0.2h1.7l0.5,0.2
	l0.7,0.5l1.7,0.7l2,1.5l4.2,2l-0.2-1l0.2-0.5l0.2-0.7l0.2-0.5v-1l0.2-0.2l0.5,0.2l0.7,0.2h2.7l1.2-0.2l0.7-0.5l0.5,1l0.5,3.4l1,1.5
	l0.2-1v-2.7l0.7-0.7l0.5,0.5l0.5,1l0.2,3.7l0.2,0.7l0.5,0.7l2.7,1.2l0.5-0.2l0.5-0.2l0.7-0.2l0.5,0.2l-0.2,0.7l1,0.5l0.7,0.7
	l-0.2,0.5v0.5l1.2,0.2l0.2,0.5h-0.7l-0.7,0.2l-0.5,0.2l0.5,0.7l0.7,2l0.5,0.7l1,0.5h1l3.2-1h0.5l0.2,0.5l0.2,1h0.7l1,0.2l1,0.2
	l0.7,0.7l1.2-1l2.2-2.4l0.7-0.5h0.2l1-1.2l2.9-0.5h1.7h0.5l1,0.7h0.5h2.7l1.2-0.2l0.7-0.7l0.5-1v-1l-0.5-1l-0.5-0.7l-1-0.2l-0.5-0.7
	l-0.5-0.2l-0.2,0.2l-0.5,0.5l-0.7,0.7l-0.7-1.5l-2.4-2l-0.7-1.5h-0.2l-0.7,0.5l-0.7-0.2l-1.5-1.7l-0.7-0.5l-1.2,0.5l-1.7,0.7h-0.7
	l-1-0.5l-1-0.7l-0.7-1l-3.2-1.7l-2.9-2.4l-0.7-0.7l-1.2-2l-1-0.7l-1.5-1.2l-0.5-0.7l-0.5-0.5l-0.5-0.2l-0.5-0.5l0.2-1.5l0.5-1.5
	l0.5-1l0.7-0.5l0.5-0.2h0.7l1.2-1h0.5l0.7-0.2l4.4-1.7l1.2-0.2h2.2l0.5,0.2L691.5,527.7L691.5,527.7z"/>
</svg>
