<?xml version="1.0" encoding="utf-8"?>
<!-- Generator: Adobe Illustrator 25.4.1, SVG Export Plug-In . SVG Version: 6.00 Build 0)  -->
<svg version="1.1" id="Layer_1" xmlns="http://www.w3.org/2000/svg" xmlns:xlink="http://www.w3.org/1999/xlink" x="0px" y="0px"
	 viewBox="0 0 1080 1080" style="enable-background:new 0 0 1080 1080;" xml:space="preserve">
<path id="IDN1185" style="fill:#7D7D7D;stroke:#FFFFFF;stroke-width:9.5866;stroke-linecap:round;stroke-linejoin:round;" d="
	M1033.7,277.3l3.4,1.9l1.4,1.4l-0.5,1.4l-1.4-1l-3.4-2.4h-1l1,1.4l1.4,3.4l2.9,3.4l1.4,1.4l1.4,1v1l-2.4-0.5l-1.9-1.4l-2.4-2.4
	l-1-1.4l-1.4-1.9l-1-3.4v-2.4l2.4-1L1033.7,277.3L1033.7,277.3z M923.5,173.3l-0.5,1.4h-0.5l-1.9-0.5h-3.4h-1l-1,0.5l-1,1h-1l-1.9-1
	v-1.4l0.5-1.9l1.4-1.4l1.9-1h1.9l1.9,0.5l3.4,1.4l1,1L923.5,173.3L923.5,173.3z M936.9,178.6l-1,1l-1.4-0.5l-0.5-1.9l-0.5-1.9
	l-5.8-2.9l-1.4-1.9l-1.4-2.4l-1-2.4l-0.5-2.9l1.4-2.4l2.4-1h6.2h1.4l1.9,0.5l1.4,0.5l1,1.4v1.4v2.4l-0.5,2.4l-1.4,2.4l0.5,6.2
	L936.9,178.6L936.9,178.6z M961.3,156.1l-0.5,1.4l-1.4-0.5l-5.3-3.4l-0.5-1.9l-3.8-2.9l-0.5-1.9l0.5-2.9l1.9-1l2.4,0.5l2.4,1.4
	l1.4,1.4l1.4,2.4l1.4,1.9l0.5,2.4v1L961.3,156.1L961.3,156.1z M921.1,152.7l1,0.5v1v1l-1.9,2.4l-4.3-1l-8.6-3.4h-9.1l-1.4-0.5
	l-1.9-0.5l-1.4-1l-1-1l-1-1l-0.5-1.4v-1.4l1-1l1.9-1.9l1.4-0.5h1l1,0.5l1.9,1.4h1.4l8.6,1l1.9,1l2.4,3.4l1.9,0.5l1,0.5l2.4,1
	L921.1,152.7L921.1,152.7z M947.9,113.9l2.4,1l1.9,1l2.4,1.4l1.4,1.4l1,1.4l-0.5,1.4h-1.9l-1.9-0.5l-2.9-1.4l-1.4-1.4l-2.4-2.9l-1-1
	l1.9-0.5C947,113.9,947.9,113.9,947.9,113.9z M941.7,101.9l-4.3,0.5L933,99l-2.9-4.8l1.9-4.8l3.4-3.4l1.4-1l1.4,1l2.9,2.9l4.3,2.4
	l1,1v2.9l-1,2.9C945.5,98.1,941.7,101.9,941.7,101.9z M941.7,83.7l3.4,0.5h12h5.8l0.5,1.4l0.5,4.8l1.9,3.8l-3.4,2.4l-1.4,1h-1.9
	l-3.4-1l-1.9-2.9l-5.8-3.4L945,87C945,87,941.7,83.7,941.7,83.7z M823.8,763.4h-0.5l-10.5-3.4l-7.7-1.4l-24.4-1.4l-2.9-1l-9.1-0.5
	l-1.9-0.5l-2.9-1.4l-1.4,0.5l-1,0.5l-1.9,1.9l-1.4,0.5l-1.9,1l-1,0.5v1.4l-0.5,1l-1.4,0.5l-2.4,1l-0.5-0.5l-0.5-0.5l-1.4-2.4l-1-6.7
	l-2.9-7.7v-1.9l0.5-7.7l1.4-4.3l-1-1.4l-1-0.5l-3.4-0.5l-1.9-1L738,726l-1-2.9v-2.4v-1.4l0.5-1.4l0.5-1.9l-0.5-12.5l-4.8-11
	l-0.5-2.4l-0.5-2.4l-0.5-1l-1.9-1.9l-1-1.4v-1.4l-0.5-3.4l-1-1.4l-1-1h-1.9l-4.8-0.5l3.8-5.3l2.4-2.4l1.4-1l1-1h2.9h1.4l1.4,0.5
	l1.4-0.5l1.4-1.4l1.9-2.9l5.3-9.6l0.5-2.4l0.5-5.3l0.5-1.4l-1.4-12.5l-1.9,0.5l-1.4,0.5l-1.4,1h-1h-1l-1.4-1.9l-1-1.4l-2.4-1.9
	l-0.5-1l-1-1.9l-0.5-1.4l-1.9-1.9l-1.4-1l-1.4-1l-2.4-0.5l-3.4-1.4l-3.4-1l-1.4-0.5l-1-0.5l-5.3-4.3l-0.5-1.4l-0.5-1.4l0.5-1
	l-0.5-1.9l-0.5-1.4l-3.4-4.3l-0.5-1.4l-2.4-12.5l-0.5-3.8v-1.9l-1-1.9l-5.3-7.2l-1.9-3.8l-1-3.8l-0.5-1.9l-0.5-5.3l-0.5-1.9
	l-1.4-3.8v-1.9l0.5-7.7l0.5-3.8l1-1.9l2.9-4.8l0.5-2.4l1.4-7.2l0.5-1.9l0.5-1v-1l-1-1l-3.4-0.5l-3.4-1h-1l-1.4,0.5l-2.4,0.5h-1.4
	l-2.9,1.9l-8.1,9.6l-1,1.4l-1.4,1.9l-1,0.5l-2.9,1.4l-1,0.5l-3.8,3.8h-1.4l-1-1.4l-0.5-1l0.5-1.4v-1.4v-1l-1-1.4v-1v-1v-1.9l1.9-5.3
	l3.4-8.1v-1v-1.4l-0.5-1.4l-0.5-1.4l-1-1.9l-2.4-3.8l-0.5-1v-1v-2.9V494l-0.5-1l-1-2.4l-0.5-1.4l-0.5-1.4v-2.9l0.5-1.4l1.4-3.8
	l5.8-12l1-1l2.4-2.4l1.4-1l0.5-1.4l0.5-1.4l-0.5-1l-1-2.4l-0.5-1.4l-0.5-4.3l-0.5-1l-1-1.4l-1-1.9l-0.5-1l-1-1l-2.4-1l-0.5-1l-1-1.4
	l-0.5-1h-1.4l-1.9-0.5l-5.8,0.5l-1.4,0.5l-0.5,0.5l-0.5,1.4l-1,1l-2.9,0.5l-4.8,1l-5.3,1.9l-2.9,1.9l-2.4,1.9l-1.9,1.4l-29.7,3.4
	h-1.9l-1.9-1l-7.7-1l-1.9-0.5l-1.4-1l-2.4-1.9l-1.4-0.5l-1.9-0.5l-4.8-0.5l-4.3,0.5h-4.3h-1.9l-1.9,1l-1,1l-1.4,1.4l-1,1l-1.4,0.5
	l-4.3,0.5l-1.9,0.5l-4.3,1.9H541l-5.3,1l-2.9,1l1.4-3.8l0.5-1l1.4-1.9l1-0.5l2.4-1l1-1l2.4-3.8l3.8-3.8l1-1.9l0.5-2.4V436l0.5-1.9
	l0.5-1.9l1-2.4l0.5-1.9v-1.9l-0.5-1.4l-1-1l-1-0.5h-1l-1,0.5l-2.4,0.5h-1l-1-0.5l-0.5-1v-1l0.5-2.4v-1.9v-1.4l0.5-1l1.9-1.9l1.4-1
	l4.8-2.4l3.4-2.4l2.9-1.4l1-0.5l10.1-8.6l1-1l2.4-1l2.9-2.4l1.9-1.4l1-1l0.5-1.4l0.5-2.4v-1.9l-0.5-1.4l-1.4-1.9v-1.9v-1.4l1.4-8.1
	l0.5-1.9l15.3-6.2l1.9-0.5h2.4l2.4,1.4l8.1,5.8l2.4,1l2.4-1l1.9-1.4l0.5-1.9v-2.4l-0.5-1.9v-2.9l1-1.4l3.8-3.4l1.4-1.4l2.9-4.8
	l1.9-5.3l1-7.2v-3.4l-1-2.9l0.5-1l0.5-1l1-1l1-1h1.4l5.3-1l5.8-2.4l1.4-1l0.5-1.9l-0.5-2.4v-1.9l0.5-1.4l0.5-2.4l0.5-1.4v-1.4
	l-0.5-1.4l-1-0.5h-2.4l-1.4,1h-1.4l-1-2.4v-1v-3.4l-0.5-1l-1-1.9l-0.5-1v-1.9l1-5.8l1.9-3.8l2.9-1.9l8.1-1l2.9-1l0.5-1.4v-1.4
	l-0.5-2.4l1-1.9l1-1l4.3,0.5l1.9-1.4l4.3-3.8l1.9-0.5l1.4-1l3.8-4.8l2.4-1.4l4.8-0.5l2.4-0.5l1-1.9v-1.9l-1.4-2.4l-1.4-2.4l-1.4-1.9
	l-1-0.5l-1.4-1h-1.4l-1-0.5l-1.4,0.5l-1.9,1h-1.4l-1.4-1.4v-1.9l1-2.4l0.5-2.4v-1l-1.4-1.9v-1l0.5-1.4l2.4-0.5l1-1l1-2.4l-0.5-1.9
	l-2.9-3.8l-0.5-1.4l0.5-0.5h1l1-1.4l1-1l1-3.4l1.4-2.4l1.9-1.4l5.8-4.3l1.4-1.4l1.9-3.4l1.4-2.9l1.4,0.5l2.9,3.8l2.9,1.4l3.4-0.5
	l6.7-2.9l4.3-0.5l1.4-1l1-1.9l0.5-4.3l0.5-1.9l3.8-4.8l-0.5-1l-1.4-0.5l-1.4-1.9v-1.9l3.4-15.8l1.9-4.8l2.4-1.9h1l1.9,0.5h1l0.5-1.4
	v-1l-1-1.9l-1.4-3.4l-0.5-1.4v-1v-1.9v-1l-2.4-6.7l-0.5-2.4v-3.8l0.5-4.3l4.3-12l-0.5-3.8l-1.4-1.4l-1.9-1l-1.4-1.4v-2.4l0.5-1
	l3.8-1.9l1-1l1.9-4.3l1.4-4.3l1-9.6l1.4-3.8l1-1l1.9-1l1.4-1.4l4.8-4.3L737,76l1,1l1,0.5l1.4-0.5l1-2.4l3.8-3.4l0.5-2.9v-3.8l1-2.9
	l1.4-1.4l1.4-0.5l0.5,1l0.5,1.9l1.4,1.4l1.9,0.5h4.3l2.4,1l1.4,1l0.5,0.5l0.5,1.9l0.5,1.9l1.4,1l1.4,0.5l1.4-0.5l4.8-4.8l1.9-1.4
	l1.4-1l0.5-1l1-2.4l1,0.5l1.4,0.5h2.4l4.3,1.4h1.4l3.4-1l2.9-1.4l2.4-0.5l2.9,2.9h1.4h1V64l0.5,1.4l2.9,4.3l1,0.5l1,0.5l1-0.5
	l2.9-2.9h1l1,0.5l1.9-0.5l1-0.5l-0.5-1.4l-0.5-1l1-1.9l2.4-1.9l0.5-1.4h1.4l4.3,6.7h1.4l2.4-1l2.9,1h1.9l1.9-1l3.4-2.4h1.9l3.8,2.9
	l3.8,1l8.6-1.9h3.8l6.2,1.9l19.2-0.5l1-0.5L888,64l1.4-0.5l1.4,0.5l1,0.5l1.4,1.9l3.8,2.9l8.1,4.3l6.2,6.2l2.4,1.4l2.9,1l3.4,0.5
	h1.9h2.9l1.4,0.5l1,1l-1,0.5l-2.9,2.9l-1,0.5h-1.4l-13.9-4.8l0.5,1.9l1,0.5l1.9,1v1l-1,1.9v1l1.4,0.5h2.4l1.9,0.5l1.4,1l1,1.4
	l-0.5,1.4v1l1,0.5l1-0.5l1-0.5l1.4-0.5l1,0.5l9.6,9.6l1.4,1l3.8,1l1.4,0.5l1.4,1.4l-0.5,1l-1.4,1.4h-2.4l-2.4-0.5l-3.8-2.4l-1.9-1
	l-4.8-0.5v1h2.9l2.9,1.4l2.4,1.9l1.9,1.9l1.4,0.5h1.9l1.4-0.5l1.4-0.5l1,0.5l2.9,1.9l0.5,1l5.8,5.3l0.5,1.4v1l-0.5,0.5h-1.9
	l-6.2-0.5l1.4,1.4l1.9,1l4.8,1.9l4.3,0.5l1,1l-0.5,1.9l-1,1l-2.9,1.4l-1,1.4l-1.9,2.4l-1.4,1l-10.1,0.5h-2.4l-3.8-2.4h-2.4l-1.9-1
	l-1.4-2.4l-1-2.4l-1.9-2.9v-1l-0.5-2.4l-0.5-1l-1-0.5l-1.9-1l1.4,2.9l1,5.8l0.5,1.4l1.4,1.9l1.4,2.9v2.4l-1.4,1.9h-1.9l-4.3-2.4
	l-2.4-0.5H900l-8.6-1.4l-13.4,0.5l-3.8,1.4l-2.4,3.8l2.4-1.4l2.9-1l3.4-0.5h5.8l2.9,0.5l1.9,1.4l-1,2.9l-1,1.9l1.4,2.9l1.4,2.4
	l1.9,1.4l1,0.5l3.8,1l1.4,1l1,1l1.4,2.4l1.9-1l2.9-0.5l3.4,0.5l2.4,1l1,0.5h1v0.5v2.9v1.4l-0.5,1.4l-1,1l-1.9,1l-1,1l-1.4,1.9
	l-2.4,2.4l-0.5,1v4.3l-0.5,1l-1.4,1.4h-1.4l-1.9-2.4l-3.4-1l-1-0.5l-1,0.5v1l1,1.9l1,1.4l7.7,3.8l1.4,1h2.4h3.8l2.4,0.5l0.5,1v1.9
	v1.4l2.9,2.9l3.8,0.5l4.3-0.5l4.3,1l1.4,0.5l0.5,1.4l1,1l0.5,1.4l-0.5,1l-1.4,1h-1l-1,1l-2.4,3.4l-1,1l1.4,0.5l2.4-0.5l1.9-0.5
	l1.4-1h1.9l2.4,1l1,1.4v1l-1.9,0.5l-3.8,1.9l-1.9,0.5l-7.2,1v0.5h2.4l7.7,1.4L945,215l-1.4,1.9l-1.9,0.5l-2.4,1l-1.9,1l-3.8,2.9
	l-1,1l1.4,1.4l4.3,1.4l4.3,0.5l3.8,1l3.4,2.9l1,1.4l0.5,1.9l0.5,7.2l0.5,1.9l1,1.4l1,1.4l4.3,3.8l1.4,2.4l10.1,8.6l1,1l1.4,2.4l1,1
	l1.4,4.3l1.4,1.9l1-1.4l1.9,1.4l1.9,2.9l1.4,3.4l0.5,2.9l-1,1.9l-3.4,4.3l-1.4,1l-7.2,1.9l-2.4,1l-1.4,1.9v1.9l-0.5,2.4l-1.9,1.4
	v1.4h-3.4l-6.2-1.4l1.9,1.9l3.8,2.4l1.9,1.9l-3.8,1l-3.8,0.5l-3.4-0.5l-3.8-1l-1.4,0.5l1,1.4l1.4,0.5l3.8,0.5l1.9,0.5l1.4,1l1,1.4
	l1.4,1l1-0.5h1v4.3l-0.5,2.4l-1,1l-0.5,0.5v1.4l0.5,1l1,0.5h1.4l1,1l1,1.9l1,1.9l1.4,1.9l1.9,0.5l2.4,0.5l1.4,1l1.4,1l1.4,0.5h2.9
	l1,0.5l0.5,1l-0.5,1.9v1l1,1l7.7,8.6l5.8,2.4l9.1,7.2l4.3,1.9l4.3,1l1.4,1l2.9,2.9l2.4,0.5l0.5,0.5l-0.5,1.4l-1.4,1l-0.5,1l0.5,1
	l1,0.5h2.4l1.4,0.5v1l0.5,2.4v1h1l1-1l1.9,1l3.4,2.4h1l4.8,0.5l3.4,1.4l6.7,7.7l3.8,1.4l1.4,1.4l2.9,2.4l2.4,2.9l0.5,1.9v0.5
	l-1.4,0.5l-0.5,1l3.4,1.4l1.4,1l1.4,2.4l3.4,6.2l2.4,0.5l1-0.5l0.5-0.5l1.4-1.4h1h1.9l5.3,1.9l1.4,1l0.5,1.4l-0.5,2.4v1l1.4,1.4v1.4
	l-1,1.4l-3.4,2.9l-1.4,2.4l-1.9,1l-7.7,3.4l-1.4,1.4l-1,2.9l-1.4,1l-1.4,1l-1.9,0.5h-2.4l-1-0.5l-2.4-1.4l-2.4-0.5l-1.4-1l-1.9-1
	h-2.4l-2.4,0.5l-5.8,2.9l-1.9,1h-1.4l-1-1l-1-0.5l-1.9-0.5l-4.3-1.4h-4.8h-1l-1,1.9l-1,0.5l-1,1h-1l-1.4-0.5l-1.4-1.4l-1-1.4
	l-1.4-1.4l-1.4-1l-13.4-1.4l-6.2-1.9l-3.4-1.4l-2.9-2.4l-2.4-2.4l-1.9-3.4l-2.4-6.7l-1.4-2.9l-1.4-1l-4.3-2.4l-0.5-1l-0.5-0.5h-1.4
	l-1,0.5l-1,0.5l-0.5,1l0.5,1l1,1.9l3.4,3.8l0.5,1l3.8,4.8l0.5,1.9l0.5,4.3l1.9,3.4l1.4,1l0.5,1l1,1.4v1.9l0.5,2.4l-0.5,1.9l-1,1
	l-1.9,0.5h-1l-1.4-0.5l-1-0.5l-1-1.9l-1-1l-1.4-1l-1.4-0.5h-1.4h-1l-1.9,1.4H957l-2.4,0.5l-1.9,1l-2.4,1.9l-4.8,5.3l-1.4,2.9
	l-0.5,6.2l-0.5,1.9l-2.4,1.9l-1,1v1l-1,2.4l-0.5,1l-5.3,6.7l-1,2.4l0.5,1l1,2.9v1l-1,1l-1,0.5l-2.4,1.4l-1.4,1.9l-1.9,3.8l-3.8,6.2
	v1l1,1.9v1.9v1.9l-1,1.4l-2.4,2.4l-1,1l-0.5,1.4l0.5,1.4h0.5l1.9,0.5l1,1l-1,0.5l-2.4,1l-1,0.5l-0.5,1l0.5,2.4v2.4v1h1h1l0.5,0.5
	l-1,1.4l1,0.5l1,0.5l1,1.4l1,1l0.5,2.4v1.4l-0.5,1l-1.4,1.9l-0.5,1l-1.9,1.9l-0.5,0.5l-1.4,3.8l-0.5,1.4l-0.5,4.3l-0.5,2.4l-2.4,3.4
	v2.4l1,1.9l1.4,2.9l1.9,2.4l1,0.5h1l0.5,1.4l-0.5,2.4l-0.5,1.4l-2.4,2.4l-1,1.9v1l1,1.9l-0.5,2.4l-1,2.4l-1,1.4v1l3.4-1.4l12.5-9.1
	l2.4-1l1.4,0.5l1,1.9l-1,1l-1.4,1l-1.4,1.9l-3.4,1l-1.4,1l-0.5,1l3.8,1l1,1v4.3l-0.5,1.4l-1.4,2.4h-0.5l-3.4,0.5l-1.4,0.5v0.5l1.9,1
	h1.9l1,1l-0.5,1.9l-1.4,1l-1,1l-1,1l1.4,1.4l-1.4,0.5H923l-2.9-0.5l-1.4,0.5v0.5l0.5,0.5l1,0.5l2.4,0.5l5.8,1.4l2.9,0.5h1l1,1
	l0.5,1.4v1.4L933,599l-1,0.5l-2.9,0.5h-1.9l-1,0.5l-1.4,1.4l-0.5,0.5l-5.3-1.4l0.5,2.9l-3.8-1l-1,2.4l0.5,2.4l-0.5,1.4h-1.9
	l-1.4-0.5l-2.4-2.9l-1.4-1l-0.5,1.9l-1,2.4l-1.4,1.9l-1,0.5l-1-1V609v-2.9l-0.5-1l-2.9-2.9l-1.9-0.5l-1.4,1.9l-1,2.9v2.9l-1,2.9
	l-1.4,1.4l-4.3,2.4l-2.9,3.4l-10.5,14.9l-2.9,1.4l-0.5,2.4l-0.5,2.4l-0.5,1.9l-1.4,1.4l-2.9,1.4l-2.4,1l-11,2.9h-2.4l-1-0.5
	l-0.5-1.4v-2.9l1.4-1.4v-1l-1.4-1l-0.5,0.5l-0.5,1l-1,1.4l-0.5-1.4v-3.4l-0.5-1L842,633l-0.5-2.4l1.4-6.7l-1.4,0.5l-1.4,1.9l-1,2.9
	l-0.5,5.3l0.5,1.4l3.4,3.4l0.5,1.4v0.5l-0.5,1.4L841,644v0.5l4.3,1.4l1,0.5l0.5,0.5l-0.5,1.4l-1,1.9l-1.4,1.4l-0.5,1l0.5,4.8
	l-0.5,2.4l-2.4,1h-1.9l-11.5,4.8l-4.3,2.4l-2.9,3.8l-0.5,4.3l1,1.9l1,1l1,1.4v1.9l-0.5,2.4l-1.9,1.9l-2.4,1l-9.1,2.9l-3.8,2.4
	l-4.8,1l-2.4,1l-5.3,4.8l-1,1.4l-3.4,1.4l-1,1.4l2.4,1.4l1.4,0.5h2.9l2.4-1l1.4-1.9l0.5-0.5l2.4-0.5h0.5l1,0.5h1l0.5-1l2.4-0.5
	l2.4,0.5l1.9,1l0.5,1.9l-1.4,2.9l-1.9,2.4l3.8,3.8l1.4,2.4l-1.4,5.3l1,6.7l-0.5,2.4l-1.9,2.4l-1,1l-7.2,1.9l-2.4,1.4l-2.4,2.4
	l-2.4,1.9l-1,1.9h1l4.8-2.4l3.4-1l1.9,1.9l0.5,3.8l1.9,1.4l2.9-0.5l6.7-3.4h1.4h1.4l0.5,2.9l1,1.4h1l1.4-1l1.4-1.4l1.9-0.5l0.5,1.4
	v2.9L823.8,763.4L823.8,763.4z"/>
<path id="IDN1228" style="fill:#7D7D7D;stroke:#FFFFFF;stroke-width:9.5866;stroke-linecap:round;stroke-linejoin:round;" d="
	M10.8,696.3L7,696.7l-4.8-1l1.4-1.4l3.4-0.5h3.4l2.4,1L10.8,696.3L10.8,696.3z M31.9,681.4l0.5,1.4l-0.5,1.9l-0.5,1.4l-1,1l-1.9,1
	l-6.2,2.4l-1.4,0.5l-2.9-0.5l-0.5-1.9v-1v-1l0.5-1l0.5-1l-0.5-1l-0.5-1l-0.5-0.5h-1.9l-1-0.5l1.4-1.4l2.4-1l4.8-1l1-0.5l1-1h0.5
	l1.9,0.5l1,1l2.9,1.9L31.9,681.4L31.9,681.4z M54,650.7l-3.4,3.4h-0.5l-0.5-1.4h-0.5l-1.4,0.5h-1h-0.5v-1l0.5-1l1-0.5h1.9l1-0.5
	l1.9-1.9h1l1,1L54,650.7z M60.2,645l-1.4,0.5l-0.5-1l0.5-2.4l0.5-0.5l1.9-1.9l1-0.5l1,0.5l0.5,1.4l-1,1.4l-0.5,1L60.2,645L60.2,645z
	 M99,619.1l3.4,1.9l1.9,1h1.4l1.4-0.5l1-1l1-0.5h1.9l1.4,1.4l1.4,1.4l1,1.9v7.7l0.5,0.5l1.4,1.4v1v1l-1,0.5l-2.4,1l-4.8,3.8
	l-1.4,0.5l-1.4,0.5l-7.2,2.9l-3.4,1.9l-3.8,1.4l-3.4,3.4l-2.4,0.5l-1.4-0.5l-1.9-1.4l-2.4-1.4l-0.5-1v-2.4l2.4-6.7l1-17.3l1-1.9
	l1.4-1l1.9,0.5l3.4,1h1.9h1.4l1.9-1.9h1.4L99,619.1L99,619.1z M577.9,367.4l-0.5,1.9l-1.4,8.1v1.4v1.9l1.4,1.9l0.5,1.4v1.9l-0.5,2.4
	l-0.5,1.4l-1,1l-1.9,1.4l-2.9,2.4l-2.4,1l-1,1l-10.1,8.6l-1,0.5l-2.9,1.4l-3.4,2.4l-4.8,2.4l-1.4,1l-1.9,1.9l-0.5,1v1.4v1.9
	l-0.5,2.4v1l0.5,1l1,0.5h1l2.4-0.5l1-0.5h1l1,0.5l1,1l0.5,1.4v1.9l-0.5,1.9l-1,2.4l-0.5,1.9l-0.5,1.9v2.4l-0.5,2.4l-1,1.9l-3.8,3.8
	l-2.4,3.8l-1,1l-2.4,1l-1,0.5l-1.4,1.9l-0.5,1l-1.4,3.8l-2.4,1.4l-1.9,2.4l-2.4,1.4l-1,1l-1.4,3.8l-1.4,1.9l-1.4,1.4l-1.4,1.9
	l-1,1.4l-0.5,1.9l0.5,3.4l-1,2.4l-0.5,1l-1.4,0.5l-1,0.5l-1.4,0.5l-3.4,2.9l-1.4,1h-1H505h-1.9h-1.4l-3.4-1.4h-1h-1.9l-1.9,1l-4.3,1
	l-3.4,1.4l2.9,3.8l1.4,3.8l1.4,1l3.8,2.9l1.4,1.9l2.4,5.3l0.5,1.4v2.9l1.9,7.2l0.5,1.9v1l-0.5,0.5l-2.9,5.3l-1.9,3.8v2.4l-0.5,1
	l-1,0.5L494,539l-1,0.5l-1,1.4l-1.4,1l-1.4,0.5l-1.9,0.5l-1.4,1l-5.8,5.8l-1.9,3.4v0.5v1.4v1l0.5,1l1.9,0.5l1,1l0.5,1l1.4,2.4v1.4v1
	l-1.9,4.3l-1.9,5.8l-1,1h-1.9l-1-0.5l-1.4-1l-1.9-1.9l-1.9-3.8l-1-1l-1-0.5h-0.5l-1,0.5l-2.4,1l-1.4,0.5l-0.5,0.5l-1.4,1.9l-0.5,1
	l-2.9,0.5l-1-0.5l-2.4-0.5l-2.4,0.5L447,574l-2.9,1.9l-3.4,1.4l-10.5,3.8l-3.8,2.4l-18.2,7.2l-1.4,0.5h-1.4l-2.9-1H401l-1.4,0.5
	l-2.4,1.4l-9.6,3.8h-1.4h-1.4l-2.4-0.5l-1.4-0.5H378l-5.3-1h-12.5h-1.4l-1,0.5l-0.5,1l-0.5,2.4l-2.9,2.4l-9.1,2.9l-11.5,7.2
	l-4.3,2.4l-1.4,0.5l-5.8,2.9l-10.1,7.2l-2.4,1.9l-3.4,4.3l-0.5,1l-0.5,1.4v1.4l1,2.9v1.9l-1,1.4l-1,1.4l-3.8,1.9l-5.3,1.9l-1.9,1.9
	l-5.8,2.9l-2.9,1.9l-1.9,1.9l-1,0.5l-1.4,1.9l-2.4,4.3l-3.4,2.4l-2.4,1l-2.9,1.9l-2.4,1.9l-3.4,4.3l-1.9,1.4l-3.8,3.4l-1.4,1h-1
	l-1.4-1l-1-0.5h-2.4l-1-0.5h-1.9l-2.4,1l-3.8,2.4l-1.9,1.4l-2.4,2.9l-1.4,1.9v1v1l1,1.4l1,1.4l1,1h1.4l1.9-0.5l1-1h1.4h1l0.5,1
	l0.5,1v1.4l-1,2.9v0.5l1.4,1.4l1,1.4v1.4l-1,3.8v1.9v1.9v3.8l-3.4,12v1.9v7.2l1,2.9l1,2.9l12.9,29.2l0.5,1.9l-1,3.8l-0.5,2.4v9.6
	l0.5,3.4l0.5,1.4l0.5,1.4l1,1l1,2.4v1.4v1.4l-0.5,1.4l-1,1.4l-1,1l-1.4,1l-5.8,2.4l-1.4,1l-1.4,1.9l-1.4,4.3l-1.4,2.4l-1,1l-0.5,0.5
	l-4.3,1.4v-0.5l-2.4,0.5l-3.8,2.4l-1.9,1l-5.3,1.9h-1.9l-1.9,1l-1.4,1.4l-8.1,11l-3.8,1.9l-3.4-2.9l-0.5-1.4l1.4-0.5l0.5-1v-1
	l-1-2.4v-2.4l-0.5-2.4l-1.4-4.3l-2.9-3.4l-4.3-1l-4.3,1l-10.5,4.8l-11,8.1l-3.8,0.5l-2.4-3.4l-1.4-4.3l-1.9-3.8l1.4-1.9l1.9-2.9
	l1-3.4l-0.5-3.4l-1.9-4.3v-4.3l-1-3.4l-0.5-1.9l-1-1l-3.8-1l-1-1l0.5-1l1.9-2.4l0.5-1.4l1.4-2.4l3.4,0.5h3.8l1.4-4.3l-3.4,2.4
	l-2.9-1l-1.9-2.4l-4.3-7.7l-0.5-1.4v-4.8l-1.4-8.6l-1-2.4l-1.4-1l-1.4-1l-1-1.4V748v-1.9l1-4.3l1.4-4.3l1-4.3l-0.5-4.8l-2.9-6.7
	l-0.5-1l-1.9-2.9l-1-0.5l-3.4-1l-4.8-2.9h-1.9l-1.4-1l-5.3-4.8l2.4-1.4l-1-0.5l-0.5-1l-0.5-1l0.5-1l1-1.4l4.8-2.4l1.4-0.5l1.4-1
	l1-1.9l2.9-6.7l0.5-1.9l0.5-7.2l2.9-13.4l0.5-4.3l-1.4-4.8l-1.4-4.3l-1.9-1.9l-1.9-0.5l-1.9-0.5l-2.9-1l-1.4-1.4l0.5-2.4l-2.4-0.5
	l-1-2.4l0.5-2.9l1-4.8v-1.4l-1.4-1l-2.4-0.5h-0.5l-2.4-1.4h-1.4h-2.4l-1-1l-1.4-3.4l-2.4-1.4l-1.4-1.4l-1.4-2.9l-1.9-2.4l-1-1.4
	v-1.9l0.5-1.9l0.5-1l1-1l1-1l0.5-1.4v-0.5l-2.9,1l-1.4,1l-0.5,1.4v2.4l-0.5,2.4l-1,1.4l-2.9,2.4l-2.9-1.9l-1.9-1.4h-1l-1.9,0.5
	l-0.5-1l-1.9-5.8l-1.9-1.4l-3.8-1.9l-3.8-1l-5.3-0.5h-1l-1,0.5l-0.5,1v0.5l0.5,1l0.5,1l-0.5,1.9l-1.4,1h-1.4l-1.4-0.5l-4.3-1.9
	l-1-0.5h-0.5l-3.8-1.9l-1.4-1.4l-2.9-16.3l0.5-1.9l1.4-1h1.4l2.4,1.9l1.4,1h7.2l1.4,1l3.4,2.4l2.9,0.5l1.4,0.5h1l2.4-0.5l1-0.5
	l-0.5-1l-1-0.5l-2.9,0.5l-1-0.5l-1.9-2.9l-1-1l-1.9-1.4l-2.4-1h-1.4h-1.4l-1-0.5v-1l1.4-0.5l-1.4-1.4v-1h1.9l3.4,1h1.9v-1l-2.4-1.4
	l-2.9-1l-2.9-0.5h-7.2l-1.4,1l-1.4-1l-1.4-1l-1-1.9l-1.4-0.5h-2.4l-1,0.5h-1l-1-1l-2.4-1.9l-1-1.4l-0.5-1.4l-2.4-9.6v-4.3v-1h1h2.4
	l-3.4-4.8l-1-2.9l1-2.4v-0.5l-1.4-0.5l-1-0.5l-1,0.5v1.9l-1.9-1l-0.5-1.9l0.5-1.4l1-1.4l1-0.5l1.9-0.5l3.4-0.5l2.9,0.5l2.9,0.5
	l2.9,1l1.4,1.9h1l-1-1.9l-1.9-1.9l-1-1.4v-1v-4.3v-5.8l-1-2.9l-1.9-3.4l-0.5-1.4v-2.9l0.5-1.4h1l2.9,1l10.5,1.4l-1.9-1.9l-4.8-2.9
	l-6.2-5.3l-1-0.5l-6.7-13.9l-5.8-4.3l-1.4-1h-1.9l-6.2-1l-2.9-1l-0.5-2.9l1-3.8l1-3.4l0.5-1.4V471l-0.5-1.9l-2.9-4.3l-0.5-2.4
	l0.5-1.4l1.4-1.9l0.5-1.4v-4.3l-0.5-2.4l-1-2.4l-4.3-5.3v-1l1-1l0.5-2.4l-1-2.4l-2.4-3.4v-2.4l0.5-1l1.4-1.4l1.9-1.4l1.4-0.5h1.9
	l1.4-1L31,424l1-1.9l1.9-4.3v-3.8l-5.8-15.3v-2.4l0.5-1.4l2.4-0.5l3.8-0.5l4.3-1l7.7-3.4l3.8-2.4l1.4-1.4l6.2-7.2l1-2.4l1.9-2.4
	l2.4-1.4v-0.5l-2.9-0.5l-1.4,1.4l-1,2.4l-1.4,1l-1.4,1l-2.4,4.8l-1.4,1l-0.5,1l-0.5,1l-0.5,1.4l-1.4,0.5l-1,0.5l-1,0.5l-1.9,1
	l-2.4,1l-5.3,0.5l-2.9,1l0.5-3.4l1.4-2.9l3.8-4.3l1.4-3.8l0.5-3.4v-12l1.4-3.4l2.4-2.9l16.3-11l1.9-2.9l3.4-6.2l1.9-2.4l1.9-2.4
	l0.5-1v-1h-1v0.5l-5.3,3.8l0.5-1.9l1-1.4l1.4-1l1.4-1.4l1-1.9v-1.9v-3.4l0.5-3.4l1.9-1.4l6.7-1l14.4-3.4l1.9-1l1.4-1l1-1.4l3.4-5.8
	l1-1l-1.9,5.8l-2.9,4.8l-1.4,2.4l-1,1.4l-3.8,2.9l-1,1.4v1.4l0.5,3.8v1.9l0.5,1l1,1.4l1,1.4l1,1l1.4,0.5h4.3l1.9,0.5l0.5,1.9
	l-0.5,8.1v4.8l0.5,2.4l1.4,1.9l1.9,2.4l9.1,8.1l1,1v2.9l1,0.5l1.9-1.4l0.5,1l1.9,4.3l1.9,1.4l1.9,0.5l2.4-0.5h1.9l1.9,1l1,1.9
	l2.4,5.8l1,2.4l1.4,1l3.8,1.9l1.9,1.9l1.9,3.8l2.4,1.9l1.9,0.5l6.2,1l1.9,1l1.4,1.9l2.4,4.8l5.3,7.2l0.5,2.9v1.9l1,0.5l1.4-0.5
	l1.4-0.5l5.3,1.4l1.4,0.5l1.9,1.4l4.3,5.8l3.8,3.4l4.8,2.4l4.8,0.5l4.3-1.9l1.9-2.4h1.4l0.5,0.5l1,1l1,0.5l1.4,0.5l1.4-0.5l1.9-1.9
	l1-1h0.5l1.4,0.5l2.4-1l1.4-1l1.4,1.4h0.5l0.5-0.5l0.5-1v-1.9l1-1.4l5.8-5.3l2.9-1l3.4-1h6.2l23.5-6.2l1.9,0.5l14.4,6.2l1.9,0.5h2.4
	h1.9l4.3-1.4h1.9l1,1l0.5,1.4l0.5,1.9l1,2.4l1.4-0.5l2.4-3.8l8.6-3.4h1.9h1.4l2.9,1l5.8,1.9l2.9,1l6.2-1.4l9.1-11l6.7-1.9h8.1
	l2.9-0.5l1-0.5l1-1.4l5.3-15.8l3.4-6.2l0.5-1.4v-1l-0.5-1h-2.4l-0.5-1l0.5-2.9l1.9-1.4l12-5.8l2.9-0.5l6.2-1l1.9-0.5l1.9-1.4
	l1.4-1.4l1.4-1l2.4-1l31.2,1.9l2.9,1h0.5l1.4-1l1.4-1.4l1-1l1.9-1l1.9,0.5l1.4,0.5l1.9,0.5l5.3-0.5l1.9,0.5l2.4,1l1.9,1l1,1.4v2.4
	l-1,2.4l-1,1.9l-1.4,1.9l-3.4,1.9l-0.5,1.4v0.5l1.9,0.5l3.8-1.4l3.8-1l4.3,0.5l3.8,1.9l3.4,2.4l1.4,0.5l4.8,0.5l5.8,1.4l5.3,1.4
	l7.7,6.2h4.8l3.8-1.4l2.4-1l1.9,0.5l2.4,1l5.3,6.2l2.9,1.4l2.4-0.5l16.8-11l6.2-7.7l2.4-2.4l1.9-0.5l14.9-2.4h4.3l3.8,1l1,1l1,1
	l1,1.4h1.4h1L577.9,367.4L577.9,367.4z"/>
<path id="IDN1234" style="fill:#7D7D7D;stroke:#FFFFFF;stroke-width:9.5866;stroke-linecap:round;stroke-linejoin:round;" d="
	M744.2,1020.3l-2.4,0.5l-1-1.4l1.9-2.9l6.2-4.8v0.5l-1,1.9l0.5,1l1,0.5L744.2,1020.3L744.2,1020.3z M805.1,896.1l-0.5,0.5l-1.9-1.9
	l-3.8-6.2l-1-1.4v-1.4l1-2.4l2.4-5.3l0.5-1.9l0.5-1.4l2.9-2.4l0.5-1.4l1-1.9l1,1l1.9,2.9l-0.5,3.8l-1.9,7.7l-0.5,5.8l-1,3.8
	L805.1,896.1L805.1,896.1z M777.3,937.4l-1,1l-1.9,2.4l-0.5,0.5l-0.5-1.4l-0.5-1.4l-1.4-0.5l-1.4,0.5l-0.5-1.9V934l1-2.4l0.5-1.9
	l0.5-0.5l1.9-1l0.5-1l-0.5-1l-1.9-2.4v-1.4l1-6.7l-0.5-2.4l-1-1.4l-2.4-1.9l-1.9-2.9l-0.5-1.4l-0.5-8.1v-1.9l2.9-6.7l0.5-7.2
	l0.5-1.9l4.8-8.1l1.9-6.7l0.5-1.4l0.5-0.5l3.4-1.4l1.4-0.5l6.2-5.8l1.4-0.5l1-0.5l1-1.4h0.5l1,1v1.4l-0.5,2.4l-1.4,10.5l0.5,3.8
	l2.9,4.3l1.4,1.4l1.4,1.9l0.5,1.9l-4.8,1.9l-0.5,1.9l1,1.9l1,1.4l0.5,1.9l0.5,1.9l-0.5,4.8l1,2.4v1v3.8l0.5,1l1.4,0.5l1,1v1l-1,1
	l-1.4,2.9l-1,1.4l-1,1.4v2.9l0.5,1.4l1.4,2.4v1.4l-0.5,1.4l-1,0.5h-1.9l-1,1l-1,1.4l-1.4,0.5h-2.4l-0.5,0.5l-1,1v0.5v1.4l-0.5,0.5
	l-1.9,1.4l-1.4,1.4l-1.9,1.9l-1,0.5L777.3,937.4L777.3,937.4z M823.8,763.4l-3.4,15.8l-2.4,4.3l-3.4,0.5l-1-1l-1-2.4l-0.5-1.9
	l-1.9-1l-2.4-0.5l-1.4,0.5l-1.4,1l-1.4,0.5l-1.4-1l-3.4,1h-1l-1.4,0.5l-0.5,1v1v0.5l1.9,1l-0.5,1.9l-2.4,4.3l1.4,0.5l3.4-4.8l2.4-1
	h1.9l1,1.4v1.9l-2.4,4.3l-0.5,1.9l0.5,18.2l-0.5,3.8l-1.4,3.4l-1.9,3.4l-4.8,6.2l-2.4,1.9l-1.9,0.5l-1.9-1l-1-1.4l-0.5-4.8l-0.5-1.9
	l-1-0.5l-1.4-1l-1-0.5l-1-1.4l-1-2.4l-0.5-2.4v-1.9v-1h-1l-0.5,1l-0.5,1l0.5,2.4v1l-1,2.4l-1.4,1.9l-0.5,2.4l1,2.4l0.5,1.4l-0.5,1
	l-1,1l-0.5,1.4l0.5,0.5h0.5l1.9-0.5l2.9,0.5l0.5,1v1.9l1,1.9l1.9,1.4l6.2,4.8l1.4,1.4l-0.5,1.4l-4.8,1l-3.8,1.4l-1.4-0.5l-0.5,1.9
	l2.4,3.4l0.5,2.4l-1,2.9l-1.4,1l-1.9,0.5l-2.4,1l0.5-1.4l0.5-1.4h1l1,0.5l1.4-1.4l0.5-1.9h-1.4l-3.8,1.4l-1,1l-1,1.9l-1.9,4.3
	l-6.2,11l-1.4,3.8l-1,9.1l-1,4.8l-2.4,2.4l-1.9,1h-7.2l-2.4,0.5l-2.4,1.4l-3.8,3.8l-4.3,2.9l-18.2,8.6L692.9,922l-26.4,10.5
	l-19.2,9.1l-17.3,10.5l-4.8,1.4l-4.3-1.4l-1.9-4.3l0.5-4.3l2.4-8.1l-2.4-8.6l-0.5-7.7l0.5-17.7l-1.4-4.8l-6.2-7.7l-1.4-4.8v-4.8
	l2.9-12.9l-2.4,1l-1.4,1l-1.4,1.4l-1,11l-1.4,1.4l-2.4-0.5l-4.3-1l-4.8-2.9l-5.8-2.9l16.8-44.6l2.4-10.1l0.5-1.4l0.5-1.4l2.4-3.4
	l1.4-0.5l7.2-1.4l2.4-1l1-1l1.4-1.4l0.5-1.4V806l0.5-0.5l1-0.5l7.2-2.9l1.4-1l1.9-1.9l1-1.9l0.5-2.4v-1.9l0.5-2.4l1-2.4l0.5-1.9
	l1.4-1.9l4.8-5.3l0.5-0.5l1.4-3.8l1.4-3.4l0.5-1l0.5-1l-0.5-3.8v-1l-1-1.4l-0.5-1l-1-1.4l-0.5-1.4v-4.8l0.5-0.5l2.4-1l12.5-2.9
	l11-2.9l2.4-1.4l3.4-2.4l14.9-13.9l-1.9-4.8v-1.4l1.4-1.9l1.9-2.4l1.4-3.4l0.5-2.9l-1-2.4l-1-2.9l-1-2.9l0.5-3.4l6.7-30.7l1-1.9
	l0.5-1l1-1l5.3-1.9h0.5l2.9-0.5l4.8-1l9.1-3.8l2.4-0.5h1.4l1,0.5v1.4l-1,4.8h-2.9l-1,1l-1.4,1l-2.4,2.4l-3.8,5.3l4.8,0.5h1.9l1,1
	l1,1.4l0.5,3.4v1.4l1,1.4l1.9,1.9l0.5,1l0.5,2.4l0.5,2.4l4.8,11l0.5,12.5l-0.5,1.9l-0.5,1.4v1.4v2.4l1,2.9l1.4,1.4l1.9,1l3.4,0.5
	l1,0.5l1,1.4l-1.4,4.3l-0.5,7.7v1.9l2.9,7.7l1,6.7l1.4,2.4l0.5,0.5l0.5,0.5l2.4-1l1.4-0.5l0.5-1v-1.4l1-0.5l1.9-1l1.4-0.5l1.9-1.9
	l1-0.5l1.4-0.5l2.9,1.4l1.9,0.5l9.1,0.5l2.9,1l24.4,1.4l7.7,1.4l10.5,3.4L823.8,763.4L823.8,763.4z"/>
<path id="IDN1931" style="fill:#7D7D7D;stroke:#FFFFFF;stroke-width:9.5866;stroke-linecap:round;stroke-linejoin:round;" d="
	M730.8,666.1l1-4.8v-1.4l-1-0.5h-1.4l-2.4,0.5l-9.1,3.8l-4.8,1l-2.9,0.5h-0.5l-5.3,1.9l-1,1l-0.5,1l-1,1.9l-6.7,30.7l-0.5,3.4l1,2.9
	l1,2.9l1,2.4l-0.5,2.9l-1.4,3.4l-1.9,2.4l-1.4,1.9v1.4l1.9,4.8l-14.9,13.9l-3.4,2.4l-2.4,1.4l-11,2.9l-12.5,2.9l-2.4,1l-0.5,0.5v4.8
	l0.5,1.4l1,1.4l0.5,1l1,1.4v1l0.5,3.8l-0.5,1l-0.5,1l-1.4,3.4l-1.4,3.8l-0.5,0.5l-4.8,5.3l-1.4,1.9l-0.5,1.9l-1,2.4l-0.5,2.4v1.9
	l-0.5,2.4l-1,1.9l-1.9,1.9l-1.4,1l-7.2,2.9l-1,0.5l-0.5,0.5v1.4l-0.5,1.4l-1.4,1.4l-1,1l-2.4,1l-7.2,1.4l-1.4,0.5l-2.4,3.4l-0.5,1.4
	l-0.5,1.4l-2.4,10.1l-16.8,44.6l-2.4-1l-1.4-1l-1-1.9v-1.9l1-1.4l1.9-1l1-1l2.4-6.7l2.9-3.4l1-1.4l0.5-2.4l-4.3,3.8l-3.8,6.2
	l-4.3,5.3l-6.2,2.4l-3.4-0.5l-2.9-1l-1.9-1.9l-0.5-3.8l1.9-10.1l-0.5-2.9l-0.5,1l-0.5,1l-1,4.8v2.4l-0.5,0.5l-1.4,1l-3.8,6.7
	l-6.7,3.4l-3.4,1l-6.2,3.8l-7.7,2.4l-10.5,1.9l-8.1-1.9l-1-7.7l1.4-4.3l0.5-4.3v-4.3l-2.4-7.7l-1-1l-1.9-0.5H505l-2.4,0.5l-1.9,1
	l-1.4,1.4l-1,2.4l-0.5,1.9l-1.9,1l-5.8,0.5l-1.4-0.5l-0.5-1l-0.5-2.4l-0.5-1.4l-1-1.9l-1.4-1.4l-1.4-1l4.3,9.1l1,2.4l-5.8-5.8
	l-1.4-1.4l-2.9-1.4l-1.4-1.4l-1.4-1l-0.5-1.4l-1-1.9l-0.5-2.9l-1-1.4l-1.9-1.4l-2.4-1.4l-3.4-1l-2.9-1.4l-6.7-12.5v7.2l-0.5,1.9
	l-0.5,1l-1,1.9l-1,1h-1.9l-2.9,2.4l-1.4,1.9l-0.5,1.9l0.5,1.9l2.4,1.9l1,0.5l1,0.5h2.4l1,0.5v0.5l-36.4,23.5l-3.4,3.4l-1.9,0.5
	l-3.8-1l-1,0.5v1.4l-1,0.5l-1,0.5l-1,0.5l-2.4-1l-13.9-10.1l-4.3-1.9l-4.8-1l-10.5,1.9l-8.6,5.3l-15.3,14.9l-4.3,3.8l-2.4,1h-1.9
	l-1.9-1l-4.8-1.4l-1.4-1.4v-2.4l1.9-4.3l1-2.4l0.5-6.2v-2.4l-2.9-18.2l0.5-4.8l1.4-8.6l-1-4.3l-6.7-11.5l-0.5-4.3v-4.3l-0.5-0.5
	l-1.4-1l-0.5-1l0.5-1.9l1.9-2.9v-1.9l-1.4,1l-1.9,1.4l-1,1.4l-1,1.4l1,4.8v1.4l-0.5,1l-1.9,1.9l-1.9,1.9v1l0.5,1l1,0.5l1,1l1,0.5v1
	v0.5h-1h-0.5l-4.3,1.9l-6.7,4.8l-1.4,0.5l-1.9,0.5l-1.9-0.5l-1-1.9l-0.5-1.9l-0.5-1.4l-2.9-2.4l-4.3-1l-8.6-1l-3.8,0.5l-3.4,1
	L250,836.2l-7.7,2.9l-4.3,0.5l-3.8-1l-8.6-4.8l-1.9-0.5h-3.8l-1.4-0.5v-1.4l1-1.9l1-1l3.4-2.9l3.4-1.4l3.4-1l9.1-3.8h1l-1-1.4
	l4.3-1.4l0.5-0.5l1-1l1.4-2.4l1.4-4.3l1.4-1.9l1.4-1l5.8-2.4l1.4-1l1-1l1-1.4l0.5-1.4v-1.4v-1.4l-1-2.4l-1-1l-0.5-1.4l-0.5-1.4
	l-0.5-3.4v-9.6l0.5-2.4l1-3.8l-0.5-1.9l-12.9-29.2l-1-2.9l-1-2.9V726v-1.9l3.4-12v-3.8v-1.9v-1.9l1-3.8v-1.4l-1-1.4l-1.4-1.4v-0.5
	l1-2.9v-1.4l-0.5-1l-0.5-1h-1h-1.4l-1,1l-1.9,0.5h-1.4l-1-1l-1-1.4l-1-1.4v-1v-1l1.4-1.9l2.4-2.9l1.9-1.4l3.8-2.4l2.4-1h1.9l1,0.5
	h2.4l1,0.5l1.4,1h1l1.4-1l3.8-3.4l1.9-1.4l3.4-4.3l2.4-1.9l2.9-1.9l2.4-1l3.4-2.4l2.4-4.3l1.4-1.9l1-0.5l1.9-1.9l2.9-1.9l5.8-2.9
	l1.9-1.9l5.3-1.9l3.8-1.9l1-1.4l1-1.4v-1.9l-1-2.9V632l0.5-1.4l0.5-1l3.4-4.3l2.4-1.9l10.1-7.2l5.8-2.9l1.4-0.5l4.3-2.4l11.5-7.2
	l9.1-2.9l2.9-2.4l0.5-2.4l0.5-1l1-0.5h1.4h12.5l5.3,1h2.9l1.4,0.5l2.4,0.5h1.4h1.4l9.6-3.8l2.4-1.4l1.4-0.5h1.4l2.9,1h1.4l1.4-0.5
	l18.2-7.2l3.8-2.4l10.5-3.8l3.4-1.4l2.9-1.9l5.3-2.4l2.4-0.5l2.4,0.5l1,0.5l2.9-0.5l0.5-1l1.4-1.9l0.5-0.5l1.4-0.5l2.4-1l1-0.5h0.5
	l1,0.5l1,1l1.9,3.8l1.9,1.9l1.4,1l1,0.5h1.9l1-1l1.9-5.8l1.9-4.3v-1v-1.4l-1.4-2.4l-0.5-1l-1-1l-1.9-0.5l-0.5-1v-1v-1.4v-0.5
	l1.9-3.4l5.8-5.8l1.4-1l1.9-0.5l1.4-0.5l1.4-1l1-1.4l1-0.5l1.4-0.5l1-0.5l0.5-1v-2.4l1.9-3.8l2.9-5.3l0.5-0.5v-1l-0.5-1.9l-1.9-7.2
	v-2.9l-0.5-1.4l-2.4-5.3l-1.4-1.9l-3.8-2.9l-1.4-1l-1.4-3.8l-2.9-3.8l3.4-1.4l4.3-1l1.9-1h1.9h1l3.4,1.4h1.4h1.9h2.4h1l1.4-1
	l3.4-2.9l1.4-0.5l1-0.5l1.4-0.5l0.5-1l1-2.4l-0.5-3.4l0.5-1.9l1-1.4l1.4-1.9l1.4-1.4l1.4-1.9l1.4-3.8l1-1l2.4-1.4l1.9-2.4l2.4-1.4
	l2.9-1l5.3-1h1.4l4.3-1.9l1.9-0.5l4.3-0.5l1.4-0.5l1-1l1.4-1.4l1-1l1.9-1h1.9h4.3l4.3-0.5l4.8,0.5l1.9,0.5l1.4,0.5l2.4,1.9l1.4,1
	l1.9,0.5l7.7,1l1.9,1h1.9l29.7-3.4l1.9-1.4l2.4-1.9l2.9-1.9l5.3-1.9l4.8-1l2.9-0.5l1-1l0.5-1.4l0.5-0.5l1.4-0.5l5.8-0.5l1.9,0.5h1.4
	l0.5,1l1,1.4l0.5,1l2.4,1l1,1l0.5,1l1,1.9l1,1.4l0.5,1l0.5,4.3l0.5,1.4l1,2.4l0.5,1l-0.5,1.4l-0.5,1.4l-1.4,1l-2.4,2.4l-1,1l-5.8,12
	l-1.4,3.8l-0.5,1.4v2.9l0.5,1.4l0.5,1.4l1,2.4l0.5,1v1.4v2.9v1l0.5,1l2.4,3.8l1,1.9l0.5,1.4l0.5,1.4v1.4v1l-3.4,8.1l-1.9,5.3v1.9v1
	v1l1,1.4v1v1.4l-0.5,1.4l0.5,1l1,1.4h1.4l3.8-3.8l1-0.5l2.9-1.4l1-0.5l1.4-1.9l1-1.4l8.1-9.6l2.9-1.9h1.4l2.4-0.5l1.4-0.5h1l3.4,1
	l3.4,0.5l1,1v1l-0.5,1l-0.5,1.9l-1.4,7.2l-0.5,2.4l-2.9,4.8l-1,1.9l-0.5,3.8l-0.5,7.7v1.9l1.4,3.8l0.5,1.9l0.5,5.3l0.5,1.9l1,3.8
	l1.9,3.8l5.3,7.2l1,1.9v1.9l0.5,3.8l2.4,12.5l0.5,1.4l3.4,4.3l0.5,1.4l0.5,1.9l-0.5,1l0.5,1.4l0.5,1.4l5.3,4.3l1,0.5l1.4,0.5l3.4,1
	l3.4,1.4l2.4,0.5l1.4,1l1.4,1l1.9,1.9l0.5,1.4l1,1.9l0.5,1l2.4,1.9l1,1.4l1.4,1.9h1h1l1.4-1l1.4-0.5l1.9-0.5l1.4,12.5l-0.5,1.4
	l-0.5,5.3l-0.5,2.4l-5.3,9.6l-1.9,2.9l-1.4,1.4l-1.4,0.5l-1.4-0.5L730.8,666.1L730.8,666.1z"/>
</svg>
