<?xml version="1.0" encoding="utf-8"?>
<!-- Generator: Adobe Illustrator 25.4.1, SVG Export Plug-In . SVG Version: 6.00 Build 0)  -->
<svg version="1.1" id="Layer_1" xmlns="http://www.w3.org/2000/svg" xmlns:xlink="http://www.w3.org/1999/xlink" x="0px" y="0px"
	 viewBox="0 0 1080 1080" style="enable-background:new 0 0 1080 1080;" xml:space="preserve">
<path id="IDN538" style="fill:#7D7D7D;stroke:#FFFFFF;stroke-width:8.9174;stroke-linecap:round;stroke-linejoin:round;" d="
	M197.7,499.1l-2.7,1.3l-3.1-1.8l-2.7-2.7l-1.8-2.7l-0.9-3.1l-0.4-6.7l-0.9-2.7l-0.9-1.3l-2.2-1.8l-0.9-0.9l-0.4-1.3v-4.9l-0.9-2.7
	l-1.3-2.2l-1.3-3.1v-3.1l0.9-1.8l0.9-1.3l2.2-3.1l1.3-1.3l1.8-0.9h0.9l0.9,0.4l3.1,2.2l0.9,0.9l0.4,1.3v1.3l-0.4,2.7l-1.8,4.9
	l-0.4,2.7l0.4,4.5l8.5,17.8l0.4,1.8l0.4,2.2l0.9,1.8l0.4,1.3L197.7,499.1L197.7,499.1z M33.1,453.6l-0.4,4.5l-0.9-0.4l-2.7-2.7
	l-0.9-0.4l-0.9-0.4h-0.9l-0.4-0.9l0.4-1.3l1.3-0.9l1.3-0.4h1.8l1.3,0.9L33.1,453.6L33.1,453.6z M134.8,434.4l0.4,0.4h0.9l2.2-0.9
	l1.3-0.9l0.9-0.4l0.4,0.4v1.8l0.9,0.4l5.8-0.4h3.1l1.8,1.3l1.8-0.4l7.6,0.9h0.9l1.8-0.9l2.2-1.3h0.9l2.2,0.4h4l11.1-1.3h4.9
	l11.6,1.8l16.9,0.9l3.6,0.4h1.3l0.4,1.3l-0.9,0.4l-6.2,3.1h-1.3h-3.1h-2.2l-1.3,0.4l-0.9,0.9l-1.3,0.4l-2.2-0.4l-8,0.4l-0.9,0.4
	l-2.7,0.9h-3.1h-0.9l-3.1,2.2l-2.2,0.9l-1.8-0.9l-1.8-1.3l-1.8-0.9l-1.3,0.4l-6.7,1.3L154,446l-2.2,0.4l-4.5,1.3l-2.2,0.4h-4.5h-1.3
	l-3.6,1.3l0.4-1.8V446v-1.8l-0.4-1.3l-0.9-0.9l-4-1.8l-0.9,0.4l-0.9,1.8l-0.9,0.4l-0.4-0.4l-0.9-0.9l-0.4-0.9v-0.9v-2.2l0.9-1.8
	l1.8-0.4l1.3-0.4V434l0.4-0.9l0.9-0.4h0.9l0.9,0.4L134.8,434.4L134.8,434.4z M48.3,418.8l-0.4,2.2l3.1-1.3l3.1-0.9l4-0.4l5.4,0.9
	l4,1.3l1.3,0.4l1.3,0.9l5.8,0.4l5.4,2.2l6.2,0.9l1.3-0.4h0.9l0.9,0.9l0.4,0.4l2.7,0.4h0.9l1.3,0.4l0.9,3.1l1.3,1.3l0.9-1.3l1.3,0.4
	l1.3,0.4h1.3l1.3-0.4l-1.3-0.4l0.4-1.8l1.3-4l0.4-0.9h0.9l1.3,0.9l0.9,0.4l3.1,0.4l0.9,1.8l0.4,2.2l-0.9,3.6l0.9,0.9h0.9h1.3
	l0.4-0.9l0.4-1.8l0.9-1.8l1.3-1.3l1.3-0.4l1.8,0.4l1.3,0.9v0.9l-1.3,2.2l-0.4,0.9l0.4,0.4l1.8-0.9l0.9,0.4l0.4,1.3l0.4,6.7l-0.4,1.8
	l-0.9,0.4l-3.6-1.3h-2.2l-5.8,0.9h-0.9l-2.2-0.9H108l-0.9,0.4l-1.8,1.3l-0.9,0.4l-1.8-0.4l-2.2-0.4h-1.8l-1.8,0.9L96,446v1.8
	l-0.9,0.9h-2.7l-2.7-1.8l-1.3-0.4l-3.1,0.4l-2.2-0.4l-3.6-2.2h-2.2l-4.5,1.3l-7.1,4l-3.6,1.8l-8.9,2.2l-1.8,0.9l-1.8,0.4h-3.1
	l-5.8,0.4h-2.2l-2.2-0.9l-0.9-0.9l-0.4-1.8l-5.4-8.5l-0.9-1.8l0.4-4l0.4-1.8l1.3-1.8l1.8-4l0.4-4.5l0.9-3.6l4-0.9l1.8-0.4l4.5-0.4
	l1.3-0.9l1.3-1.3h0.9L48.3,418.8L48.3,418.8z M319.8,391.6l0.9,1.3l1.8-0.4l0.9,0.4l0.9,3.1l-0.4,0.4l-1.3,0.4l-1.3,0.4l-2.2,1.8
	l-0.9,0.4l-3.1-0.9v-2.7l1.8-2.2h1.8l0.9-1.3v-0.9L319.8,391.6L319.8,391.6z M368,399.2l1.8,0.4h0.9l1.3-1.3h0.9l1.3,0.4l2.2,1.8
	l0.9,0.4l7.6,5.4l1.8,2.2l0.9,0.9l0.9,0.9l2.7,0.9l1.8,1.3l0.9-0.4l1.3-0.4l1.3,0.4l0.4,0.9l1.3,1.8l1.3,4.5l-0.9,3.1l-2.2,2.2
	l-3.6,1.8h-4l-11.1-2.7h-2.2l-3.1,0.9l-2.2,0.4l-14.7-0.9l-1.8,0.4l-1.3,1.3l-1.3,0.9l-0.9,0.9l-7.6,0.4H339l-4-1.3l-5.8-3.1
	l-5.4-4.9l0.4-2.2l1.8-3.6v-1.8l-0.4-1.3l0.4-1.3l1.3-1.8l-0.9-1.8l0.4-1.8l0.9-1.8l0.9-1.3v-2.7h0.9l2.2,1.3l2.2,2.2h0.4l0.4-0.4
	l1.8-2.2l0.4-0.9l0.4-1.3l10.3-6.7h0.9l7.6,1.3l2.7,0.9l2.2,1.3l1.3,1.8l0.9,1.8l1.8,1.3L368,399.2L368,399.2z M355,379.6l-0.4,1.8
	l-1.3,1.8l-1.3,0.4h-2.2l-5.4-2.7l-3.6-0.4H339l-0.9,0.9l-0.9,1.3h-1.8l-1.8-1.3l-1.3-0.4l-0.4-0.9l1.3-1.3l2.7-3.1l1.3-0.9l1.8-0.4
	l1.3-0.4l6.2,2.2l1.3,1.3l4.9,0.4l1.3,0.4L355,379.6L355,379.6z M422.4,360.8h-2.2h-0.9l-1.8-0.4l-1.3-0.9l-0.4-1.3l0.4-1.8v-0.9
	l-2.2-1.8l-0.4-0.4l0.4-1.3l0.4-0.4l1.3,0.4l0.4,0.4l0.4,1.3l0.4,0.9l1.8,0.9l0.9,0.9l3.6,0.4l0.9,1.3l-0.4,1.8L422.4,360.8
	L422.4,360.8z M318,335.9l0.4,1.3l-4,1.3h-0.9l-2.2-1.8l-3.1-0.4h-3.6l-2.2-0.9l0.4-4l0.9-2.2l0.9-1.3l0.9-1.8l0.4-4l0.9-1.3
	l1.3-0.4l2.7-0.4l1.3,0.4l0.4,0.4l-1.3,1.8l0.9,0.9l0.9,1.3l2.2,3.1l0.4,0.9l0.4,0.9l-0.4,1.8v1.3L318,335.9L318,335.9z
	 M348.4,300.6h2.2l0.4,1.3l0.9,0.9l1.3,2.2l0.9,1.8l-1.3,2.2l-5.8,7.1l-0.9,1.8l-0.4,2.2l0.4,1.3l0.4,0.4l0.9,0.4h1.3l1.3,0.4
	l0.4,0.9v3.1l-0.4,0.9l0.4,1.3l1.3,0.9h0.9l1.3-0.4l1.8-1.3l1.8-0.4l6.2-0.4l1.3,0.4l4,1.8l0.9,0.4l0.4,0.9l1.3,1.8l0.4,1.8l1.8,0.4
	v0.4l-0.4,1.3l-0.4,1.3l-1.3,1.8l-4,4l-0.9,0.4h-0.9h-1.3l-1.3,0.4l-2.2,1.3l-0.9,0.4l-0.4-0.4l-2.2-1.8l-0.9-0.4l-2.2-0.4l-1.3-0.4
	l-0.9-1.3l-0.9-0.4l-0.9-0.4v-1.3l0.4-2.2l-0.4-0.9l-0.9-1.8l-0.4-0.4l-1.3-0.9l-0.9,0.9l-0.9,0.4l-1.8,0.4l-5.4,3.1l-6.2,1.8
	l-0.9-0.4l-0.9-2.2l-0.9-1.8l-0.4-4.5l0.4-0.9l2.7-6.2v-1.3l-3.1-0.9l-0.9-0.4H327l-0.9-0.4l-0.4-1.8l-0.4-0.4l-1.8-0.4l-1.8-3.1
	l-0.4-0.4l-0.4-1.3l-3.1-2.2l-0.9-0.9l-0.9-1.8l-0.4-1.3l0.4-1.8l0.4-1.3l1.3-1.3l0.9-1.3l0.9-2.2v-2.2l-0.4-0.9l-0.9-2.2h1.3
	l1.8-1.3h1.3h0.9l0.9,0.9l1.8,1.8l0.9,0.9l0.9,0.4v2.2l0.9,0.9l0.9,0.9l0.9,0.4l1.3-0.9l0.9-1.8l0.4-2.2l0.4-1.8l0.9-0.4l1.8-0.4
	v-0.9l0.4-1.8l0.4-0.4l0.9-0.4l0.9,0.4l3.1,1.3l1.3,0.9l0.4,1.8l0.4,0.4l2.2,1.8l0.4,0.9l0.4,0.9v1.3L348.4,300.6L348.4,300.6z
	 M308.2,284.6l0.4,0.9l0.9-0.4h0.4l1.3,0.9l0.4,1.3l0.9,0.4l3.1-0.4l0.4,0.4l-0.4,0.9l-0.4,1.3l-0.4,0.4h-1.8h-0.9l-0.4,1.3v1.8
	l0.9,1.3l0.9,0.9l0.4,0.9l0.4,1.3v1.3l-1.8,1.3v1.3l0.9,2.7l-0.4,0.9l-0.9,1.3l-0.4,1.8h-0.4l-1.3-0.4l-2.2,2.2l-1.3,0.4l-1.8,0.4
	h-5.8l0.4-1.3l-1.3-0.9l0.4-0.9l1.8-0.9V306l-0.4-1.3l-0.9-0.9l-0.4-0.4l-1.3-0.4V302l0.9-2.2v-2.7l0.4-0.9l0.9-0.9v-2.2l-0.9-2.7
	l-0.4-1.8l0.9-1.3h0.9l2.7-0.9l1.8-0.9h2.7L308.2,284.6L308.2,284.6z M534.3,281.5h-0.9h-1.3l-0.9-0.9l-1.8-1.8l-4-7.1l-8.5-3.6
	v-1.3v-1.3v-1.3l-0.9-0.4l-2.2-3.6l-0.4-0.4l-2.2-1.3l-2.2-1.8l0.4-0.4l0.9-0.4l0.9,0.4l14.3,12l5.4,3.6l2.2,1.8l1.8,2.7l1.3,1.3
	v1.8v0.4l-0.9,0.9L534.3,281.5L534.3,281.5z M327,246.2l2.7,0.9h1.3l-0.9,1.8l1.8,12v1.8v1.3l-0.9,0.4l-1.3-1.3l-0.4-0.4v-2.7
	l-1.8-1.8l-0.4,1.3l-0.9,0.4l-0.9-2.2v-2.2l0.9-5.4L327,246.2z M327.8,230.2l-2.2,3.1l-3.6-0.4l-0.9-0.9l-0.9-1.8V228l-0.4-1.3
	l0.9-0.9l1.3-1.3l1.8-0.4h2.2l1.8,2.2L327.8,230.2L327.8,230.2z M329.2,187.8l0.9,0.9l0.4,1.3v2.2l0.4,1.8l-0.4,1.8l-1.3,1.3
	l-2.2,2.2l-1.8,1.3l-1.3-0.4l-0.4-1.3l-0.9-1.3l-0.4-1.8l1.8-3.1l0.9-5.4l1.8,0.4h0.9l0.4-0.4L329.2,187.8L329.2,187.8z
	 M320.7,187.4h-1.3h-1.8l-0.9-0.9l-0.9-1.8l-0.9-1.8l-0.4-1.3l0.9-2.2l1.3-1.8l2.2-0.4l3.6,1.8l0.9,1.8l0.4,1.8l-0.4,2.2l-1.3,1.8
	L320.7,187.4z M228,136.1h-0.4l-2.2-3.1h-0.9l-0.4-0.4l0.9-1.3l0.9-0.9l0.4-0.4h0.9l0.9,0.4l0.9,0.4l0.4,0.9l-0.9,1.8v0.9L228,136.1
	L228,136.1z M389.8,48.3v2.2l-0.9,1.8l-1.8,4l-1.3,1.3L384,59l-0.9,1.8l-2.2,0.9l-0.9,0.9l-0.4,2.7l-0.9,3.6l-0.9,1.8l-0.9,0.4
	l-1.8,0.4l-1.8,0.4l-1.3,0.9l-0.9,0.9l-0.9,1.8l-0.4,2.7l-0.4,3.1l0.4,2.2l2.2,1.8l6.2,0.9l1.3,1.3l0.9,1.3l4,3.1l1.3,2.2l-0.9,7.1
	l-0.4,0.9l-0.9,0.4l0.9,1.3l1.3,1.3l0.4,0.9l0.4,1.3l0.9,4l-0.4,1.8l-1.3,5.4v2.7v3.1v0.9l-0.4,0.4l-1.3,0.9l-0.4,0.9l0.4,1.8
	l1.8,3.6v0.9l-0.9,0.9h-2.2h-0.9l-0.4,0.9l-1.3,2.2l-0.4,1.3l-2.2,1.8l-0.9,1.8l-2.2,4l-0.4,1.8v0.4l-1.3,0.4h-1.3h-2.2l-0.9,0.4
	l-7.6,6.2l-8,4.5l-3.1,3.1l-1.3,4.5v1.3l0.9,1.8l0.9,1.8l0.9,1.3l1.8,0.9l3.1,1.3l1.8,1.3l0.4,0.4l0.9,2.2l0.4,0.4l0.9,0.4h1.8
	l2.7,1.3h1.8l2.2-0.4l1.3-0.4l2.2-1.3l3.1-2.7l1.8-1.8l0.4-1.3l0.4-8.5v-1.8v-1.8l5.8-7.1l2.2-1.8l1.8-1.3l1.8-0.4l2.2-0.4h6.7
	l1.3-0.9l1.8-2.2l1.3-2.2l0.4-1.8l-0.4-1.8l-1.3-1.8l-2.2-0.9l-4,0.9l-1.8-0.4l-0.4-1.8l1.8-1.8l3.1-2.7l1.3-1.8l1.8-3.6l1.3-1.3
	l1.8-1.8l4-2.7l1.8-1.3l1.8-0.9l4-1.3l1.8-1.3l0.4-0.9l0.9-1.8l0.9-0.9h0.4l2.2-0.9l2.2-1.3l1.8-0.9l2.2-0.9h2.2l0.4,0.4l1.3,0.9
	h0.9l0.9-0.4l0.9-0.4l0.9-1.8l1.3-0.9l5.4-0.9h4l6.7,0.9l0.9,0.4v1.8v0.4l-2.7,1.8l-0.9,1.8l-0.4,2.2v3.6l0.4,0.9l0.4,0.4l1.8,1.8
	l1.3,0.4l1.3,0.4l0.4,0.4l-0.4,1.3l0.4,1.8l0.4,2.2l-0.4,2.2l-0.4,0.9l-1.8,0.9l-0.4,1.8l-0.4,4l-0.9,4.9l-0.4,2.2l0.9,6.2v1.8
	l-0.4,1.3l-1.8,0.9h-2.2h-0.9l-0.9,0.9l-7.6,4.5l-1.8,1.3l-0.4,0.9l-0.9,0.4l-5.8,1.8l-1.8,2.2l-1.3,0.9H425l-1.8,0.4l-8.5,2.2
	l-1.3,0.9l-0.9,1.3l-0.4,2.2l0.9,1.8v1.3l-0.4,0.4h-1.3l-1.8-0.9l-1.3-0.4l-1.3,0.9l-1.3,0.9l-0.4,1.8v2.2l0.4,1.3l1.3,1.8l3.6,2.7
	l2.2,2.7l1.8,1.8l3.1,0.9l1.8,1.3l1.3,0.4h3.1h2.7l0.4,0.4l0.9,0.4l1.8,1.8l0.9,0.9l0.9,0.4l3.1,0.4l1.8,0.4l3.1,1.8l1.3,0.4
	l1.8-0.4h1.3l1.3,0.4l1.3,0.4l0.9,0.4l1.3-0.9l1.3,1.3l0.4,0.9L450,211l-0.9,1.8l0.9,1.3l0.4,1.8v7.6l0.4,3.6l1.3,1.3l5.8,0.9
	l0.9,0.4l4.9,0.9l2.7,1.8l2.7,3.1l2.2,3.6v1.3l-4-3.6l-1.3-0.4l-1.3-0.4l-12.9-3.6l-1.8,0.4l-2.2-0.9l-2.7-1.3l-3.1-0.9h-3.1
	l-2.7-0.9l-2.2-1.8l-4-4l-1.3-0.9h-0.9l-3.1,0.4h-1.3l-2.7-0.9h-1.3l-6.7,1.3l-3.1-0.4l-2.7-2.2l-2.2,0.9l-2.2-1.3l-1.8-2.2
	l-1.8-1.3l-7.6-0.9l-1.8,0.4l-2.2-0.9l-4.9-0.4l-1.8-0.9l-2.2,1.8l-1.3,1.3l-1.3,1.3l-1.3,8l-1.3,1.8l-0.4,1.3v1.8l2.7,2.7l0.4,2.2
	l0.9,10.3v1.3l-0.9,1.3l-1.3,1.8l-0.9,1.3l-0.4,1.8v4.5l0.9,4l0.9,3.1l3.1,5.4l1.8,5.8l1.8,3.1l0.4,4.5l0.4,1.8l0.9,1.8l2.7,3.1
	l0.4,1.3l0.4,2.2l0.9,4.5l0.9,1.8l4,6.2l0.9,3.6l3.1,2.7l0.9,1.3l8.9,14.7l4.9,5.4l5.8,4.9l0.9,0.9l1.8,2.7l1.8,1.3l3.6,1.8l1.3,0.9
	l0.4,1.3h-0.9l-2.7-1.3l-3.1-0.9l-8.5-0.4l-1.8-0.4l-1.3-0.9l-1.3-0.9l-0.9-1.8l0.4-0.9l1.3-0.4l1.3,0.9h0.9l-2.2-3.6l-4-2.7
	l-15.2-5.4l-1.8-1.3l-0.9-1.8l-5.4-11.6l-5.4-8l-2.7-7.1l-1.3-1.3l-1.8-2.7l-1.8-0.4l-5.4-3.1l-3.6-2.2l-1.8-0.4l-1.3-1.3l-1.8-2.2
	l-1.8-3.1l-0.4-2.2v-2.2l1.3-3.6l0.4-2.2v-11.1l0.4-2.2l0.9-2.2v-0.9v-2.2l-1.3-3.1l-0.4-1.8v-4l3.1-11.1l0.4-1.8v-1.8l-0.9-1.3
	l-1.3-1.3l-0.9-0.4l-2.2,0.4h-0.9l-4-3.6l-0.9-1.3l-1.8-1.3l-1.3-1.8v-0.9v-3.1l-0.9-4.5l-0.4-1.3l-2.2-1.8l-0.4-0.9v-0.9v-4.5
	l1.3-5.8l0.4-4.5l0.9-2.7l3.1-1.8l1.3-2.7l1.3-2.7l0.9-1.8l-1.3-2.2l-3.1-1.3l-4-0.4l-3.1-0.9l-0.9-2.2v-1.3l1.3-1.8l0.4-1.8
	l-0.4-0.9l-0.9-2.7H335l-0.4-0.4v-3.6l0.4-0.9v-0.9l-1.3-0.9h-0.4l-2.2,1.3l-1.8,0.4l-1.3,0.4h-1.3l-0.4-2.2v-1.3l0.4-0.9l1.3-1.8
	l0.9-1.3v-0.9V149l-0.9-1.3l-0.9-0.9l-0.9-1.3v-2.2l0.4-1.8l3.1-4.5l2.7-3.6l2.2-6.7l3.6-5.4l1.8-4l-0.9-2.7l-1.3-2.7l0.4-2.2
	l3.1-4.5l-0.9-1.3l-0.4-1.3l0.4-1.3l0.9-0.4l1.3-0.4l0.4-2.2l-0.4-0.9l-0.9-0.4l-0.4-0.4l0.4-0.4l0.9-1.8l0.9-3.6l4.9-8l2.2-2.7
	l2.2-4l1.3-1.8l5.4-4.9l2.2-3.1l8.9-9.4l3.1-2.7l0.4-0.4l0.4-1.8l1.3-1.8l1.8-1.3l1.8-0.9l1.8,0.4l1.8,0.4l1.3,0.4l4.5-2.2
	L389.8,48.3L389.8,48.3z M360.8,40.7l2.7,0.4h1.3h0.9l0.4,0.9v2.2l-0.9,1.8l-2.2,0.4l-2.2-1.3l-0.9-2.2v-1.8L360.8,40.7L360.8,40.7z
	 M400.5,38l-1.3,0.9l-1.3-0.9l-0.9-1.8l-0.9-1.8v-1.3l0.4-0.9l1.3-2.2l1.3-2.2h0.4h1.3l1.8,3.6v0.9L400.5,38L400.5,38z M442,7.7
	l2.2,4.9l0.9,1.3l1.3,0.9l4,4.9l0.9,4.5l-1.3,4l-1.8,3.6l-1.8,3.6v6.2l-5.8,10.3l-0.9,3.1l-0.9,1.3l-5.4,4.5l-1.8,0.9L417.5,63
	l-1.3,0.4l-1.3,1.3l-2.7,1.8l-1.8,0.9l0.4-2.2l1.3-2.2l-0.4-1.8l-3.1-3.1l-0.4-1.8v-6.7l-0.4-4.5l-0.9-2.2L405,42l-1.8-0.9l0.9-2.2
	l4-3.6l2.7-4.5l4.5-8.5l3.6-4l4-1.8l1.8-1.3l1.3-3.6l0.4-0.9l2.2-1.3l0.9-0.4l0.4,0.4l1.3,1.3l2.7,0.4l0.9-0.9l0.9-1.8l1.3-2.2
	l1.8-0.9l1.8,0.9L442,7.7L442,7.7z"/>
<path id="IDN554" style="fill:#7D7D7D;stroke:#FFFFFF;stroke-width:8.9174;stroke-linecap:round;stroke-linejoin:round;" d="
	M405.4,1058.2l0.4,3.1l1.3,2.2l-0.4,0.9l-1.3,0.9h-1.3l-2.2,0.4h-3.1l-2.7-0.4l-1.8-0.4l-1.8-1.3l-0.4-0.9l0.4-0.9l0.9-1.3l0.4-0.9
	l0.4-0.9l1.3-0.4l1.8,0.9l2.7-0.4l2.7-1.3h2.2L405.4,1058.2L405.4,1058.2z M484.3,1059.5v1.3l-0.9,1.3l-0.9,1.3h-0.9h-1.3l-1.3-0.9
	l-1.3-0.9l-1.8-0.9l-0.9,0.4l-0.9,0.9l-1.3,0.4l-2.7-0.9l-3.6-2.2l-1.8-2.2l2.7-1.3l2.7-0.9l9.4,0.9l0.4,0.4l4,1.8L484.3,1059.5
	L484.3,1059.5z M354.2,1061.3h-2.2l-1.8-0.4l-2.7-2.2l-1.8-0.4l7.6-5.4h2.2h1.8l1.8,0.4l1.8,1.8l1.3,1.8l-0.4,1.8l-2.2,0.9h-2.2
	L354.2,1061.3L354.2,1061.3z M368,1047.5l3.6,0.9l6.7,2.2l7.6,1.3h4l3.1-1.3l3.1,1.8l0.4,1.3l-0.9,1.8l-4.9,4l-1.3,0.4l-1.3,2.7
	l-1.3,0.9l-1.8-0.4l-1.3-0.4l-4-2.7l-1.3-0.9h-1.3l-5.8-0.4l-2.2-0.4l-1.3-1.3l-2.7-1.8l-0.9-1.3v-2.2l-0.4-0.9l-0.9-0.4l-1.3-0.9
	v-0.9l0.9-0.4h1.3h0.9L368,1047.5L368,1047.5z M681.9,1051.9l0.4,0.4l0.9,0.4l0.4-0.4l0.9-1.3l0.4-0.4l1.8-0.4l1.3-0.4l1.8-0.4
	l2.2,0.9l-1.8,2.7l-3.1,1.3l-2.7,1.3l-4,2.7l-6.7,2.7h-1.3h-2.7l-4.9,1.3l-0.4,0.4v3.1l-0.4,0.9l-1.3,1.3l-4,2.7l-1.3,1.3h-0.9h-4.9
	l1.3-1.3l4-4.9l1.8-1.8l0.9-1.3l0.9-1.3l1.3-0.4l0.9-0.4l2.7-0.9l0.9-0.9l0.9-1.3l-0.4-0.9l-0.4-1.3v-1.8l0.4-1.8l0.9-0.9h0.9
	l1.3,0.9l2.2,0.4l4-4.9l2.2-0.9l1.3,0.4l3.1,3.6l-0.4,0.9L681.9,1051.9L681.9,1051.9z M309.1,1048.4l-2.2,0.4l-4.9-1.3v-0.9l0.4-0.9
	v-3.1l0.4-1.3l0.9-0.9l1.8-0.9l1.3,0.4l1.3,0.4l0.9,1.3l0.9,1.3v1.8v1.3L309.1,1048.4L309.1,1048.4z M555.2,1019.4l0.9,0.4h3.1
	l2.2,0.9l0.9,0.4l0.4,0.4v1.3l-0.9,2.2l0.4,0.9l1.3,0.4l0.4,1.3l0.4,1.8l-0.4,1.8l-1.3,1.3l-3.1,3.6l-3.1,5.8l-0.4,1.3l-1.8-0.4
	l-6.2-1.3l-0.4-0.9l-9.4-10.3l-0.9-2.2l0.4-6.7l1.3-2.7l3.1-0.9h8.9h0.9l2.2,0.9L555.2,1019.4L555.2,1019.4z M584.2,1014.5l0.9,0.4
	l0.9,0.9l-0.4,1.3h-1.3l-1.3-0.9l-0.9-0.4h-0.9h-0.9l0.4-1.3h1.8h0.9H584.2L584.2,1014.5z M579.3,1012.7l-0.9,0.9l-0.9-0.4l-0.4-0.9
	l-0.9-0.4l-0.4-1.3v-0.9l0.4-0.4l0.9-0.4l0.9,0.4l0.4,0.9v0.9L579.3,1012.7z M687.2,1001.1l-0.9,4l-1.3,1.8l-1.3,0.9l-4.5-0.9
	l-1.3,0.4l0.9,2.7l-5.4-0.4l-1.8-0.9l1.3-3.1l0.4-0.4l1.3-0.9l0.9-0.4h2.7l1.8-0.4l1.3-0.9l0.9-0.9l0.4,0.4h0.9l0.9-0.4l1.3-0.9h0.9
	L687.2,1001.1L687.2,1001.1z M260.5,1005.6h1.3l5.8-0.4l1.8,0.4l0.4,0.9l0.9,1.8l0.4,1.3l0.4,2.7v0.9l-0.4,0.9l-0.9,0.4l-0.9-0.4
	l-1.3-0.4l-0.9-0.4l-4,0.4l-2.2,0.4l-1.3-0.9l-8,2.7l-0.9,0.4l-2.2,2.2l-0.9,0.4l-2.2,0.9l-0.9,0.4l-4.9,6.7l-0.4,0.4l0.4,1.8
	l-0.9,0.9l-0.9,1.3l-1.3,2.2l-0.9,0.9l-0.9-0.9l-2.2-2.2h-0.9h-4.9l-2.2-0.4l-4.9-1.3l-2.2-0.4l-8.5,1.3l-1.8-0.9l-1.3-1.3l-1.8-1.3
	l-2.2-0.4l-2.2,0.9l-1.8-0.9h-1.8l-5.4,0.9l-1.8,0.9l-1.3,0.4h-2.2h-0.9l-0.9,0.4l-0.4,1.3l-0.4,0.9l-1.8,0.4l-8.5,6.7l-2.2,0.9
	l-1.3-0.9v-1.3l1.3-2.2l0.9-1.8l0.9-0.9v-0.9v-6.7l0.9-1.3l0.9-1.3l1.3-1.3h1.3l1.8-0.9l0.4-2.2l0.4-2.2l0.4-1.3l2.2-1.3l0.4-0.4
	l0.9-1.8l2.7-4l0.9-0.9l0.9-0.9h1.3h0.9l3.1,1.3l0.9,0.9l0.4,0.4l0.9,0.4l15.2,2.2l1.3-0.4l2.7-1.8l1.8-0.4h1.8l2.2,0.4l2.2,0.4
	l1.8-0.9l4.9-4.5l5.4-2.2l3.1-2.2l1.8-0.4l9.8-2.2l1.3-0.9h0.9l0.4,0.4v2.2v0.9l0.4,0.9l1.3,0.9l4,2.2l1.3,0.9l0.9,1.3L260.5,1005.6
	L260.5,1005.6z M546.8,994.4l0.9,0.4h0.9l0.9-0.4l0.4,0.4v0.9l-1.8,0.9h-1.3l-0.4-0.9l-1.8-0.9l-0.4-1.3l0.4-1.3l0.9,0.4
	L546.8,994.4L546.8,994.4z M325.2,1003.8l-1.8,0.4h-1.3l-0.9-1.3v-1.8v-0.9l0.4-0.9l1.3-0.4l0.9-0.4v-0.9v-1.8l-1.3-3.1v-1.3
	l0.9-1.8l1.3-0.4l3.1,0.9l2.2,0.9l1.3,0.4l1.3,0.4l1.3,0.4l0.4,1.3v3.1l-0.4,1.3l-1.3,0.4l-3.6,1.8h-1.3l-0.9,0.9l-0.9,1.8
	L325.2,1003.8L325.2,1003.8z M661.4,987.7l3.1,2.7l0.9-0.9l1.3,0.4l1.3,0.9l1.3,0.4l3.1-0.9l0.4,0.4l-1.3,1.3l1.3,0.9l0.4,0.4v0.4
	l-0.9,0.4l-1.3-0.9l-0.4-0.4l-2.2,1.3h-4l-3.6-0.9l-1.3-0.4l-0.4-1.3l0.4-1.3l1.3-2.7H661.4L661.4,987.7z M692.1,980.6l-1.3,0.9
	l-4,4l-2.2,1.3l-0.9,0.4l-0.4,1.3l-0.9,0.9h-0.9l-1.3,0.4v-0.9l0.9-0.9l0.4-1.3h-2.2l-2.2,0.9h-1.8l-1.8-1.3l-0.4-1.8l0.9-1.8
	l0.9-1.3l1.8-0.9h0.9h0.4l1.8,0.4h1.3l5.8-0.9l1.3-0.4h1.8l0.9-0.4l0.9,0.4L692.1,980.6L692.1,980.6z M701.9,971.7v0.4l0.9-0.9h0.4
	l0.4,0.9l-0.4,0.9l-0.4,0.4l-2.2,1.3l0.9,1.3l-4.9-0.4l-1.3-0.9l1.8-0.9l0.9-1.8l1.8-2.2l0.4-0.9L701.9,971.7L701.9,971.7z
	 M738,956.5v0.4l1.3-0.4l0.9-0.9l1.3-1.8l1.3-0.9l0.4,0.4l0.4,1.3l2.2,4.5v1.3l-1.3,0.9l-1.3,0.4l-1.3,0.4h-1.3l-0.9-0.4h-0.9
	l-0.9,0.9l-0.9,1.3l-0.4,0.9l0.4,2.7v1.8v0.9l2.2,3.6l0.4,1.3v1.3l-1.3,0.9l0.9,1.3l2.7,1.8h0.9l0.4,0.9h-1.3l-1.3,2.7l-0.4,2.2
	l-0.4,0.4l-1.3,0.9l0.9,2.2l-0.4,2.2l-1.3,2.2l-0.9,4l-0.9,2.2l-1.3,1.8l-1.3,0.4l-0.4,0.4l-2.2,4l-0.4,0.4l-1.3,1.3l-1.8,0.4
	l-2.7,0.4l-1.3,0.9l0.4,2.2l-0.4,0.9l-0.9,0.4l-0.9,0.4l-1.3-0.4l0.9,2.2l-1.3,0.9l-1.3,0.9l-0.9,0.4l-0.4,0.9l-4.5,3.1l-0.4,1.3
	l-0.4,1.3v1.8l-0.9,0.9l-1.3,0.9l-0.9,0.9l-0.9,1.8h0.9l0.9,0.4l0.4,0.4l-0.9,1.8l-0.4,0.9v1.3l-1.3,1.3l-1.8,1.3l-1.3,0.9l-0.9-1.3
	l1.3-3.6l0.4-2.2l-0.9-0.9h-0.9l-0.4-0.4l-0.4-0.4l-1.3,0.9l-0.4,0.9l-0.4,2.2v1.3l-2.7,1.3l-4,0.4l-7.1-0.4l-0.9-1.3l0.4-1.8l1.3-4
	v-1.8l-0.9-1.3l-1.3-0.9l-0.9,0.4l-0.9-2.2l0.4-2.2l1.3-1.8l1.8-1.3h1.3l0.9,0.4h0.9l0.9-0.9v-1.3l-0.9-0.4l-1.3-0.9v-0.9h1.8v-0.9
	l-0.4-1.3v-0.9h-0.9h-0.9v-0.4v-1.3h-0.9v0.9h-0.4l-0.4-2.7l0.4-1.3l1.8-0.4l2.2,0.4l4,2.2h1.8l2.7-0.9l-1.8-0.4l-1.8-0.9l-1.8-0.9
	l-1.3-3.1v-0.9l0.9-0.4v-0.4l0.4-3.6l0.9-1.8l1.8-3.1l0.4-1.3l0.4-2.7l0.9-1.8l1.3-1.3l5.8-4.9l1.3-0.4l0.9,0.4l0.9,1.3h0.9l0.4-0.9
	l1.3-3.1l0.4-0.4l0.9-0.9l0.4-1.3l-0.4-0.9v-0.9l0.9-0.9l5.4-0.4v-0.9l-0.4-0.9v-0.9l0.4-1.8l0.9-1.3l1.8-2.2l0.9-1.8l0.4-0.4
	l1.3-0.4h1.8l1.8-0.9l-1.3-2.7l-0.4-1.8l0.9-1.8l3.1-2.2l2.2-0.9l2.7-0.9l1.8-0.4l1.8,0.4l0.4,1.3L738,956.5L738,956.5z
	 M763.5,950.3l1.3,0.9l1.3,1.3v1.3l0.9,1.3l2.2,1.8l0.4,1.8l0.4,3.6l-0.4,1.8l-1.8,0.9l-0.9-0.4l-3.1-2.7l-0.9-0.4l-0.9-3.6
	l-2.7-1.8h-3.1h-7.1l-2.7-0.4l-0.9-1.8l2.2-3.1h11.6h2.2L763.5,950.3L763.5,950.3z M449.6,957.4l-3.6,4l-1.8-0.9l-3.6-3.1l-3.6-1.3
	l-1.3-1.3l-0.4-1.8l0.9-1.8l2.7-2.2l2.7-1.8l2.7-0.9l0.9,0.4l1.3,1.3l0.9,0.9l0.9,0.4h1.8h0.4l1.3,1.3l0.4,1.3l-1.3,0.9l-1.8,0.4
	l-1.3,0.9l0.9,1.3l1.3,1.3L449.6,957.4z M494.6,940h-0.4l-0.9-0.4l-0.9-0.9v-1.3l0.9-0.4l0.9-0.4h0.9l0.9,1.3l-0.4,1.3L494.6,940
	L494.6,940z M532.1,913.3l0.4,0.4l-0.4,0.9l-0.9,2.2l-0.9,0.9h-0.9l-1.3-0.9h-0.4l-0.4-0.4V915l0.9-1.3l0.9-0.4h1.3l0.9-0.4
	L532.1,913.3L532.1,913.3z M734.9,911.9l-1.8,1.8l-2.2-0.9l-1.3,1.3v1.8l2.2,1.3l-0.9,1.8l-1.8,1.3l-1.3,0.4l-2.2-2.2l0.9-4l2.7-4
	l3.1-1.8l2.2,0.4l0.9,0.9L734.9,911.9L734.9,911.9z M1030.5,916.4l-0.9,1.8l-1.3-0.4l-3.1-2.2l0.9-1.3v-0.4l-0.4-1.8l0.4-0.9
	l3.6-4.9l0.9-4l0.4-0.9l0.4-0.9l0.9-0.4h1.3l0.9,0.9l1.3,0.9l0.4,0.9v1.8l-0.9,3.1l-0.4,1.8l-0.9,1.3l-0.9,0.9l-2.2,3.6
	L1030.5,916.4L1030.5,916.4z M1035.4,895.9l-1.3,0.9l-0.9-0.4l-0.9,0.4l-0.9,0.4l-0.9,0.4l-2.2-0.4l-0.4-1.8l-0.4-2.2l-0.9-1.3
	l-0.9-0.9l-0.4-0.9l0.9-0.9l1.3-1.3l1.8-0.9l2.2,0.4l1.8,0.9l1.3,1.8l0.9,1.8l0.4,2.2L1035.4,895.9L1035.4,895.9z M579.8,874.5h-0.9
	h-0.4l-0.9-0.9v-0.9h0.4l1.8,0.4l0.4,0.4L579.8,874.5z M1023.8,883.8l-0.4,1.8l-1.3,1.3l-3.6,1.8l1.3,1.8l-0.4,2.2l-1.8,1.3
	l-3.1-1.3l-0.9-1.3l-0.4-1.3l-0.4-2.2l-0.4-0.9l-2.2-2.7h-1.3h-1.3h-0.9l-0.4-1.3l-0.4-0.9l-5.8-2.2l-0.9-0.9l-0.4-1.3l0.4-0.9
	l0.4-0.9l1.8-1.3l1.8-0.9l1.3-1.8l1.3-0.9l1.8-0.4l1.3,0.4l1.3,0.9l2.7,1.3l1.3,0.9l2.2,2.7l1.3,1.3l1.8,0.4l1.3,0.9l1.3,0.9
	l1.3,1.8L1023.8,883.8L1023.8,883.8z M1046.1,887.4l-1.3,1.3l-1.3-0.9l-1.3-1.3l-0.4-0.9l1.3-0.9v-0.4l-1.3-2.7l0.4-2.7l1.8-2.7
	l1.8-0.4v-2.7v-1.8l0.9-0.4l1.3-0.4l1.3,0.4l1.3,0.9l0.4,1.3l-0.4,2.2l-0.4,1.8l-1.8,3.6L1046.1,887.4L1046.1,887.4z M1007.4,886.1
	h0.4l0.9-0.4l0.4,0.4l0.4,0.4l0.4,1.3l1.8,3.1v0.9l0.4,0.4v0.9l-0.9,0.9v0.4l0.4,4l2.7,0.9l0.9,0.4l-0.4,1.3l-0.9,0.9l-0.4,1.8
	l-0.4,0.9l-2.2,2.2h-2.2l-2.2-0.9l-2.7,0.4v0.9h1.8l1.3,1.3l0.4,0.4l-0.4,0.9l-0.9,1.3l-1.3,0.9l-1.3,0.4l-4.9,8l1.8,0.4l-0.4,1.3
	l-4.9,4l-6.2,2.2l-3.6,2.7l-2.2,0.4l-2.7-4l-0.9-1.8h-0.4l-1.3-0.9l-3.6-0.9l-1.8-1.3l-0.9-2.7l-0.9-2.2v-0.9v-1.3l0.9-3.1l2.2-7.6
	l1.8-16.5l0.4-1.3l0.9-0.9v1.3l0.9,1.8l5.4,0.9l2.7,1.8l-0.4-1.8l-1.3-2.7l-0.4-1.8l-4.9,0.4l-1.8-3.1l0.9-8.9l-0.9-3.6l-1.8-6.2
	l-0.4-3.1l0.4-1.3l0.9-0.9h1.3l1.3,0.4l0.9,1.3l0.4,1.3l1.3,1.3l3.1,0.9l1.3,0.9l3.6,3.1l2.7,2.2l1.8,0.9l0.4,0.4v1.3l-0.4,0.9
	l-0.4,0.9l-0.4,0.4l2.7,3.1l1.8,1.8l1.8,0.9l4,0.9l1.3,0.9l1.3,1.3L1007.4,886.1L1007.4,886.1z M980.2,843.3v4l0.4-0.4l4.5-1.8h0.9
	l0.9,0.4l0.9,3.1l0.4,1.3h0.4l0.4-0.4l2.2-0.9l-0.4,1.8l-2.2,1.8l-0.4,1.3l-0.4,1.8l0.9,1.3l1.3,1.3l1.3,2.2l1.3-0.4l1.3,0.9
	l3.1,4.9l0.9,0.4h1.8l-0.4,0.9v0.4h2.2l0.9,0.4l0.9,0.9l1.3,0.4l1.3,0.4v0.4l-2.7,0.4l-1.3,1.3l-1.3,1.8l-2.2,1.3h-0.9l-0.9-2.2
	l-2.2-2.2l-1.3-0.4l-0.4,0.4l-0.9-0.9l-4-3.6l-1.8-3.1l-1.3-1.3l-1.8,1.3l-2.2-0.9l0.4-1.3l1.3-1.8l0.9-1.3l-0.4-1.8h-1.3l-2.7,2.2
	l-2.2-3.6l-0.4-4.5l0.9-4L980.2,843.3L980.2,843.3z M985.1,825.9l-1.3,0.4l-1.3-0.4l-0.9-1.8l-0.4-1.8l0.4-2.2l0.9-1.3h1.3l1.8,0.4
	l1.8,1.3l-0.4,1.8l-0.4,2.2L985.1,825.9L985.1,825.9z M839.3,805.4v1.3l-0.9,1.3v0.4l0.9,0.9h0.9l1.3-0.4h0.9l0.9,0.4v0.9l0.4,1.8
	l0.9,3.6l0.9-0.4h0.4l0.4,2.2l0.4,1.8l0.4,2.2l1.8,0.4l0.9,0.9v2.2l-0.4,4.5l-0.9,2.2l-0.9,1.8l-1.3,1.8l-1.3,1.8l-1.8,0.9l-1.3-1.8
	l-0.4-2.2l-0.9-0.4v1.3l-0.4,0.9l-0.9,0.4l-0.9-0.4l-0.4-0.4l-1.3-1.8l-0.4-0.4v-1.3v-2.2l-0.4-1.3v-1.3h0.9v-5.4v-2.2h1.3l-0.4-0.9
	l-0.9-3.6h-1.3l-0.4-0.4l0.4-0.9l0.4-1.3l-0.4-0.4l-1.3-0.4l-0.4-0.9v-1.8V808l-1.3-1.8l-0.4-0.9l-0.4-1.3l3.6,1.8h0.4l1.3-0.9
	l1.3-1.3h0.9L839.3,805.4L839.3,805.4z M847.7,799.1h1.8l0.4,0.4v0.9l-1.3,4v1.8v1.3l0.4,1.8l0.9,1.3l-0.4,1.3l-1.3-0.9l-0.4-0.9
	l-0.9,1.3h-0.4h-0.9l-0.9-0.9l-1.3-4V804l0.9-2.7l1.3-3.1l1.8-1.8l0.4,0.9l0.4,0.9L847.7,799.1L847.7,799.1z M804.9,797.3l1.3,0.4
	l1.8-0.4v0.9l-0.9,0.9l-0.4,0.9l-0.9,0.9l-1.3,0.4l-0.9-0.4l-1.3-1.8l-0.9-1.8l-0.4-1.3l1.3-0.9L804.9,797.3z M1021.2,786.6l4.5,1.8
	l0.9,1.3l1.3,3.6l0.9,1.3l2.7,1.8l0.9,0.9l-0.4,0.4l-2.2,0.9l0.9,0.4v0.4l0.4,1.8h-0.4v-0.4l-2.2,0.4l-1.3,0.4l0.4,0.4l2.7,0.4
	l1.8,0.9l1.8,0.9l2.7,3.1l2.2,3.1l-1.8,1.3l-1.3,2.7l-0.9,2.2v1.8l1.3,0.4h0.4v1.3v1.3l-0.4,1.8l-2.2,1.8l-0.4,1.3h1.8l1.8,0.9
	l1.3,1.3l-0.4,1.8h0.4l0.9,1.3l-0.9,0.4l-2.2,1.3l-0.9,0.9l-0.4-1.8l-0.9-0.4l-0.9,0.4l-0.4,1.8l0.9,0.9l2.2,0.9l0.9,0.9h-1.3
	l1.3,2.2h-1.3l-2.7-0.9l-1.8-0.9l-1.3-1.3l-0.9-0.4h-1.3h-1.3l-1.3,0.4l-0.4,0.4l-0.4,0.9l4-0.4l1.3,0.9l0.4,1.8l0.9,1.3l3.6,3.1
	l1.8,0.9l3.6,4.5l0.9,1.3l-0.4,2.2l-1.3,2.2l-1.8,1.8l-1.8,1.3l-1.3-0.9l-0.4,1.3l-0.4,0.9l-0.4,0.9l4.9-1.8l1.8-1.3l-0.4,1.8
	l-0.9,1.3l-0.4,0.9l0.9,2.2l-0.4,0.9l-0.4,1.3l-1.8,3.6l-0.4,1.8l-1.8,2.2l-6.7,2.7l-2.2,1.8l-2.2-1.3l-1.3-0.4l-1.3,0.4h-0.4
	l-1.8-2.2l-1.8-1.8h-0.4l-0.9-1.3l-4-2.2l-0.9-1.3h-1.3l-5.8-2.2h-0.4l-0.9-1.8h-0.4l-1.3,0.4l-1.3-0.4l-0.4-0.9l-0.9-2.2l-2.7-3.1
	l-1.3-3.6v-3.6l1.8-2.7l1.8-0.9l1.8,0.4h1.8l1.8-1.8V845l-5.4,0.4l-0.9-1.3v-1.3l0.9-1.8l0.4-1.8l-0.4-0.9l-2.2-3.1v-0.4l0.9-0.4
	l1.3-1.3l0.9-0.9v-2.2l3.6-1.8l-0.4-1.3v-0.9l2.2-2.2v-0.9l-1.8-1.3l-0.4,1.3l-1.3,0.9h-0.9l-0.4-2.2l-0.9-0.9l-1.8-0.4h-3.1
	l-1.8-0.9l-1.3-0.9l-2.7-1.8l-0.4-1.8l1.3-1.8l2.2-0.9l1.8-0.4l1.8,0.4l3.1,2.7l2.2,0.4l1.8-0.4l0.9-0.9v-1.3l0.9-1.8l0.9-0.9
	l1.3-0.9l1.3-1.3l0.9-2.7l4-7.6l0.4,1.8l1.3,0.4l0.9-0.4l0.9-1.3l1.3,0.9v-1.8v-1.3l-0.4-0.4l-0.9-1.3v-4.9v-0.4l0.9-0.9l1.3-0.4
	l0.9,0.9l1.3,0.4l2.7-1.3L1021.2,786.6L1021.2,786.6z M768.8,783.1h-0.9l-0.4-1.3l0.4-3.1l1.3-1.8l1.8-0.9h1.3l0.4,1.8l-1.3,4
	l-0.9,0.4h-0.9L768.8,783.1L768.8,783.1z M872.7,808.5l-1.3,0.4l-1.3,2.7l-2.2,1.8l-1.8,2.7l-1.8,3.6l-0.9,3.1v1.8l0.9,3.1v1.8
	l-0.9,0.9l-8.9,11.1l-1.3,0.9l-0.4-1.3l5.8-16.5l2.2-2.7l0.4-0.9l0.4-6.2l-0.4-1.3l3.6-5.8l1.8,0.4l1.3,0.9l0.9-0.4l0.9-4l0.4-4
	l0.4-1.8l1.3-3.6l3.6-11.1l2.2-3.1l0.9-1.3l0.4-4l0.9-1.3l1.8-0.9h1.8l1.3,0.9l1.3,1.3l0.4,1.3v2.2l-0.4,1.3l-1.3,0.9l-0.4,0.9
	l-2.7,13.8l-2.7,7.1l-0.4,1.3l-2.7,2.2l-0.9,0.4l-0.9,0.4L872.7,808.5L872.7,808.5z M747,722l-0.9,0.9l-0.9-1.3l-0.4-2.2v-2.2
	l0.9-1.3l1.8,1.3v2.7L747,722L747,722z M572.6,698.4v4l-1.3,0.4h-1.8l-1.3,0.4l-0.9-0.4l-0.9-0.4l-0.9-0.4h-1.3l1.3-0.9l4.5-0.4
	l0.9-0.9l0.4-1.3l0.9-0.9L572.6,698.4L572.6,698.4z M740.3,699.2l-1.8,0.9l-0.4-0.9l-4-8l-0.9-1.3l0.9-0.4h0.4l1.3,0.4l1.8,2.2
	l1.8,3.6L740.3,699.2z M712.6,663.1l-0.9,0.4l-3.1-2.2l-4.5-1.8l-0.9-0.9l-0.9-0.9l-0.4-0.9V656v-0.9l0.4-0.9l0.9,0.4l0.9,0.9
	l1.3,1.3l4.5,3.1l1.8,1.8L712.6,663.1L712.6,663.1z M698.4,652.4l-0.4,0.4l-1.3-0.9l-0.9-1.8l-0.9-2.2v-1.8l2.7,0.9l0.9,0.9l0.4,1.3
	v2.2L698.4,652.4L698.4,652.4z M718.4,653.8l-0.9,0.9l-2.2-0.4l-1.8-1.3l-0.9-1.8l-2.2-4.5l-0.4-1.3l0.4-0.9l0.9-0.4l1.3-0.4
	l2.2,0.9l0.9,2.2l0.9,3.1L718.4,653.8L718.4,653.8z M310.9,639.5l-1.8,0.9l-3.1-0.9h-1.8l-2.7-2.2l-0.9-1.8v-2.2l2.7-3.1l1.8-0.4
	h1.3l3.6,1.3l1.3,1.3l0.4,1.3l0.4,2.2l-0.9,1.8l-0.4,0.9L310.9,639.5L310.9,639.5z M461.2,618.5l-1.8,0.9L458,619l-1.3-1.3l-0.4-2.2
	l1.3-1.8l1.8-0.4l1.8,0.4l0.4,1.8l0.9,1.3L461.2,618.5L461.2,618.5z M425.9,611.9l-3.6,1.8l-0.9-1.8l0.9-1.8l0.4-1.8l0.4-1.8
	l0.4-1.3v-1.3l0.9-0.9l0.9-0.9l3.1-1.3l1.8,0.9l3.6,0.4l1.3,0.9l1.3,1.3l1.8,2.2l0.4,2.2l-1.8,0.9h-1.8l-3.6,1.8l-4,0.4L425.9,611.9
	L425.9,611.9z M415.2,606.5l0.9,2.2l0.4,1.8v1.3l-2.2,0.9h-0.9l-1.8-1.3l-1.3-0.4h-1.8l-0.4,0.4l0.4,1.3l2.2,3.1l0.4,0.9l-0.4,0.4
	l-1.8,2.7l-1.8,1.3l-2.7,0.9h-2.7l-2.2,0.9l-1.3,1.3l-1.8,1.3l-3.1,0.4l0.9-0.9l2.2-1.3l0.4-0.9l1.8-3.6l5.4-3.6l1.3-1.8l-1.8-0.9
	l-1.8,0.9l-3.6,2.7l-4,1.8l-2.2,1.3l-2.7,0.4l-0.9,0.4l-2.2,1.8l-1.3,2.2l-2.2,1.3h-3.1l-1.8-0.9l-0.9-1.8v-1.8l-1.3-2.2l0.4-0.9
	l4.5-5.4l2.2-1.8l4.9-3.1l1.3-0.4h1.3l8,0.4l1.3-0.4l8-5.8l4.5-1.8l4,0.4l1.8,1.8l-0.4,1.3l-1.3,1.3L415.2,606.5L415.2,606.5z
	 M448.2,602.9l0.9,0.4l0.9-2.2l1.3-1.3h1.3l1.3,2.2l0.4,2.2v6.7l-1.8-1.3l-2.2-1.8l-1.8-1.3l-1.3,0.9v1.3l0.4,0.9v0.9l-1.3,0.9h-0.9
	l-0.4-0.4l-0.9-0.9l-2.7-3.6l-0.9-1.8l-1.3-2.2l-0.9-1.8v-1.8h2.2h1.3l0.9,0.4l1.3,1.8l0.9,0.9L448.2,602.9L448.2,602.9z M339,575.7
	v0.4h3.1l1.8,0.9l3.1,4l1.3,1.3l0.9,1.8l0.4,1.3l-1.8,0.9l-2.2-0.4l-3.6-1.8l-4.5-0.9l-1.8-0.9l-0.9-1.3l-1.3-1.3l0.4-0.4l2.7-1.3
	l0.9-1.3l0.4-0.9L339,575.7L339,575.7z M362.6,574.9l-0.9,0.4l-2.7-0.4l-5.8,0.9l-2.2-0.9l-1.3-1.8l1.3-2.2l2.7-2.2l2.2-2.2h3.1
	l1.3-0.4h0.4l0.9,0.9l1.3,0.9l0.4,1.3l0.4,1.3l0.4,1.3l-0.9,2.2L362.6,574.9L362.6,574.9z M275.2,561.9l1.8,1.3l2.2-0.9l1.8,1.3
	l2.2,0.9l2.2,0.4l1.8,0.4l3.6,2.7l1.8,0.4l2.7,1.3l0.9,0.9l0.9,0.9l0.4,0.9l0.4,0.9l0.4,3.1l-0.4,0.9h-1.8l-2.2-0.9l-1.3-0.4
	l-1.3,1.3v1.3l0.4,1.8l0.9,1.8l0.9,1.3h0.4l1.3,1.3l1.3,1.3l1.8,0.4l0.9-0.4l1.3-2.2l0.9-0.4h1.3l3.1,1.8l4.5,0.9l2.2,0.9l0.9,1.3
	l-0.4,1.8l-1.8,4.5l-0.9,1.8l0.4,13.4l-1.8,3.6l-1.8,1.3l-2.2,0.4l-1.8-0.9l-2.2-0.4l-1.8,0.4l-11.6,5.8l-1.3,0.4l-0.9,0.9l-2.2,2.7
	l-1.3,1.3l-3.6,1.8l-7.6,2.2l-4.9,2.2l-3.6,2.7l-2.2-0.4l-2.2,0.9l-2.2-2.2l-1.3-0.4l-6.7-1.8l-3.1-2.2l-3.1-0.4l-8.5-4l-5.4-4.5
	l-1.8-0.4l-3.6-0.9l-4.9-2.7l-1.8-1.8l-1.3-1.3h-4l-2.7-2.7l-0.9-3.1l-1.8-4.5l-5.8-4l-1.8-1.3l-1.8-2.2l-0.9-2.7v-0.4l-3.1-5.4
	l-1.8-10.7l2.7-7.6l1.8-1.8l2.7-1.8l2.7-2.2l1.8,0.9l0.9,2.7l1.8,1.3l2.2,0.9l2.2,0.9l1.8,0.4l2.2-0.9v-2.7l3.1-2.7l4-1.3l12-3.6
	l28.5-0.9l11.6,1.3l2.2,1.3L275.2,561.9L275.2,561.9z M382.7,546.3l-1.3,2.2l-0.9,0.9l-0.9,2.7l-0.4,0.9l-1.3,0.9h-1.3l-8,0.4
	l-0.9-0.4l-0.4-0.9l1.3-1.8l1.8-0.9l1.8-0.9l1.3-1.3l0.9-0.4h1.3l1.3-0.9l0.9-0.9V545l-0.9-1.8h2.7l1.8,0.4l1.3,0.9l0.9,0.9
	L382.7,546.3L382.7,546.3z M533.4,529.8l0.4,1.3l0.9,0.4l5.4,0.9l13.8,5.8h1.3l0.9,0.9l2.2,3.1l0.9,0.9h1.8l0.9-0.4l1.3-0.4l1.3-0.4
	l0.4,0.4l0.4,1.8l1.3,0.9l0.9-0.9l1.3,0.4l1.8,1.3l1.3,1.8l2.2,0.9l8,1.8h16.1l8.5-1.3h4l4.5,1.8l9.8,8.9l1.3,0.9l7.1,2.7l0.9,0.4
	l0.4,0.9l0.9,3.6v0.4l2.2,3.1l0.9,4v8l0.4,1.8l1.8,2.7l0.4,0.9l0.4,1.3h1.8h3.6h4l3.1,1.3l2.2,1.3l1.3,2.7l-1.8,0.4v1.8l0.4,2.2
	l1.3,1.8l3.1,3.1l0.9,1.8l0.4,1.8l-0.4,2.2l-0.4,0.9l-1.3,2.2l-0.4,1.3l-1.3,1.8l-0.4,1.3l-0.4,12.5l0.4,1.3l0.9,1.8v0.9l-2.2,0.4
	l-1.8-0.9l-3.1-2.7l-1.3-0.4h-2.2l-9.4-3.6l-1.8-0.4l-0.9-0.9l-4-4.5l-1.3-0.9l-1.3-0.9l-1.8-0.9h-2.7l-1.3-0.4l-0.9-1.3l-1.8-2.7
	l-1.3-1.3l-1.8-0.4l-1.8-0.9h-2.2l-1.8-0.4l-4.5-3.1l-17.8-5.8l-1.8-1.8l-0.4-0.4h-1.3l-4.9-1.8l-3.6-1.8l-1.8-1.3l-0.9-1.3V594
	l-0.9-1.3l-0.4-0.9v-2.7v-0.9l-2.7-3.1l-4-1.8l-33.4-3.1l-3.6,0.4l-0.9,3.1l4.9,6.7l1.3,3.6l-3.6,2.2h-4l-8-4l-4.5-1.3L504,590
	l-4.5-0.9l-7.6-4l-2.7-0.9h-2.7l-7.1,0.9l-2.2,0.4l-2.2-2.2v-0.9l0.9-2.2l3.1-4.5l-0.9-1.8l-1.8-1.3l-1.8-0.9h-2.2l-2.2-0.9h-0.9
	l-2.7,3.6l-5.8,2.2l-0.9,0.9l-0.4,0.9l-8,6.7l-0.9,1.3l-0.9,1.3l-0.4,0.9l0.4,0.9l1.3,0.9l0.4,0.4l-1.8,2.2l-4,0.4l-4.5-0.4
	l-3.6,0.4l-4,1.8l-2.7,0.9l-1.8-0.9l-1.3-1.3l-3.1-1.3l-1.8-1.8l-11.1-18.3l-1.3-0.9l-4-0.4l-1.8-0.4l-2.7-0.9h-0.4v-2.7l0.9-2.2
	l1.3-3.1l-0.4-1.8l-1.3-1.8l-1.8-0.4l-2.7,0.4l-2.7,2.7l-1.8,3.1l-1.3,2.7l-0.9,3.6l-0.9,9.8l-0.4,1.3l-0.9,1.3l-1.3,3.1l-0.9,0.9
	l-0.9,0.4h-1.8l-0.4,0.4l-0.9,0.9l-0.4,1.8l-1.3,2.2l-0.9,1.8l-1.3,3.1l-0.4,1.8l0.4,0.9l0.4,0.9v0.4l-1.3,2.2l-0.4,0.9l-2.7-2.7
	l0.4-4.5l3.1-8.5v-4.5l-0.4-2.2l-0.4-0.9l-0.9-0.4l-3.1-4l-0.9-5.8l-0.4-1.3l-2.7-1.8v-0.9l2.2-0.9h0.9l2.2-0.4l0.9-0.4l0.9-0.9
	l2.2-2.2l1.3-0.9h1.3l2.7-2.2l1.3-0.9l1.8-0.4l1.8-0.4l2.2,0.4l1.3,0.4l2.2-0.4l-1.3-3.6v-0.9l0.4-1.3l1.8-1.3l0.4-0.9l-1.3-0.9
	l-1.8-0.4h-1.8l0.9-1.3l0.9-0.4l2.7-0.4l0.9-0.4l1.3-3.6V541h1.8l0.4-1.8l0.4-1.3l0.9-0.4l1.3-0.4l2.2,0.9l16.5-0.4l3.6-0.9h4l4-1.3
	h1.3l2.2,0.4l3.6,1.3h2.7l19.2,0.4l4,0.4h2.2l4-0.4l4-1.3l6.7-2.7l3.6-1.3l1.3,1.8l0.4,3.1l-0.9,4l1.8,0.9l2.2,4.5l1.8,0.9l0.9-0.4
	l2.2-0.4h1.3l0.9,0.9l0.9-0.4l-0.4-1.3l-0.4-0.9v-0.4l1.3-0.4l1.8,1.8h0.9v-1.3l0.9-0.9l1.3-0.9l3.1-1.3l5.4-2.7l2.7-0.9l0.4-1.3
	l0.4-1.8l0.4-1.8l2.7-1.3l4.5-0.9h7.6l1.3-0.4L533.4,529.8L533.4,529.8z"/>
</svg>
