<?xml version="1.0" encoding="utf-8"?>
<!-- Generator: Adobe Illustrator 25.4.1, SVG Export Plug-In . SVG Version: 6.00 Build 0)  -->
<svg version="1.1" xmlns="http://www.w3.org/2000/svg" xmlns:xlink="http://www.w3.org/1999/xlink" x="0px" y="0px"
	 viewBox="0 0 1080 1080" style="enable-background:new 0 0 1080 1080;" xml:space="preserve">
<g id="Layer_2" style="display:none;">
	
		<path id="IDN1236" style="display:inline;fill:#7D7D7D;stroke:#FFFFFF;stroke-width:7.5463;stroke-linecap:round;stroke-linejoin:round;" d="
		M446.2,1072.2l-2.6,1.1l-1.5-0.4l-0.4-1.5v-1.5l0.4-1.1l0.8-1.1l1.1-0.8l3-0.8l1.5,1.9v2.6L446.2,1072.2z M369.2,1061.3l7.5,0.8
		h4.9l2.3,0.4l1.5,1.5l-0.8,1.5l-2.6,0.8h-2.6l-1.1-0.4l-1.1-1.1l-5.3-0.8l-1.5-0.8l-1.5,0.4l-1.9,0.4l-1.9-0.4l-1.5-0.4l-0.4-0.8
		l-0.4-0.8l0.4-0.4l0.4-0.8l1.1-0.4h1.9L369.2,1061.3L369.2,1061.3z M359,1045h1.1l1.1-1.5h0.8l0.4,1.1l-0.4,1.5l-0.8,2.3v1.1
		l-2.6,0.4l-3-0.4l-1.5-0.8l-0.4,1.5l-0.8,0.8l-3-1.5l-1.1-1.9l0.4-1.1l-2.3,0.4l-1.5-0.8l-1.1,0.4l-0.8-1.9l0.8-0.4l2.3,1.1
		l1.9-0.8l0.4-2.3l-0.4-1.9l0.4-1.9l1.1,0.8l1.5,0.4l1.9,2.6l4.5,1.9L359,1045L359,1045z M338.3,995.2l-0.8,0.4l-0.8-3.4l-0.8-2.6
		v-1.5l0.8-9.1l-0.4-1.1l-0.8-0.4h-0.8l-0.4-0.8v-1.9l-1.1-2.6v-0.8v-0.8l1.1-1.9l0.4-1.1v-4.9l-0.8-8.3l0.8-10.9l0.8-3.8l0.8-2.6
		l1.1-0.4l0.4,0.4l0.8,0.4v0.8v1.9l0.8,1.5l0.8,1.1l0.4,1.1l0.4,1.9l1.9,5.3l0.8,3.4l0.4,3.8v3.4l-0.8,3.8l-1.9,4.9v1.9l0.4,4.5
		l-0.4,3l-0.4,4.2l-0.8,1.5l-1.1,1.5v1.5l0.4,3.4l-0.4,1.5L338.3,995.2L338.3,995.2z M428.8,707.3l-4.9,3l-1.9,0.8l-1.1,0.4h-1.1
		l-0.8-0.4l-3.8-1.9l-6.8-5.7l-5.7-3.8l-1.5-0.8l-1.5-0.4h-1.1h-1.9l-3.4,0.4l-3,1.1l-3.4,1.9v-0.4l-0.4-2.6l-0.8-1.5l-1.1,0.8h-0.4
		l-0.4-0.8l-0.8-2.3l-0.4-0.8l-0.8,0.4l-0.8,1.9l-0.4,0.4h-0.8l-0.8-0.4L379,696l-0.4-0.8l0.4-1.1l1.1-0.4l1.5-0.4l0.4-1.9l1.1,0.4
		l1.1-0.4l1.1-2.3l1.1,0.8l-2.6-5.3l-1.1-0.4v-0.4l-0.4-0.8l-1.1-1.1l-0.8-0.4l-10.2-1.5l-1.5,0.4h-0.8l-1.1-0.8l-0.8-0.8l-0.8-0.4
		l-1.9-0.8h-1.9l-1.1,0.8l-1.1,0.8l-1.1,0.4h-1.9l-1.5,0.4l-4.2,2.3l-1.5,0.4l-1.5,0.4l-1.9,0.4l-0.8,1.1l-0.4,1.5l-0.8,1.1
		l-1.5,1.5L322,701.7l-3.4,2.6l-1.5,1.1l-2.6,0.8l0.8,1.1l1.1,1.1l0.4,1.1v1.1l0.4,1.1l0.4,0.8l0.8,0.4l1.1,0.8l1.1,4.2l0.8,1.9
		h-0.4l-1.1,1.5l1.5,1.5l1.9,1.1l3.8,1.1l2.3,1.5l0.8,0.8l0.4,1.9l0.4,1.1l0.8,0.4h1.5l-0.4,0.8l-1.1,1.5l-0.4,1.1l0.4,2.6l-0.4,1.1
		l-0.8,3l0.4,0.8l0.8,1.9v0.8v0.8l-0.4,1.5l-0.4,4.2v1.5l1.5,3.8l0.4,1.5v6.8l0.4,0.4l1.5,1.5v3.4l-1.1,3l-3.4,4.9l-1.5,2.6l-1.1,3
		l-0.4,3v13.6l0.4,1.5l1.5,3l0.4,1.1v3.4v0.8l-0.4,1.5v1.1v1.1l1.1,2.6l-0.4,2.6l-1.9,4.9l0.4,3l1.9,2.3l1.1,1.5l-0.4,1.5l-0.4,1.5
		v1.9l0.4,2.3l0.4,1.5l0.8,1.5l2.6,2.6l0.4,1.5l-0.4,1.1l-0.8,0.4l-1.5,1.5v0.8l-1.9,7.9v1.9l-0.8,1.5l-1.5,0.8h-1.9l-1.5,0.4
		l-1.5,2.3v10.2l-1.9,9.8l-0.8,1.9l-0.8,1.1l3.4,5.3l0.8,1.1l1.1,3.4l0.4,1.1l3.8,4.5l0.8,1.1v1.9l3.4,12.8l0.4,3l0.4,0.8l1.5,2.3
		l0.4,1.5l-0.4,0.4l-2.3-1.1l-1.1,0.4l-3-3.4l-0.4-0.8l-0.4-1.1l-1.5-2.6l-0.4-0.8h-2.3l-1.9,0.8l-1.9,1.1l-1.9,0.4l-3.8,0.8
		l-0.4,0.4l-2.3,1.5l-1.5,0.4l-3,1.1l-1.5,0.4l-0.4-0.4h-1.9l-4.9-0.8l-1.1-0.8l-1.1-0.4l-1.9-0.4l-2.3,0.4l-1.5,0.4l-1.5,0.8
		l-3.4,3.4l-0.4,0.8l-0.4,1.9l-0.4,0.8l-1.5,1.5l-1.5,1.1l-2.6,0.4l-4.2,0.4l-3.8-0.4l-2.3-1.5l-0.4-1.9v-1.9l-0.8-1.5l-1.9-0.8
		l-1.9,1.1l-0.8,1.9l-0.8,1.1l-1.5-1.1l-0.4-1.1v-1.9v-1.1l-0.8-0.8l-0.8-0.4l-0.8-0.8v-1.1h-1.5l-2.3,0.4l-1.5,1.1l1.1,1.5h-1.9
		l-1.1-0.4l-0.8-1.1v-1.9l0.4-0.8l0.4-0.8l0.4-1.1l-0.4-0.8l-0.8-0.8l-0.8-1.5l-2.6-4.2l-1.9-3l-0.4-3.4l0.4-3.8l0.8-2.6l0.8-5.3
		l0.4-1.9l1.1-2.6l0.8-2.6l0.4-0.8l0.8-0.8l1.5-0.8l0.8-0.4l1.1-1.9l0.4-1.1l0.4-3l1.1-3l3-5.7l0.4-2.6l-2.6-10.6l0.4-3l0.4-0.4
		l1.5-0.8l0.4-0.4l1.1-2.6l0.4-1.1l3.4-6l0.8-1.5l1.1-11.7l1.5-5.7v-3v-0.8l-0.8-3.4l-1.1-1.1l-0.4-0.8l0.4-1.5l1.9-3v-1.9l-0.8-3.4
		l-0.8-1.5v-0.8l0.8-1.5l0.4-0.8v-0.8l-0.4-1.5l0.4-1.1l1.9-2.6l0.4-1.1l-1.5-0.8l-1.9,0.4l-0.4,1.1l-0.4,1.1l-0.4,1.9l-0.4-1.1
		l-0.4-3.4l-1.5-2.6l-3.8-9.1l-1.9-2.6l-0.8-3.4l-2.6-3.4V767l1.1-2.3l1.1-4.5l0.8-1.5l1.5-1.5l0.4-1.5l-0.4-1.1l-1.1-4.2l-0.4-0.8
		l-0.8-4.9l-1.5-4.9l-0.4-1.1v-3l-0.4-3l-1.1-1.1l-1.9-2.6l-0.4-0.8v-0.8v-1.1l0.8-0.8l0.8-0.4l0.8-0.4l0.8,0.4l1.1,0.4h0.8l1.1-0.4
		l1.5-0.8l3-1.9l1.5-0.8l1.9-0.8l3.4-0.8l1.1-0.8v-0.8l-0.4-1.1l-2.3-3l-5.3-12.5l-0.4-1.5v-1.9v-1.5l0.4-1.9v-0.8v-1.1l-2.3-3.8
		l1.5-0.4l2.3-0.4h1.5h1.5l3,0.8h2.3l5.3-1.5l3.4-1.5l0.8-1.1l0.8-0.8v-0.8l-0.4-0.8l-1.1-1.1v-0.8v-0.8l0.4-1.9v-0.8l-2.6-4.2
		l-0.4-3v-1.9v-1.5l-0.8-0.8l-0.8-1.1v-1.1v-0.8l0.8-2.3l0.4-1.1l-0.4-1.1l-0.4-1.1l-1.1-1.5l-3-2.3l-0.8-0.4l-1.9-0.8l-1.1-0.8
		v-0.8v-1.1v-1.5l0.4-3.8l0.4-1.5l0.8-1.5l9.1-7.9l1.1-0.4l0.8,0.4l1.1-0.4l0.8-0.4l1.1-0.8l0.8-1.1l4.2-7.5l3-1.5l4.5-3l6.8-3.4
		l1.5-0.4h2.6l4.5,0.4l11.3,3.4l2.6,0.4l1.5-0.4l0.8-0.8l0.4-0.8l0.8-1.9l0.4-0.8l1.1-0.8l1.5-0.4l1.9,0.8l1.5,1.5l8.7,13.2l3,3.4
		l3,3l11.3,9.4l3.4,1.5l44.5,9.1l4.2,1.5l4.2,1.9l1.9,1.1l1.5,1.1l4.5,5.7l4.9,4.5l2.6,1.5l8.7,4.2l1.5,1.5l1.1,1.5l0.8,1.9l0.8,2.3
		v1.5v1.9l-0.4,1.5l-0.4,1.5l-1.1,2.3l-12.8,12.8L428.8,707.3L428.8,707.3z"/>
	
		<path id="IDN1237" style="display:inline;fill:#7D7D7D;stroke:#FFFFFF;stroke-width:7.5463;stroke-linecap:round;stroke-linejoin:round;" d="
		M287.7,624l-4.2,7.5l-0.8,1.1l-1.1,0.8l-0.8,0.4l-1.1,0.4l-0.8-0.4l-1.1,0.4l-9.1,7.9l-0.8,1.5l-0.4,1.5l-0.4,3.8v1.5v1.1v0.8
		l1.1,0.8l1.9,0.8l0.8,0.4l3,2.3l1.1,1.5l0.4,1.1l0.4,1.1l-0.4,1.1l-0.8,2.3v0.8v1.1l0.8,1.1l0.8,0.8v1.5v1.9l0.4,3l2.6,4.2v0.8
		l-0.4,1.9v0.8v0.8l1.1,1.1l0.4,0.8v0.8l-0.8,0.8l-0.8,1.1l-3.4,1.5l-5.3,1.5h-2.3l-3-0.8h-1.5H262l-2.3,0.4l-1.5,0.4l2.3,3.8v1.1
		v0.8l-0.4,1.9v1.5v1.9l0.4,1.5l5.3,12.5l2.3,3l0.4,1.1v0.8l-1.1,0.8l-3.4,0.8l-1.9,0.8l-1.5,0.8l-3,1.9l-1.5,0.8l-1.1,0.4h-0.8
		l-1.1-0.4l-0.8-0.4l-0.8,0.4l-0.8,0.4l-0.8,0.8v1.1v0.8l0.4,0.8l1.9,2.6l1.1,1.1l0.4,3v3l0.4,1.1l1.5,4.9l0.8,4.9l-0.4-0.4
		l-1.9-0.4l-0.8-0.8l-1.9,0.4l-2.3-1.1l-2.6-1.5l-2.3-0.8l-2.6-0.4h-1.1l-0.4,0.4l-0.8,1.1l-3.4,2.6l-1.1,0.8l-1.5,0.4l-1.5-0.4
		l-1.5-0.4l-1.5-0.4l-1.1,0.4l-1.9,1.5l-1.5,0.4l-6,0.4l-2.3,1.1l0.4,3l-0.8-0.4l-1.1-1.1l-0.8-0.4l-0.8,0.8l-1.1,1.9l-0.8,0.4
		L210,756l-0.8-1.5l-3-8.7l-1.5-2.6l-1.1-1.5l-0.4-1.9l-0.4-1.5l0.4-1.5l0.8-1.5v-1.5l-1.5-3l-0.8-5.3l-0.8-1.9l-0.4-0.8l-0.4-0.4
		l-1.1-0.4l-0.8-0.8l-0.8-1.5l-0.8-1.9v-0.8l0.4-0.8l1.1-1.5l0.8-0.4h0.8l1.9,0.8l1.1,0.4l0.8-0.4l0.4-1.1l0.4-6.8l0.8-2.3l1.5-1.9
		v-1.1l0.4-2.3l-0.4-0.8l-0.4-0.8l-0.8-0.8l-0.8-0.4l-2.3-0.8l-1.5,0.4l-3.4,1.5l-0.4-1.9l-0.8-3.4l-0.4-1.9l0.4-0.8l1.1-1.5
		l0.4-1.1v-3.4l0.4-1.5l0.8-1.9l1.1-1.9l1.5-0.4l1.5,0.4l1.1,1.1l1.1,1.1h1.9l1.9-0.8l3.4-2.3l1.9-1.9l1.9-0.8l0.8-0.8l0.8-0.8
		l0.8-3l1.1-1.5l1.5-0.8l1.5-0.8l4.5-3.4l0.4-0.8l-0.4-5.3l-0.8-1.9v-8.3l0.4-0.8l0.4-1.1l0.4-1.1l-0.8-1.1l3-4.5l1.1-2.3l2.6-9.1
		l1.5-2.3l2.6-1.5l1.9-0.8l1.1,0.4l1.1,0.4l1.5,0.4l1.1-0.8l0.4-2.3l1.1-7.2v-1.1l-0.4-0.4l-1.1-0.8l-1.1-1.5l-0.4-1.5l-1.9-7.2
		l-0.4-3.4l0.4-1.9l1.9-3l0.4-1.5l-2.3-5.7l-0.4-0.8l-0.4-6.8l-0.4-1.1l0.4-0.8l0.8-0.8l1.5-1.5l0.8-1.1l-0.4-1.5l-1.5-3.8v-3
		l1.1-2.6l1.9-2.3l1.9-1.5l1.5-1.9l0.8-1.1l1.1-0.4l1.1-0.4l1.1-0.8l1.1-1.5l0.4-3l1.1-3l0.8-4.9l0.8-1.1l0.8-1.1l0.8-1.1l0.8-3.8
		l0.4-1.1l1.1-0.8l2.3-1.5l0.4,3.8l-0.4,9.4l0.4,2.6v2.3l1.9,5.3l0.8,2.6l-0.4,1.5l-0.8,1.1L259,564l-1.1,1.1l-1.1,1.5l-0.8,2.6v1.9
		l0.8,1.5l0.8,0.8l1.5,0.8l9.4,3.8l1.5,0.8l1.1,1.1l0.8,1.1l1.1,2.3l1.1,8.7l0.4,2.3l1.1,1.5l3.4,4.9l2.3,1.9l2.3,3l1.1,2.3l0.8,1.5
		v1.1l-1.9,6.8v1.1v1.9l0.4,1.1l0.8,1.1l0.8,0.8l0.8,0.4L287.7,624L287.7,624z"/>
	
		<path id="IDN513" style="display:inline;fill:#7D7D7D;stroke:#FFFFFF;stroke-width:7.5463;stroke-linecap:round;stroke-linejoin:round;" d="
		M725.4,349.3l-2.6,0.4l-1.1-1.1l0.4-0.8l0.8-0.8l1.5-0.4l3.8-1.9l3.8-8.3h0.4v1.5l-0.4,2.6v2.3l-0.4,0.8l-1.1,0.8l-0.4,0.8
		l-0.4,2.6l-1.5,0.8L725.4,349.3L725.4,349.3z M581.2,437.9l1.1-1.9l1.9-4.9l0.4-2.6v-2.6l-0.4-2.6l-1.1-5.3l-1.5-2.3l-1.9-2.3
		l-9.4-4.2l-1.9-2.6l-2.3-1.5l-1.5-0.8l-0.8-0.8l-1.5-4.2l-0.4-2.3v-0.8l-0.4-0.8l-1.1-0.8l-3.8-1.9l-0.8-0.4l-2.3-1.1l-1.9-3.4
		v-0.8h1.1l1.9-0.8l3.4,1.5l1.1-0.8l-0.4-0.8l-0.4-1.9l0.4-0.8l1.9,1.1l1.5,0.8l2.3-1.1l1.5,1.1l0.4,0.8l0.4,1.5l0.8,0.4l1.1,0.4
		h2.3l0.8-0.4h0.8l1.5-0.8l1.1-0.4l0.8,0.4l0.4,0.8h0.8l0.8-0.4l2.3,1.5l6.4,1.1l2.3,1.5l1.1,0.4l2.6-1.5h1.5l1.5,0.4l3.4,1.5
		l1.5,0.8l11.3,1.5l5.7-0.4h0.8l1.5,0.4h0.8l0.8-0.4l0.4-0.8v-0.4l-1.1-0.8l1.1-0.8l3.4-0.8l1.5-1.5l9.1-3.4l2.6-0.4l1.1-1.1
		l1.9-2.3l2.6-1.1l5.7-1.5l1.9-1.5l1.1-3l1.5-5.7l1.5-2.3l0.8-0.8l1.1-0.8l1.5-0.4l1.9-0.4l5.3,0.4l1.5-0.4l0.8-0.4l1.1-1.1h1.1
		l0.8,0.4l0.8,1.5l1.1,0.4l1.1-0.8l1.1-1.5l0.4-1.9l0.4-1.5l-1.1-1.5l-1.1-0.4l-3,0.4l-1.5-1.1v-2.3l0.4-2.3l0.8-1.1l4.2-3.4
		l0.8-0.8l0.8-0.8l6,1.5l2.3-0.4l1.1-1.1l1.9-2.3l1.5-0.8l3.4-0.4l1.5-0.8l1.1-1.9l-0.4-1.5l-1.1-1.5l-0.8-1.5l0.4-2.3l0.8-1.1
		l8.3-6.4l1.1-1.5l1.5,0.8l0.4-0.4v-2.6v-0.8l0.8-0.8l1.9-0.8l1.5-0.4l0.8,0.8v3.4l0.8,1.1l1.5,0.4h1.9l5.3-0.4h2.3l0.4,1.1l-1.1,3
		v3.8l1.9,1.9l2.3,1.5l1.9,1.5l0.8,3l-2.3,2.3l-3.8,1.5l-2.6,1.5l-2.3,3l-1.5,3l-5.3,14.3l-3.8,6.8l-2.6,3l-2.6,2.6l-0.4,0.8
		l-1.1,1.9v0.8l-0.4,0.8l-3,1.5l-2.6,0.4l-0.8,0.8l-0.4,0.8l-1.5,1.9l-0.4,0.4l-2.3,0.8l-1.5,1.1l-3,2.6l-2.6,2.3l-1.1,1.1l-0.8,2.3
		l-1.1,1.5l-0.4,1.1v1.9l-1.1,1.1l-3,2.6l-0.4,1.5l-0.8,0.8l-0.4,0.8l0.4,0.8l0.8,0.8v0.8v1.5l-0.4,0.4l-1.5-0.4h-0.8l-0.4,0.4
		l-3.4,4.5l-0.4,1.1l1.1,0.8v0.8l-1.5,0.4l-0.8,1.1l-1.5,3l-2.3-0.8l-1.9,0.8l-1.9,1.1l-1.5,0.4l-1.9,0.4l-2.3,1.9L642,433l-4.2,0.4
		l-3-1.5l-1.1,0.8l-2.3,2.3l-2.3-0.8h-0.8l-0.8,0.4l-1.5,1.1h-0.8l-5.3,0.4l-1.9,0.4l-3.4,1.1h-0.8h-2.6l-1.5,0.8l-1.5,0.8h-0.8
		l-1.9-0.8H605h-1.9l-3,1.1l-2.6,0.4l-0.8,0.8l-1.1,1.1h-0.4l-0.8-0.4l-2.6-2.3l-1.1-0.4l-8.7-0.8L581.2,437.9L581.2,437.9z
		 M719.7,321h-0.4l-0.4-0.8l-0.4-0.8l-0.4-1.1l-0.4-1.5l-0.4-1.5l0.8-1.5l0.4-0.4l0.8,0.8l0.8,1.1l1.5,0.8l0.4,0.8v1.1l-1.9,1.5
		L719.7,321L719.7,321z M741.2,289.7l-0.4,1.1l-0.4,0.4h-0.8l-1.5,0.8l-0.4,0.4l-0.4,0.4l-0.8,0.8l-0.4,0.4h-0.8l-0.8-0.8l0.4-1.1
		l0.4-0.4l1.1-1.1l-0.4-0.8l0.4-0.8l0.8,0.8l0.4-0.4l0.8,0.4l1.1,0.4l1.1-1.1L741.2,289.7L741.2,289.7z M744.6,272.3l-2.3,1.5
		l-2.6-0.8l-1.9-1.9v-2.3l1.1-0.8l1.1-0.8h1.5l1.5,0.4l1.5,0.8l0.4,1.1L744.6,272.3L744.6,272.3z M742,247.8l-0.8,0.4h-1.5L739,247
		l-0.4-1.5V244l-0.4-1.1l-1.1-2.6l-0.4-1.1l0.4-1.1l1.5-3l0.8-1.1l1.1-0.8h1.1l1.5,0.8l0.8,0.8l0.8,1.1v1.1l-0.8,1.1l-2.3,1.9
		l-0.8,1.1l-0.4,1.1l0.4,1.1l1.1,1.5l0.4,1.1v0.8L742,247.8L742,247.8z M759,174.9l1.1,0.4h0.4v1.9l0.8,1.9l0.8,1.9v0.8v0.4
		l-0.4,0.8l-3,2.3h-0.4l-1.1-0.4l-0.4-0.4v-0.8l-0.4-1.1l-1.9-0.8l-3.8-1.1l-1.5-1.1V178l0.4-3.8l0.8-1.1v-2.6l-0.4-0.8l-1.9-0.8
		l-4.2-3.8l-1.1-1.1l-0.8-1.1l-0.4-1.9l0.4-1.5l1.9-2.3l3,0.4l2.6,1.9l1.9,1.9l3,4.5l0.4,1.5l-0.4,1.5l0.4,1.1l1.5,1.5l0.8,0.8
		l0.8,2.3L759,174.9L759,174.9z M858.2,156.5l-2.3,1.1l-3.8-3.4l-2.3-4.2l0.8-2.6l2.6,1.1l2.6,1.5l1.9,2.3l1.9,3L858.2,156.5
		L858.2,156.5z M846.5,150.8H845l-1.1-6.8l0.4-2.6l-1.5-1.9l-1.9-1.1l-0.4-2.3l-0.8-2.6l0.4-1.5l2.3,1.1l1.1,4.2l3.4,3.8l1.1,1.1
		v1.5l-1.1,1.9l-1.1,1.9L846.5,150.8L846.5,150.8z M861.2,95l0.4,1.1L862,98l-0.4,1.9l-0.8,1.5l-0.4,1.9l-0.4,1.9l0.8,3l2.6,2.3
		l1.5,1.9l-4.5,6l-4.5,4.2v6v3.8l-1.1,1.9l-3,1.9l-3.8-1.5l-3,0.4l-1.1-2.3l1.1-2.3l1.1-1.5l2.6-1.5l3-7.2l3.4-3l-0.8-1.5l-1.1-0.4
		l-5.7-1.5v-1.9l0.4-1.9l-1.1-3.8l-0.4-3.4l0.8-2.3l3-4.2V95v-0.8l-0.4-1.9l-0.4-0.8l1.1-0.8l1.9-0.4h2.3h1.5l1.1,0.8l0.4,1.9
		l0.8,1.1l1.1,0.4h0.8L861.2,95L861.2,95z M883.5,73.8l-0.8,0.8l-1.1-0.8v-1.5l0.4-0.4l0.8,0.4L883.5,73.8z M838.6,7.8l-0.4,0.4
		l-0.4-0.8l0.8-0.8l0.4,0.4L838.6,7.8L838.6,7.8z"/>
	
		<path id="IDN556" style="display:inline;fill:#7D7D7D;stroke:#FFFFFF;stroke-width:7.5463;stroke-linecap:round;stroke-linejoin:round;" d="
		M631.4,957.1l-0.8,1.5l-1.5-0.8l-0.4-0.8v-1.9l-0.8-1.1l-0.8-0.4L625,953l-0.8-0.4l-1.1-1.5l-0.4-1.9l0.4-1.5l0.8-2.3l0.8,0.8
		l4.2,3l0.8,0.8l0.8,2.3l0.8,0.8l0.8,1.9L631.4,957.1L631.4,957.1z M609.9,920.9l0.8,1.9l-1.9-0.4l-1.1-1.5l-2.3-3l-1.5-1.1
		l-1.5-1.1l-1.1-1.1l-0.8-1.5h1.1h2.3l1.1,1.1l1.1,1.5l1.1,0.4l2.3,0.8l0.4,1.9L609.9,920.9L609.9,920.9z M595.6,903.9l-1.1,1.1
		l-2.3-0.4l-1.5-0.8l-1.1-1.1l-3-6v-2.3l1.5-0.4l1.9,0.8h2.6l2.3,1.1l1.1,1.9v4.2L595.6,903.9L595.6,903.9z M455.2,881.7h1.5
		l0.4-0.4l1.5-1.5l0.8-0.4l0.8,0.4l0.4,0.8l1.1,4.9l1.1,1.1l1.9-0.4l0.8,1.1l1.1,1.1l0.4,1.1l0.4,1.9l-0.4,0.8l-1.1,0.8v0.8l0.4,2.3
		v13.6l-0.4,1.5l-1.5,1.1h-1.1l-1.5-0.4l-1.1,0.8h-1.1l-2.6-4.2l-1.1-1.1l-1.1-0.4l-1.5-0.4l-0.8-0.4l-0.4-0.8l-0.8-1.9l-3.4-4.9
		l-1.5-3.4l0.4-0.8v-2.3l0.4-1.1l0.8-0.8l0.4-1.1l0.8-1.1v-1.1l0.4-0.4l2.3-0.4l0.8-0.4v-0.8l-0.8-1.1l-1.5-1.5l0.8-1.5l1.5-1.1
		l1.1-0.8l1.5-0.8l-0.4,1.5v1.1L455.2,881.7L455.2,881.7z M525.8,869.6l-0.8,0.8h-0.4l-1.1-0.4h-0.8l-0.8,1.9l-0.8,1.1l-5.3,5.7
		l-1.5,1.9l-3,6.4l-0.4,1.9l0.4,0.8h1.9l0.8,0.4l-0.4,1.1l-0.4,0.8l-0.4,0.4l-2.3,0.4l0.8,0.8l1.9,0.8l1.5,0.8l0.4,0.8l0.4,0.8
		l0.4,1.9l-0.4,2.3l-0.8,1.9l-0.8,0.8l-1.1-1.1l-0.8,1.1l-0.4,1.9v1.9l-0.4,1.1l-0.8,0.4h-0.4l-0.8-0.8l-0.4,0.4l-1.1,1.1h-1.5
		l-0.4-3.4v-4.2l-0.4-1.9L505,899l-0.4-1.1l-0.8-0.4l-1.1,1.9l-0.4,0.8l0.4,1.5v1.1l-1.1,2.6l-1.5,1.1l-1.5,0.4l-1.5-0.8l-1.1-1.1
		l-0.8-2.3l0.8-1.1l2.6-1.1v-0.8h-1.1l-1.1-0.4h-0.8l-1.5,1.1l-0.4,0.8l-0.4,0.8v2.6l-0.8,0.8l-0.8,0.4h-4.2h-1.1l-0.8-0.4l-1.1-1.1
		l0.8-0.4l-0.8-1.5l-0.4-1.5l0.8-1.5l1.9-3.8l0.8-1.9l0.4-1.9l0.4-6l0.8-1.9l0.8-1.1l0.8-0.4l1.9-0.4l2.3-3l-0.4-1.1l-0.4-1.5
		l-0.8-4.2l-1.1-1.9l-0.4-3.4l-0.8-2.6l-1.1-2.3l-1.1-1.1v-0.4l1.1-1.9l1.9-4.2l1.5-1.5l1.5-0.8l5.7-0.4l2.3-0.4l2.3-1.5l6-4.2
		l4.5-2.6l3-1.1l1.5,0.4l1.1,0.8l0.8,1.5l1.5,10.6v6l0.4,0.8l1.1,1.5l0.8,2.6v0.8v1.9L525.8,869.6L525.8,869.6z M561.2,847.3l0.4,3
		v8.3l-0.4,2.3l-1.5-0.4l-0.4-1.9l-0.4-3l-1.1-1.9l-1.1-0.4l-0.4-1.1v-0.8l-0.4-0.8l-1.9-0.8l-1.5,4.9l-2.3-2.3l-1.1,1.1l-1.1-1.1
		l-0.4,1.1v3.4l-0.4,0.8l-1.5,0.8l-0.4,0.8l-0.8,2.6v1.1l0.4,3.4v1.5l-2.3,1.1l-0.8,1.5l-0.8,1.5l-0.4,1.1v0.8l1.1,1.9l0.4,2.3v1.1
		v1.9l-0.4,1.1l-1.9,3.8l-0.8,1.9l0.4,1.5l1.5,0.8l1.5-1.1l1.1-1.9l1.5-1.9l2.3-0.4l1.1,0.8v0.8v0.8l0.4,0.8l3,0.8l0.4,1.5l0.8,0.8
		l2.6,1.5l3.4,1.9l1.5,1.1l0.8,1.5l-0.4,1.5l-1.1,1.5l-1.9,1.9l-1.5,2.6l-1.1,1.1l-3.4,0.8l-3,1.9l-1.5,0.4l-1.5-0.4l-1.5-1.9
		l-1.1-0.4H542l-7.2,4.2l-1.1,1.1l-1.1,3.4l-0.4,0.8l0.8,0.4h0.8l1.9-0.8l0.8-0.4l0.8,2.6l-1.9,3.4l-3.8,5.3l-1.9,3.4l-1.1,1.1
		l-1.9,0.4v-0.8l-0.4-1.9v-0.8l-1.1-0.8l-1.5,1.9l-0.4,0.8v0.4l-0.8-0.8v-0.8v-2.3l-0.4-0.8h-1.1l-2.3,3.4l-1.1,1.1l-1.9-0.4
		l-1.5-1.1l-5.7-12.8l6-5.7l1.1-1.1l-0.4-1.1l-1.9-0.4l0.8-1.1l2.3-3l0.8-2.6h1.5l0.8-1.5l1.5-3l1.1-1.1l1.5-0.8l2.3-0.4l1.9-0.8
		l0.8-1.5V890l-0.4-0.4l-3.8,1.5h-0.4l0.8-1.5l-1.1-1.1l0.4-1.1l1.1-1.5l0.8-1.1l-0.4-2.3l0.4-1.1l1.5-2.3l0.4-1.5l-0.4-1.5
		l-0.8-0.4l-0.8,0.4l-1.1,0.4l-1.1,0.4l0.8-1.5l4.5-3.8l0.8-1.5l0.8-1.9v-1.9v-1.9l-1.1-2.6v-0.8l0.8-0.4l0.8-0.4h0.8l0.4-1.1
		l-0.4-14l0.4-3.4l1.1-3.4l2.6-4.5l0.4-1.9l0.4-1.1l1.1-1.1l7.9-5.7l1.9-0.8h2.3l1.1,0.4l-1.9,2.6l0.8,1.5l1.1,1.5l5.3,4.2l1.1,1.5
		l2.3,3.4l0.8,1.9l0.4,1.9v0.8l-0.8,1.5l-0.4,1.1l0.4,0.8l0.8,0.8L561.2,847.3L561.2,847.3z M550.3,791.9l1.9,0.8h1.1l1.5-0.8
		l1.9-0.8l2.3-0.4l1.5,0.4l2.3,1.9l1.5,3l0.4,3l-1.1,2.6l-3.8,5.3l-2.3,3l-2.6,1.5l-4.2-0.4l-3.4-2.3l-2.6-3l-2.6-3.4l-0.8-1.9
		l-0.8-3.4l-0.8-1.5l0.8-1.1l2.3-1.5l0.8-0.8l1.5-2.3l1.1-0.4l1.5,0.4l1.1,0.8L550.3,791.9z M558.2,759h-1.5h-1.5l-0.8,1.1l-0.8,1.1
		l-1.9-0.8l-1.5-1.5l-1.1-1.1l-0.4-0.8v-0.8l0.8-0.4h1.1l4.5-2.3l1.5,0.4l1.1,1.1l0.4,1.5L558.2,759L558.2,759z M486.9,756.4
		l-1.1,0.8l-0.8-1.5l0.8-1.5l1.1-1.5l1.1-1.1l1.1,0.4l0.8,1.1l0.8,1.1l0.4,1.1h-0.8l-1.9,0.4L486.9,756.4L486.9,756.4z M498.6,748.8
		l-1.1,0.8l-0.8-0.8l-0.8-1.5l-1.1-2.3v-1.9l0.4-1.1l0.4-0.8h0.4h0.8l0.4,0.8l0.4,1.1l0.4,0.8l1.9,1.5v0.4v0.8l-0.4,1.5L498.6,748.8
		L498.6,748.8z M428.8,707.3l6,0.8l9.1,0.4l3,0.8l19.6,7.9h1.5l4.9-0.4l1.5,0.4h1.1l1.5,0.8l1.9,0.8l6.8,5.7l3.8,4.9l-1.5,1.5
		l-1.9,4.5l0.4,2.3l1.1,0.4l3.8,1.5l0.8,0.8l0.8,1.5l0.4,2.3l-0.4,1.5h-1.5l0.8-0.8l-0.8-1.1l-1.1-0.8h-1.5l0.4-1.1l-0.8-1.1
		l-1.1-0.8l-1.1-0.4l-1.5-0.8l-0.4,1.9l-0.8,0.4l-1.1-0.4l0.4,1.5l0.4,1.1l0.8,1.1l1.1,0.8l0.8,1.5v1.9L485,750l-1.5,2.6v0.4
		l-1.5,0.8l-1.1,0.4l-1.9,0.8l-0.8,0.4v1.1l0.4,1.9l1.5,3l1.1,1.1l1.1,1.1l1.5,0.8l1.9,0.4l1.1,0.4l0.8,1.1l0.8,1.1l0.8,1.1l1.9,0.8
		l1.5,0.4l3.8-0.4l1.5,0.4l1.1,1.1l1.5,3.4l4.9,6.4l1.5,1.1l1.5,0.4h5.7l0.8,0.4h0.8l0.8,0.8l0.4,1.1l-0.4,0.8l-1.5,0.4l-1.1,1.1
		l-0.8,1.1l-0.8,0.4h-2.3l-1.9,0.8l-1.1,0.4v0.4l4.2,0.4l1.9,0.4l1.5,0.8l1.1,1.1l0.8,1.5v1.5v3.4v1.5l0.8,1.5l1.1,1.5l1.1,0.4
		l0.4-0.4l0.4-1.5v-0.4l2.3,1.1l3,0.4h3.4l1.9-0.4l-4.2-4.5l-1.1-2.3l2.6-0.8l3,1.5l2.3,3l1.5,3.4l1.1,4.9l0.4,1.9v1.5l-1.5,2.6
		l0.4,1.5l0.8,3.4v3.4l-0.4,1.5l-1.1,0.8l-1.5,0.4l-0.8,0.8l-0.4,1.1l-1.1,1.1l-1.1-1.5l-5.7-4.2l-3-3l-1.9-1.1l-2.3-0.4l0.8,1.5
		l3.4,3.4l0.8,0.8l0.8,1.5l0.4,0.8h1.9l0.4,0.4l-0.4,0.8v0.4l0.4,1.9v1.5l-0.4,0.8l-0.8,0.4l-1.1,0.4l-0.8-0.4l-1.9-2.6h-0.8
		l-0.4,0.4l0.4,1.1l-0.8,1.1l-0.8-0.4l-1.1-1.9v-1.9l-2.3-1.9l-3.4-1.1l-3,0.8l-2.6,1.9l-2.6,0.4l-3-0.4l-2.6-1.1l-3,1.9l-3.4,1.1
		l-3.8,0.8l-5.3,0.4l-1.5,0.4l-1.1,1.1l-0.8,0.4l-1.9,0.8l-1.5,1.1h-0.4l-3,0.4l-0.8,0.4l-1.9,1.9l-1.5,3l-1.5,3.8l-0.8,3l0.4,3.8
		l1.1,2.6l2.3,2.3l1.9,1.9l1.9,0.8v0.8l-1.5,0.4l-1.9,1.9l-1.1,0.4l-1.5,0.4l-3.8,0.8h-1.5l-8.7-0.8l-1.5-0.4l-2.3-1.5l-1.5-0.8
		h-1.1l-1.5,0.4l-1.5,0.4l-1.9-0.8h-0.4l-0.4,0.8l-1.1,0.8l-1.1,0.4h-0.8l-1.5-1.1l-2.3-3l-1.5-0.8h-1.1l-4.9-1.9l-0.8-0.8l-4.2-5.7
		l-0.4-1.1h-1.1v-0.4l-0.8-3l0.4-3.4l1.5-6.8l1.5-4.9l0.8-3.4l0.4-3.4l-0.4-6.4l0.4-2.3v-1.1l0.4-0.4l0.8-0.4h1.1l0.4,0.4l-0.4,1.1
		l-0.8,0.8l2.6-1.5l2.6-5.7l1.1-6.4l-3-4.2l-3-1.5l-10.2-1.9l-6.4-2.3v-1.1l-1.1-1.1l-0.8-1.5l-0.4-0.8l-1.1-1.5l-1.1-0.8l-1.1,0.4
		l-0.8,0.4l-1.5,0.4l-0.8-0.4l0.4-1.9l0.8-1.9l0.4-1.1l-0.8-1.9l-1.1-0.4h-3.4l-1.9-0.4l-1.5-0.8l-4.5-5.3l-17.4-15.8l-1.5-3
		l-0.4-2.6v-0.8v-1.1l0.8-1.9l0.4-0.8l0.4-1.9l1.9-1.9l1.9-1.5l1.5-1.9l1.1-3.4l1.1-1.5l1.1-0.8h1.1l0.8-0.4l0.4-0.8l0.8-1.5
		l1.9-0.8l0.4-0.4l0.8-1.5l0.4-4.5V719l-0.4-1.9L385,716l-1.1-1.1l0.4-1.1l1.1-2.3v-1.1l0.8-1.5l0.4-1.1v-3.4l0.4-0.8v-1.5l3.4-1.9
		l3-1.1l3.4-0.4h1.9h1.1l1.5,0.4l1.5,0.8l5.7,3.8l6.8,5.7l3.8,1.9l0.8,0.4h1.1l1.1-0.4l1.9-0.8L428.8,707.3L428.8,707.3z"/>
	
		<path id="IDN557" style="display:inline;fill:#7D7D7D;stroke:#FFFFFF;stroke-width:7.5463;stroke-linecap:round;stroke-linejoin:round;" d="
		M616.3,631.9l0.4,0.8l-0.4,1.1l-0.4-0.4l-1.1-1.5l-0.4,0.4l-1.1-0.4l-0.8-0.4l0.4-1.1l1.1-1.9l0.8-0.4l0.8,1.1v1.1L616.3,631.9
		L616.3,631.9z M598.2,624.7h-0.8l-0.4-1.1v-1.5v-2.6h0.4v0.8l0.8,3V624.7z M604.3,622.8L602,624l-0.4-1.9l0.4-1.9l1.1-0.8l1.1,0.8
		v0.4l0.8,1.1v0.8L604.3,622.8L604.3,622.8z M614.4,626.6l0.4,0.8l-0.8-0.4l-0.8,0.4l-0.8,0.4l-0.8,0.4l-1.9-0.8l-1.1-0.4l-0.4-1.1
		l-1.1-4.5l-0.4-2.3l1.5-1.9l4.5,4.5l0.8,0.8l0.4,1.1L614.4,626.6z M551.8,619l-1.1,0.4h-1.1l-0.4-0.8l0.4-4.2l0.4-1.9l1.1-3
		l0.4-1.1v-1.1l0.8-0.4l1.1,0.4l1.1,0.8v0.4l1.1,0.8l0.8,1.9v1.9l-0.8,1.5l-1.1,0.4l-1.1,1.1l-0.8,1.1l-0.4,1.1L551.8,619z
		 M569.9,609.2l-1.5,1.1l-1.5-0.4l-0.8-1.5l0.4-1.5l4.2-4.5l2.3-1.5l0.8-0.4l0.8,0.8l0.8,0.8v1.1l-0.4,0.8l-0.8,0.8l-1.5,0.8
		l-0.8,0.8L569.9,609.2L569.9,609.2z M590.3,594.9h1.1l0.8-0.4l0.8,0.4l0.8,0.8l0.8,1.1l-0.4,1.1v1.1l-0.4,1.9v1.1l-0.8,1.1
		l-2.3,1.5h-0.8h-0.8h-0.8l-0.8-0.4l-1.1-0.8l-0.4-0.4l-0.4,0.4L585,604l-0.8-0.4l-0.8-0.8l-0.8-2.3v-1.9l0.4-1.1v-1.1v-0.8l1.1-1.1
		l-0.4-1.1l-0.8-0.4l-0.4-1.1l0.4-1.5l0.8-1.9l0.8-1.1l1.1-0.4h0.8l0.4-0.8l-0.4-1.1h0.8l0.4,0.4l0.8,0.8l1.1,4.2v0.8l-0.4,0.8
		l0.4,1.5L590.3,594.9L590.3,594.9z M560.1,558.3l3.8,5.7l-0.8,0.8l-0.4,0.8l-0.8,0.4l-1.1,0.4l-0.8,0.4v1.1v1.9v1.1l1.5,1.5
		l0.8,0.8v1.1v2.6l0.4,1.1l1.9-1.5l1.5-1.9l2.3-3.8l1.1-0.8l0.4-0.4l1.1-1.9l0.8-2.3l0.8-1.1l1.1-0.4h1.5h0.8l1.1-0.4l0.4,0.8
		l0.4,1.5l1.1,0.8l0.4-0.4l0.8-1.1l0.8-0.8l1.1,0.8l1.5,1.9l1.5,0.4h1.5l1.5,0.4l0.8,1.1l0.4,1.5l-0.4,1.9l-0.8,3l-0.8,1.5l0.4,2.6
		l-0.4,0.8l-0.4,0.8l-1.9,2.3l-3.4,3l-0.8,0.4l-1.5,0.4l-0.8,0.4l-1.5,0.4l-2.3-1.1l-1.5,0.8l-0.4-3l-0.4-1.5l-1.5-0.4l-0.4-0.4
		v-1.9l-0.8-0.4H568l-0.8,0.4l-0.4,0.4l-1.9,3l-0.8,3.8v7.5v1.9l-0.8,0.8l-0.4-0.8l-0.4-1.5l-0.4-1.1l-1.1,0.4l-3,1.9h-0.4l-0.8-0.8
		l-0.4-0.8l-2.6-0.8l-0.8-0.4l-0.4-0.8l-0.4-1.1l0.4-0.8l1.5-0.8l3.8-2.3l0.8-2.6l-1.9-10.9v-2.6v-0.8l-0.8-0.8l-0.8-0.4l-0.8,2.3
		l-1.1,0.8l-1.1,0.4l-1.1,0.4l-1.9,4.2l-0.4,0.8l-1.1,0.4l-0.8,1.1l-0.8,2.6l-1.5,2.6l-1.9,1.9l-6,5.3l-1.9,1.1l-1.9-0.4l-4.9-11.3
		l-0.4-3.4l0.4-3.8l0.8-3.8l1.1-3l5.3-7.5l1.1-0.4h1.9l2.6,1.1l1.1,0.4l1.1-0.4l1.5-1.5l1.1-0.4l3.8-0.4h3h0.4l1.5,1.1l0.8,0.4
		l1.1-0.4l0.4-0.8v-0.8l0.8-1.1l0.8-0.4l0.8,0.4l0.4,0.4L560.1,558.3L560.1,558.3z M449.9,496.4l3.4,2.3l0.4,0.8l0.8,1.9l0.4,0.8
		v1.5l-0.8,0.8l-0.8,0.8l-1.5,0.4l-0.4-0.4l-1.9-1.9l-1.1-0.4l0.8,1.9v0.4l-1.1,0.4l-1.1-0.4l-1.5-1.1h-0.8l-3.8-0.8l-0.8-0.4
		l-0.8,0.4l-1.9,4.2l-1.1,0.8l-1.5,0.8h-1.1l-1.1-0.4V507l0.8-1.5l2.3-3.4l0.8-0.8l1.1-0.8l2.6-1.1l0.4-0.8l1.1-2.3l1.9,1.9l1.9-0.4
		l1.9-1.1L449.9,496.4L449.9,496.4z M465.4,491.1l0.8,0.4v1.1v1.5l-0.8,1.5l-1.5,1.1l-1.5,0.4l-1.9-0.8l-1.5,1.1h-2.6l-2.6-0.4
		l-2.3-1.1l-1.1-1.5v-0.8l0.4-0.8l0.4-1.1l0.4-1.1h0.8h1.5l1.1,0.8h0.8v-0.4v-1.5l0.4-0.4h3l1.1,0.4l1.9,1.1h0.8h1.5L465.4,491.1
		L465.4,491.1z M473.7,494.2l-0.4,0.8l-1.5,0.8h-0.4l-0.8-0.8h-1.1l-0.4,0.8v0.8l-0.4,0.8l-1.1-1.1l-0.8-3.4v-1.9l0.4-3l0.8-2.3
		l1.5-0.4l0.8,4.5l0.4,0.4l1.9,1.1l0.4,0.8l0.8,1.1L473.7,494.2L473.7,494.2z M477.5,480.6l-1.1,1.9h1.1h1.1l0.8,0.8l0.4,0.8
		l1.5,0.8v0.4v0.8l-0.4,0.4l-0.8-0.4l-0.4-0.8H479l-0.8,0.4l-3-1.5l-1.5-0.4v-0.8l1.1-1.9l1.5-1.1L477.5,480.6z M488.8,482.5
		l1.5,0.8l1.1,0.8l0.8,1.1l-0.4,1.5v1.9l0.8,1.9l0.8,1.1l-0.8,0.4l-1.9-1.9l-2.6-5.3l-2.3-1.5l-1.5,0.4h-0.8l-0.4-0.4l-1.1-1.1
		l-1.5-1.5v-0.8l0.4-0.8l0.8,0.4l2.3,1.1h0.4l0.4,0.4l0.8,0.8L488.8,482.5L488.8,482.5z M431.1,479.8l-1.9,0.4l-2.3-1.5l-0.4-3.4
		l2.3-1.5h3l1.1,1.9l-0.4,2.3L431.1,479.8L431.1,479.8z M354.1,377.9h-1.5l-2.6-1.9l-2.3-0.4l0.8-0.4h1.1h0.8l1.9,0.8l0.4,0.8
		L354.1,377.9z M329.6,379.5l-0.8,0.4l-0.8-0.8v-1.5l0.4-1.5l0.4-1.1l1.1-0.4l1.1,0.8l0.4,1.5l-0.4,1.1l-0.8,1.1L329.6,379.5
		L329.6,379.5z M477.9,379.5v0.4l-4.5,3l-7.9,3.4l-4.2,0.8l-8.3-3l-1.5-0.4h-1.5l-1.1,0.4l-9.8,4.2l-5.3,1.9l-2.3,1.1l-1.5,0.4
		L425,393l-3.4,1.1l-1.1,0.4l-0.8-0.4l-1.9-0.4l-3.4-0.8h-2.3h-1.1l-1.9,0.4l-1.1,0.4l-3.4,2.3l-0.8,0.8l-1.1,1.1l-1.5,1.9l-0.8,1.1
		l-0.8,2.3l-0.4,1.1l-1.9,1.1l-4.5,1.9l4.5,4.9l1.1,1.5l1.5,1.1l0.8,0.8l1.9,0.4l1.5,0.4h1.1l1.1-0.4l0.8,0.4l0.4,0.8v1.1l0.4,4.5
		v1.1l-0.8,1.9l-1.1-0.4l-1.9-1.1l-1.1-0.4h-1.9l-3.4,1.5l-1.5,0.4h-1.9l-1.1,0.4l-1.1,0.4l-1.1,1.5l-0.8,1.1l-0.8,0.8l-0.8,0.4
		h-0.8l-3-0.8l-1.1-0.4l-2.3-1.9l-1.5-0.4H379l-2.6,1.1l-5.3,0.8h-1.1l-1.5-0.8l-0.4-0.8l-0.4-1.1l-0.4-0.4l-0.4-0.4l-2.6-0.4
		l-0.4-0.4l-0.4-1.1h-0.8h-1.1l-1.5,0.4h-0.8l-1.5-0.8l-2.6-2.6l-1.5-0.4H339l-1.1,0.4l-6.4,3.4H330l-1.1,0.4l-1.1,1.1l-1.1,1.1
		l-0.8,0.8l-1.9,1.5l-3.4,3.8l-4.9,7.2l-4.5,5.3l-2.3,2.6l-0.4,1.1l-0.4,2.6l-0.4,0.8l-1.1,1.9l-0.4,1.5l-0.4,3.8l-0.8,3.8l-0.8,1.9
		l-1.1,1.5l-3,1.9l-0.4,0.8v1.1l0.4,1.9l-0.8,3.8l-0.4,1.9l-0.8,1.5l-0.8,1.1l0.4,2.3l1.5,10.6l0.8,1.5l2.3,3l0.4,1.9v0.8l-0.8,1.9
		l-0.4,0.8l0.4,0.8l0.8,1.9l1.1,7.9l1.5,3.8l12.5,18.9l1.1,0.8l3.8,3l1.9,0.4l1.9-1.1l1.5-1.1l1.9-0.8l1.9,0.4l1.1,1.1l0.8,1.5
		l0.8,1.9l0.8,0.4l0.8,0.4h1.9l1.1,0.4l0.8,0.8l0.8,2.3l5.3,7.5l0.4,1.1v0.8l-0.4,0.8l-0.4,0.8l-0.4,2.6l-0.8,1.9v1.1l0.8,1.1
		l3.8,4.2l0.8,1.9l0.8,3l0.8,1.9l1.1,1.9l1.1,0.8l4.9-2.3v-0.4l5.7-1.5l2.3-0.4v0.4l-0.4,2.6l0.4,0.8l1.1,0.4l1.9,0.4h1.9l5.3-0.8
		l1.5-0.4h1.1l0.8,0.4l1.9,1.9l1.1,0.8l3,0.4l2.6-1.5l2.3-1.9l3-4.9l0.4-1.1l0.4-3l1.1-4.2l0.4-1.5l0.8-0.8l1.5-1.5l1.5-1.1l1.1-0.4
		l0.8-0.4l1.1-1.5l1.1-2.6l2.3-2.6l4.5-3.8l4.5-7.2l1.9-2.3l3.8-3.8l1.1-0.8l1.9-0.4h3.4l0.4-0.4v-1.5l0.4-0.8l0.8-0.4l1.9-0.8h0.8
		h1.1l1.5,1.1v4.9v1.1l2.3,1.5l0.8,1.5l0.8,0.4l0.4,0.4h7.2l3.8,0.4l3.4,1.1l3,0.4l3.4-1.1l2.6-1.9l1.9-0.4h1.9l1.9,0.4l1.5,0.4h1.5
		l2.3-1.5l0.8-1.5l1.1-3l0.4-2.6l-0.4-1.5l3.4-2.6l1.1-0.4l16.6-0.4l3-0.8h3l6,1.5l3-0.4l1.5-1.1h0.8l1.1,0.4l1.5,1.1l2.3,0.4
		l1.1,1.1l1.5,0.4h1.9l4.2-1.5l10.2-0.8l1.1-0.4l1.5-0.8l1.1-1.1v-0.4l-5.3-1.1l-1.1-1.9h-1.1l-7.2-0.8l-1.1-0.4l-1.1-0.4l-0.8-0.8
		l-0.8-0.8v-0.8l1.5-0.8l1.1,0.8l1.1-0.4l2.3-1.5l0.8-0.8l0.4-0.4l1.5,0.8h0.4l0.8-0.8l7.2-0.8l1.9-0.4l0.8,0.8h1.5l1.5-0.4l1.1-0.4
		l1.1-0.8l1.1-1.9l0.8-0.8h1.1l13.6,1.1l2.6,1.1l5.7,3l4.9,1.9l1.1,0.8l-0.8,1.1v0.8l0.8,0.8l0.4,1.5l0.4,0.4h0.8h0.8l-0.4,1.9
		l1.1,2.3l-1.1,2.6l0.4,3.4l-0.4,1.5l-2.3,2.3l-0.8,1.1l-1.1,7.5l-0.4,1.5l-2.6,3l-3.4,0.8l-3.4-0.4l-2.3-1.5l-2.6-3.4l-0.8-0.8
		l-0.4-0.4l-3.8-3v-0.8l0.4-2.3l0.4-0.8l-0.8-1.1l-0.8-1.1l-1.9-1.5l-1.5-0.8l-3,3.8h-1.9l-2.3,1.1l-7.5,0.4l-3.4,0.8l-3-0.8
		l-2.3,2.3l-3.4,7.9l-0.8,1.1l-2.3,2.3l-0.8,1.1v1.5l-0.4,1.1l-0.8,0.4l-0.8,0.4l-0.8,0.4l-2.6,1.5l-1.1,1.5l-0.8,3.8l-0.8,1.1
		l-3.4,1.5l-1.1,1.1l-3.4,5.3l-1.5,0.8l-0.8,0.8l-0.8,1.5l-1.1,1.9l-0.4,0.4l-5.7,5.3l-2.3,2.6l-0.8,1.1l-5.3,2.6l-6,4.2l-2.6,2.6
		l-1.5,0.8l-0.8-0.4l-1.1-0.8l-1.1-0.8l-1.9,0.4l-3,1.5l-1.9,0.4h-0.8l-1.5-0.4h-0.8l-0.4,0.4l-1.1,1.1l-2.6,1.9l-1.5,0.4h-1.1
		l-1.9,0.8l-1.5,0.4l-3.4-0.4l-0.4,1.5h-0.8l-1.1,1.1l-1.1,0.4l-0.8,0.4l-0.8,0.4l-0.8,1.5l-0.8,3l-2.3,4.9l-1.1,2.3l-1.9,2.3
		l-1.9,1.9l-2.6,0.8l-2.6,0.8h-5.3H425l-0.8-0.4l-0.8-1.1l-1.9-2.3l-0.4-0.4l-1.1-0.4l-2.6-1.1l-1.1-1.5v-1.1l-0.4-1.1l-1.9-0.8
		h-3.8h-0.4l-1.1-1.5l-0.4-0.4h-3l-1.1,3l0.4,2.3l3-0.4l0.4,1.1l-0.4,1.9l-0.8,1.5l-0.4,1.9l0.4,0.8l0.8,0.8v0.8v3.8l1.9-1.5
		l1.1-1.5l0.4-1.1v-1.1l0.8-0.8l1.1-0.8l0.8,1.5l1.9,4.2l2.6,1.9l0.8,1.5l1.1,1.1h1.9l1.9,1.9l1.5,6.4l1.5,2.3l3.8,1.1h3.4l3.4,0.4
		l3,2.3l2.3,2.6l4.5,3.8l1.9,2.6l1.5,3l0.8,1.9v1.5l0.8,1.1l3.8,4.2l3,4.5l1.1,3l2.6,3.4l0.8,1.5v1.9l-0.8,3.8l0.4,0.8l3.8,4.2
		l1.9,1.9l1.1,0.4l3,0.4l0.8,0.4l0.4,0.4l0.4,0.8l0.4,0.4l0.8,0.4l0.8,0.4l0.4,1.1l0.4,1.9l0.4,1.9l1.5,0.8h3l1.5,0.4l1.9,0.8l1.9,3
		l-1.5,3l-1.9,3l0.8,3.4l0.8,0.4l2.3,1.1l5.7,6h0.8l1.1-0.4l1.9-1.1l0.4,1.1l0.4,0.8l0.4,0.8l1.1,0.8l0.8-0.8l0.4,0.4v0.8l-0.8,1.1
		l-0.4,0.4l-1.1,0.4l-0.8,0.4v0.8v1.1v2.6h-0.4H496l-1.1-1.1h-1.1l-0.4,0.8l-2.3-1.9l-1.5,1.9l-3.8-4.9l-6.8-5.7l-1.9-0.8l-1.5-0.8
		h-1.1l-1.5-0.4l-4.9,0.4h-1.5l-19.6-7.9l-3-0.8l-9.1-0.4l-6-0.8l1.5-1.1l12.8-12.8l1.1-2.3l0.4-1.5l0.4-1.5v-1.9v-1.5l-0.8-2.3
		l-0.8-1.9l-1.1-1.5l-1.5-1.5l-8.7-4.2l-2.6-1.5l-4.9-4.5l-4.5-5.7l-1.5-1.1l-1.9-1.1l-4.2-1.9l-4.2-1.5l-44.5-9.1l-3.4-1.5
		l-11.3-9.4l-3-3l-3-3.4l-8.7-13.2l-1.5-1.5l-1.9-0.8l-1.5,0.4l-1.1,0.8l-0.4,0.8l-0.8,1.9l-0.4,0.8l-0.8,0.8l-1.5,0.4l-2.6-0.4
		l-11.3-3.4l-4.5-0.4h-2.6L302,616l-6.8,3.4l-4.5,3l-3,1.5l-1.5-0.4l-0.8-0.4l-0.8-0.8l-0.8-1.1l-0.4-1.1v-1.9v-1.1l1.9-6.8v-1.1
		l-0.8-1.5l-1.1-2.3l-2.3-3l-2.3-1.9l-3.4-4.9l-1.1-1.5l-0.4-2.3l-1.1-8.7l-1.1-2.3l-0.8-1.1l-1.1-1.1l-1.5-0.8l-9.4-3.8l-1.5-0.8
		l-0.8-0.8l-0.8-1.5v-1.9l0.8-2.6l1.1-1.5l1.1-1.1l5.3-3.4l0.8-1.1l0.4-1.5l-0.8-2.6l-1.9-5.3v-2.3l-0.4-2.6l0.4-9.4l-0.4-3.8
		l1.9-1.1l0.8-1.9l0.4-0.4l2.6-1.1l3.8-3.4l-1.9-1.9l-0.4-0.8l0.4-0.8l1.1-0.4l1.9-1.1l0.8-0.8l1.9-2.3l0.4-0.4l0.4,0.4l1.1,3
		l0.4,2.3l3,6l1.5,4.5l1.1,2.3l1.9,1.1l1.1-3.4l0.4-1.5v-2.3l-0.8-1.5v-0.8v-2.6v-0.8l-0.8-1.5l-1.9-1.9l-0.4-0.8l-0.4-1.1l-1.9-3.8
		l-0.8-3l-0.4-3v-0.8l-1.1-2.6l-0.4-1.9l1.9-18.9l0.8-2.6l0.8-0.8l0.8-1.1L282,476l-0.4-2.3l-0.8-1.5l-2.3,1.1H276l-2.6-0.4
		l-1.9-1.1L270,470l-1.5-2.3l-1.1-2.6l0.8-2.3l1.1,0.8l1.5,0.4v-1.9l0.8-1.1l1.9,1.1l1.5,1.5l2.3,2.6l1.5,2.6l1.1,1.1l1.9,0.8
		l1.1,0.4h1.1l0.4-0.8l1.1-1.9l0.8-1.5l1.9-7.2l0.8-1.9l-1.5-3l-6-7.5l-0.8-0.8v-1.1V444l0.8-0.8l4.9-1.9l1.1-1.1v-1.5l-0.8-1.1
		l-0.4-1.9l0.4-1.9l1.9-3l1.1-1.5v-1.1v-1.5l0.4-0.8l0.8-1.1l1.1-0.4l0.8-0.8l1.1-0.4l1.5-0.8l3.8-0.4l1.5-0.8l1.1-2.6l-0.4-3.4
		l-0.8-3l-0.4-3.4V407l0.8-1.9l0.8-1.5l1.5-0.8l0.8-0.4l1.9-0.4h1.1l1.1-0.4l5.3-2.3l1.5-1.1l1.9-1.5l0.4-1.5l1.1-8.3l0.8-2.6
		l1.9-2.3h3.4l1.5,1.1l0.8,1.5l-0.8,3.8v3.8l0.8,1.1l1.1-0.8h0.4l0.8,1.5l0.8,1.1l1.5,1.1l1.5,0.8l2.6,0.4l1.1,0.8l0.8-0.4l0.8-0.8
		h1.9l1.5,0.4l1.1,0.8l1.1,1.1h1.1l1.1-1.1l2.6-3l-1.1-1.9l1.1-3.4l3.8-5.7l1.9-1.9l0.4-0.4h0.8l1.1,0.8l0.8,0.8l1.1-0.4l0.4-0.8
		l0.8-1.5l0.4-1.1l0.8-0.4l1.5-0.4l0.8-0.4l0.8-1.5l0.4-1.1l-0.4-5.3V370l0.4-0.8l0.4-1.1l0.8-0.8l0.8-1.9V364v-3l-0.8-3l0.4-1.9
		l0.8-1.1l0.8-0.4l1.9,0.4h0.8l0.8-0.4l2.3-1.9l-0.4,2.3l0.4,1.1l0.8-0.4l1.5-1.5l0.8-0.8h1.5l7.9,1.5l1.5-0.4l4.2,1.1l2.3,1.1
		l1.9,2.6l6.8,3.4l4.2-1.9l1.9-0.4h3.4l1.5-0.4l1.9-1.1l1.5-1.5l0.8-0.4l1.1,0.4l0.4,0.8l0.4,1.1v1.1l-0.4,0.8l-0.8,0.4l-2.3,0.8
		v0.8l0.8,1.1l0.4,0.8v1.9l0.4,0.8l1.5,1.9l0.4,0.8l0.8,1.5l3.8,3l1.5,0.8l3.4,0.8h3.4l24.1-3l1.5,0.8l1.1,3.8l1.1,1.1l1.5,0.8h1.9
		l1.1-1.1l1.9-1.9l1.1-0.4h2.3l4.9,2.3h2.3l1.1,0.4L477.9,379.5L477.9,379.5z"/>
</g>
<g id="Layer_3">
	<path id="IDN1933" style="fill:#7D7D7D;stroke:#FFFFFF;stroke-width:8.7448;stroke-linecap:round;stroke-linejoin:round;" d="
		M370.5,559.8l4.8,5.7l1.7,0.9h-2.2l-2.2-2.2l-2.6-2.6l-1.7-0.9H367l-2.2,0.4h-0.9h-1.7h-0.9l-0.9-0.9l-1.3-0.9l-1.3-0.9l-2.2-0.9
		l-1.3-0.4l-0.9-0.9l-0.9-1.3l-0.9-0.9h-1.3l-1.3-0.4l-0.9-1.3l-0.4-1.3v-1.3l0.4-1.7h1.3l6.6,4.8l1.3,0.4v0.4l0.9,1.7l1.7,0.9
		l0.9,0.9h0.9l2.6,0.4l2.6,0.4l1.7,0.9L370.5,559.8L370.5,559.8z M287.4,482.8l1.7,3.1l0.9,1.3l0.4,1.7v1.7l-1.3,1.3l-0.9-0.9
		l-1.3-1.3l-0.9-1.7l-0.4-2.2l-0.4-0.4h-1.3L283,485l-1.7-2.2l0.9-0.4l1.3-0.9l0.9-0.4l1.3,0.4L287.4,482.8L287.4,482.8z
		 M184.6,409.8h-2.2l-0.4-0.4l0.4-0.4l2.2-0.9l2.6-1.7l1.3-0.4h1.3l-1.3,1.3l-1.7,1.3L184.6,409.8L184.6,409.8z M368.7,389.3
		l1.3,0.9v-0.4h0.9l2.2,1.3l1.7,0.9v2.2l-1.7,2.2h-2.2l-0.4-0.9l-3.5-1.3l-0.9-1.3l-0.4-1.3l-0.9-1.3l-0.9-1.7l1.7-0.4L368.7,389.3
		L368.7,389.3z M466.2,390.1l-1.7,0.4l-0.9-0.9l-0.4-0.9l1.3-1.3l-2.6-1.3l0.4-1.3l2.6-2.6l0.9-1.3l0.4-2.2v-3.5l0.9,0.4l0.4,0.9
		v1.3v1.3v7.9l0.4,2.2l-0.4,0.4L466.2,390.1L466.2,390.1z M448.3,361.7l-1.7,0.4l-1.7-1.7l-0.9-2.2v-2.6l0.9-2.6l0.9-2.2l1.3-1.7
		l0.9-0.9l1.3-0.4l0.9,0.4l1.3,0.4l1.3,0.9l0.4,1.3l-0.4,1.3l-2.6,4.4l-0.4,3.5L448.3,361.7L448.3,361.7z M430.8,339.8l-1.7,2.2
		l-1.3-4.4v-1.7l0.9-4.4l5.2-8.3l0.9-0.4l1.3,0.4v1.7l-0.4,3.1l-0.9,0.4l-1.3,1.3l-1.3,1.3l1.7,2.2l-1.3,3.1L430.8,339.8
		L430.8,339.8z M66.6,318.4l-0.4,4.4l5.2,3.9l0.9,1.3l1.3,1.7l0.9,2.2v1.3l-1.3,0.4l-0.9,0.4l-0.4,2.2l-0.4,0.4h-2.2l-2.6,2.2
		l-1.3,1.7l8.7,3.5v0.9l-0.4,0.4h-1.3l-0.9,0.4l-0.9,0.4l-1.3,1.7l-0.9,0.4l-0.9-0.4l-0.9-0.4l-1.7-0.9V346l0.4-1.3l-0.4-1.7
		l-0.9,0.9l-1.7,3.1l-0.9,0.4l-1.3,0.9l-1.3,1.3l-0.9,1.3l-0.9,0.9l-3.1,1.3h-6.6l-2.6,0.9l-1.3-1.3l-1.3-0.9l1.3-0.4l-2.6-1.3
		l-1.7-0.4l-5.2,0.4l-3.9-1.7l-4.4-0.4h-0.9l-0.9-0.9l-3.1-0.9l-1.7-1.3l-1.3-0.4l-0.4-0.4l-1.7-1.7l-0.9-0.4l-3.9-1.7L8.4,339
		l-0.9-0.4l-1.7-2.2l2.6-1.7l12.2-4.4h0.4v-1.3l1.7-0.9h0.9l3.1-0.4l2.2-0.9l4.8-3.1l1.7-0.4l2.2-0.4l3.9-0.4l3.9-0.9h2.2l5.7,0.9
		h1.3l1.3-1.7l2.2-1.3l1.7-0.9l3.1-1.3l1.3-0.4h0.9l0.9,0.4L66.6,318.4L66.6,318.4z M29,269.5l-0.9,0.9l-2.2,2.2l-0.9-1.3v-0.9
		l-3.5,3.1l-2.2,1.3l-2.6,0.4l3.9-2.6l0.4-0.9l-0.4-0.4l-0.9,0.4l-1.7,0.9h-1.3h-6.6l-1.7-0.9l0.4-1.3l1.7-1.3l8.7-3.1h1.7l1.7,1.3
		h1.7h2.2l1.7,0.9L29,269.5L29,269.5z M121.7,245.4l0.4,0.9h0.4l1.3-0.9l1.7-0.9h4.4h0.9l1.7,1.7l2.2,3.1v0.9l-1.3,1.3l-0.4,0.9
		l1.3,2.2v0.9v4.4l-3.1,14l-2.2,4.4l-0.4,1.7l-0.4,2.2l-0.9,1.7l-1.3,1.7l-2.2,0.4l-1.3-0.4l-1.3-2.2l-1.3-0.4h-0.9l-1.3,0.9
		l-1.7,0.9l-1.3-0.4l-0.9-0.4l-2.6-3.5l-0.4-1.3l-2.2-1.3l-2.6-1.7l-1.3-0.9l-0.9-1.3V273v-1.7v-0.4l-1.3-0.9l-0.4-3.1l-0.9-0.9
		l-2.2-2.2l-0.9-0.9l2.2-1.7V259l-0.9-2.2l-1.3-1.7l-3.5-3.5v-1.3l2.6-1.7l10.5-2.6l3.9-2.2l3.5-1.3l2.2-0.4l2.2,0.4l1.3,1.7
		L121.7,245.4L121.7,245.4z M112.5,230.5h1.3l1.7-0.4l1.7,0.4l1.3,0.9l1.7,0.4l-0.4,0.4l-2.6,0.9l-1.3,0.4l-0.4,0.9l0.4,0.9h1.3
		l0.4,0.9l-0.4,0.4l-0.9,0.4l-0.9,0.4l-2.2,0.9l-3.1,1.7l-1.7,0.4h-3.5l-13.6,3.1l-7,0.9L81,245v-0.4l1.3-0.9h-1.7l-1.7-0.4
		l-0.9,0.4l-0.9,1.3h-0.4l-0.9-0.9H74l-3.5,1.7l0.9-1.7l1.7-0.9l1.3-0.9l-0.4-1.7l1.3-1.3v-3.9l1.3-1.3v1.3h0.4l0.4-1.3l0.4-0.4h1.3
		l1.3,0.4l-0.9,2.2l2.2,0.9l3.1-0.4l1.3-2.6l0.9,0.4l0.9,0.4v0.9l0.4,0.9l2.6-2.2l1.7-0.4l1.3,0.9l-0.4,0.4l1.3,0.4l0.9-0.4l0.4-0.4
		h0.9h1.3l2.6,0.9l1.3,0.4l2.2-0.9l2.2-1.3l1.7-0.4l1.7,1.7v-0.9l-0.4-0.9l0.4-1.3l-1.7-1.7l0.4-0.9l0.9,0.4l0.9,0.4L112.5,230.5
		L112.5,230.5z M98.1,201.7l-0.4,1.3l-2.6,3.5l-1.3,1.3l-4.4,0.9H88l-0.9-0.4l0.9-0.9l1.3-3.1v-2.6l-3.1,1.3l-0.4,1.7l-0.4,0.4
		l-0.9,0.4l-1.3,0.4l-0.4,0.4h-0.9l-5.2,0.9l0.9-0.9l1.7-1.3l0.4-0.9l-1.3,0.4l-1.3-0.4l-0.4-1.3l-0.9-1.3l1.3,0.4L78,203l0.4-1.3
		l1.3-1.3l0.9-0.9l0.4,0.4l0.4,1.3l0.9,0.9h1.3l1.3-0.4l0.9-0.9l0.9-1.3l1.3-0.9l2.2-0.4l1.3-1.3l0.4-0.4h0.9l1.3,0.9l2.2,0.9
		l0.9,0.9l0.9,1.3L98.1,201.7L98.1,201.7z M22,204.3l-0.9,0.9l-1.3-0.4l-1.3-1.3l-0.4-2.2v-1.3l0.4-1.3l0.4-0.4l1.7-1.3l1.7-0.4h0.9
		l0.9,0.4l0.4,1.3v1.3l-1.3,1.7l-0.4,1.7L22,204.3L22,204.3z M475.8,427.3l-17.5,14l-1.3,0.9l-1.3,0.9l-0.9,0.9v0.9l0.4,3.9v1.3
		l-2.6,3.5l-8.7,7l-2.6,3.1l-2.2,3.5l-2.6,4.8l-1.3,4.4l-0.4,2.6l2.2,1.7l95.8,34.1L495.5,562h-1.3l-3.5,0.4l-1.3-0.4l-1.7-1.3
		l-4.8-3.5l-0.9-0.4v-1.3l-0.4-3.5l-0.4-0.4l-1.7-0.9h-2.2H475l-0.9-1.7l0.4-1.7l3.1-2.2l0.9-2.2v-0.9l-1.3-0.9l-0.4-0.9l-0.4-0.9
		l0.4-5.2l0.9-1.3l1.7-0.4l1.7-0.4h1.7l3.9,1.3h7.9l1.7,0.4l2.2,1.7l0.9,0.4l0.9-0.4l1.3-0.9h0.9l1.7-1.3l0.4-0.4l-0.4-0.9h-0.4
		l-0.9,0.9l-0.9,0.4l-1.3-0.4l-0.9-0.9v-0.9l-0.4-0.4h-0.9l-1.7,0.9l-4.4-0.4l-7-0.9l-7.4-0.4l-1.3-0.4l-0.9,0.4l-0.4,1.7l-2.6,1.3
		l-1.3,0.9l-0.9,1.3v1.7l-0.9,1.3l-1.7,0.4l-4.8,1.3l-0.9,0.4l-1.3-0.9l-2.6-2.2l-1.7-1.3l1.3-1.7l-1.3-1.7l-1.7-1.3l-1.7-1.7
		l-1.3-0.4l-2.2-0.4h-1.7l-3.9-3.1l1.7,3.1l0.9,2.2l-0.9,1.7h-4.4v0.9l1.3,0.4l1.3,1.3l0.4,0.9l0.4,1.7l-1.3,2.2h-1.3l-0.9-0.9
		l-0.9-0.9l-0.9-1.3l-1.3-1.7l-1.7-0.4l-1.7-0.4l-2.2-0.4l-1.7-1.3l-0.9-1.3l-0.4-0.9l-0.4-2.6l-0.4-0.4l-0.9,0.4l-1.7,0.9l-0.9-0.9
		l0.9-1.7l3.9-3.1l0.9-0.4l-0.4-0.9l-1.3-3.9l-1.3-1.3l-1.3-1.3l-1.7-1.3l-0.4,0.9v1.3l0.4,1.3l-0.4,1.7v0.4l-1.3,1.3l-1.7,0.4
		l-1.7-0.9l-1.7-1.3l-1.3-0.4l-1.7,0.9l-2.2,3.9l-1.3,0.9l-1.3-0.4l-1.3-1.3l-4.4-10.1l-1.7-2.6l-3.9-4.8l-0.9-1.3l-0.4-2.2v-1.7
		v-0.9h-0.9h-0.9l-1.3,1.3l-0.9,0.4v2.2l0.4,2.2l1.3,2.2l0.9,2.6l0.4,0.9v0.9l-1.3,0.4l-0.4-0.4l-1.3-3.1l-0.9-0.9l-0.9-0.9
		l-1.3-0.9l-1.7-0.4l-1.3,0.4l-1.7,0.9h-0.9l-0.9-2.2l0.9-1.7l0.4-0.9v-0.9l-0.9-2.2l-0.9-2.2l-3.9-5.7l-0.9-2.2v-2.2l1.3-1.3
		l2.2-0.9l1.7-0.9l0.4-2.2v-2.6l-1.7-7v-6.6l0.9-1.7l1.7,1.3l0.4-0.4v-0.9V461l0.9-0.9h1.3l1.7,0.4l1.3-1.3l1.3-3.9l1.7-0.9l1.7-0.9
		l2.6-2.6l1.3-0.9l2.2,1.3l1.3,2.2l1.3,0.9l1.7-0.9l-0.9-0.9l-0.4-1.3l-0.4-0.9l-2.2-0.9l-0.9-0.9l-0.9-0.9l-0.9-1.3v-1.3v-1.7
		l1.3-3.1l0.4-1.3v-0.9l-0.4-1.3l-1.3-1.7l-1.7,0.4h-1.7l-0.9,0.9l1.3,1.7v0.4l-1.3,2.2l-0.4,2.6l-0.9,0.9l-6.6,3.1l-1.3,1.3
		l-2.6,2.6l-2.2,3.1l-1.3,6.1l0.9,16.6l-3.5,5.2l-1.3,0.4l-5.2,0.9H370l-0.9-0.9l-1.3-3.5l-0.4-0.4l-1.3-0.4v0.9l0.4,1.7l0.4,2.6
		l-0.9,0.4h-2.2v0.9l2.2,0.9l3.5,1.3l1.7,1.3l1.3,1.7l0.9,2.2v2.2l-0.4,1.7l-0.9,1.3l-1.7,1.7l-1.7,1.3l-1.7,0.4l-1.3,0.4l-9.2,9.6
		l-1.3,3.1l1.3,4.4l2.6,2.6l1.7,1.7l-0.4,1.7l-0.9,0.9l-2.2,0.9l-0.9,0.4l-0.9,0.9l-1.3,2.6l-11.4,12.2l-1.7,1.3l-3.5,1.3l-4.8-0.4
		l-7.9-1.3h-2.6l-1.3,0.9l-2.6,3.1l-1.7,0.9h-2.2l-4.8-2.2h-0.9l-0.4-0.9l-0.9-0.9l0.4-2.2l-0.9-0.9l-0.9-0.9l-2.2-1.3l-0.9-0.4
		l-0.9-1.3l-0.9-2.2l-0.4-0.9l-1.7-1.3l-0.9-0.9l-0.4-1.3l0.4-0.9l0.9,0.4l1.7,1.3v-0.9v-1.3l-2.2-5.2l-1.3-1.3l-0.4-0.9v-3.1v-0.9
		l-5.2-10.9v-3.1l2.6-2.2l3.9,0.9l4.4,1.3l3.5-0.4l0.9-0.9v-0.9v-1.7V499l0.4-0.4l1.7-1.7l1.3-0.9l0.4-0.4l-0.4-1.3l-2.6-1.7
		l-0.4-1.3l-1.3-3.5h-0.9l-2.2-0.4l-1.7-0.9l-0.9-2.2l-0.9-4.4v-2.2l0.9-6.1l-0.9-2.2l-1.7-0.9h-1.7l-3.1,0.4l-0.9,0.4l-0.4,0.4v1.3
		l0.9,2.2l-0.4,0.9l-1.7,0.9h-2.2l-2.2-1.3l-1.3-1.3l-0.4-0.9l-1.7-3.1l-0.4-0.9l-2.2-1.7v-1.3l1.3-0.4l1.3-0.9l-0.4-1.7l-0.4-0.4
		l-2.6-1.3l-0.4-0.4l-0.9-0.4l-0.9-2.6l-0.9-1.3l-0.4-0.9l-0.4-1.3l-1.7-0.9l-1.7-1.7l-0.9-0.4l-1.3-0.4l-0.4-0.4l-1.3-1.7
		l-10.5-5.7l-2.2-0.9v-1.7l-1.7-1.3l-4.4-0.9H248h-3.5h-0.9l-3.1-1.7l-0.4,1.7l-1.7,0.9h-1.3l-1.3-0.9l-0.9,0.4h-0.4l-1.7-0.4
		l0.4,1.7l-0.9,0.4h-2.6v-0.9l-1.7-3.1l-1.7,0.9l-3.9-1.3l-1.3,1.7h-0.4v-1.7l0.4-0.4l2.2-1.3l1.3-1.3l0.4-2.6h-1.7l-1.3-0.4v-0.9
		h1.3l1.7-0.9l1.3-1.3l0.4-1.3l-0.9-0.9l-1.7-0.4l-4.8,0.4l-0.4-0.4l1.3-1.3l3.5-1.3h1.7h1.3l1.3-0.4l0.9-1.3l0.9,1.3h0.4l0.4-0.4
		l-0.4-1.3l0.9-0.4l3.9,0.4l2.6-0.4l2.2-0.9l-1.7-0.9l-4.8,0.4v-1.3l0.9-0.9l3.9-1.3h1.7l2.2-0.4H252h1.3l3.9,1.7l1.7,0.4l3.1-0.4
		h1.3l-0.4,1.3l0.4,0.9l0.4,1.3l-1.3,0.9l1.7,0.4l2.2-1.3l1.3-0.4v-0.4l-0.4-1.7l1.3-0.4l2.2-0.4l0.9,0.4l0.9,0.9l1.7,0.4h2.2
		l1.7,0.4l3.5,2.2l5.2,5.7l3.5,1.3l1.3-0.4h0.9l1.7-1.3l0.9-1.3l0.9-0.4l5.7-3.9l1.7-1.7l4.8-7l2.2-1.7l2.2-4.4l5.7-6.6l0.9-1.7
		l1.3-1.3l7.4-3.5l2.6-0.9h1.3l1.7-1.3l1.7,0.4l0.9,0.4l1.3-0.4l2.6-0.9h1.7l5.2,2.6l0.4,1.3v3.1l0.9,1.3l0.9-0.9h1.7l1.3,0.9
		l1.3,0.9l0.9,1.3v1.3l-0.4,2.6v7.9l-0.4,2.6l1.7-0.4l0.4-1.3l-0.4-4.4l0.4-2.2l0.4-2.2l2.6-6.1l0.9-0.9l0.9,0.4v0.9v3.5l0.4,4.8
		v2.2l-0.9,2.2l1.3-0.4l0.9-2.2v-3.9l-0.4-2.6V398l0.4-0.9l0.9-0.4l0.9,0.4l0.4,1.3l0.9,1.3l0.4,2.2l0.9,1.7l1.7-0.4v-1.7l0.4-0.4
		l0.4-0.4h1.7l1.7-0.4l0.9-0.9l1.3-1.3l0.4,0.9h0.9h1.3l0.4,0.4l2.6,1.7l0.4,0.9l0.4,1.3v6.1l-0.9,1.7l1.3,4.8l0.9-1.3v-1.3V412
		v-2.2v-1.7l1.3-3.9l0.4-1.7v-5.2l0.4-0.9l1.7,0.4l1.3,1.3l1.7,3.5l1.7,2.6l1.3,4.4l1.3,1.3l0.4-0.4l0.4-1.7v-2.2l0.9-5.7l-0.9-1.3
		l-1.3-1.7l-0.4-0.9l0.4-0.9l0.4-0.9l0.9-1.3l-1.7-0.4h-3.5l-1.3-0.9l-0.9-1.7l0.4-0.4l1.7-0.4h1.7l3.9-0.9h2.2l1.3,0.9l0.4,0.9
		l2.6,2.2l0.9,0.9h0.4l-0.9-1.7l-2.2-2.2l-0.9-2.2l1.7-0.9l6.6,0.4h3.1l1.7-1.7h-5.2H405l-2.2-0.9l-0.4-1.3l4.8-2.2l1.7-1.7
		l-2.2,0.4l-4.4,0.9l-2.6,0.4v-0.9l4.4-1.3l2.2-0.9l1.3-1.7l0.9-1.7v-2.6v-2.2l-0.9-1.7l-0.9,4.8l-0.9,1.7l-2.2-1.3h-0.4l-2.2,1.7
		l0,0l-0.4,0.4l-2.2,0.9l-1.3,0.9l-1.3-0.4l-1.7-2.6l-0.9-0.4l-0.4-0.4l0.4-0.9l1.3-1.3l3.5-0.9l1.3-0.9l1.3-1.3l0.4-1.3l2.2,0.9
		l1.3-0.9l1.3-1.3l1.7-0.9l-0.4-0.4l-1.3,0.4l-1.7,0.9h-1.3l-0.4-1.3l0.4-0.4l2.2-0.4l0.9-0.4v-0.9l0.4-1.3l0.4-0.9v-0.9l-1.7-0.4
		l-2.2,0.4l-1.3,0.4l-2.6-0.4l-0.4,0.4l-1.3,2.2l-0.4,0.4l-0.9,0.4h-1.7l-0.9,0.4L391,363l-0.9,0.4l-3.5,0.4l-1.7,0.4l-0.4,1.7
		l-0.9,0.4l-1.7,0.4l-1.3,0.9l-1.3,1.7l-0.4,0.4l-0.9-0.4l-0.4-0.4l-0.9-0.4l-0.9,0.4L374,370v-3.9v-1.3l-1.7,3.5l-1.3,1.7l-1.3,0.9
		l-1.3-0.9l-1.3-2.6l-1.7-0.4v0.4l1.3,1.7l-1.7,0.4h-2.2L360,370l-3.9-1.3l-1.7-0.4l-4.4,0.4h-2.2l-1.3-0.9l-0.9-0.9h-2.2l-3.9,1.3
		l-3.5-0.4l-2.2,0.4l-3.5,1.7l-2.2,0.4l-4.4,0.4l-4.4,0.9l-3.5,1.7l-3.5,0.9l-3.9-0.4l-6.1-2.6l-2.2-0.4l-2.2,0.4l-2.2,0.9l-7,4.4
		h-0.9l-0.4-0.4l-1.3-1.3h-0.9L283,374l-0.9-2.2l-0.4-2.2l-0.9-2.2l-0.9-0.9l-2.2-0.9l-2.2-0.4l-1.7,0.9l-1.7,0.9l-6.1,1.3l-7,3.5
		l-3.5,1.3l-3.9-0.4l-2.2-1.3l-1.7-2.2l-1.3-2.2l-1.3-2.2l-2.2-1.3l-13.1-6.1l-2.6-1.7l-0.4-2.6l0.9-0.4l2.6-1.3l0.4-0.9l0.4-1.3
		l1.3-0.9l2.2-0.9l-2.6,0.4l-4.4,1.3l-2.2,0.4l-2.2-3.5l-2.2-0.9l-0.9-0.9l-0.4-1.3l0.4-1.7l0.4-0.9l-0.4-1.3l-2.2-0.4l-0.9-0.9
		l-0.4-1.3l0.4-3.1V332l-0.4-0.9l-0.9-2.2l2.2-0.9l1.3-1.7l0.9-1.7l1.7-1.3l1.3-1.3l1.3-0.9l0.4-1.3l-0.4-2.2l0.4-0.9l-2.2,0.4
		l-3.1,1.7l-3.9,0.9h-0.9l-0.9-0.4l-0.9-1.3v-0.4l0.9-1.3l-0.9-0.4l-0.9-0.9l-0.4-0.4l0.9-3.9v-0.9l1.3-1.3l0.4-0.4l0.9-0.4l2.6-0.4
		l0.4-0.4l2.2-2.2l0.4-0.9h-1.7l-5.7,2.6l-2.2,0.9l0.9-1.7l-0.9-0.4h-0.9l-1.3,0.9l-3.5,3.5l-1.7,0.9l-0.4-2.6l0.9-2.6l0.4-3.1
		l-2.2-2.2v2.6l-0.4,2.2l-1.3,1.7l-1.7,0.9h-2.6l-1.7-1.7v-2.2l1.7-1.3l-2.2-0.9l-1.7,0.4l-1.7,0.9H189l-1.7-0.4l-1.3-0.9l-2.6-2.2
		l-1.3-0.4l-1.7-0.4h-3.1L175,297h-0.9l-1.3,0.4l-0.9,0.4v0.9v0.9l-0.9,0.4l-0.9,0.4l-2.2-0.9l-1.7-2.6l-0.9-0.9l-0.9-0.4v-0.4
		l0.9-0.9l0.4-1.3l-0.9-1.3l-0.9-0.9l-0.9-0.9l-3.1,0.9l-1.7-0.4l-4.4-2.2l-0.4,1.3l1.7,1.7l3.9,3.1l0.4,1.3l-1.3,1.3l-1.7,1.3
		l-1.3,0.9l-3.1,0.4l-3.1,1.7l-2.2,0.9l-0.4-0.4l-0.4-2.2l-0.9-0.9l-1.7-1.7l-3.9-1.3l-3.9-0.4l-7.9,0.4h-2.2l-1.7-0.9l-0.9-1.3
		l-0.4-1.7l0.4-0.9l3.5-1.3l1.3-0.9l0.4-0.9l2.2-7v-1.3v-0.9l0.9-0.4l0.4-0.4l1.3-1.7l1.7-0.9l7.4-1.3l2.6-0.9l0.9-0.9l1.3-3.9
		l2.6-3.5l0.4-0.9l0.4-1.3l1.3-2.2l0.4-1.7l-0.4-3.5v-1.3l1.3-0.9l-0.4-1.3l0.9-3.9l-0.9-1.7l0.4-0.4l2.2-0.9l-3.9-3.9l-1.3-2.6
		l0.4-2.6l8.7-2.6l3.9-0.4l1.3-0.4l0.9-1.7l2.6-0.4l1.3-0.4l0.9-0.4l3.9-0.4l1.3-1.3h1.3h1.7l0.9,0.4l-2.2,2.6l-0.4,0.9v1.3l1.3-0.4
		l2.2-0.4l1.7-0.9l0.4-0.9l1.3-0.4l17.9-3.5l7.9-2.6h1.3l0.9-0.9l2.2-4.4l3.9-4.4l2.6-2.2l2.6-1.3l4.8-1.7h1.3l0.4-0.9l1.7-3.9
		l0.4-1.3l5.2-3.1l1.3-0.4l3.1-1.7l3.5-1.3l3.1-1.3l1.7-0.4l2.6-0.4l7.9-2.2l3.9-0.9l22.7,2.2l3.1-0.9l18.4,8.7l2.2,0.4h0.9l2.2-1.3
		l1.3,0.4l0.4,0.4v0.9l0.4,0.9l1.7,0.9l3.1,1.7l1.3,0.9l0.9,0.4h1.3h1.7l0.9,0.4l0.9,1.3l0.4,0.4h1.3l1.7-0.4l0.9,0.4l13.1,9.2
		l2.2,2.2l1.3,2.2l0.9,1.3l3.9,2.6l1.3,0.4l15.7,2.2l1.3,0.4h0.9l0.4-1.3l1.3-0.9h0.4l1.3,0.4l1.3,0.9l2.2,0.4l8.7,0.4l1.3-0.4
		l-0.9-1.3l0.9-0.9l1.3-0.4h1.3l1.7,0.4l0.4,0.4l1.7,1.7l0.9-0.4h1.3l5.2-0.9h3.9h1.3l1.3-0.9l1.7,0.9l5.7,6.1l0.9,0.4l2.2,0.4
		l1.3,0.9l0.9,0.4l1.3,1.7l0.9,0.9l3.1,0.9l0.4,0.9v0.9l-1.7,0.9l-6.1,0.4l-1.3,0.4l-0.4,1.3l-0.4,2.6l-0.4,1.3l-1.3,0.4l-0.9,0.4
		l3.9,8.3l1.3,1.7l0.4,0.9v2.2l0.9,0.9l0.4,0.9l1.7,3.1l1.3,1.7l1.7,1.7l1.7,1.3l1.3,0.4l0.9,0.9l6.1,11.4l1.3,1.7l-3.9,6.6
		l-0.9,1.7v3.9l-0.9,6.1l-0.4,1.7l-0.9,1.3l-4.8,5.2l-1.7,0.9l-1.3,1.3l-1.7,0.4l-0.9,0.4l-0.4,0.9l-0.4,1.3v1.3l1.3,3.9l3.9,18.8
		l0.4,7.4v0.9l0.9,1.3l-0.4,0.9l-1.3-0.4l-0.4,0.4l-1.3,6.1v2.2l0.4,0.9l1.7,0.9l0.4,0.9l0.4,1.3l-0.4,3.1l0.4,1.7l1.3,3.1l0.4,1.7
		l-0.9,2.2v0.9l0.4,0.9l1.3,1.3l0.4,0.9v1.7l0.9,1.7l0.9,1.3l1.3,1.3l3.9,3.1l1.3,2.6l1.3,1.3l1.3,0.9l1.3,0.9l0.4,0.4l1.3,1.7
		l0.4,1.7l0.9,3.5l1.7,3.9l-0.4,1.7l2.2,1.7l0.9,2.6l0.9,5.7l0.9,1.3l0.9,0.9l1.3,1.3l0.9,2.6l2.2,4.4v0.9h2.2l1.7-0.9l2.6-1.7
		l-0.9-1.3l-0.4-3.9l-0.4-0.9l-1.3-1.7l-0.4-1.3v-1.3l0.4-2.6l-0.4-1.3l-0.4-1.3l-0.9-2.2l-0.4-0.9l-0.4-3.1v-2.2l0.4-2.2l0.4-1.7
		l1.3-2.2l1.3-0.9l3.9-1.7l-0.9-0.4l-0.9-0.4v-0.9l1.3-0.9l0.9,0.4l1.7,1.3l0.9,0.4l1.7,0.4l1.7,0.9l1.7,1.3l0.9,1.3l0.9,3.5
		l0.9,24.9L475.8,427.3L475.8,427.3z M46.9,165.8l-2.2,0.9l-3.1-1.3L39,165l1.3-1.3l3.1-2.6h1.3l1.7,0.9l0.9,1.7L46.9,165.8
		L46.9,165.8z M111.2,158l12.7,3.9l1.3,0.9h0.4l1.3-0.9l2.6-0.9h2.2l1.3,0.4v0.9l-1.3,1.3h1.7l2.2,0.9h2.6l1.3,0.4l2.6,0.9l0.9,0.4
		l1.7,1.7l0.9,0.4l0.4,0.4l0.4,0.9l1.3,0.9l1.3-0.4l0.9,0.4l1.7,0.4h0.9l0.9,0.9l2.2,0.9l0.9,0.9l1.3,3.1l-1.3,1.3l-0.4,0.9
		l-0.4,1.3l0.9,1.3l3.1,2.2l0.9,1.3l-0.9,0.4l-2.2,0.4l-0.4,0.9l-0.4,1.3l-1.7,1.3l-0.4,1.7l-1.7-0.9v2.2l-0.9,1.7l-1.7,0.4
		l-1.7-1.3l-3.5-3.1l-2.2-1.3l-0.9,0.4l-0.4-0.4h-3.1l-0.9-0.4l-0.4-0.4l-1.3,0.4l-1.3,0.4l-4.4,3.5l-0.4-1.3l-0.4-0.4l-1.7,0.4
		l-0.4,0.4h-1.3h-0.9l-0.9-0.9l-0.9-0.4l-1.7-2.6l-2.6-1.7l-0.4-0.9l0.4-0.4l-1.3-2.2l-1.3-0.9l-1.3-0.4h-2.6l-1.7-0.4h-0.9
		l-0.9-0.4l-0.4-0.9l0.4-2.2l-0.4-1.7l-0.9-0.9l-5.2-4.8l-0.9-1.3l-0.4-2.2l-1.3,0.4l-1.3-0.4l0.9-1.3h-1.7h-2.6l-2.6,0.4l-0.9,0.9
		l2.2,0.4l0.9,0.9l0.9,0.9h-1.7l-1.3,0.9l0.4,1.7l3.5,1.3l1.7,1.3l3.1,4.4l2.2,3.9l0.4,1.7l0.9,0.9l3.9,2.2l1.7,0.9l0.4-1.3l0.4-0.9
		l0.4-0.4l4.4,0.4h1.3l0.9,0.9v0.9l0.9,0.4l1.3,0.9l0.9,0.9l1.3,1.7l0.4,1.3l-0.4,0.4l-0.9,0.4l-0.9,0.9l-0.4,1.7l-1.3,0.9l-3.9,1.3
		l-7.9,1.7h-2.2l-2.2-0.4l-1.7-1.3l-0.9-1.7l-2.6-6.6l1.3-0.9l0.4-1.3l-0.4-1.3l-0.4-1.3l-7.4,2.2l-3.1,2.2l-1.3,3.5h0.9l0.9-0.4
		l-0.4,1.3l-1.7,4.4l-0.4,0.4l-0.9,0.4v-0.4v-1.3l1.3-3.1l-1.7-0.4v-1.3l0.4-1.7v-2.2l-0.9-0.9l-1.3-1.3l-0.4-1.3v-0.9l0.9-1.3
		l-0.4-0.9l-1.3-0.9l-2.2,0.4l-3.1,1.7l-0.9,1.3l-0.9-0.4l-0.4-0.9h-0.4h-1.7l-1.3-0.9l-1.3,1.3h-0.4l-0.9-1.3h-2.6l-2.2-0.4h-0.4
		l-0.4-0.4l-0.4-1.7l-0.9-0.4l-2.6-0.4l-3.1-1.3l-1.3-0.9l2.2-0.4h0.9l1.7,0.9h0.9h2.6l3.1-0.4h1.7l1.3,0.4l1.3,0.9h1.3l1.3-0.9
		l1.3-0.9l0.4-1.3h-1.3h-1.7l-1.3-0.9l1.7-0.4l0.9-1.3v-1.3l-0.4-1.3l-0.9,1.7l-1.3,0.9h-0.9l-0.4-2.2h-0.4l-0.4,0.9l-0.4,0.4h-0.9
		l-0.9-0.4l0.4,1.3l0.4,1.3l0.4,0.9l-0.9,0.9h-0.9l-1.7-0.4l-1.3-0.9l-0.4-0.9l-0.4-1.3l-1.3-1.7v-1.7v-0.9l1.3-0.4h1.3l0.9,0.4
		l1.3-0.9l0.9-1.7l0.4,1.3v1.7l0.4,0.9l0.9,0.9l1.3-0.9V168l-0.4-1.7l-0.9-1.3l2.2-0.4l1.3,0.9l1.3,1.3l1.7,0.9l-0.4-1.7l0.4-0.9
		l0.9,1.3l3.9-1.7l2.2-0.9l0.9-1.7l0.9,0.4l0.9,0.4l1.7,1.7l0.4-1.3l0.9,1.3v-0.9l1.3-1.7l1.3,1.3l0.9-1.3l2.6,0.4l1.7-0.4h1.7
		l3.1-0.9l2.2-0.4l0.4,1.7l1.3-0.4l3.1,0.4l1.7-0.4l-0.9-0.9l-0.9-0.4h-0.9h-0.9l1.3-1.3l1.7-0.9l1.7-0.4L111.2,158L111.2,158z
		 M444.8,87.6L443,88h-1.7l-0.4-0.9l0.9-1.3l1.7-0.9h1.3l0.4,1.3C445.2,86.3,444.8,87.6,444.8,87.6z M152.7,57.4l-0.9,0.9v-0.9v-1.3
		l0.9-0.9l0.9,0.4l-0.4,1.3L152.7,57.4L152.7,57.4z"/>
	<path id="IDN558" style="fill:#7D7D7D;stroke:#FFFFFF;stroke-width:8.7448;stroke-linecap:round;stroke-linejoin:round;" d="
		M878.1,953.7l0.4,2.2v1.7l-1.3,0.9l-18.8-0.9l-3.9-1.7l-2.6-0.4h-4.4l-2.2-0.4l-1.3-1.7l0.4-2.6l1.3-1.3l7-4.8l1.7-1.7l0.9-1.3
		v-2.2l0.9-1.3l1.3-0.9l3.9-0.4l5.2-1.7l3.1,0.4l1.3,2.2l0.4,3.1v3.5l0.4,2.2l1.7,2.2l3.5,3.5L878.1,953.7z M876.8,923.6l1.3,3.5
		h-4.4l-2.2,0.4l-1.7,1.3l-2.6,3.5l-1.7,1.3l-2.2,0.9h-4.4l-2.2,0.4l-1.7,0.9l-1.3,2.2l-2.6,4.4l-1.7,1.7l-6.1,4.8l-1.7,0.4
		l-0.9,0.9l-3.5,3.9l-2.6,2.2l-3.1,1.3l-3.5,1.3l-3.9,0.9h-3.9l-6.6-2.6l-4.4-0.4l-13.6-0.4l-17.5-0.4l-4.8,0.4l-3.9,1.3l-7.9,3.1
		h-3.5v-3.5l8.3-23.6l2.2-3.9l0.4-1.7l0.4-1.3l3.1-1.7l0.9-0.9l0.9-5.7l1.3-1.7l7-14.4l2.2-3.1l4.4-4.4l0.9-1.3v-2.2l0.9-2.2
		l2.2-3.9l2.2-2.6l5.7-4.8l14.9-10.1l14-4.8l12.7-1.7l2.6-0.9l6.1-1.3l9.2-0.4l8.3,1.3l3.5,4.8l0.9,1.3l4.4,6.6l1.3,1.3l1.3,1.3
		l1.3,0.9l3.5,0.9l7,0.9l2.6,1.3l-1.7,2.2l-1.3,1.3l-0.9,1.7l-1.3,3.9l-2.6,4.8l-0.4,1.7l-0.4,8.7l-0.4,0.9l-1.3,1.3l-5.2,2.6
		l-1.7,1.7l-0.9,3.5l0.4,7L876.8,923.6L876.8,923.6z M863.2,810.8l-1.7,0.4h-1.3l-0.9-0.9H858l-0.9-0.9l-0.9-3.5l-1.3-0.9l-0.9-0.4
		l-1.3-0.9l-1.3-2.2l-0.9-1.7l0.4-1.7l0.9-0.9l1.3,0.9l2.2,2.2l1.3,0.4l1.3,0.4h3.5l1.7,0.9l0.4,0.9l0.4,1.3l2.6,2.2v1.3l-0.4,0.9
		l-1.3,0.9L863.2,810.8L863.2,810.8z M552.8,308.4l10.1,2.6l19.2,1.3l6.6,1.3l3.9,0.4l5.7-1.7l7,2.2l2.6-0.9l3.9,0.9h8.7l3.9,0.9
		l0.4,0.4l0.9,1.3l0.4,0.4h0.9l2.6-0.4l0.9,0.4l1.3,1.3l1.7,0.9l3.5,1.7h2.2l6.1-0.9l15.7,2.2l7.9-0.9l1.7,0.4l3.5,1.3l1.7,0.4h3.5
		l1.7,0.4l1.3,0.9l4.8,2.6l0.4,0.4l-1.3,0.4l-0.4,1.3h-0.9l-7.4,0.4l-3.5,0.4h-2.6l-0.4,0.4l-0.4,0.9l-0.9,0.4l-0.9,0.4l-1.7,0.4
		l-1.7,1.3l-0.9,0.4l-1.3,0.4l-8.7-0.9h-1.7v0.4l0.9,0.4l0.4,0.9v0.9l-0.9,0.4H652l-1.7-0.9l-0.9-0.4h-0.9l-2.2,0.4l-0.9,0.4
		l-0.9-0.4l-3.1-0.9l-1.7-0.4l-3.5-1.3l-1.7-0.4l-0.9,0.4l-0.9,0.9h-0.4l-1.7,0.4l-0.9,0.4l-0.4,0.4l-0.4,0.9l-0.4,1.3h-0.9
		l-0.4-1.3l-0.9-0.4l-0.9,0.4l-0.9,0.4l-1.7-2.6l-3.1-1.7l-7-1.3h-0.9h-2.2h-0.9l-0.9-0.4l-1.3-1.3l-0.9-0.4h-2.2l-1.3-0.4l-1.3-0.4
		l-2.6-1.7l-4.4-1.7l-0.9-0.4l-0.9-0.9l-1.7-0.4h-3.9l-1.7-0.9l-3.1-1.7l-3.1-0.4h-0.9l-1.3-1.3l-0.9-0.4h-1.3l-1.3,0.9l-0.9-0.9
		l-1.3-0.9l-0.9-0.4l-1.3,0.4l-1.3,0.4l-1.3,0.4l-1.3-0.4l-2.2-1.3h-2.2h-3.1h-2.6l-1.3-0.9l-0.4-0.9v-0.9l-0.9-1.3l-0.4-0.4
		l-1.3,0.4h-0.9v-1.7l-0.4-0.4l-1.3-0.9l0.9-0.9l1.7-0.4h0.4l0.9-0.9L552.8,308.4L552.8,308.4z M863.2,311.9h-1.3l-2.2-0.9l-0.4-1.7
		l1.3-1.7l2.6,2.6V311.9L863.2,311.9z M519.6,297.9l2.2,0.4l5.2-0.4l2.2,0.9l0.9,0.4l4.4-1.3l1.3,0.4l0.4,0.4h1.3l1.7-0.4l-2.2,2.6
		l-3.5,1.3h-8.3l-7.9-0.4l-0.9-0.9v-2.2l1.3-1.3L519.6,297.9L519.6,297.9z M495.5,562l37.2-47.2l-95.8-34.1l-2.2-1.7l0.4-2.6
		l1.3-4.4l2.6-4.8l2.2-3.5l2.6-3.1l8.7-7l2.6-3.5v-1.3l-0.4-3.9v-0.9l0.9-0.9l1.3-0.9l1.3-0.9l17.5-14l3.1,11.4l2.6,2.6l4.4-0.9
		l5.2-6.1l2.2-1.3l0.9,3.9l-0.9,6.1l-0.4,1.3l-1.7,1.3l-0.4,0.9v0.9v3.1l-0.9,3.5l0.4,1.7l3.1,0.9l0.9,1.3l0.4,3.9l0.9,1.3v1.3
		l0.4,1.3l1.7,1.7l1.7,0.4l1.3-0.4l3.1-2.2v0.9l-0.4,2.2v0.9l0.4,0.4l1.3,1.3l0.9,3.1l1.7,0.4h3.9l2.2,0.4l2.6,1.7l1.3,0.4l15.7,0.4
		l1.7,0.4l2.6,1.3l1.7,0.4l2.2-0.4l3.9-1.3l6.1-0.9l1.7-0.4l1.7-0.9l1.3-1.3l4.4-4.4l0.4-0.9l0.4-0.9v-1.3l-0.4-0.9l0.4-0.9l2.6-3.5
		l3.5-2.2l7.4-3.1l3.1-1.7l1.7-1.7l-0.4-0.9l-1.3-0.9l-0.4-1.3v-0.9l1.3-1.3l0.9-0.9h0.9l2.2,0.9l1.3-1.3l2.6-2.6l4.4-1.3l2.2-1.3
		l1.3-1.7l1.3-2.2l-0.4-1.7l-0.9-3.5v-0.9l2.6-2.6l0.9-1.3l0.4-1.7v-4.4l0.4-0.4l2.2-1.7l0.4-0.9l1.3,0.4l0.9-3.9l1.3-0.9l1.7-0.4
		l0.9-0.4l0.9-1.3l1.3-0.4l2.2-0.4l8.3-3.9l3.9-2.6l2.6-3.5l0.9-1.7l0.9-1.7l0.4-7l0.4-1.3l0.9-1.3l3.1-3.5l0.9-1.3l0.4-1.7v-1.3
		l-0.4-1.7l-0.4-3.1l0.9-1.3l1.3-2.2l1.7-1.7l2.2-1.3l2.6-0.9h4.8h0.9l3.1-1.7h0.9l0.4,0.9l-0.4,1.3v1.3l0.9,0.4h2.6l2.2,0.4
		l0.9,1.3h0.9l2.2-0.4h1.3l3.5,1.3l1.7-2.2l1.3,0.4l1.7,0.9h1.3h0.9l1.3-1.3l0.4-0.4l2.6-0.4l0.9-0.4l5.2-3.5l5.7-0.9l0.9-0.4
		l0.4-0.9l0.4-0.9l0.4-1.3l2.6-1.3l4.4-0.9l12.2-0.4l2.2-0.4l1.7-0.9l3.1-2.2l0.4-1.3l-0.9-2.2l-2.2-1.7l-0.9-1.3l0.4-0.9l0.9-0.4
		l0.4-1.3v-1.3l-0.4-1.3l-1.3-0.9l-2.2-0.9l-1.3-0.4l-5.2-3.9l1.3-1.3v-1.7v-4.4l0.9-0.9l1.7-1.3l19.7-7l10.9-6.6l2.2-0.9l1.3-1.3
		l0.9-1.7h0.4l1.7-0.4l24.9-10.9l4.4-0.9l3.9-0.4l3.9,1.3l0.9,0.9l2.2,2.6l0.9,0.4l1.7,1.7l0.4,0.4h1.3l0.9,0.4l4.4,4.4l1.7,1.3
		l3.9,0.4l10.5,3.1l12.2,6.1l16.2,4.4l6.6,1.3l2.2,0.4l4.4,1.3l6.6,5.2l6.6,7l3.5,3.1l2.2,0.4h6.1l2.2,0.4l14.9,4.8l16.6,10.5
		l9.6,3.1l5.2,3.1l1.3,0.4l1.3,0.4l4.4,3.5l15.7,5.7l9.6,6.1l3.9,0.9l3.9,0.4l18.8-1.3l2.2-1.3l1.3-1.7l0.4-0.4l1.7,0.9l2.2,1.3
		l0.9-0.4v-1.3l0.4-0.4l0.9,0.4v1.3l0.4,0.9l3.5,5.2l1.7,0.4l5.7,2.2l2.2,1.7l2.2,0.9l1.7-1.3l0.9,0.4h0.9l0.9-0.9l0.4-0.9l-0.4-0.9
		l-0.9-0.9l-0.4-0.4l1.3-1.3l0.9,0.4l9.2,3.1l1.3,0.4l10.5,0.4l11.4,4.8l1.3,0.9l0.4,1.7l-0.4,3.1l-0.4,1.3l-3.9,4.4l0.9,0.9
		l0.9,0.9l0.9,0.4l0.9,0.4l0.4-0.9l0.4-2.2l0.9-0.4l2.2,1.7l0.9,0.4l0.9-0.4l2.2-0.9h1.3h8.7l3.9-0.9h0.9v3.1v35v23.6v31.9v20.6
		v35.4l0.4,57.3v21.4v127.7h-0.4l-0.9,1.3l-0.4,1.7l-0.4,0.4v0.9l0.9,0.4l0.4,0.9l-0.4,0.9l-1.3,1.3l0.4,1.3h-2.2h-0.9v0.9l0.9,0.4
		v0.9v0.9h1.7l0.4,1.7l-0.4,1.7l-0.4,0.9h-1.7l-0.4,0.9l-0.4,0.9v2.6l-0.9,0.4l-1.3,0.4l0.9,1.7v0.4l-1.3,1.3l-1.7,0.4l-1.3,0.4
		l-0.9,1.3l1.7,0.4v2.2l-0.9,3.1l-0.9,1.7v1.3l0.9,0.9l2.2,1.7l0.4,0.9l-0.4,0.9l-0.9,1.7l0.4,0.9l0.4,0.9l1.7,1.3l0.9,1.7v1.7
		l0.9,1.3l2.2-0.4l0.4,3.1l1.7,0.9h1.3v10.1V851v69.1v16.2v25.4v17.1v17.9v29.3l-4.4-2.2l-0.9-0.4l-6.1-2.6l-22.3-23.2l-10.9-16.6
		l-5.2-4.8l-0.4-0.9l-6.6-5.2l-0.9-1.3l-0.4-1.7h-0.9l-5.2-2.2l-3.1-3.5l-1.7-2.2l-20.6-15.7l-4.4-4.8l-1.3-2.6l-0.4-2.2l0.9-2.2
		l1.7-1.7l2.2-1.3l1.3-0.4h1.3l0.9-0.4l0.4-1.3l0.4-3.5l-0.9-3.1L987,917l0.9-2.2l2.2-1.3l2.6,1.3l1.7-1.3l2.2-4.8l-1.7,0.9
		l-1.3,2.2l-1.7,0.4h-2.6l-1.3,0.4l-0.9,0.9l-0.4,4.4l-0.4,6.1l-0.9,1.3l-1.7,1.7l-3.9,2.2l-3.9,0.9l-15.3,0.4l-13.1,1.3l-3.1,0.9
		l-5.2,3.1l-3.1,1.3l-7.4,1.7h-3.9h-3.5l-3.5-0.9l-3.5-1.7l-2.6-2.6l-1.3-3.1v-0.9l0.4-2.2l0.4-1.3l-0.4-1.7v-3.1l-0.4-1.3l-2.2-2.2
		l1.7-0.4l1.3,0.4l1.7,0.4l1.7-0.9l-4.4-1.7l-2.2-0.4l-1.3,0.9l0.4,1.3l0.4,3.1l1.3,0.4l0.4,0.4l-0.4,1.3l-0.4,4.4l-2.2,1.7
		l-7.4,2.2l-3.1,1.7l-10.9,9.2l-0.9,1.3l-0.4,2.2l-0.9,1.3l-0.9,0.9l-0.4,0.4h-1.7l-0.4-0.4l-3.5-7l-2.2-3.1l-1.3-2.2v-2.2V931
		l1.7-1.3l3.9-0.9l2.2-1.3v-0.9v-0.9l-0.4-0.9l-1.3-0.9v-1.3l0.4-2.2v-8.3l0.4-1.7l1.3-0.9l3.5-0.9l2.6-1.7l0.9-3.1l0.4-7.4l2.6-6.6
		l0.9-1.3l0.4-0.4l0.9-3.5l0.4-0.9l0.9-0.9l0.9-0.9l0.9-0.9l0.4-3.5l-2.2-2.6l-3.5-1.7l-3.1-0.4l-4.4-0.4l-0.9-0.9l-1.3-4.4
		l-0.9-2.2l-3.5-6.6l-2.2-2.2L872,854l-7-4.8l-1.3-0.4l-1.3-1.3l-0.9-0.4h-2.2l-1.3-0.9l-1.7-0.9l-0.9-1.3v-0.9l2.2-0.9l20.6,0.9
		l3.9,0.4l1.3,0.9l3.1,2.2l0.9,0.4l14.9,0.4l1.7-0.9l0.9-2.2l1.3-2.2l1.3-2.2l2.6-0.9v-0.9l-1.7-0.4l-1.7,0.4l-2.2,2.6l-1.3,1.7
		l-0.9,0.9h-0.9h-4.4l-3.9,0.9h-2.2l-1.7-1.7l-5.2-3.1l-1.7-0.4l-2.2-0.4l-6.1-0.4l-1.7-0.4l-2.6-1.3l-4.8-1.7l-0.9-0.4l-0.4-0.9
		l-9.6-9.6l-7-5.2l-1.3-2.6l2.2-2.6l1.3-0.9l1.3-0.4h4.4l1.7,0.4l3.9,1.7h2.2l1.7-0.9l2.6-2.6l1.3-0.4l7.9-0.9l3.5-0.4h1.3h0.9
		l1.7,0.9l0.9,0.4l1.7,0.9l2.6,3.9l2.2,0.9l3.1,2.6v0.4l1.3,0.4l1.7,0.4l1.3,0.9l0.9,0.4h1.3h3.9h0.9l-0.9-1.3l-2.2-0.4H900
		l-1.3-0.4l-0.4-0.9l-4.4-2.2l-6.6-6.1l-3.5-1.7l-3.9-0.9l-6.6-0.4l-1.7-0.4l-1.3-0.9l-5.2-4.8l-2.2-1.7l-3.9-0.9l-1.7-1.3l-0.9-1.7
		l-0.4-2.6l1.3-2.2h1.7l3.9,1.7l1.7,0.4l6.6,3.5l-11.8-7.4l-2.6-2.6l-4.4-5.2l-1.3-0.9l-1.3-0.9L836.6,767l-4.4-8.3l-0.9-2.6
		l-1.7-3.5l-0.4-1.7l0.4-4.8l-0.4-1.3l-1.7-4.4v-1.7l-0.4-1.3l-1.7-2.2l-0.4-1.3l-0.4-1.3l-6.1-9.2l-1.3-3.1l0.9-2.6l3.5-1.7
		l6.6-1.3l2.6-1.7h-1.7l-3.9,1.3h-2.2l-10.5-2.2l-2.6-1.7l-0.4-0.4v-0.9l-0.9-0.9l-0.9-1.3l8.7-5.2l5.2-2.2l5.2-1.3l-1.7-0.9h-2.2
		l-3.9,0.9H816l-1.7,0.4l-1.7,0.4l-3.9,2.6l-1.7,0.4l-4.8,0.4l-1.7,1.3l-0.4-0.4l-0.9-0.9l-0.4-0.9v-1.7l-0.9-3.9l-0.4-4.4v-2.2
		l0.4-1.3l0.9-0.9l1.3-1.3l0.9-0.4h0.9l0.9-0.4V684l-0.4-0.4l-1.7-0.9h-0.9l-1.3-0.9v-2.2l1.3-4.4V673l-0.4-0.9l-0.9-0.4l-0.4,1.3
		l-0.4,1.3l-1.3,0.4l-1.3-0.9l0.9,2.6v1.7l-0.9,0.9l-2.6-0.4l-0.9-0.9l-2.6-3.9l-4.4-3.9l-0.4-2.2l1.3-3.5l-1.7-0.4l-4.8,3.5
		l-3.1,0.4l-1.3-1.3l-2.6-3.1V663v-1.7l1.7-2.6l0.9-1.3l-3.5,1.7l-1.7,0.4l-2.2-0.4l-1.3-1.7l-0.9-3.1l-1.7-0.9h-0.9l-0.9,0.4
		l-0.9,0.4l-1.3-0.9l-3.1-0.9l-1.7-0.9l-1.7-1.3l-0.4-1.3l2.2-0.9v-0.9l-1.7-0.4l-0.4-2.2l-1.3-0.4l-0.4,0.4l-1.3,2.2l-0.9,0.4h-1.3
		l-0.9-0.9l-1.7-1.7l-0.9-0.4h-0.9l-0.4-0.9l-0.4-1.3l-3.1,0.9l-2.6-0.4l-2.6-1.7l-1.7-1.7l0.4-0.9l0.4-0.4l0.4-1.3v-0.9h-0.9
		l-1.3,1.3l-1.3-0.9l-2.6-3.1l0.4,2.2l-0.9,0.4l-2.6-0.4l-0.4-0.9l-0.4-1.3l1.7-5.7h-0.4l-4.4,3.1l-0.9,1.3l0.9,1.3l-1.3,1.3
		l-4.8-1.7l-1.7-1.7v-3.1L708,631l-2.2-1.7l-0.4-1.7l0.9-2.2l0.4-3.1h-0.4l-2.2,3.5l-3.1,1.7L698,628l-5.2-2.2l-0.4-0.4l-0.4-0.9
		l0.9-1.3l0.9-0.4l1.3-0.9l0.4-0.4l-0.9-0.9l-2.2,0.4l-7,4.4l-1.7,0.9l-2.2,0.4l-0.9-0.4l-0.9-0.9l-0.9-0.9l-0.4-0.9l0.4-1.7
		l-0.4-0.4L677,621h-2.2l-0.9,0.4l-0.9,0.4l-4.8-3.5l-6.6-2.2l-8.3-4.8l-7-3.5l-2.2-2.2h-0.9h-1.7l-0.9-0.4l-2.6-2.2l-2.2-0.9h-8.3
		l-8.3-2.6l-3.1-2.2v-0.4l-2.2-0.4l-1.7-0.4l-0.9-0.9l-1.3-0.9l-1.7-0.4H607l-1.3-0.4l-1.7-1.3l-4.4-4.8l-2.2-1.3l-3.5-0.9H586
		l-3.5-1.3l-1.3,0.9l-2.6,0.4l-2.6-0.4l-2.2-0.4l-3.9-0.4l-4.4-0.9l-0.9-0.4l-1.3-0.9l-11.8-1.3l-2.2-0.4l-1.3-1.3l-1.3,0.9
		l-5.2,0.4l-2.6-0.4l-5.7,1.7l-3.9,0.4l-4.4-1.3l-21.4-12.2l-1.3-1.3l-0.9-1.3l-0.9-1.3l-1.7-1.3L496,562L495.5,562L495.5,562z
		 M500.3,259.4l1.7,0.9l1.7-0.9l1.3-4.4l2.2-0.9l-0.4,1.3l-0.4,1.7v3.1l-3.1,4.4l-1.3,0.4l-1.7,0.4h-3.1l-1.3-0.4l-1.7-0.9l-0.9-1.3
		l-1.7-3.5l-2.2-2.2l-0.9-2.2l1.3-2.6l0.4-0.4v-1.7l0.4-0.9l0.9-0.9l1.3-1.3l1.3-0.4l1.7-0.4l4.4,1.3l1.3,0.9l0.4,0.9v0.9l0.9,1.3
		l0.4,0.9l-0.4,2.6l-0.4,0.9l-1.7,2.2L500.3,259.4L500.3,259.4z M547.5,219.6h0.4h1.3h0.9l1.7,0.9l2.6,0.9l5.2,0.4h0.9l2.2-0.9
		l0.9,0.9l0.9,1.7l6.1-1.3l0.9,0.4l1.3,2.2v0.9l0.4,1.3l0.9-0.4l1.3-0.9h0.9l3.1,2.2l1.7,0.9l0.9-0.9l0.4-1.3l1.7-1.3l1.7-1.3
		l1.7-0.4l2.2,0.9l2.2,1.7l7,7l7.4,5.2l2.2,1.7l0.9,3.1l1.3,1.7l1.3,0.9l0.4,0.9l0.4,2.2l1.3,1.7l1.7,0.9l1.7,1.3l0.9,2.6l1.3,1.7
		l0.9,1.7l1.3-0.4l1.3-0.9l2.2-0.4h2.6l2.2,0.4l0.9,2.2l0.9,0.9l5.7,0.9l0.9,1.3l-0.4,1.3l-1.3,1.3l-1.3,0.4l-1.3,0.4l-4.4,3.5
		l-6.1,0.9l-1.3,0.9l-1.3,0.4l-1.7,0.9l-2.2,0.4l-1.7,0.4l-3.9-0.9l-6.1-3.5l-4.4-0.9l-2.2,0.4l-3.5,1.3h-2.2l-2.2-0.4l-1.7-1.3
		l-1.7-2.2l-1.3-1.7l-0.4-1.7l0.4-5.7v-0.9l-1.7-2.6l-0.4-0.9l-0.9-3.1l-1.7-9.2l-1.7-3.5l-2.2-1.7l-2.2,0.4l-1.7,2.2l-1.3,1.7
		l-2.2,2.2l-2.2-0.4l-14.9-11.8l-0.4,0.9v0.9l1.3,2.6l-3.1-1.3l-3.5-2.6l-2.6-3.9l-2.6-6.6l0.4-1.7l1.7-0.9l0.9,0.4l1.3,1.7
		L547.5,219.6L547.5,219.6z"/>
</g>
</svg>
