<?xml version="1.0" encoding="utf-8"?>
<!-- Generator: Adobe Illustrator 25.4.1, SVG Export Plug-In . SVG Version: 6.00 Build 0)  -->
<svg version="1.1" id="Layer_2" xmlns="http://www.w3.org/2000/svg" xmlns:xlink="http://www.w3.org/1999/xlink" x="0px" y="0px"
	 viewBox="0 0 1080 1080" style="enable-background:new 0 0 1080 1080;" xml:space="preserve">
<path id="IDN1236" style="fill:#7D7D7D;stroke:#FFFFFF;stroke-width:7.5463;stroke-linecap:round;stroke-linejoin:round;" d="
	M446.2,1072.2l-2.6,1.1l-1.5-0.4l-0.4-1.5v-1.5l0.4-1.1l0.8-1.1l1.1-0.8l3-0.8l1.5,1.9v2.6L446.2,1072.2z M369.2,1061.3l7.5,0.8h4.9
	l2.3,0.4l1.5,1.5l-0.8,1.5l-2.6,0.8h-2.6l-1.1-0.4l-1.1-1.1l-5.3-0.8l-1.5-0.8l-1.5,0.4l-1.9,0.4l-1.9-0.4l-1.5-0.4l-0.4-0.8
	l-0.4-0.8l0.4-0.4l0.4-0.8l1.1-0.4h1.9L369.2,1061.3L369.2,1061.3z M359,1045h1.1l1.1-1.5h0.8l0.4,1.1l-0.4,1.5l-0.8,2.3v1.1
	l-2.6,0.4l-3-0.4l-1.5-0.8l-0.4,1.5l-0.8,0.8l-3-1.5l-1.1-1.9l0.4-1.1l-2.3,0.4l-1.5-0.8l-1.1,0.4l-0.8-1.9l0.8-0.4l2.3,1.1l1.9-0.8
	l0.4-2.3l-0.4-1.9l0.4-1.9l1.1,0.8l1.5,0.4l1.9,2.6l4.5,1.9L359,1045L359,1045z M338.3,995.2l-0.8,0.4l-0.8-3.4l-0.8-2.6v-1.5
	l0.8-9.1l-0.4-1.1l-0.8-0.4h-0.8l-0.4-0.8v-1.9l-1.1-2.6v-0.8v-0.8l1.1-1.9l0.4-1.1v-4.9l-0.8-8.3l0.8-10.9l0.8-3.8l0.8-2.6l1.1-0.4
	l0.4,0.4l0.8,0.4v0.8v1.9l0.8,1.5l0.8,1.1l0.4,1.1l0.4,1.9l1.9,5.3l0.8,3.4l0.4,3.8v3.4l-0.8,3.8l-1.9,4.9v1.9l0.4,4.5l-0.4,3
	l-0.4,4.2l-0.8,1.5l-1.1,1.5v1.5l0.4,3.4l-0.4,1.5L338.3,995.2L338.3,995.2z M428.8,707.3l-4.9,3l-1.9,0.8l-1.1,0.4h-1.1l-0.8-0.4
	l-3.8-1.9l-6.8-5.7l-5.7-3.8l-1.5-0.8l-1.5-0.4h-1.1h-1.9l-3.4,0.4l-3,1.1l-3.4,1.9v-0.4l-0.4-2.6l-0.8-1.5l-1.1,0.8h-0.4l-0.4-0.8
	l-0.8-2.3l-0.4-0.8l-0.8,0.4l-0.8,1.9l-0.4,0.4h-0.8l-0.8-0.4L379,696l-0.4-0.8l0.4-1.1l1.1-0.4l1.5-0.4l0.4-1.9l1.1,0.4l1.1-0.4
	l1.1-2.3l1.1,0.8l-2.6-5.3l-1.1-0.4v-0.4l-0.4-0.8l-1.1-1.1l-0.8-0.4l-10.2-1.5l-1.5,0.4h-0.8l-1.1-0.8l-0.8-0.8l-0.8-0.4l-1.9-0.8
	h-1.9l-1.1,0.8l-1.1,0.8l-1.1,0.4h-1.9l-1.5,0.4l-4.2,2.3l-1.5,0.4l-1.5,0.4l-1.9,0.4l-0.8,1.1l-0.4,1.5l-0.8,1.1l-1.5,1.5
	L322,701.7l-3.4,2.6l-1.5,1.1l-2.6,0.8l0.8,1.1l1.1,1.1l0.4,1.1v1.1l0.4,1.1l0.4,0.8l0.8,0.4l1.1,0.8l1.1,4.2l0.8,1.9h-0.4l-1.1,1.5
	l1.5,1.5l1.9,1.1l3.8,1.1l2.3,1.5l0.8,0.8l0.4,1.9l0.4,1.1l0.8,0.4h1.5l-0.4,0.8l-1.1,1.5l-0.4,1.1l0.4,2.6l-0.4,1.1l-0.8,3l0.4,0.8
	l0.8,1.9v0.8v0.8l-0.4,1.5l-0.4,4.2v1.5l1.5,3.8l0.4,1.5v6.8l0.4,0.4l1.5,1.5v3.4l-1.1,3l-3.4,4.9l-1.5,2.6l-1.1,3l-0.4,3v13.6
	l0.4,1.5l1.5,3l0.4,1.1v3.4v0.8l-0.4,1.5v1.1v1.1l1.1,2.6l-0.4,2.6l-1.9,4.9l0.4,3l1.9,2.3l1.1,1.5l-0.4,1.5l-0.4,1.5v1.9l0.4,2.3
	l0.4,1.5l0.8,1.5l2.6,2.6l0.4,1.5l-0.4,1.1l-0.8,0.4l-1.5,1.5v0.8l-1.9,7.9v1.9l-0.8,1.5l-1.5,0.8h-1.9l-1.5,0.4l-1.5,2.3v10.2
	l-1.9,9.8l-0.8,1.9l-0.8,1.1l3.4,5.3l0.8,1.1l1.1,3.4l0.4,1.1l3.8,4.5l0.8,1.1v1.9l3.4,12.8l0.4,3l0.4,0.8l1.5,2.3l0.4,1.5l-0.4,0.4
	l-2.3-1.1l-1.1,0.4l-3-3.4l-0.4-0.8l-0.4-1.1l-1.5-2.6l-0.4-0.8h-2.3l-1.9,0.8l-1.9,1.1l-1.9,0.4l-3.8,0.8l-0.4,0.4l-2.3,1.5
	l-1.5,0.4l-3,1.1l-1.5,0.4l-0.4-0.4h-1.9l-4.9-0.8l-1.1-0.8l-1.1-0.4l-1.9-0.4l-2.3,0.4l-1.5,0.4l-1.5,0.8l-3.4,3.4l-0.4,0.8
	l-0.4,1.9l-0.4,0.8l-1.5,1.5l-1.5,1.1l-2.6,0.4l-4.2,0.4l-3.8-0.4l-2.3-1.5l-0.4-1.9v-1.9l-0.8-1.5l-1.9-0.8l-1.9,1.1l-0.8,1.9
	l-0.8,1.1l-1.5-1.1l-0.4-1.1v-1.9v-1.1l-0.8-0.8l-0.8-0.4l-0.8-0.8v-1.1h-1.5l-2.3,0.4l-1.5,1.1l1.1,1.5h-1.9l-1.1-0.4l-0.8-1.1
	v-1.9l0.4-0.8l0.4-0.8l0.4-1.1l-0.4-0.8l-0.8-0.8l-0.8-1.5l-2.6-4.2l-1.9-3l-0.4-3.4l0.4-3.8l0.8-2.6l0.8-5.3l0.4-1.9l1.1-2.6
	l0.8-2.6l0.4-0.8l0.8-0.8l1.5-0.8l0.8-0.4l1.1-1.9l0.4-1.1l0.4-3l1.1-3l3-5.7l0.4-2.6l-2.6-10.6l0.4-3l0.4-0.4l1.5-0.8l0.4-0.4
	l1.1-2.6l0.4-1.1l3.4-6l0.8-1.5l1.1-11.7l1.5-5.7v-3v-0.8l-0.8-3.4l-1.1-1.1l-0.4-0.8l0.4-1.5l1.9-3v-1.9l-0.8-3.4l-0.8-1.5v-0.8
	l0.8-1.5l0.4-0.8v-0.8l-0.4-1.5l0.4-1.1l1.9-2.6l0.4-1.1l-1.5-0.8l-1.9,0.4l-0.4,1.1l-0.4,1.1l-0.4,1.9l-0.4-1.1l-0.4-3.4l-1.5-2.6
	l-3.8-9.1l-1.9-2.6l-0.8-3.4l-2.6-3.4V767l1.1-2.3l1.1-4.5l0.8-1.5l1.5-1.5l0.4-1.5l-0.4-1.1l-1.1-4.2l-0.4-0.8l-0.8-4.9l-1.5-4.9
	l-0.4-1.1v-3l-0.4-3l-1.1-1.1l-1.9-2.6l-0.4-0.8v-0.8v-1.1l0.8-0.8l0.8-0.4l0.8-0.4l0.8,0.4l1.1,0.4h0.8l1.1-0.4l1.5-0.8l3-1.9
	l1.5-0.8l1.9-0.8l3.4-0.8l1.1-0.8v-0.8l-0.4-1.1l-2.3-3l-5.3-12.5l-0.4-1.5v-1.9v-1.5l0.4-1.9v-0.8v-1.1l-2.3-3.8l1.5-0.4l2.3-0.4
	h1.5h1.5l3,0.8h2.3l5.3-1.5l3.4-1.5l0.8-1.1l0.8-0.8v-0.8l-0.4-0.8l-1.1-1.1v-0.8v-0.8l0.4-1.9v-0.8l-2.6-4.2l-0.4-3v-1.9v-1.5
	l-0.8-0.8l-0.8-1.1v-1.1v-0.8l0.8-2.3l0.4-1.1l-0.4-1.1l-0.4-1.1l-1.1-1.5l-3-2.3l-0.8-0.4l-1.9-0.8l-1.1-0.8v-0.8v-1.1v-1.5
	l0.4-3.8l0.4-1.5l0.8-1.5l9.1-7.9l1.1-0.4l0.8,0.4l1.1-0.4l0.8-0.4l1.1-0.8l0.8-1.1l4.2-7.5l3-1.5l4.5-3l6.8-3.4l1.5-0.4h2.6
	l4.5,0.4l11.3,3.4l2.6,0.4l1.5-0.4l0.8-0.8l0.4-0.8l0.8-1.9l0.4-0.8l1.1-0.8l1.5-0.4l1.9,0.8l1.5,1.5l8.7,13.2l3,3.4l3,3l11.3,9.4
	l3.4,1.5l44.5,9.1l4.2,1.5l4.2,1.9l1.9,1.1l1.5,1.1l4.5,5.7l4.9,4.5l2.6,1.5l8.7,4.2l1.5,1.5l1.1,1.5l0.8,1.9l0.8,2.3v1.5v1.9
	l-0.4,1.5l-0.4,1.5l-1.1,2.3l-12.8,12.8L428.8,707.3L428.8,707.3z"/>
<path id="IDN1237" style="fill:#7D7D7D;stroke:#FFFFFF;stroke-width:7.5463;stroke-linecap:round;stroke-linejoin:round;" d="
	M287.7,624l-4.2,7.5l-0.8,1.1l-1.1,0.8l-0.8,0.4l-1.1,0.4l-0.8-0.4l-1.1,0.4l-9.1,7.9l-0.8,1.5l-0.4,1.5l-0.4,3.8v1.5v1.1v0.8
	l1.1,0.8l1.9,0.8l0.8,0.4l3,2.3l1.1,1.5l0.4,1.1l0.4,1.1l-0.4,1.1l-0.8,2.3v0.8v1.1l0.8,1.1l0.8,0.8v1.5v1.9l0.4,3l2.6,4.2v0.8
	l-0.4,1.9v0.8v0.8l1.1,1.1l0.4,0.8v0.8l-0.8,0.8l-0.8,1.1l-3.4,1.5l-5.3,1.5h-2.3l-3-0.8h-1.5H262l-2.3,0.4l-1.5,0.4l2.3,3.8v1.1
	v0.8l-0.4,1.9v1.5v1.9l0.4,1.5l5.3,12.5l2.3,3l0.4,1.1v0.8l-1.1,0.8l-3.4,0.8l-1.9,0.8l-1.5,0.8l-3,1.9l-1.5,0.8l-1.1,0.4h-0.8
	l-1.1-0.4l-0.8-0.4l-0.8,0.4l-0.8,0.4l-0.8,0.8v1.1v0.8l0.4,0.8l1.9,2.6l1.1,1.1l0.4,3v3l0.4,1.1l1.5,4.9l0.8,4.9l-0.4-0.4l-1.9-0.4
	l-0.8-0.8l-1.9,0.4l-2.3-1.1l-2.6-1.5l-2.3-0.8l-2.6-0.4h-1.1l-0.4,0.4l-0.8,1.1l-3.4,2.6l-1.1,0.8l-1.5,0.4l-1.5-0.4l-1.5-0.4
	l-1.5-0.4l-1.1,0.4l-1.9,1.5l-1.5,0.4l-6,0.4l-2.3,1.1l0.4,3l-0.8-0.4l-1.1-1.1l-0.8-0.4l-0.8,0.8l-1.1,1.9l-0.8,0.4L210,756
	l-0.8-1.5l-3-8.7l-1.5-2.6l-1.1-1.5l-0.4-1.9l-0.4-1.5l0.4-1.5l0.8-1.5v-1.5l-1.5-3l-0.8-5.3l-0.8-1.9l-0.4-0.8l-0.4-0.4l-1.1-0.4
	l-0.8-0.8l-0.8-1.5l-0.8-1.9v-0.8l0.4-0.8l1.1-1.5l0.8-0.4h0.8l1.9,0.8l1.1,0.4l0.8-0.4l0.4-1.1l0.4-6.8l0.8-2.3l1.5-1.9v-1.1
	l0.4-2.3l-0.4-0.8l-0.4-0.8l-0.8-0.8l-0.8-0.4l-2.3-0.8l-1.5,0.4l-3.4,1.5l-0.4-1.9l-0.8-3.4l-0.4-1.9l0.4-0.8l1.1-1.5l0.4-1.1v-3.4
	l0.4-1.5l0.8-1.9l1.1-1.9l1.5-0.4l1.5,0.4l1.1,1.1l1.1,1.1h1.9l1.9-0.8l3.4-2.3l1.9-1.9l1.9-0.8l0.8-0.8l0.8-0.8l0.8-3l1.1-1.5
	l1.5-0.8l1.5-0.8l4.5-3.4l0.4-0.8l-0.4-5.3l-0.8-1.9v-8.3l0.4-0.8l0.4-1.1l0.4-1.1l-0.8-1.1l3-4.5l1.1-2.3l2.6-9.1l1.5-2.3l2.6-1.5
	l1.9-0.8l1.1,0.4l1.1,0.4l1.5,0.4l1.1-0.8l0.4-2.3l1.1-7.2v-1.1l-0.4-0.4l-1.1-0.8l-1.1-1.5l-0.4-1.5l-1.9-7.2l-0.4-3.4l0.4-1.9
	l1.9-3l0.4-1.5l-2.3-5.7l-0.4-0.8l-0.4-6.8l-0.4-1.1l0.4-0.8l0.8-0.8l1.5-1.5l0.8-1.1l-0.4-1.5l-1.5-3.8v-3l1.1-2.6l1.9-2.3l1.9-1.5
	l1.5-1.9l0.8-1.1l1.1-0.4l1.1-0.4l1.1-0.8l1.1-1.5l0.4-3l1.1-3l0.8-4.9l0.8-1.1l0.8-1.1l0.8-1.1l0.8-3.8l0.4-1.1l1.1-0.8l2.3-1.5
	l0.4,3.8l-0.4,9.4l0.4,2.6v2.3l1.9,5.3l0.8,2.6l-0.4,1.5l-0.8,1.1L259,564l-1.1,1.1l-1.1,1.5l-0.8,2.6v1.9l0.8,1.5l0.8,0.8l1.5,0.8
	l9.4,3.8l1.5,0.8l1.1,1.1l0.8,1.1l1.1,2.3l1.1,8.7l0.4,2.3l1.1,1.5l3.4,4.9l2.3,1.9l2.3,3l1.1,2.3l0.8,1.5v1.1l-1.9,6.8v1.1v1.9
	l0.4,1.1l0.8,1.1l0.8,0.8l0.8,0.4L287.7,624L287.7,624z"/>
<path id="IDN513" style="fill:#7D7D7D;stroke:#FFFFFF;stroke-width:7.5463;stroke-linecap:round;stroke-linejoin:round;" d="
	M725.4,349.3l-2.6,0.4l-1.1-1.1l0.4-0.8l0.8-0.8l1.5-0.4l3.8-1.9l3.8-8.3h0.4v1.5l-0.4,2.6v2.3l-0.4,0.8l-1.1,0.8l-0.4,0.8l-0.4,2.6
	l-1.5,0.8L725.4,349.3L725.4,349.3z M581.2,437.9l1.1-1.9l1.9-4.9l0.4-2.6v-2.6l-0.4-2.6l-1.1-5.3l-1.5-2.3l-1.9-2.3l-9.4-4.2
	l-1.9-2.6l-2.3-1.5l-1.5-0.8l-0.8-0.8l-1.5-4.2l-0.4-2.3v-0.8l-0.4-0.8l-1.1-0.8l-3.8-1.9l-0.8-0.4l-2.3-1.1l-1.9-3.4v-0.8h1.1
	l1.9-0.8l3.4,1.5l1.1-0.8l-0.4-0.8l-0.4-1.9l0.4-0.8l1.9,1.1l1.5,0.8l2.3-1.1l1.5,1.1l0.4,0.8l0.4,1.5l0.8,0.4l1.1,0.4h2.3l0.8-0.4
	h0.8l1.5-0.8l1.1-0.4l0.8,0.4l0.4,0.8h0.8l0.8-0.4l2.3,1.5l6.4,1.1l2.3,1.5l1.1,0.4l2.6-1.5h1.5l1.5,0.4l3.4,1.5l1.5,0.8l11.3,1.5
	l5.7-0.4h0.8l1.5,0.4h0.8l0.8-0.4l0.4-0.8v-0.4l-1.1-0.8l1.1-0.8l3.4-0.8l1.5-1.5l9.1-3.4l2.6-0.4l1.1-1.1l1.9-2.3l2.6-1.1l5.7-1.5
	l1.9-1.5l1.1-3l1.5-5.7l1.5-2.3l0.8-0.8l1.1-0.8l1.5-0.4l1.9-0.4l5.3,0.4l1.5-0.4l0.8-0.4l1.1-1.1h1.1l0.8,0.4l0.8,1.5l1.1,0.4
	l1.1-0.8l1.1-1.5l0.4-1.9l0.4-1.5l-1.1-1.5l-1.1-0.4l-3,0.4l-1.5-1.1v-2.3l0.4-2.3l0.8-1.1l4.2-3.4l0.8-0.8l0.8-0.8l6,1.5l2.3-0.4
	l1.1-1.1l1.9-2.3l1.5-0.8l3.4-0.4l1.5-0.8l1.1-1.9l-0.4-1.5l-1.1-1.5l-0.8-1.5l0.4-2.3l0.8-1.1l8.3-6.4l1.1-1.5l1.5,0.8l0.4-0.4
	v-2.6v-0.8l0.8-0.8l1.9-0.8l1.5-0.4l0.8,0.8v3.4l0.8,1.1l1.5,0.4h1.9l5.3-0.4h2.3l0.4,1.1l-1.1,3v3.8l1.9,1.9l2.3,1.5l1.9,1.5l0.8,3
	l-2.3,2.3l-3.8,1.5l-2.6,1.5l-2.3,3l-1.5,3l-5.3,14.3l-3.8,6.8l-2.6,3l-2.6,2.6l-0.4,0.8l-1.1,1.9v0.8l-0.4,0.8l-3,1.5l-2.6,0.4
	l-0.8,0.8l-0.4,0.8l-1.5,1.9l-0.4,0.4l-2.3,0.8l-1.5,1.1l-3,2.6l-2.6,2.3l-1.1,1.1l-0.8,2.3l-1.1,1.5l-0.4,1.1v1.9l-1.1,1.1l-3,2.6
	l-0.4,1.5l-0.8,0.8l-0.4,0.8l0.4,0.8l0.8,0.8v0.8v1.5l-0.4,0.4l-1.5-0.4h-0.8l-0.4,0.4l-3.4,4.5l-0.4,1.1l1.1,0.8v0.8l-1.5,0.4
	l-0.8,1.1l-1.5,3l-2.3-0.8l-1.9,0.8l-1.9,1.1l-1.5,0.4l-1.9,0.4l-2.3,1.9L642,433l-4.2,0.4l-3-1.5l-1.1,0.8l-2.3,2.3l-2.3-0.8h-0.8
	l-0.8,0.4l-1.5,1.1h-0.8l-5.3,0.4l-1.9,0.4l-3.4,1.1h-0.8h-2.6l-1.5,0.8l-1.5,0.8h-0.8l-1.9-0.8H605h-1.9l-3,1.1l-2.6,0.4l-0.8,0.8
	l-1.1,1.1h-0.4l-0.8-0.4l-2.6-2.3l-1.1-0.4l-8.7-0.8L581.2,437.9L581.2,437.9z M719.7,321h-0.4l-0.4-0.8l-0.4-0.8l-0.4-1.1l-0.4-1.5
	l-0.4-1.5l0.8-1.5l0.4-0.4l0.8,0.8l0.8,1.1l1.5,0.8l0.4,0.8v1.1l-1.9,1.5L719.7,321L719.7,321z M741.2,289.7l-0.4,1.1l-0.4,0.4h-0.8
	l-1.5,0.8l-0.4,0.4l-0.4,0.4l-0.8,0.8l-0.4,0.4h-0.8l-0.8-0.8l0.4-1.1l0.4-0.4l1.1-1.1l-0.4-0.8l0.4-0.8l0.8,0.8l0.4-0.4l0.8,0.4
	l1.1,0.4l1.1-1.1L741.2,289.7L741.2,289.7z M744.6,272.3l-2.3,1.5l-2.6-0.8l-1.9-1.9v-2.3l1.1-0.8l1.1-0.8h1.5l1.5,0.4l1.5,0.8
	l0.4,1.1L744.6,272.3L744.6,272.3z M742,247.8l-0.8,0.4h-1.5L739,247l-0.4-1.5V244l-0.4-1.1l-1.1-2.6l-0.4-1.1l0.4-1.1l1.5-3
	l0.8-1.1l1.1-0.8h1.1l1.5,0.8l0.8,0.8l0.8,1.1v1.1l-0.8,1.1l-2.3,1.9l-0.8,1.1l-0.4,1.1l0.4,1.1l1.1,1.5l0.4,1.1v0.8L742,247.8
	L742,247.8z M759,174.9l1.1,0.4h0.4v1.9l0.8,1.9l0.8,1.9v0.8v0.4l-0.4,0.8l-3,2.3h-0.4l-1.1-0.4l-0.4-0.4v-0.8l-0.4-1.1l-1.9-0.8
	l-3.8-1.1l-1.5-1.1V178l0.4-3.8l0.8-1.1v-2.6l-0.4-0.8l-1.9-0.8l-4.2-3.8l-1.1-1.1l-0.8-1.1l-0.4-1.9l0.4-1.5l1.9-2.3l3,0.4l2.6,1.9
	l1.9,1.9l3,4.5l0.4,1.5l-0.4,1.5l0.4,1.1l1.5,1.5l0.8,0.8l0.8,2.3L759,174.9L759,174.9z M858.2,156.5l-2.3,1.1l-3.8-3.4l-2.3-4.2
	l0.8-2.6l2.6,1.1l2.6,1.5l1.9,2.3l1.9,3L858.2,156.5L858.2,156.5z M846.5,150.8H845l-1.1-6.8l0.4-2.6l-1.5-1.9l-1.9-1.1l-0.4-2.3
	l-0.8-2.6l0.4-1.5l2.3,1.1l1.1,4.2l3.4,3.8l1.1,1.1v1.5l-1.1,1.9l-1.1,1.9L846.5,150.8L846.5,150.8z M861.2,95l0.4,1.1L862,98
	l-0.4,1.9l-0.8,1.5l-0.4,1.9l-0.4,1.9l0.8,3l2.6,2.3l1.5,1.9l-4.5,6l-4.5,4.2v6v3.8l-1.1,1.9l-3,1.9l-3.8-1.5l-3,0.4l-1.1-2.3
	l1.1-2.3l1.1-1.5l2.6-1.5l3-7.2l3.4-3l-0.8-1.5l-1.1-0.4l-5.7-1.5v-1.9l0.4-1.9l-1.1-3.8l-0.4-3.4l0.8-2.3l3-4.2V95v-0.8l-0.4-1.9
	l-0.4-0.8l1.1-0.8l1.9-0.4h2.3h1.5l1.1,0.8l0.4,1.9l0.8,1.1l1.1,0.4h0.8L861.2,95L861.2,95z M883.5,73.8l-0.8,0.8l-1.1-0.8v-1.5
	l0.4-0.4l0.8,0.4L883.5,73.8z M838.6,7.8l-0.4,0.4l-0.4-0.8l0.8-0.8l0.4,0.4L838.6,7.8L838.6,7.8z"/>
<path id="IDN556" style="fill:#7D7D7D;stroke:#FFFFFF;stroke-width:7.5463;stroke-linecap:round;stroke-linejoin:round;" d="
	M631.4,957.1l-0.8,1.5l-1.5-0.8l-0.4-0.8v-1.9l-0.8-1.1l-0.8-0.4L625,953l-0.8-0.4l-1.1-1.5l-0.4-1.9l0.4-1.5l0.8-2.3l0.8,0.8l4.2,3
	l0.8,0.8l0.8,2.3l0.8,0.8l0.8,1.9L631.4,957.1L631.4,957.1z M609.9,920.9l0.8,1.9l-1.9-0.4l-1.1-1.5l-2.3-3l-1.5-1.1l-1.5-1.1
	l-1.1-1.1l-0.8-1.5h1.1h2.3l1.1,1.1l1.1,1.5l1.1,0.4l2.3,0.8l0.4,1.9L609.9,920.9L609.9,920.9z M595.6,903.9l-1.1,1.1l-2.3-0.4
	l-1.5-0.8l-1.1-1.1l-3-6v-2.3l1.5-0.4l1.9,0.8h2.6l2.3,1.1l1.1,1.9v4.2L595.6,903.9L595.6,903.9z M455.2,881.7h1.5l0.4-0.4l1.5-1.5
	l0.8-0.4l0.8,0.4l0.4,0.8l1.1,4.9l1.1,1.1l1.9-0.4l0.8,1.1l1.1,1.1l0.4,1.1l0.4,1.9l-0.4,0.8l-1.1,0.8v0.8l0.4,2.3v13.6l-0.4,1.5
	l-1.5,1.1h-1.1l-1.5-0.4l-1.1,0.8h-1.1l-2.6-4.2l-1.1-1.1l-1.1-0.4l-1.5-0.4l-0.8-0.4l-0.4-0.8l-0.8-1.9l-3.4-4.9l-1.5-3.4l0.4-0.8
	v-2.3l0.4-1.1l0.8-0.8l0.4-1.1l0.8-1.1v-1.1l0.4-0.4l2.3-0.4l0.8-0.4v-0.8l-0.8-1.1l-1.5-1.5l0.8-1.5l1.5-1.1l1.1-0.8l1.5-0.8
	l-0.4,1.5v1.1L455.2,881.7L455.2,881.7z M525.8,869.6l-0.8,0.8h-0.4l-1.1-0.4h-0.8l-0.8,1.9l-0.8,1.1l-5.3,5.7l-1.5,1.9l-3,6.4
	l-0.4,1.9l0.4,0.8h1.9l0.8,0.4l-0.4,1.1l-0.4,0.8l-0.4,0.4l-2.3,0.4l0.8,0.8l1.9,0.8l1.5,0.8l0.4,0.8l0.4,0.8l0.4,1.9l-0.4,2.3
	l-0.8,1.9l-0.8,0.8l-1.1-1.1l-0.8,1.1l-0.4,1.9v1.9l-0.4,1.1l-0.8,0.4h-0.4l-0.8-0.8l-0.4,0.4l-1.1,1.1h-1.5l-0.4-3.4v-4.2l-0.4-1.9
	L505,899l-0.4-1.1l-0.8-0.4l-1.1,1.9l-0.4,0.8l0.4,1.5v1.1l-1.1,2.6l-1.5,1.1l-1.5,0.4l-1.5-0.8l-1.1-1.1l-0.8-2.3l0.8-1.1l2.6-1.1
	v-0.8h-1.1l-1.1-0.4h-0.8l-1.5,1.1l-0.4,0.8l-0.4,0.8v2.6l-0.8,0.8l-0.8,0.4h-4.2h-1.1l-0.8-0.4l-1.1-1.1l0.8-0.4l-0.8-1.5l-0.4-1.5
	l0.8-1.5l1.9-3.8l0.8-1.9l0.4-1.9l0.4-6l0.8-1.9l0.8-1.1l0.8-0.4l1.9-0.4l2.3-3l-0.4-1.1l-0.4-1.5l-0.8-4.2l-1.1-1.9l-0.4-3.4
	l-0.8-2.6l-1.1-2.3l-1.1-1.1v-0.4l1.1-1.9l1.9-4.2l1.5-1.5l1.5-0.8l5.7-0.4l2.3-0.4l2.3-1.5l6-4.2l4.5-2.6l3-1.1l1.5,0.4l1.1,0.8
	l0.8,1.5l1.5,10.6v6l0.4,0.8l1.1,1.5l0.8,2.6v0.8v1.9L525.8,869.6L525.8,869.6z M561.2,847.3l0.4,3v8.3l-0.4,2.3l-1.5-0.4l-0.4-1.9
	l-0.4-3l-1.1-1.9l-1.1-0.4l-0.4-1.1v-0.8l-0.4-0.8l-1.9-0.8l-1.5,4.9l-2.3-2.3l-1.1,1.1l-1.1-1.1l-0.4,1.1v3.4l-0.4,0.8l-1.5,0.8
	l-0.4,0.8l-0.8,2.6v1.1l0.4,3.4v1.5l-2.3,1.1l-0.8,1.5l-0.8,1.5l-0.4,1.1v0.8l1.1,1.9l0.4,2.3v1.1v1.9l-0.4,1.1l-1.9,3.8l-0.8,1.9
	l0.4,1.5l1.5,0.8l1.5-1.1l1.1-1.9l1.5-1.9l2.3-0.4l1.1,0.8v0.8v0.8l0.4,0.8l3,0.8l0.4,1.5l0.8,0.8l2.6,1.5l3.4,1.9l1.5,1.1l0.8,1.5
	l-0.4,1.5l-1.1,1.5l-1.9,1.9l-1.5,2.6l-1.1,1.1l-3.4,0.8l-3,1.9l-1.5,0.4l-1.5-0.4l-1.5-1.9l-1.1-0.4H542l-7.2,4.2l-1.1,1.1
	l-1.1,3.4l-0.4,0.8l0.8,0.4h0.8l1.9-0.8l0.8-0.4l0.8,2.6l-1.9,3.4l-3.8,5.3l-1.9,3.4l-1.1,1.1l-1.9,0.4v-0.8l-0.4-1.9v-0.8l-1.1-0.8
	l-1.5,1.9l-0.4,0.8v0.4l-0.8-0.8v-0.8v-2.3l-0.4-0.8h-1.1l-2.3,3.4l-1.1,1.1l-1.9-0.4l-1.5-1.1l-5.7-12.8l6-5.7l1.1-1.1l-0.4-1.1
	l-1.9-0.4l0.8-1.1l2.3-3l0.8-2.6h1.5l0.8-1.5l1.5-3l1.1-1.1l1.5-0.8l2.3-0.4l1.9-0.8l0.8-1.5V890l-0.4-0.4l-3.8,1.5h-0.4l0.8-1.5
	l-1.1-1.1l0.4-1.1l1.1-1.5l0.8-1.1l-0.4-2.3l0.4-1.1l1.5-2.3l0.4-1.5l-0.4-1.5l-0.8-0.4l-0.8,0.4l-1.1,0.4l-1.1,0.4l0.8-1.5l4.5-3.8
	l0.8-1.5l0.8-1.9v-1.9v-1.9l-1.1-2.6v-0.8l0.8-0.4l0.8-0.4h0.8l0.4-1.1l-0.4-14l0.4-3.4l1.1-3.4l2.6-4.5l0.4-1.9l0.4-1.1l1.1-1.1
	l7.9-5.7l1.9-0.8h2.3l1.1,0.4l-1.9,2.6l0.8,1.5l1.1,1.5l5.3,4.2l1.1,1.5l2.3,3.4l0.8,1.9l0.4,1.9v0.8l-0.8,1.5l-0.4,1.1l0.4,0.8
	l0.8,0.8L561.2,847.3L561.2,847.3z M550.3,791.9l1.9,0.8h1.1l1.5-0.8l1.9-0.8l2.3-0.4l1.5,0.4l2.3,1.9l1.5,3l0.4,3l-1.1,2.6
	l-3.8,5.3l-2.3,3l-2.6,1.5l-4.2-0.4l-3.4-2.3l-2.6-3l-2.6-3.4l-0.8-1.9l-0.8-3.4l-0.8-1.5l0.8-1.1l2.3-1.5l0.8-0.8l1.5-2.3l1.1-0.4
	l1.5,0.4l1.1,0.8L550.3,791.9z M558.2,759h-1.5h-1.5l-0.8,1.1l-0.8,1.1l-1.9-0.8l-1.5-1.5l-1.1-1.1l-0.4-0.8v-0.8l0.8-0.4h1.1
	l4.5-2.3l1.5,0.4l1.1,1.1l0.4,1.5L558.2,759L558.2,759z M486.9,756.4l-1.1,0.8l-0.8-1.5l0.8-1.5l1.1-1.5l1.1-1.1l1.1,0.4l0.8,1.1
	l0.8,1.1l0.4,1.1h-0.8l-1.9,0.4L486.9,756.4L486.9,756.4z M498.6,748.8l-1.1,0.8l-0.8-0.8l-0.8-1.5l-1.1-2.3v-1.9l0.4-1.1l0.4-0.8
	h0.4h0.8l0.4,0.8l0.4,1.1l0.4,0.8l1.9,1.5v0.4v0.8l-0.4,1.5L498.6,748.8L498.6,748.8z M428.8,707.3l6,0.8l9.1,0.4l3,0.8l19.6,7.9
	h1.5l4.9-0.4l1.5,0.4h1.1l1.5,0.8l1.9,0.8l6.8,5.7l3.8,4.9l-1.5,1.5l-1.9,4.5l0.4,2.3l1.1,0.4l3.8,1.5l0.8,0.8l0.8,1.5l0.4,2.3
	l-0.4,1.5h-1.5l0.8-0.8l-0.8-1.1l-1.1-0.8h-1.5l0.4-1.1l-0.8-1.1l-1.1-0.8l-1.1-0.4l-1.5-0.8l-0.4,1.9l-0.8,0.4l-1.1-0.4l0.4,1.5
	l0.4,1.1l0.8,1.1l1.1,0.8l0.8,1.5v1.9L485,750l-1.5,2.6v0.4l-1.5,0.8l-1.1,0.4l-1.9,0.8l-0.8,0.4v1.1l0.4,1.9l1.5,3l1.1,1.1l1.1,1.1
	l1.5,0.8l1.9,0.4l1.1,0.4l0.8,1.1l0.8,1.1l0.8,1.1l1.9,0.8l1.5,0.4l3.8-0.4l1.5,0.4l1.1,1.1l1.5,3.4l4.9,6.4l1.5,1.1l1.5,0.4h5.7
	l0.8,0.4h0.8l0.8,0.8l0.4,1.1l-0.4,0.8l-1.5,0.4l-1.1,1.1l-0.8,1.1l-0.8,0.4h-2.3l-1.9,0.8l-1.1,0.4v0.4l4.2,0.4l1.9,0.4l1.5,0.8
	l1.1,1.1l0.8,1.5v1.5v3.4v1.5l0.8,1.5l1.1,1.5l1.1,0.4l0.4-0.4l0.4-1.5v-0.4l2.3,1.1l3,0.4h3.4l1.9-0.4l-4.2-4.5l-1.1-2.3l2.6-0.8
	l3,1.5l2.3,3l1.5,3.4l1.1,4.9l0.4,1.9v1.5l-1.5,2.6l0.4,1.5l0.8,3.4v3.4l-0.4,1.5l-1.1,0.8l-1.5,0.4l-0.8,0.8l-0.4,1.1l-1.1,1.1
	l-1.1-1.5l-5.7-4.2l-3-3l-1.9-1.1l-2.3-0.4l0.8,1.5l3.4,3.4l0.8,0.8l0.8,1.5l0.4,0.8h1.9l0.4,0.4l-0.4,0.8v0.4l0.4,1.9v1.5l-0.4,0.8
	l-0.8,0.4l-1.1,0.4l-0.8-0.4l-1.9-2.6h-0.8l-0.4,0.4l0.4,1.1l-0.8,1.1l-0.8-0.4l-1.1-1.9v-1.9l-2.3-1.9l-3.4-1.1l-3,0.8l-2.6,1.9
	l-2.6,0.4l-3-0.4l-2.6-1.1l-3,1.9l-3.4,1.1l-3.8,0.8l-5.3,0.4l-1.5,0.4l-1.1,1.1l-0.8,0.4l-1.9,0.8l-1.5,1.1h-0.4l-3,0.4l-0.8,0.4
	l-1.9,1.9l-1.5,3l-1.5,3.8l-0.8,3l0.4,3.8l1.1,2.6l2.3,2.3l1.9,1.9l1.9,0.8v0.8l-1.5,0.4l-1.9,1.9l-1.1,0.4l-1.5,0.4l-3.8,0.8h-1.5
	l-8.7-0.8l-1.5-0.4l-2.3-1.5l-1.5-0.8h-1.1l-1.5,0.4l-1.5,0.4l-1.9-0.8h-0.4l-0.4,0.8l-1.1,0.8l-1.1,0.4h-0.8l-1.5-1.1l-2.3-3
	l-1.5-0.8h-1.1l-4.9-1.9l-0.8-0.8l-4.2-5.7l-0.4-1.1h-1.1v-0.4l-0.8-3l0.4-3.4l1.5-6.8l1.5-4.9l0.8-3.4l0.4-3.4l-0.4-6.4l0.4-2.3
	v-1.1l0.4-0.4l0.8-0.4h1.1l0.4,0.4l-0.4,1.1l-0.8,0.8l2.6-1.5l2.6-5.7l1.1-6.4l-3-4.2l-3-1.5l-10.2-1.9l-6.4-2.3v-1.1l-1.1-1.1
	l-0.8-1.5l-0.4-0.8l-1.1-1.5l-1.1-0.8l-1.1,0.4l-0.8,0.4l-1.5,0.4l-0.8-0.4l0.4-1.9l0.8-1.9l0.4-1.1l-0.8-1.9l-1.1-0.4h-3.4
	l-1.9-0.4l-1.5-0.8l-4.5-5.3l-17.4-15.8l-1.5-3l-0.4-2.6v-0.8v-1.1l0.8-1.9l0.4-0.8l0.4-1.9l1.9-1.9l1.9-1.5l1.5-1.9l1.1-3.4
	l1.1-1.5l1.1-0.8h1.1l0.8-0.4l0.4-0.8l0.8-1.5l1.9-0.8l0.4-0.4l0.8-1.5l0.4-4.5V719l-0.4-1.9L385,716l-1.1-1.1l0.4-1.1l1.1-2.3v-1.1
	l0.8-1.5l0.4-1.1v-3.4l0.4-0.8v-1.5l3.4-1.9l3-1.1l3.4-0.4h1.9h1.1l1.5,0.4l1.5,0.8l5.7,3.8l6.8,5.7l3.8,1.9l0.8,0.4h1.1l1.1-0.4
	l1.9-0.8L428.8,707.3L428.8,707.3z"/>
<path id="IDN557" style="fill:#7D7D7D;stroke:#FFFFFF;stroke-width:7.5463;stroke-linecap:round;stroke-linejoin:round;" d="
	M616.3,631.9l0.4,0.8l-0.4,1.1l-0.4-0.4l-1.1-1.5l-0.4,0.4l-1.1-0.4l-0.8-0.4l0.4-1.1l1.1-1.9l0.8-0.4l0.8,1.1v1.1L616.3,631.9
	L616.3,631.9z M598.2,624.7h-0.8l-0.4-1.1v-1.5v-2.6h0.4v0.8l0.8,3V624.7z M604.3,622.8L602,624l-0.4-1.9l0.4-1.9l1.1-0.8l1.1,0.8
	v0.4l0.8,1.1v0.8L604.3,622.8L604.3,622.8z M614.4,626.6l0.4,0.8l-0.8-0.4l-0.8,0.4l-0.8,0.4l-0.8,0.4l-1.9-0.8l-1.1-0.4l-0.4-1.1
	l-1.1-4.5l-0.4-2.3l1.5-1.9l4.5,4.5l0.8,0.8l0.4,1.1L614.4,626.6z M551.8,619l-1.1,0.4h-1.1l-0.4-0.8l0.4-4.2l0.4-1.9l1.1-3l0.4-1.1
	v-1.1l0.8-0.4l1.1,0.4l1.1,0.8v0.4l1.1,0.8l0.8,1.9v1.9l-0.8,1.5l-1.1,0.4l-1.1,1.1l-0.8,1.1l-0.4,1.1L551.8,619z M569.9,609.2
	l-1.5,1.1l-1.5-0.4l-0.8-1.5l0.4-1.5l4.2-4.5l2.3-1.5l0.8-0.4l0.8,0.8l0.8,0.8v1.1l-0.4,0.8l-0.8,0.8l-1.5,0.8l-0.8,0.8L569.9,609.2
	L569.9,609.2z M590.3,594.9h1.1l0.8-0.4l0.8,0.4l0.8,0.8l0.8,1.1l-0.4,1.1v1.1l-0.4,1.9v1.1l-0.8,1.1l-2.3,1.5h-0.8h-0.8h-0.8
	l-0.8-0.4l-1.1-0.8l-0.4-0.4l-0.4,0.4L585,604l-0.8-0.4l-0.8-0.8l-0.8-2.3v-1.9l0.4-1.1v-1.1v-0.8l1.1-1.1l-0.4-1.1l-0.8-0.4
	l-0.4-1.1l0.4-1.5l0.8-1.9l0.8-1.1l1.1-0.4h0.8l0.4-0.8l-0.4-1.1h0.8l0.4,0.4l0.8,0.8l1.1,4.2v0.8l-0.4,0.8l0.4,1.5L590.3,594.9
	L590.3,594.9z M560.1,558.3l3.8,5.7l-0.8,0.8l-0.4,0.8l-0.8,0.4l-1.1,0.4l-0.8,0.4v1.1v1.9v1.1l1.5,1.5l0.8,0.8v1.1v2.6l0.4,1.1
	l1.9-1.5l1.5-1.9l2.3-3.8l1.1-0.8l0.4-0.4l1.1-1.9l0.8-2.3l0.8-1.1l1.1-0.4h1.5h0.8l1.1-0.4l0.4,0.8l0.4,1.5l1.1,0.8l0.4-0.4
	l0.8-1.1l0.8-0.8l1.1,0.8l1.5,1.9l1.5,0.4h1.5l1.5,0.4l0.8,1.1l0.4,1.5l-0.4,1.9l-0.8,3l-0.8,1.5l0.4,2.6l-0.4,0.8l-0.4,0.8
	l-1.9,2.3l-3.4,3l-0.8,0.4l-1.5,0.4l-0.8,0.4l-1.5,0.4l-2.3-1.1l-1.5,0.8l-0.4-3l-0.4-1.5l-1.5-0.4l-0.4-0.4v-1.9l-0.8-0.4H568
	l-0.8,0.4l-0.4,0.4l-1.9,3l-0.8,3.8v7.5v1.9l-0.8,0.8l-0.4-0.8l-0.4-1.5l-0.4-1.1l-1.1,0.4l-3,1.9h-0.4l-0.8-0.8l-0.4-0.8l-2.6-0.8
	l-0.8-0.4l-0.4-0.8l-0.4-1.1l0.4-0.8l1.5-0.8l3.8-2.3l0.8-2.6l-1.9-10.9v-2.6v-0.8l-0.8-0.8l-0.8-0.4l-0.8,2.3l-1.1,0.8l-1.1,0.4
	l-1.1,0.4l-1.9,4.2l-0.4,0.8l-1.1,0.4l-0.8,1.1l-0.8,2.6l-1.5,2.6l-1.9,1.9l-6,5.3l-1.9,1.1l-1.9-0.4l-4.9-11.3l-0.4-3.4l0.4-3.8
	l0.8-3.8l1.1-3l5.3-7.5l1.1-0.4h1.9l2.6,1.1l1.1,0.4l1.1-0.4l1.5-1.5l1.1-0.4l3.8-0.4h3h0.4l1.5,1.1l0.8,0.4l1.1-0.4l0.4-0.8v-0.8
	l0.8-1.1l0.8-0.4l0.8,0.4l0.4,0.4L560.1,558.3L560.1,558.3z M449.9,496.4l3.4,2.3l0.4,0.8l0.8,1.9l0.4,0.8v1.5l-0.8,0.8l-0.8,0.8
	l-1.5,0.4l-0.4-0.4l-1.9-1.9l-1.1-0.4l0.8,1.9v0.4l-1.1,0.4l-1.1-0.4l-1.5-1.1h-0.8l-3.8-0.8l-0.8-0.4l-0.8,0.4l-1.9,4.2l-1.1,0.8
	l-1.5,0.8h-1.1l-1.1-0.4V507l0.8-1.5l2.3-3.4l0.8-0.8l1.1-0.8l2.6-1.1l0.4-0.8l1.1-2.3l1.9,1.9l1.9-0.4l1.9-1.1L449.9,496.4
	L449.9,496.4z M465.4,491.1l0.8,0.4v1.1v1.5l-0.8,1.5l-1.5,1.1l-1.5,0.4l-1.9-0.8l-1.5,1.1h-2.6l-2.6-0.4l-2.3-1.1l-1.1-1.5v-0.8
	l0.4-0.8l0.4-1.1l0.4-1.1h0.8h1.5l1.1,0.8h0.8v-0.4v-1.5l0.4-0.4h3l1.1,0.4l1.9,1.1h0.8h1.5L465.4,491.1L465.4,491.1z M473.7,494.2
	l-0.4,0.8l-1.5,0.8h-0.4l-0.8-0.8h-1.1l-0.4,0.8v0.8l-0.4,0.8l-1.1-1.1l-0.8-3.4v-1.9l0.4-3l0.8-2.3l1.5-0.4l0.8,4.5l0.4,0.4
	l1.9,1.1l0.4,0.8l0.8,1.1L473.7,494.2L473.7,494.2z M477.5,480.6l-1.1,1.9h1.1h1.1l0.8,0.8l0.4,0.8l1.5,0.8v0.4v0.8l-0.4,0.4
	l-0.8-0.4l-0.4-0.8H479l-0.8,0.4l-3-1.5l-1.5-0.4v-0.8l1.1-1.9l1.5-1.1L477.5,480.6z M488.8,482.5l1.5,0.8l1.1,0.8l0.8,1.1l-0.4,1.5
	v1.9l0.8,1.9l0.8,1.1l-0.8,0.4l-1.9-1.9l-2.6-5.3l-2.3-1.5l-1.5,0.4h-0.8l-0.4-0.4l-1.1-1.1l-1.5-1.5v-0.8l0.4-0.8l0.8,0.4l2.3,1.1
	h0.4l0.4,0.4l0.8,0.8L488.8,482.5L488.8,482.5z M431.1,479.8l-1.9,0.4l-2.3-1.5l-0.4-3.4l2.3-1.5h3l1.1,1.9l-0.4,2.3L431.1,479.8
	L431.1,479.8z M354.1,377.9h-1.5l-2.6-1.9l-2.3-0.4l0.8-0.4h1.1h0.8l1.9,0.8l0.4,0.8L354.1,377.9z M329.6,379.5l-0.8,0.4l-0.8-0.8
	v-1.5l0.4-1.5l0.4-1.1l1.1-0.4l1.1,0.8l0.4,1.5l-0.4,1.1l-0.8,1.1L329.6,379.5L329.6,379.5z M477.9,379.5v0.4l-4.5,3l-7.9,3.4
	l-4.2,0.8l-8.3-3l-1.5-0.4h-1.5l-1.1,0.4l-9.8,4.2l-5.3,1.9l-2.3,1.1l-1.5,0.4L425,393l-3.4,1.1l-1.1,0.4l-0.8-0.4l-1.9-0.4
	l-3.4-0.8h-2.3h-1.1l-1.9,0.4l-1.1,0.4l-3.4,2.3l-0.8,0.8l-1.1,1.1l-1.5,1.9l-0.8,1.1l-0.8,2.3l-0.4,1.1l-1.9,1.1l-4.5,1.9l4.5,4.9
	l1.1,1.5l1.5,1.1l0.8,0.8l1.9,0.4l1.5,0.4h1.1l1.1-0.4l0.8,0.4l0.4,0.8v1.1l0.4,4.5v1.1l-0.8,1.9l-1.1-0.4l-1.9-1.1l-1.1-0.4h-1.9
	l-3.4,1.5l-1.5,0.4h-1.9l-1.1,0.4l-1.1,0.4l-1.1,1.5l-0.8,1.1l-0.8,0.8l-0.8,0.4h-0.8l-3-0.8l-1.1-0.4l-2.3-1.9l-1.5-0.4H379
	l-2.6,1.1l-5.3,0.8h-1.1l-1.5-0.8l-0.4-0.8l-0.4-1.1l-0.4-0.4l-0.4-0.4l-2.6-0.4l-0.4-0.4l-0.4-1.1h-0.8h-1.1l-1.5,0.4h-0.8
	l-1.5-0.8l-2.6-2.6l-1.5-0.4H339l-1.1,0.4l-6.4,3.4H330l-1.1,0.4l-1.1,1.1l-1.1,1.1l-0.8,0.8l-1.9,1.5l-3.4,3.8l-4.9,7.2l-4.5,5.3
	l-2.3,2.6l-0.4,1.1l-0.4,2.6l-0.4,0.8l-1.1,1.9l-0.4,1.5l-0.4,3.8l-0.8,3.8l-0.8,1.9l-1.1,1.5l-3,1.9l-0.4,0.8v1.1l0.4,1.9l-0.8,3.8
	l-0.4,1.9l-0.8,1.5l-0.8,1.1l0.4,2.3l1.5,10.6l0.8,1.5l2.3,3l0.4,1.9v0.8l-0.8,1.9l-0.4,0.8l0.4,0.8l0.8,1.9l1.1,7.9l1.5,3.8
	l12.5,18.9l1.1,0.8l3.8,3l1.9,0.4l1.9-1.1l1.5-1.1l1.9-0.8l1.9,0.4l1.1,1.1l0.8,1.5l0.8,1.9l0.8,0.4l0.8,0.4h1.9l1.1,0.4l0.8,0.8
	l0.8,2.3l5.3,7.5l0.4,1.1v0.8l-0.4,0.8l-0.4,0.8l-0.4,2.6l-0.8,1.9v1.1l0.8,1.1l3.8,4.2l0.8,1.9l0.8,3l0.8,1.9l1.1,1.9l1.1,0.8
	l4.9-2.3v-0.4l5.7-1.5l2.3-0.4v0.4l-0.4,2.6l0.4,0.8l1.1,0.4l1.9,0.4h1.9l5.3-0.8l1.5-0.4h1.1l0.8,0.4l1.9,1.9l1.1,0.8l3,0.4
	l2.6-1.5l2.3-1.9l3-4.9l0.4-1.1l0.4-3l1.1-4.2l0.4-1.5l0.8-0.8l1.5-1.5l1.5-1.1l1.1-0.4l0.8-0.4l1.1-1.5l1.1-2.6l2.3-2.6l4.5-3.8
	l4.5-7.2l1.9-2.3l3.8-3.8l1.1-0.8l1.9-0.4h3.4l0.4-0.4v-1.5l0.4-0.8l0.8-0.4l1.9-0.8h0.8h1.1l1.5,1.1v4.9v1.1l2.3,1.5l0.8,1.5
	l0.8,0.4l0.4,0.4h7.2l3.8,0.4l3.4,1.1l3,0.4l3.4-1.1l2.6-1.9l1.9-0.4h1.9l1.9,0.4l1.5,0.4h1.5l2.3-1.5l0.8-1.5l1.1-3l0.4-2.6
	l-0.4-1.5l3.4-2.6l1.1-0.4l16.6-0.4l3-0.8h3l6,1.5l3-0.4l1.5-1.1h0.8l1.1,0.4l1.5,1.1l2.3,0.4l1.1,1.1l1.5,0.4h1.9l4.2-1.5l10.2-0.8
	l1.1-0.4l1.5-0.8l1.1-1.1v-0.4l-5.3-1.1l-1.1-1.9h-1.1l-7.2-0.8l-1.1-0.4l-1.1-0.4l-0.8-0.8l-0.8-0.8v-0.8l1.5-0.8l1.1,0.8l1.1-0.4
	l2.3-1.5l0.8-0.8l0.4-0.4l1.5,0.8h0.4l0.8-0.8l7.2-0.8l1.9-0.4l0.8,0.8h1.5l1.5-0.4l1.1-0.4l1.1-0.8l1.1-1.9l0.8-0.8h1.1l13.6,1.1
	l2.6,1.1l5.7,3l4.9,1.9l1.1,0.8l-0.8,1.1v0.8l0.8,0.8l0.4,1.5l0.4,0.4h0.8h0.8l-0.4,1.9l1.1,2.3l-1.1,2.6l0.4,3.4l-0.4,1.5l-2.3,2.3
	l-0.8,1.1l-1.1,7.5l-0.4,1.5l-2.6,3l-3.4,0.8l-3.4-0.4l-2.3-1.5l-2.6-3.4l-0.8-0.8l-0.4-0.4l-3.8-3v-0.8l0.4-2.3l0.4-0.8l-0.8-1.1
	l-0.8-1.1l-1.9-1.5l-1.5-0.8l-3,3.8h-1.9l-2.3,1.1l-7.5,0.4l-3.4,0.8l-3-0.8l-2.3,2.3l-3.4,7.9l-0.8,1.1l-2.3,2.3l-0.8,1.1v1.5
	l-0.4,1.1l-0.8,0.4l-0.8,0.4l-0.8,0.4l-2.6,1.5l-1.1,1.5l-0.8,3.8l-0.8,1.1l-3.4,1.5l-1.1,1.1l-3.4,5.3l-1.5,0.8l-0.8,0.8l-0.8,1.5
	l-1.1,1.9l-0.4,0.4l-5.7,5.3l-2.3,2.6l-0.8,1.1l-5.3,2.6l-6,4.2l-2.6,2.6l-1.5,0.8l-0.8-0.4l-1.1-0.8l-1.1-0.8l-1.9,0.4l-3,1.5
	l-1.9,0.4h-0.8l-1.5-0.4h-0.8l-0.4,0.4l-1.1,1.1l-2.6,1.9l-1.5,0.4h-1.1l-1.9,0.8l-1.5,0.4l-3.4-0.4l-0.4,1.5h-0.8l-1.1,1.1
	l-1.1,0.4l-0.8,0.4l-0.8,0.4l-0.8,1.5l-0.8,3l-2.3,4.9l-1.1,2.3l-1.9,2.3l-1.9,1.9l-2.6,0.8l-2.6,0.8h-5.3H425l-0.8-0.4l-0.8-1.1
	l-1.9-2.3l-0.4-0.4l-1.1-0.4l-2.6-1.1l-1.1-1.5v-1.1l-0.4-1.1l-1.9-0.8h-3.8h-0.4l-1.1-1.5l-0.4-0.4h-3l-1.1,3l0.4,2.3l3-0.4
	l0.4,1.1l-0.4,1.9l-0.8,1.5l-0.4,1.9l0.4,0.8l0.8,0.8v0.8v3.8l1.9-1.5l1.1-1.5l0.4-1.1v-1.1l0.8-0.8l1.1-0.8l0.8,1.5l1.9,4.2
	l2.6,1.9l0.8,1.5l1.1,1.1h1.9l1.9,1.9l1.5,6.4l1.5,2.3l3.8,1.1h3.4l3.4,0.4l3,2.3l2.3,2.6l4.5,3.8l1.9,2.6l1.5,3l0.8,1.9v1.5
	l0.8,1.1l3.8,4.2l3,4.5l1.1,3l2.6,3.4l0.8,1.5v1.9l-0.8,3.8l0.4,0.8l3.8,4.2l1.9,1.9l1.1,0.4l3,0.4l0.8,0.4l0.4,0.4l0.4,0.8l0.4,0.4
	l0.8,0.4l0.8,0.4l0.4,1.1l0.4,1.9l0.4,1.9l1.5,0.8h3l1.5,0.4l1.9,0.8l1.9,3l-1.5,3l-1.9,3l0.8,3.4l0.8,0.4l2.3,1.1l5.7,6h0.8
	l1.1-0.4l1.9-1.1l0.4,1.1l0.4,0.8l0.4,0.8l1.1,0.8l0.8-0.8l0.4,0.4v0.8l-0.8,1.1l-0.4,0.4l-1.1,0.4l-0.8,0.4v0.8v1.1v2.6h-0.4H496
	l-1.1-1.1h-1.1l-0.4,0.8l-2.3-1.9l-1.5,1.9l-3.8-4.9l-6.8-5.7l-1.9-0.8l-1.5-0.8h-1.1l-1.5-0.4l-4.9,0.4h-1.5l-19.6-7.9l-3-0.8
	l-9.1-0.4l-6-0.8l1.5-1.1l12.8-12.8l1.1-2.3l0.4-1.5l0.4-1.5v-1.9v-1.5l-0.8-2.3l-0.8-1.9l-1.1-1.5l-1.5-1.5l-8.7-4.2l-2.6-1.5
	l-4.9-4.5l-4.5-5.7l-1.5-1.1l-1.9-1.1l-4.2-1.9l-4.2-1.5l-44.5-9.1l-3.4-1.5l-11.3-9.4l-3-3l-3-3.4l-8.7-13.2l-1.5-1.5l-1.9-0.8
	l-1.5,0.4l-1.1,0.8l-0.4,0.8l-0.8,1.9l-0.4,0.8l-0.8,0.8l-1.5,0.4l-2.6-0.4l-11.3-3.4l-4.5-0.4h-2.6L302,616l-6.8,3.4l-4.5,3l-3,1.5
	l-1.5-0.4l-0.8-0.4l-0.8-0.8l-0.8-1.1l-0.4-1.1v-1.9v-1.1l1.9-6.8v-1.1l-0.8-1.5l-1.1-2.3l-2.3-3l-2.3-1.9l-3.4-4.9l-1.1-1.5
	l-0.4-2.3l-1.1-8.7l-1.1-2.3l-0.8-1.1l-1.1-1.1l-1.5-0.8l-9.4-3.8l-1.5-0.8l-0.8-0.8l-0.8-1.5v-1.9l0.8-2.6l1.1-1.5l1.1-1.1l5.3-3.4
	l0.8-1.1l0.4-1.5l-0.8-2.6l-1.9-5.3v-2.3l-0.4-2.6l0.4-9.4l-0.4-3.8l1.9-1.1l0.8-1.9l0.4-0.4l2.6-1.1l3.8-3.4l-1.9-1.9l-0.4-0.8
	l0.4-0.8l1.1-0.4l1.9-1.1l0.8-0.8l1.9-2.3l0.4-0.4l0.4,0.4l1.1,3l0.4,2.3l3,6l1.5,4.5l1.1,2.3l1.9,1.1l1.1-3.4l0.4-1.5v-2.3
	l-0.8-1.5v-0.8v-2.6v-0.8l-0.8-1.5l-1.9-1.9l-0.4-0.8l-0.4-1.1l-1.9-3.8l-0.8-3l-0.4-3v-0.8l-1.1-2.6l-0.4-1.9l1.9-18.9l0.8-2.6
	l0.8-0.8l0.8-1.1L282,476l-0.4-2.3l-0.8-1.5l-2.3,1.1H276l-2.6-0.4l-1.9-1.1L270,470l-1.5-2.3l-1.1-2.6l0.8-2.3l1.1,0.8l1.5,0.4
	v-1.9l0.8-1.1l1.9,1.1l1.5,1.5l2.3,2.6l1.5,2.6l1.1,1.1l1.9,0.8l1.1,0.4h1.1l0.4-0.8l1.1-1.9l0.8-1.5l1.9-7.2l0.8-1.9l-1.5-3l-6-7.5
	l-0.8-0.8v-1.1V444l0.8-0.8l4.9-1.9l1.1-1.1v-1.5l-0.8-1.1l-0.4-1.9l0.4-1.9l1.9-3l1.1-1.5v-1.1v-1.5l0.4-0.8l0.8-1.1l1.1-0.4
	l0.8-0.8l1.1-0.4l1.5-0.8l3.8-0.4l1.5-0.8l1.1-2.6l-0.4-3.4l-0.8-3l-0.4-3.4V407l0.8-1.9l0.8-1.5l1.5-0.8l0.8-0.4l1.9-0.4h1.1
	l1.1-0.4l5.3-2.3l1.5-1.1l1.9-1.5l0.4-1.5l1.1-8.3l0.8-2.6l1.9-2.3h3.4l1.5,1.1l0.8,1.5l-0.8,3.8v3.8l0.8,1.1l1.1-0.8h0.4l0.8,1.5
	l0.8,1.1l1.5,1.1l1.5,0.8l2.6,0.4l1.1,0.8l0.8-0.4l0.8-0.8h1.9l1.5,0.4l1.1,0.8l1.1,1.1h1.1l1.1-1.1l2.6-3l-1.1-1.9l1.1-3.4l3.8-5.7
	l1.9-1.9l0.4-0.4h0.8l1.1,0.8l0.8,0.8l1.1-0.4l0.4-0.8l0.8-1.5l0.4-1.1l0.8-0.4l1.5-0.4l0.8-0.4l0.8-1.5l0.4-1.1l-0.4-5.3V370
	l0.4-0.8l0.4-1.1l0.8-0.8l0.8-1.9V364v-3l-0.8-3l0.4-1.9l0.8-1.1l0.8-0.4l1.9,0.4h0.8l0.8-0.4l2.3-1.9l-0.4,2.3l0.4,1.1l0.8-0.4
	l1.5-1.5l0.8-0.8h1.5l7.9,1.5l1.5-0.4l4.2,1.1l2.3,1.1l1.9,2.6l6.8,3.4l4.2-1.9l1.9-0.4h3.4l1.5-0.4l1.9-1.1l1.5-1.5l0.8-0.4
	l1.1,0.4l0.4,0.8l0.4,1.1v1.1l-0.4,0.8l-0.8,0.4l-2.3,0.8v0.8l0.8,1.1l0.4,0.8v1.9l0.4,0.8l1.5,1.9l0.4,0.8l0.8,1.5l3.8,3l1.5,0.8
	l3.4,0.8h3.4l24.1-3l1.5,0.8l1.1,3.8l1.1,1.1l1.5,0.8h1.9l1.1-1.1l1.9-1.9l1.1-0.4h2.3l4.9,2.3h2.3l1.1,0.4L477.9,379.5L477.9,379.5
	z"/>
</svg>
