<?xml version="1.0" encoding="utf-8"?>
<!-- Generator: Adobe Illustrator 25.4.1, SVG Export Plug-In . SVG Version: 6.00 Build 0)  -->
<svg version="1.1" id="Layer_2" xmlns="http://www.w3.org/2000/svg" xmlns:xlink="http://www.w3.org/1999/xlink" x="0px" y="0px"
	 viewBox="0 0 1080 1080" style="enable-background:new 0 0 1080 1080;" xml:space="preserve">
<path id="IDN1136" style="fill:#7D7D7D;stroke:#FFFFFF;stroke-width:6.936;stroke-linecap:round;stroke-linejoin:round;" d="
	M169.6,381.5l0.3,1.4v1.4l-0.3,0.3l-1.7,1v0.3v1l-0.7,0.3h-0.7l-2.8-5.2h0.7l0.7-1l0.7-0.3l0.3-0.7h1.7l1,0.3
	C168.9,380.5,169.6,381.5,169.6,381.5z M131.8,382.9l-1.4,0.3l-1-0.7v-2.1l0.3-0.7l0.3-0.7l0.7-0.3l1,0.3l1,0.3l0.7,0.7l0.3,0.7
	l-0.3,1C133.5,381.9,131.8,382.9,131.8,382.9z M173.1,372.8h1.4l0.7-0.3l1-0.7l1-0.7h1.4l1.4,0.3l0.3,0.3l-0.3,1l1.7,1.7l1,0.7
	l0.3,0.7l0.3,1.4l0.3,1.7l0.7,1.7v1.4v2.1l-0.7,1l-1,1V385v-0.7h-1l-0.7-1l-0.7-1l-0.7-1.4l-3.5-3.1l-0.3-1l-1.4-1.4l-8-2.8l0.3-0.3
	l1.4-0.3l3.1-0.7h0.7l0.3,0.3L173.1,372.8z M76.7,320.1v2.8l-1.4-1.4l-0.7,0.3v3.1l2.4-1.4l1,1.4l2.8,1.4l1,2.8l1.7,1l2.1,0.3l4.5,1
	l1.4,0.7l1.4,1l0.3,1.4l-2.4,3.1l0.3,1.4l1-0.7h1l0.3,0.3l1.4,1h0.7v-0.7l-0.3-0.3l-1-0.7v-0.7h1l6.6,5.9l0.7,0.7l2.4,1l1,0.3
	l1.4,0.3l1,1l1.7,2.4l0.3,1l0.3,1.4l0.7,1.4h1l0.3-0.3l0.3-1.4l-0.3-2.4l1.4,1.4h0.3h0.3l1.7,1.4l1.4,3.8l1,1.7v1.4l0.3,1.4v1
	l-1,0.3l-2.8,1l-0.7,0.3h-0.7l-3.1-1.7l-1.4,0.7h-1.4l-1-0.3l-1-1l1.7-1.4l-1.7-1l-1.7-2.1l-3.5-1l-12.8-9.7l-1.7-1l-1.7-0.7h-0.7
	h-2.1l-0.3-0.3l-0.7-0.7h-0.3l-0.7,1l-1.4,0.3h-0.7l-1.4-1l-1.4-0.3l-0.7-0.3l-0.3-0.7v-0.7l-0.3-0.7l-0.7-0.7h-5.5l-0.3-0.3v-1
	l0.7-1.7l-0.3-0.7l-2.4-1.4l0.3-1l-1-1l-1-0.3v-0.7l0.3-1h-1h-1.4h-0.7l-0.3-1v-1.4l0.3-1.4l1-0.7h4.2l1-0.3v-0.7l-0.3-0.7l-0.7-0.3
	v-0.7l0.3-1.4v-0.7l1-1.7l0.3-1l0.7,0.3l1,1l5.2,0.3L76.7,320.1L76.7,320.1z M254.2,216.1l-5.9-0.7l-1,0.3l-2.1,0.3l-0.7,0.3l-1,1
	l-0.7,0.7l-1,0.3h-2.1l-0.7,0.3l-0.3,0.7l1,1.4v0.7l-0.3,0.7l-0.7,1l-0.3,0.7l-1,3.5l-0.7,2.4l-0.7,3.1v0.7l-0.3,1.7l-0.7,1
	l-0.3,1.4l-0.3,1.4l-1,1l-2.4,1.7l-0.7,1l-0.7,0.7v0.7l-0.3,0.7h-0.7h-1l-1.4-1l-0.3,2.1v1.7l0.3,1.4l-1,1.7l-6.9,5.9l-0.7,0.7v0.7
	l0.7,1l1.7,3.1l1,1.7l1,4.2l0.7,1l0.7,0.7l1,0.7l0.7,0.7l0.3,0.7l0.3,1.7l0.7,1l1,1l0.3,0.7l-0.3,0.7l-0.3,1.4v0.7v1l0.7,1l0.3,1
	l0.7,0.7l3.1,2.1l0.3,0.7l1,2.1l-1,2.4l-1.7,1l-4.9,1l-1,0.7l-0.7,0.3l0.7,1l1,1l0.7,0.7l0.7,1.4v1.4l0.3,0.7l2.1,2.8l0.3,0.7v1
	l-0.3,2.1l-0.7,0.7h-0.7l-1.4-0.3h-0.3l-0.3,1l0.3,1l1.4,5.9l-0.3,3.1v1l0.3,0.3l0.7,0.7l1,0.3l1.4,0.3l0.7,0.3l2.4,3.1l0.7,0.7
	l1,0.7l1.4,0.3l0.7,0.3l0.7,1l0.3,1l-1,1.4l-0.3,1.4l0.3,1.4l0.7,2.4l1,1.4v0.3v0.7l-1,1l-1.4,1v0.3v1.4l-0.3,0.7l-0.3,1.4l-0.3,1.7
	l0.7,3.8l1.7,5.2l0.3,1l0.7,0.3h0.7l0.7,0.3l0.7,0.7l0.3,1.7l1.4,2.8l0.3,2.8v1.4l-1.7,9.4l-1-0.7l-8-3.8l-2.1-2.1l-1.7,0.3
	l-3.8,1.4l-1,0.3l-1.4-0.3l-1.4-1l-1,0.3l-0.7-0.3l-0.3-0.7l-0.7-0.3h-0.7l-1.4,0.3h-0.7l-1-0.7l-2.8-4.9l-2.4-2.1l-0.7-1.4
	l-0.7-1.4l0.3-8.7l-1.4-10.8l-2.4-13.5l-0.7-1.4l-0.7-0.3l-1-0.3l-3.1-1l-3.8-1.7l-1.7-0.3l-1.7-0.3l-1.4-0.3l-1.4-1.4l-5.2-6.6
	l-1.4-2.1l-1-2.4l-1.4-6.6l-1-2.8l-2.1-1.7h-2.8l-1.7-0.3l-0.7-0.7l-0.3-1l-11.1-19.4l-1.7-1.7l-5.9-4.5l-1-2.1l-1-2.4l-0.7-1
	l-1.4-1l-1.7-1l-0.3-0.3l-2.1-0.7l-2.4-1.7l-1.4-0.3l-14.9,0.3l-3.1-0.7l-3.1-1.7l-3.5-3.5l-11.4-15.3l-5.2-5.2l-0.7-1.7l-0.3-0.3
	l-0.3-0.3l-1.4-0.3l-0.3-0.7h-0.7l-1-0.3l-0.7,0.3l-0.7,0.3l-1-1l-3.5-4.2l-1.4-0.7l-1.4-0.3l-1.4-0.7l-8.3-9l-6.6-6.6l-0.7-1
	l-3.5-2.8l-2.4-3.5l-5.2-3.8l-3.1-3.5l-1.4-0.7h-1.7h-0.7l-0.3-0.7l0.3-0.3l0.7-0.7v-0.7V187l-1.4-0.3l-2.1-1.4l-1-1.4l-2.1-3.8
	l-1.4-2.1l-0.7-0.3l-1.4-1l-1-1.4l-0.3-1.4l-0.3-1l-1-2.1l-0.3-1.7l-1-1.7l-0.3-2.1l-2.4-5.9l-0.7-1l-1-1.4l-1-1l-0.3-1.4l-0.7-1
	l-1.4-0.3l1.4-2.1l0.3-1.7l-1-1.4l-1-1.4l-1.4-1l-0.7-0.7V144l-0.3-1l-0.3-1l-0.3-1l-1-0.3l-1.7-0.3l0.7-1l1-1.7l1-1.4v-1l0.7-1.4
	l0.7-1.4v-1l-0.3-1l-1-2.1l1-0.7l-0.7-1l-1-1v-1.4l-1.7-2.1l-0.3-1l1-1.7l1-0.7l1,0.3l1-0.3l1.4,0.3h0.7l0.7-0.3l1-1l1-0.3l1.4-1
	l0.7-0.3h1l0.7-0.3l3.5-2.1l1.4-0.3l1.4,0.3l2.1,2.1l1.4,0.7l0.3,0.7h0.7l0.7-0.3l1-1l3.1-0.7l2.8,0.3l11.4,3.8l5.9,3.5l1,0.7h1.4
	l1,0.7l0.3,1.4L76,128l2.1,2.8l9.4,7.6l2.4,1.4l3.1,1l12.1,1.7l1,0.3l3.1,1.7l1.4,0.3l3.5,0.7h1.7l1.4-0.7l1.4-0.7l1.4,0.7l1.4,0.7
	l1.7,0.7h3.1l6.2-0.7l2.4-0.7l7.6-2.4l3.1-1.7l1.7,0.3l3.5,1h0.7l1.4-0.3l3.8-0.3l4.2,1.7l3.5,1l2.4,1.7l3.1,1l1.4,2.1l0.7,0.7
	l1.4,0.3l2.4,1l3.1-0.7l17-7.3l2.4,0.7l10.4,12.8l12.5,10.1l3.1,1.4l1.7,1l1,1.4l3.5,5.9l0.7,1.4l0.7,6.6l0.7,2.1l1.7,3.1l0.3,1
	l-0.3,1.7l-0.7,2.1l-0.3,1.4l0.3,0.3l2.1-0.3h1l0.7,1l0.3-1h0.7l1,0.3l0.7,1h0.3l1.7-0.3l2.1,0.3l1.4,1l1.4,1.4l0.7,1.4h0.3l0.3-0.3
	l0.7-0.7l1,1l1.7,2.1l1,1l1.4,1.4l0.3,0.7l0.3,3.8l-1,5.5L254.2,216.1L254.2,216.1z M21.5,114.8l1,1.4h-1h-0.7l-0.3,0.3l-0.7,0.7
	l-0.7-0.7l-1.7-0.3l-1-0.3v-0.7l0.7-0.7l0.7-0.7l0.7-0.3l0.3-1.4l1,0.3C19.8,112.4,21.5,114.8,21.5,114.8z M14.2,106.2l1.4,1.4
	l1.7,1.4h0.3l0.3,1v0.7l-0.7,1l-2.1-1.4l-2.8,2.1v-0.7v-1.4h-0.7V110l0.7-0.7v-0.7l-0.7-0.7l0.7-0.3v-0.7l-0.7-0.3h-0.7l-1.4,0.3
	L9,106.5v-0.7l0.7-0.7l1-0.3h1.7C12.5,104.8,14.2,106.2,14.2,106.2z M28.5,96.4l1,1l1-0.3l0.7-1l0.7-1l0.7-0.7h1l1,0.7l2.1,3.5v2.8
	h-0.3l-0.7-1l-1-0.7v2.4l-0.3,1l-0.7,0.3l-1.4-0.3l-1.4-0.3l-1.4-0.7l-0.7-0.7l-0.7-1.4l-0.3-1.4l-0.7-1l-1.7-1l-0.7-1.4l-0.3-1
	v-0.7H26l0.7,0.3l1,0.7C27.8,94.4,28.5,96.4,28.5,96.4z"/>
<path id="IDN1225" style="fill:#7D7D7D;stroke:#FFFFFF;stroke-width:6.936;stroke-linecap:round;stroke-linejoin:round;" d="
	M563.9,951.7l0.7,0.7l-1,0.7l-3.5-1h-0.3l-0.3,0.3L558,952l-0.3,0.3l-0.3,0.3l-0.7,1.4l-1-0.7l-1-2.4l-0.7-1l-9-6.9l-2.1-1.4
	l3.5-3.1l1.7-0.7l2.4,0.3l2.1,1l1,0.3l1,0.3l1.4,0.3l0.7,0.7l1.4,1.4l4.9,1.4l2.1,1l0.7,2.4l-0.3,1l-1,0.7l-1.4,1v0.7L563.9,951.7
	L563.9,951.7z M540.3,749.1l1.4,2.1l2.1,1.4l0.7,0.7l0.7,1l1,2.4l1,1.4l3.5,2.8l1.4,1l0.3,0.7l0.3,1l0.3,1.7l-0.3,0.3l-1.4,0.3h-0.7
	l0.3,1l2.1,2.8l1,0.3l0.3,0.3h1.7l1.7,0.7l1,0.3h0.7l1.7-1.4h0.7h0.7l4.9,1.7l1.7,1.7l1.4,1l0.7,0.7l0.3,0.7v0.7v0.7l-0.7,1.4
	l-0.3,2.4v0.7l-1,1v0.7v0.3l0.7,0.7l0.7,0.3l1,0.3l0.7,1l0.7,1l1,0.7l1,1.4l1,1l0.7,0.7l1,0.3h0.3l2.4,1.4l1.4,0.3l0.7-0.3l0.7-0.3
	l2.8-2.4l3.1-2.4l1.4-1l1.4-0.3h0.7l0.7,0.7l0.7,2.4l0.7,1l4.2,2.8l1,0.3l4.5,0.7l1.4,0.3l2.1,0.3l1,0.3l0.7,0.7l0.3,0.3l0.7,1.4
	l0.3,2.1v2.1l-0.7,5.9l-1,1.4l-2.1-0.3l-0.7,0.3l-2.1,0.3l-1-0.3l-1.7-0.7h-0.7l-0.3,0.3l0.3,0.7l0.7,1l0.3,1v1l-1,1l-1.4,1
	l-1.7,0.7l-1.4,1l-9.4,8.3l-1,0.7l-4.2,1l0.3,1l2.1,1.4l0.7,1l1,1l0.7,1l2.8,1.7l1,1l1.7,2.8l1,1l1.4,0.7l3.5,1.4h0.7h1.4l2.4-0.7
	l1.4,0.3l0.7,0.3l3.5,2.4l1.4-0.7h1.7h1h1.4l2.1-0.3h0.7h1.4l1,0.7l0.3,0.3l1,1l0.3,2.4l2.1,4.5l0.7,1.7l0.3,5.9l0.7,1.7h1.4h0.7
	l1.4,0.7l2.1,1l3.1,0.7l3.5,2.1l2.4,0.7l4.5,0.3l3.1,2.4l2.1,0.7h1.4l3.1,0.3h1l0.7,0.7l0.7,0.7l0.3,1.4l0.3,6.6l0.7,1.7l0.7,1.4
	l2.1,2.8l1,2.4l0.7,0.7l0.3,1l1.7,6.9v1l0.3,1l0.7,0.3l1.4,1l0.7,0.7l0.3,1.4l-2.1,2.4l-2.4,1.7l-2.1,1.4l-2.8,1.7l-1,0.3l-1.4,0.7
	l-1-0.3h-0.7h-1.7H652l-0.7-1l-0.7-0.3l-1-1.4l-0.7-0.3l-1.7-0.7l-1-0.3h-1l-0.7,0.3l-2.1,0.7h-0.7l-0.3-0.7l-1-3.5l-0.7-0.7
	l-0.7-0.3l-1.4-1l-1,1l-1-0.3l-1-1.4l-1-3.1l-1.4-1.7l-8.3-7.3l-9.4-5.5l-9.7-3.8l-1.4-1l-1-3.1l-1-1.4l-13.2-11.4l-12.8-9
	l-12.1-9.4l-2.1-1l-2.1-1.4l-1.7-2.1l-0.3-2.4l0.3-1.4l1.4-2.4l0.3-1.4l-0.7-1.4l-2.1-2.8l-1-1v-1v-1.7l-0.3-1l-1-1.4v-1l-0.3-2.4
	l-0.3-1.7l-1-1L540,807l-14.2-9.7l-18-13.2l-1.7-1.7l-2.1-3.8l-1.4-1l-11.1-17.7l-0.7-3.1l-6.2-11.1l-2.1-2.4l-2.8-1.7l-6.2-3.1
	l-3.1-1.7l-2.4-2.4l-5.9-8l3.8-3.5l6.9-5.2l1.4-0.3l3.8-1l1.4-0.7l3.5-2.4l2.4-0.7l6.2-4.5h1.4l1,1l0.7,0.7l1.7,1.7l1.4,0.7l0.7,0.3
	l0.3,0.7l0.3,1.4l1.4,2.1l1.7,7.3l0.7,1.4l1,0.7l2.4,0.7l1,1l0.7,0.7l0.3,2.1l2.8,2.4l1.7,2.4l2.4,2.8l2.8,2.1l4.2,2.1l1,0.3
	l1.7,0.7l1,0.7l1.4,1.7l1,0.7l0.7-0.3l1.4-0.3l0.7-0.3h1l2.4,1l1.7,1.4l1,0.3l2.1,0.3L540.3,749.1L540.3,749.1z"/>
<path id="IDN1229" style="fill:#7D7D7D;stroke:#FFFFFF;stroke-width:6.936;stroke-linecap:round;stroke-linejoin:round;" d="
	M749.5,977.7l-0.7,0.7l-1.4-0.3l-2.1-2.1l-1-1l-0.3-0.7v-0.7l0.3-1h0.7l1.7,1l1.7,0.3l1,1l0.3,0.7L749.5,977.7z M823.3,852.8l-1,6.2
	v2.4l0.3,2.1l1,1.7l1,2.1l1,2.4l-0.3,1.7l1,0.3l0.7,1l1.4,2.4l0.3-0.3l0.3,1.4l-0.3,3.1l0.7,2.8l-0.7,1.4l-0.7,1.4l-0.3,1.4l0.3,1
	l1,4.2l-1,0.3l-0.7,1.4l-1,6.6v3.1l0.3,1.7l2.8,4.9v2.4l-1,2.4l-1.4,2.4l-0.7,2.4l-0.3,6.6l0.3,6.6l-0.3,3.1l-1.7,6.2l-0.7,3.5
	l0.7,6.6l-0.3,1.7l-1,2.8l0.7,4.9v3.1v1.4l-1.4,3.1l-0.7,1.7l-0.7,5.9l-1,2.4l-1.4,2.1l-2.1,2.8l-0.3,0.3l-0.7-0.7v-2.8l-0.7-1.4
	l-2.4-1l-5.9-0.7l-1-1.4l-0.3-5.9l-1-2.4l-1.7-1.7l-1,1.4l-0.3,0.3l-1-0.3l-1-0.7l-1.4-0.7l-2.4-2.8l-3.8-3.1l-1.7-1.7l-4.9-6.9
	l-2.4-1.7l-2.1,1.4l-0.3,1.4l0.7,2.8l-0.7,1.7v0.3l-0.7,2.1l-0.3,0.3h-1l-1.4-0.3l-1.4,0.7v1.4l0.7,1.4l0.3,1.7v2.1l0.3,1l1,1v0.3
	l-1,0.7l-1.7,0.7l-1.7,0.7l0.3,1.4l1.4,0.3l1.7,0.3l1,0.3l-1,1l-1.4,0.7l-1.4,0.3H771l-1-0.3l-3.5-2.8l-12.8-5.5l-4.9-3.8l-3.5-1
	l-1.7-1l-4.5-5.2l-0.7-0.7l-1.4-0.7l-2.8-0.7l-1.4-0.7l-1-0.7h-0.3l0.3,1.4H730l-1.4,0.3l-1.4,0.3l-1.4,1.4l-0.3,1l0.3,1.7
	l11.8,18.7l0.7,2.8l0.3,3.1l0.7,1.7l0.3,0.7l-0.3,0.7h-1H728l-0.7-0.7l0.7-2.8l-0.3-1.7l-1-1.4l-4.2-3.5l-0.7-0.3l-1-0.7l-0.3-0.7
	l-0.7-1.4l-4.9-4.5l-1.4-0.7l-5.2-3.1l-0.7-1.4l2.1-1.7l-1-1.4l-3.5-3.5l-1.4-1l-2.4-0.3l-0.7-0.7l-0.3-0.3l-0.7-1l-0.3-0.7
	l-2.4-0.7l-1.4-1l-1.4-1l-5.2-6.9l-3.5-3.1l-0.3-1.4l0.7-1.4l0.3-1l-1-1.4l-1-1l-1-0.3l-1.4-0.3h-1.7l-1.4-0.3l-0.7-1.4l0.3-0.7
	l1-1.4l0.3-1V927l-0.7-1.4l-1-1.4l-4.5-2.8l-1.7-1.7l-1.4-1l-1.4-0.3h-1.7h-1l-0.7-0.7V917l0.7-2.1l-0.3-0.7l-2.1-1l-1-0.3l-0.7,0.3
	l-0.7,0.3l-1.4,1.4l-1.7-3.5l-1-1l-0.7-0.3l1.4-0.7l1-0.3l2.8-1.7l2.1-1.4l2.4-1.7l2.1-2.4l4.5,2.4l1,0.3l0.7,0.3l0.7,0.7v0.3v1v1.4
	l0.3,1.4l0.3,1l0.7,0.3l1,0.3h3.1l4.2,0.7h2.8l2.4,0.3h2.1l5.5-1.4l4.2-2.8h2.8l2.4,0.3l1.4-0.3l1.7-1.7l1-2.1l0.3-1.7l-0.3-0.3
	l-1.4-1.4l-0.3-0.7l-1.4-1l-0.3-1.4l-0.3-2.1v-0.3l-1-0.3l-0.3-0.7v-0.7V893l0.3-1.4v-0.3l1.4-0.7l1-1l0.3-1.4l0.3-1l-0.3-1.4
	l-0.7-5.2l-0.3-2.4l0.3-2.1l0.7-2.1l6.9-2.4l0.7-1l2.4-2.1l1.7-1.4l4.9-2.1l1.7-0.3h3.8l5.5-1.4l12.5-5.5l3.1-1l3.1-1l3.8-0.7
	l2.4-1.4l0.7-0.7l1-0.7l1-1l0.7-0.7l0.3-1l0.3-1l0.7-1l0.7-0.7l2.4-1l0.3-0.7v-0.3l-0.7-0.7l-0.3-1l0.3-0.3l1-1.7l0.3-0.7v-2.4
	l0.7-0.7l0.3-0.3l1.4-0.7l0.7-0.3l1-1.4l0.7-0.3h0.7l1,0.3h1l1-0.3l0.7-0.3l1-1l0.3-0.7l1-2.4v-0.7v-1.4l0.3-0.7l0.7-0.3l0.3-1v-0.7
	l0.3-1.4l0.3-0.7h0.3h0.3l0.7,0.7l0.7,1.7l0.7,0.7l0.7,0.3h0.7l1-0.3h0.7h1l0.7,0.7l1.4,2.1l0.7,0.7l2.4,0.3l2.4,1l0.7,0.7l0.3,1
	l0.3,1.4l0.7,0.7h0.7l0.7,0.3l1,1.4l0.7,1l0.7,0.7l0.7,1l0.3,1l0.7,1.4l0.3,0.7v0.7v0.7l-0.7,1.4v0.3l0.3,0.3h1.4h0.7l0.3,0.3
	l0.7,0.7v2.1l0.7,0.3h1.4l0.7,0.7l0.7,0.7l0.7,1.4l0.3,0.7h3.1l1.4-0.7l1.7-0.3L823.3,852.8L823.3,852.8z"/>
<path id="IDN1230" style="fill:#7D7D7D;stroke:#FFFFFF;stroke-width:6.936;stroke-linecap:round;stroke-linejoin:round;" d="
	M725.9,670.1l0.3,2.1v0.7l-0.3,0.7l-1,2.1l-0.3,1l-1.7,2.8l-0.7,1.7v1l0.3,1l0.7,2.1l1.4-1.4l1-3.8l0.7-1l2.1,0.3l1.7,1.4l1.4,1.7
	l1.4,0.7l1,0.7l-0.7,2.1l-1,2.4l-1,1l-1,1.4v0.7h1.4l1-0.7l1.7-2.1l0.7-1l0.7,1.4v1.7v1.4l1.4,0.7l0.3,0.3h0.7l0.3-0.7l1-0.3
	l1.4-1.4l3.1-1l3.1,0.7l2.8,2.4l1.7,3.1l0.7,3.5l-0.3,2.8l-1.4,2.8l-2.4,3.5l-5.2,6.2l-1,1h-1.4l-3.1,0.3l-1,0.3l-1,1l-2.4,1.7
	l-1.4,1l5.2-2.4h2.4l1.7,2.8v3.5l-0.3,1.7l-1,2.8v3.5l-0.3,1l-0.7,0.7l-1.4,0.7l-1.4,0.3l-1.4,0.3l-0.7,0.3l-2.4,1.7l-2.4,2.1
	l-1.7,2.1l-0.7,2.8v3.1h-0.3v1l1-1l1.4-1.7l0.7-1.7l0.3-1.7l0.3-1l1.4-1l2.4-1.7l5.2-2.4l2.1-1.4l1.4-2.4l1.4-4.9l0.3-1.4l-0.3-3.5
	l0.3-1l1-1.7l2.4-2.1l1-1.4l1-3.5l1.4-1l1.4-0.3l1.4,0.7l0.7,1.4v2.1v1.7l1.4,1v-1.7l1-1l1-0.7l1.7-0.3l1.7,0.7l1,0.7l1,1l1,0.7h0.7
	l1.7-0.3h0.7l1,0.3l1,1h0.3l1.7-0.3l4.5-2.1l1.7-0.3h1.7l1.7,0.3l2.8,1.7l1.7,0.3h3.8l6.6,1h3.1l2.1,0.3l1,0.7v0.3h-1l1,1l1-0.3l1-1
	l1-0.7l1.4,0.3l1,0.3l0.7,1v2.1l-0.3,1.7l-1.4,3.1l-0.3,1.4l0.3,2.1v1.4l0.7,1.7l0.7,1.4l0.7,1.4l1.4,1.4l1.4,1l2.1,0.3l1.4,1h1h1.7
	h0.7l0.7,0.7l1.4,2.4l-0.3,10.4l1.4,2.8l2.4,2.4l2.8,1.4l3.5,0.7l0.7-0.3l1.4-0.3h1l0.7,0.3l1.4,0.7h0.7l1,0.3l1,1l1,2.4l0.7,2.4
	v6.2l0.3,3.1l0.3,0.7l1,1.7l0.3,0.7v1l-0.3,1.4l-0.3,1l-0.7,0.7l-4.9,2.4l-2.8,2.1l-2.4,2.8l-2.1,3.5l-1.4,3.1l-4.9,16.6l0.7,3.1
	l1.7,2.4l6.2,4.5l1.4,2.1v2.8l-1,3.1l-5.2,6.9l-0.7,2.8l-0.3,2.4l-1.7,5.2l-0.3,1.4l-2.8-1.7l-1.7,0.3l-1.4,0.7h-3.1l-0.3-0.7
	l-0.7-1.4l-0.7-0.7l-0.7-0.7h-1.4l-0.7-0.3v-2.1l-0.7-0.7l-0.3-0.3h-0.7h-1.4l-0.3-0.3v-0.3l0.7-1.4v-0.7v-0.7l-0.3-0.7l-0.7-1.4
	l-0.3-1l-0.7-1l-0.7-0.7l-0.7-1l-1-1.4l-0.7-0.3h-0.7l-0.7-0.7l-0.3-1.4l-0.3-1l-0.7-0.7l-2.4-1l-2.4-0.3l-0.7-0.7l-1.4-2.1
	l-0.7-0.7h-1h-0.7l-1,0.3H788l-0.7-0.3l-0.7-0.7l-0.7-1.7l-0.7-0.7h-0.3h-0.3l-0.3,0.7l-0.3,1.4v0.7l-0.3,1l-0.7,0.3l-0.3,0.7v1.4
	v0.7l-1,2.4l-0.3,0.7l-1,1l-0.7,0.3l-1,0.3h-1l-1-0.3h-0.7l-0.7,0.3l-1,1.4l-0.7,0.3l-1.4,0.7l-0.3,0.3l-0.7,0.7v2.4l-0.3,0.7
	l-1,1.7l-0.3,0.3l0.3,1l0.7,0.7v0.3l-0.3,0.7l-2.4,1l-0.7,0.7l-0.7,1l-0.3,1l-0.3,1l-0.7,0.7l-1,1l-1,0.7l-0.7,0.7l-2.4,1.4
	l-3.8,0.7l-3.1,1l-3.1,1l-12.5,5.5l-5.5,1.4h-3.8l-1.7,0.3l-4.9,2.1l-1.7,1.4l-2.4,2.1l-0.7,1l-6.9,2.4l-0.7,2.1l-0.3,2.1l0.3,2.4
	l0.7,5.2l0.3,1.4l-0.3,1l-0.3,1.4l-1,1l-1.4,0.7v0.3l-0.3,1.4v0.7v0.7l0.3,0.7l1,0.3v0.3l0.3,2.1l0.3,1.4l1.4,1l0.3,0.7l1.4,1.4
	l0.3,0.3l-0.3,1.7l-1,2.1l-1.7,1.7l-1.4,0.3l-2.4-0.3h-2.8l-4.2,2.8l-5.5,1.4h-2.1l-2.4-0.3h-2.8l-4.2-0.7h-3.1l-1-0.3l-0.7-0.3
	l-0.3-1l-0.3-1.4v-1.4v-1v-0.3l-0.7-0.7l-0.7-0.3l-1-0.3l-4.5-2.4l-0.3-1.4l-0.7-0.7l-1.4-1l-0.7-0.3l-0.3-1v-1l-1.7-6.9l-0.3-1
	l-0.7-0.7l-1-2.4l-2.1-2.8l-0.7-1.4l-0.7-1.7l-0.3-6.6l-0.3-1.4l-0.7-0.7l-0.7-0.7h-1l-3.1-0.3h-1.4l-2.1-0.7l-3.1-2.4l-4.5-0.3
	l-2.4-0.7l-3.5-2.1l-3.1-0.7l-2.1-1l-1.4-0.7h-0.7h-1.4l-0.7-1.7l-0.3-5.9l-0.7-1.7l-2.1-4.5l-0.3-2.4l-1-1l-0.3-0.3l-1-0.7h-1.4
	h-0.7l-2.1,0.3h-1.4h-1h-1.7l-1.4,0.7l-3.5-2.4l-0.7-0.3l-1.4-0.3L601,841h-1.4H599l-3.5-1.4l-1.4-0.7l-1-1l-1.7-2.8l-1-1l-2.8-1.7
	l-0.7-1l-1-1l-0.7-1l-2.1-1.4l-0.3-1l4.2-1l1-0.7l9.4-8.3l1.4-1l1.7-0.7l1.4-1l1-1v-1l-0.3-1l-0.7-1l-0.3-0.7l0.3-0.3h0.7l1.7,0.7
	l1,0.3l2.1-0.3l0.7-0.3l2.1,0.3l1-1.4l0.7-5.9v-2.1l-0.3-2.1l-0.7-1.4l-0.3-0.3l-0.7-0.7l-1-0.3l-2.1-0.3l-1.4-0.3l-4.5-0.7l-1-0.3
	l-4.2-2.8l-0.7-1l-0.7-2.4l-0.7-0.7h-0.7l-1.4,0.3l-1.4,1l-3.1,2.4l-2.8,2.4l-0.7,0.3l-0.7,0.3l-1.4-0.3l-2.4-1.4h-0.3l-1-0.3
	l-0.7-0.7l-1-1l-1-1.4l-1-0.7l-0.7-1l-0.7-1l-1-0.3l-0.7-0.3l-0.7-0.7v-0.3v-0.7l1-1v-0.7l0.3-2.4l0.7-1.4v-0.7v-0.7l-0.3-0.7
	l-0.7-0.7l-1.4-1l-1.7-1.7l-4.9-1.7h-0.7h-0.7l-1.7,1.4h-0.7l-1-0.3l-1.7-0.7h-1.7l-0.3-0.3l-1-0.3l-2.1-2.8l-0.3-1h0.7l1.4-0.3
	l0.3-0.3l-0.3-1.7l-0.3-1l-0.3-0.7l-1.4-1l-3.5-2.8l-1-1.4l-1-2.4l-0.7-1l-0.7-0.7l-2.1-1.4l-1.4-2.1l2.8-3.1l1-0.7l3.1-0.7l1.4-0.3
	l4.2-2.8l2.1-3.1l2.8,2.1l3.8,0.7l3.5,2.4l1.7,0.7l2.1,0.7h1.7h1.4l1-0.3l1-0.3l4.9-0.3l1.4-0.3l0.7-0.7l0.3-1l0.3-1l1.4-1l3.5-2.1
	l1.4-1l1.4-1.4h0.3l0.7,0.7l1-0.3l1.4-0.7l1-1l1-1l5.5-8v-1v-0.7l-0.7-0.7l-0.7-0.7l-0.3-0.7l-0.3-1l0.3-1.4l0.7-1l0.7-1h1l1.4,0.3
	l2.1,0.7l2.4,0.3l2.4,0.7l2.4,0.3l2.1-1l3.8,1.4l2.1,0.7l1.4-0.3l3.5-1l0.7-0.7l0.7-0.7v-1l-0.3-1l-0.3-1l-0.7-1l-0.7-0.7l-0.7-0.7
	v-1.4l0.7-1.4l1-1.7l1.7-3.1l1.4-0.3l1,0.3l0.7,0.7l1,1l1.4,2.8l0.3,1.7l0.7,1l8.7,8.3l1.4,0.7h1h0.3l0.3-1v-1v-0.7l0.3-1l-0.3-2.1
	l-0.7-3.5v-1.4l0.3-1l0.3-0.7l0.7-0.3l2.8-0.3l1.4-0.3l1-0.3l0.7-0.7l0.3-0.3v-0.7l-1-1l-0.3-0.7l-0.7-1.7l-0.3-2.1l0.7-9.4
	l-0.7-1.4l1-0.7l26.7-13.2l2.4-0.3h2.8l12.8,3.1l3.5,0.3l4.9-0.7l6.2-1.7l1.4-1l0.7-0.7l2.1-5.2l0.3-0.7l1.4-1h1l1,0.3l2.1,1.4
	l2.4,1.4l0.7,0.7h1.4L725.9,670.1L725.9,670.1z"/>
<path id="IDN1231" style="fill:#7D7D7D;stroke:#FFFFFF;stroke-width:6.936;stroke-linecap:round;stroke-linejoin:round;" d="
	M901.7,767.5h-0.3l-3.5-0.7l-1.4-0.7l-3.1-2.4l-2.8-0.7l0.3-1l1-0.7l0.3-1.4l0.3-0.3l1.7-1l1.7-1h1.4l1,0.7l1.4,0.7l3.5,0.7l1.4,0.7
	l0.3,1.4l-1.7,3.5l0.3,1.7L901.7,767.5L901.7,767.5z M918.4,758.1l-0.3,0.3h-1l-0.7-0.3l-1.4-0.3l-0.7-0.7l-1.4-0.7l2.4-3.1l1-0.7
	l0.3-0.7h0.7l0.3,0.3l0.3,1l1,1.4v2.1L918.4,758.1L918.4,758.1z M948.9,756.1l-1,1.7l-1.4,1.4l-2.4,0.7l-1.4,1.7l-1-0.7l-2.1-2.8
	l-2.1-1.4l0.3-0.7l1.4,0.3l2.1-1l0.7-1.4l1.7-1l2.4-0.7l2.1-0.3l0.7,0.3v1l0.7,1L948.9,756.1L948.9,756.1z M975.6,731.4l2.8,1
	l2.4,0.3l1.4-0.3l3.8,0.7l1.4,0.7l0.7,0.7l1.4,3.8h0.3l0.7-2.1l0.3-0.7l1-0.7l2.4,1l0.3,0.3l1,1.4l0.3,0.3l1,0.3l1,0.7l0.7,1
	l0.3,1.4l1.7-0.7l1,0.3l5.2,5.9l0.7,2.8l1,2.8l0.3,1.4l-0.3,1.4l-1.7,1.7v0.7l-0.7,2.1l-3.1,3.8l-1,2.1v0.7l0.3,1.4l0.3,0.7
	l-0.3,0.7l-0.7,1.4v0.7l-1,1.4v0.7l0.3,0.3l1,1l0.7,1h-1.7l-2.8,1l-1.4,0.3H995l-1,0.3l-1,0.7l-0.3,1.4v2.8l-0.7,0.3h-2.1l-2.1,0.3
	l-1,0.7l-1-0.3l-0.7-1.7l-0.3-3.5l-0.3-1.4l-1.7-1.4l-3.8-3.5v-0.7v-0.7l-0.7-0.7l-0.7-0.7l-1,0.3l-1,0.3l-1.4,0.3v1l1,2.1v3.1
	l-1.7,1.4l-4.9,2.4h-4.9l-2.1,2.8l-2.1,0.3l-2.1-0.7l-0.7-1.7l0.7-2.4l2.8-3.1v-1l-0.7-0.3l-0.7-0.7l-1.7-1.7l-0.3-0.7v-2.4l-0.3-1
	l-0.7-1.4v-0.7l0.3-1l1.4-1.7l0.3-0.7v-2.8l-0.3-0.3l-1.4,0.3l-1.7,0.7h-0.7l-0.3-0.7v-1l0.7-0.7l1-0.7l1-0.3l1.4-0.7l0.3-2.1
	l-0.3-2.4l-0.7-2.1l1-0.3l1-0.7l1-1l0.3-0.7l-0.3-4.9l1.4-7.3l1-1.7l3.1-0.7h1.4l2.1,0.3h1.4l1-0.3l2.1-1.7l1.4-0.3L975.6,731.4
	L975.6,731.4z M827.2,651.7h1.4l1.4,0.3l0.7,0.7l0.3,1l0.7,1.4h0.7l1,0.3l1.4-0.3l0.7,0.3l3.5,2.4l0.7,0.7v0.7v0.7l-0.7,0.7v1v3.1v1
	l0.7,0.3l1,1l0.3,0.3l0.7,1.4v0.7l1.4,1l0.3,1.7l0.3,0.7l0.7,0.3l0.7,0.3l0.7,0.3v0.7l-0.3,1.4l3.8,4.5l0.7,0.7l-0.3,0.7l-1,5.2v3.1
	l2.8,12.8l4.9,13.2l1.7,3.1l2.4,2.8l2.4,2.4l1.4,0.7l2.1,0.7l1.7,0.3l0.7-0.7l0.7-0.3l8.7,2.8l9.7,1.7l4.9,2.1h1.7h3.5l1.4,0.7v1
	l-0.7,0.3h-1.4h-0.7l-2.4,1.4l-0.7,0.3l-1.4,0.3l-1.4,1l-3.5,5.5l-4.9,12.8l-0.3,2.8l0.7,2.4l2.4,1.7l2.1,0.3l0.7,0.3l0.7,0.3
	l0.3,0.7l0.7,0.7l1,0.3l1.4,0.3l0.7,1l-0.3,1.4l-0.3,1.4l1,1.4l-0.7,0.3h-0.7l-1,1h-1l-1.4-0.3l-1.4,0.7l-0.3-0.3l-0.7-1l-4.2-0.7
	l-2.1,0.7l-0.3,1.7l-1-0.7l-1.7,1l-1-0.7l-0.7-1.7l-0.3-1.7l-0.3-1l-0.7-0.7l-1.7-1l-0.7-0.7l-0.7-1.7l-1-0.7l-1.4-0.7l-3.5,0.3
	l-1.4-0.7l-3.8-3.5l-15.6-5.5l-1.4-0.3l-5.5-0.3l-1-0.7l-4.9-8l-1-3.1l-0.7-3.5l1-3.1l1.4-3.5l1-3.1l-1.4-3.1l-2.4-1.7l-2.8-1
	l-2.4-2.1l-0.7-3.5l0.7-2.1v-1l-0.3-0.7l-0.7-1l-0.3-1.4l-0.7-1.4v-0.7v-2.8l-0.3-2.1l-0.3-1l-0.7-0.7l-1.4-0.7l-1-0.3l-4.5-0.7
	l-1-0.7h-1l-1,0.3l-2.4-0.3l-0.7-0.3l-1-0.7l-1-2.1l-1-0.7l-1.7,1l-3.8,1.4l-1.4,0.7l-1.7,1h-0.7h-1.4H788l-3.8,1l-0.7-0.3l-0.3-0.3
	l-1.7-2.4v-0.3l-3.1-1.4l-1-0.3l-2.8,0.3l-1.4,0.3l-1,0.3l-1.4-2.8v-3.1l0.7-2.8l1.4-2.1l2.1-1.7l8.7-3.1l5.9-3.8l2.1-3.1l-0.7-3.1
	l-2.8-1.7l-1.7-1.4l0.7-0.7l0.7-0.3v-0.3l-0.3-1.7v-0.7l0.7-0.3l1-0.3l0.7-0.3l0.3-0.3l0.3-1l0.3-0.7h0.3h1h0.3l3.1-3.1l1-0.3h3.5
	l1.4-0.3l0.7-0.3l0.7-0.7l0.7-0.7l2.1-0.7l1.4,1.4l0.7,1.7v1.7l0.7,2.1l1.4,1.4l2.1,1l2.1,0.7l-0.7,1l-3.1,2.8v1l0.7,1.4l1.4,1l1,1
	l1.7,0.3h1l0.7-0.3h1.7h0.3l0.3,1.4l0.3,0.3l0.7,0.3l2.1-0.3l-0.7-1.4l-1-1.4l-2.1-2.4l-0.7-1.4l-0.3-1.4l0.7-3.1h-0.3l-1.4-2.1
	v-0.7l-0.3-2.1l-0.3-1l-0.7-1l-0.7-0.7l-1-0.7l2.1-0.7h6.6l2.1-0.3L827.2,651.7L827.2,651.7z"/>
<path id="IDN1796" style="fill:#7D7D7D;stroke:#FFFFFF;stroke-width:6.936;stroke-linecap:round;stroke-linejoin:round;" d="
	M726.9,569.1l3.5,3.8l0.3,1.4l-0.3,1.4l-1.4,1.4l-3.1,2.1l-0.3,1.4l-0.3,3.8l-1,1h-2.4l-2.4-1.7l-1.7-1l-2.1,2.8l-0.7,3.1l-0.7,0.3
	l-1.4,0.3l-1-6.2l-0.7-2.8l-0.7-1l-1,0.3l-4.2-4.5l-0.3-1l0.7-1l1-2.4l0.7-1l2.1-1.7l1-1l0.7-1.4h0.3l0.3,1.4l-0.7,3.1l0.3,1.7h0.3
	l0.3-1.4l0.3-1.7h0.3l1.7,1l2.8-1.4l3.8-3.8l1.7,1.4l0.3,0.3l1.7,0.7l1,0.7l0.7,1.4L726.9,569.1L726.9,569.1z M722.8,562.5l-1.7,0.3
	l-1,0.3l-0.7,0.3l-2.1-0.3l-0.7-0.3l-0.7-1l0.3-1l1.4-0.7l4.5-0.3l0.3,0.3l0.7,0.3v0.7v0.7L722.8,562.5z M730,538.6l2.4,1l4.2,3.8
	l0.3,0.7l-2.4,0.7v0.7l0.3,0.3l1,1l0.7-0.3l0.7-0.7h0.7l1,0.7l2.1,2.4l1.4,3.1l1,1.4l1.4,0.7l2.1-0.3l0.3-0.7v-1l0.7-1.7l1.7-0.7
	l2.1,2.1l3.8,5.5l6.2,3.1l-0.7,1l-1.4-0.3l-2.1-0.7l-1.7-0.3l-1.4,0.7l0.3,1l0.7,1l0.3,1.4l-3.8-1.7l-1.4-0.3l-1-0.3l-1.4-1.4
	l-4.2-1.7l-1-1l-1-1.4l-1-0.7l-1.7-0.7l-3.1,0.3l-1,0.3l-1.4,0.7l-1.7,1l-0.7,0.3h-0.3l-1.4-0.3l-1.4,1l-1,1l-0.7,0.3h-1l-0.3-0.3
	l-0.3-1.4l-1-1l-0.7-0.3l-1-0.3h-1.7l-1-0.3l-0.3-0.3l-0.3-1v-0.7v-1l0.3-0.3l1-0.3l3.1-2.8l1-1.4l0.7-2.1l0.3-5.9l1-2.4l1.7,1.4
	l0.3-1.4L730,538.6L730,538.6z M718.9,528.2l3.8,4.9l0.3,1l-1.4,0.3H721l1,1.4v0.7v1h-0.3l-1.4-1.7l-3.5-3.5l-1-2.1h0.7l0.7,0.7h0.3
	l-1-3.1v-0.7v-0.7l0.3-0.3h0.7l0.3,0.7L718.9,528.2L718.9,528.2z M724.5,521.6l1.4,1l0.3-0.7l0.7,0.3l10.8,11.8l1.4,2.1l-0.3,0.7
	l-1.4-0.3l-1.7-1l-1.7-1.4l-0.3-0.7l-0.7-1.7l-0.3-0.3l-1,1l-0.7-0.7l-1.4-1.7l-0.7-1l-0.3-0.3v-1l-0.3-0.3h-1l-1-0.7l-0.3-0.3
	l-0.3-1.4l-1.7-2.1l-0.3-0.7l-0.3-1l0.7,0.3L724.5,521.6L724.5,521.6z M716.9,517.1l-0.7,0.3l-0.7-0.7l-0.3-1.4l-0.7-0.3h-0.7
	l-1.7-2.8l-0.7-0.3l1-0.7l0.3,0.3l1.4,1l2.1,1l1,1l0.3,0.7v0.7L716.9,517.1L716.9,517.1z M647.9,492.1l-0.7,0.3h-1l-0.3-1l0.3-1.4
	l1-1l1-2.1l0.3-0.3h1l0.3,0.7l-0.3,1v0.7l-1,2.1L647.9,492.1L647.9,492.1z M707.5,490.4l-0.7,1.7l-1-0.3l-0.3-1l-0.7-1.7l-2.1-2.1
	l-0.7-1l2.1,1l2.1,1.4L707.5,490.4z M742.2,484.9l-0.7,0.3l-0.7-0.3l-0.7-1l0.3-1h1l1,1L742.2,484.9L742.2,484.9z M732.5,480.7
	l-0.3,1h-1l-2.1-0.3h-1.4l-1,0.3l-2.4,1V481l1-1l1.4-0.7h1.7l3.1,0.3l1,0.3L732.5,480.7L732.5,480.7z M706.8,480v1.7v1.4l0.3,1
	l1,1.7h-1l-0.7,0.3h-0.7h-0.7l-1.4-1l-1.7-0.3l-0.7-0.3l-1-1.4l-0.3-1.4l0.7-1l1.4-1l1.4,0.3h1l0.7-0.7l0.7-0.3l0.7,0.3
	C706.5,479.3,706.8,480,706.8,480z M665.2,481.7h-1h-1l-0.3-0.7l-0.3-1.4l-1.7-2.4v-1l2.8,1.7l1,1.4l0.7,1.4L665.2,481.7
	L665.2,481.7z M734.2,478.6h-1l-0.3-0.3l0.3-0.3l0.3-1l0.3-1.4l0.7-0.7l1,0.7v1.4v0.7l-0.7,0.7L734.2,478.6L734.2,478.6z
	 M649.9,479.3v1.4l-2.4-3.1l-1-1l-2.8-0.7l-1-1l-0.3-1.4l0.7,0.7l4.2,1.4l1.4,1l1,1l0.3,1L649.9,479.3L649.9,479.3z M681.5,481
	l-0.7,0.3l-1-0.3l-0.7-0.7l-1-2.1l-0.7-0.7l-2.8-1l-0.7-1.4l-1.7-2.1v-0.3l3.5,0.7l2.4,1.7l2.1,2.1l1.4,2.4V481z M645.1,489.7
	l-1.7,0.7l-1.7-0.7l-0.7-1.4l-0.7-1.7l-0.7-0.7l-3.1-4.2l-0.3-1.4v-1.7v-1l0.7-1.4l0.7-2.4l1-1l1-0.3l1,0.7l0.7,1l0.7,1.4l0.7,1
	l2.4,1l0.7,1l1.4,2.1l1,1l0.3,0.7l0.3,1l-2.1,4.2C646.8,487.6,645.1,489.7,645.1,489.7z M673.5,481.4l-0.3,0.3l-1-0.3l-1.4-1
	l-2.8-1.7l-1.4-1.4l-1-1.7l-0.3-2.1l1.4-1.4l0.3,0.3l1.4,0.3l0.7,0.3l1.7,2.1l1.4,0.7l1,2.1l0.3,2.1L673.5,481.4L673.5,481.4z
	 M646.5,473.1l-0.7,0.7h-0.7l-1-0.3l-1-0.3l-0.3-0.7l-0.3-0.7l-1-0.7v-0.3l3.5-0.7h0.7l0.7,1l0.3,1L646.5,473.1L646.5,473.1z
	 M698.8,472.7l0.7,0.3h3.1l1.4,0.3l1,0.3l0.7,1l-0.7,1.4l-0.3,0.7l-1,0.3l-3.8,1.7l-0.7,0.3l-0.7-0.7l-0.7-1l-0.3-2.1l-0.7-1l-1-0.3
	l-1.7-0.7l-1.4-0.3l0.7-1l-0.3-3.1l0.3-1l1-0.3l1,0.7l2.4,2.4l0.3,0.7v0.7L698.8,472.7L698.8,472.7z M679.1,463.7l2.4,0.7l0.7,0.3
	l0.7,1l0.3,1v1l-0.7,0.7l-0.7,0.3h-1h-1l-0.7-0.3l-4.2-2.1l-0.7-0.7l-0.3-1l-0.3-1l0.7-0.7h0.7l1.4,0.7V463l0.3-1.4l1,1.4
	L679.1,463.7L679.1,463.7z M749.1,467.2l-0.7,0.3l-0.3-1v-0.7v-1.4l-0.3-0.3l-2.4-1.7l0.7-0.7l0.7,0.3l1.7,0.3l0.7,0.3v1l0.7,1
	l0.3,1l-0.7,1L749.1,467.2L749.1,467.2z M956.9,463.4l-1.7,2.1l-1.4,0.7l-0.7-0.3v-0.3l0.7-1v-0.7l-0.3-0.3H952l-0.3-0.7V462
	l0.7-0.7h0.7h1l1.7,0.7l1,0.7V463.4z M643.7,463l0.3,1l-0.7,0.7h-1l-1-0.3l-2.1-1l-1.7,0.3l-1.4-1l-1.7-3.5v-0.7l0.3-1.4l1-1.4
	l0.7-0.7l1.7-1h0.7h1v0.7v1l-0.3,0.7l0.7,1.7l0.3,1l0.3,0.7l0.3,0.3h1l0.7,0.7v1L643.7,463L643.7,463z M697.1,453.3v1.7l-1.4,5.2
	H695l-1.4-1v1l0.7,1l-0.7,0.3l-1,1.7l0.3,1l-0.7,0.3h-1l-1.7,0.3l-1.4-0.3l-2.8-1.4H685h-1.7h-0.7l-0.3-0.3l-2.4-2.8l-1-1.7
	l-0.3-1.4l1-0.7l0.7,0.3l1,1.4h0.7l0.7-0.7v-0.7l-0.3-0.7l-0.7-2.4l1-0.3h0.7l1.7,0.7h0.3l1.4-1l0.7-2.4l0.7-0.7l0.7,0.3l2.4,2.8
	l1,1l0.3-1v-1l-0.3-0.7l-0.7-1l1-0.3h1h0.7l1,0.3l0.7,0.7l0.7,1L697.1,453.3L697.1,453.3z M730.4,449.1l-0.3,2.8v1l0.7,1.4l3.8,1.7
	l0.3,0.7l0.3,1l0.7,3.8l-1,1.7l-0.3,0.7l0.3,1.7l0.3,2.1l0.3,0.7l-0.3,0.7l-0.7,1h-0.7l-1,0.3l-0.7,0.3v0.7l-0.3,1l-0.7,3.8
	l-2.8,0.3l-6.2-2.4l0.7-1l-0.7-1.4l-1-1l-1.4-0.7v-0.3h1.7h1l0.3-0.7l-0.3-0.7h-1h-1.7l-1.7-0.7l-0.3-0.7v-0.7l0.3-0.7l2.8-0.7
	l-0.3-0.7v-0.7l0.3-1h0.3l0.7-0.7l0.7-0.7l-1.4-0.3l-0.7-1l-0.3-0.3h-1l-0.7,0.3l-3.5,1.7l-1,0.3l-1.7,0.3h-0.7l-1,1l-0.7,0.3h-2.8
	h-0.7l-1.7-1l-0.3-1.4v-1.4l-0.7-1.7v-1l1.7-1.4l3.8-1.4l0.7-0.3l0.3-0.3l1-1.4v-0.7l0.3-0.7v-0.3l1.4-0.3l1.7,0.3h0.7l0.3-1
	l0.3-0.7h1l1.7,1l3.1,0.7h2.4l2.1-1l2.8-1.4l-0.3-0.7l0.3-0.3l1,0.3L730.4,449.1L730.4,449.1z M1066.4,348.2h3.1l1,0.3l0.3,0.7
	l-0.3,0.3l-1,1l-1.4,0.7l-2.1,0.7h-1.7l-1-1v-1l0.7-0.7v-0.3l-1.4-0.7h-0.3l-0.7,0.3h-0.7l-1-0.3v-0.7l0.3-0.7l0.7-0.3l1-0.3l1,0.3
	l0.7,0.3l1.7,1L1066.4,348.2z M854.5,333l-0.3,0.3l-0.3-0.7l-1-1l-0.3-1.7l-0.7-1.4l-0.3-0.7l0.3-1h1l0.7,0.3l0.3,0.7l0.3,1l0.3,2.4
	v1C854.5,332.3,854.5,333,854.5,333z M1050.5,324.6v0.3l-1-0.3l-1-0.7l-1-1l-1.4-0.7l-0.7-0.7v-0.3l1.7-1l1.4-1l1-1l0.3-1l0.3-0.7
	l0.3-1l1-2.4h1.7l1.4,1.7l-1,2.1v1l0.7,2.8l-0.3,1l-0.3,0.3l-1.7,0.7l-0.3,0.3l-0.3,0.3L1050.5,324.6z M969.7,314.9h-1l-1-0.3
	l0.7-2.4l1.7-0.7h1.7l0.7,0.7l0.3,1.4v0.7L969.7,314.9L969.7,314.9z M819.5,314.9h0.7l0.3-0.3l0.3-1h0.7h0.7l2.4,0.7l0.7,0.3l-0.7,1
	h-0.3v-0.7h-0.7l-1.4,5.5l-0.7,0.3l-1-0.7l-0.7,0.3l-0.3,0.3l-3.5,1.4l0.7,1h1l0.7,0.3l0.3,0.3l-0.3,1l-2.1,0.3h-0.7l-1-0.3
	l-0.7-0.3l-0.3-1v-0.7l-0.3-1l0.3-0.7l0.7-2.1l0.3-1.7l0.7-1.7l0.3-0.7l-0.7-1l-1.7-0.7l-0.7-0.7l0.7-0.7v-1v-1l-0.3-1l1-0.3
	l0.7,1.4l0.3,0.3l1.4,0.7l0.3,1.4l-0.3,1l0.3,1l1.7,0.3L819.5,314.9L819.5,314.9z M854.2,296.2l1.7,0.7l1.4,1.4l0.7,1.4v6.9h-0.7
	l-1.4-2.1l-1.4,0.7l-0.7-0.7l-0.3-0.7l-1.4-0.3l0.3-0.3l0.3-1.7l-1-3.8l0.3-1.4h1L854.2,296.2L854.2,296.2z M858.4,289.3v2.8v0.7
	l-0.3,0.7l-0.3-0.3l-0.3-1.7V291h-0.7l-0.3,1l0.7,2.1l0.7,1l-0.3,0.7l-3.5-2.1l0.3-0.7v-1.4l0.7-1.7l0.3-1.4l0.3-1.4l1-1l1.7-0.7
	l0.3,0.7L858.4,289.3L858.4,289.3z M1009.9,231.3l4.5,5.2l2.1,1.4l0.3,0.3v1.4v1.7l0.3,1l-0.7,1l-1,0.7l-1,0.7l-0.3,1.4l1-0.3h0.3
	l1.4,1.4l0.7-0.7v0.7l-1.4,3.8l-0.3,1l-3.1,4.2l-0.7,1l-0.3,1.4l-0.3,2.1l-0.3,0.7l-1.4,0.7h-1h-2.4h-1l-1.4,0.3l-2.1,1.4l-0.7,0.3
	l-0.7-0.3l-2.4-1.7l-2.8-1l-1-0.3l1.7-2.4l0.7-1.7l0.7-0.3l1,0.3l1.4-0.7l0.3-1l0.3-1l0.7-0.3h1.4h0.7l1,0.3l1,1l2.1,2.4l1,0.7
	l-0.3-1l-1-3.5l-0.3-0.3l-1-1.4h-0.7h-2.1l-2.1-0.3l-5.9-2.1l-2.4-0.3l-0.7-0.3l-0.7-0.7l-0.3-1l-1.4-2.4v-1.7l-0.3-0.7l-1-0.7
	l-0.3-0.3v-0.7v-1.7l-0.3-0.7l-1-0.7l-0.3-0.3l0.3-0.7l0.7-1l2.1-2.1l0.7-0.7h1.4l0.7-0.3l0.3-0.3l1-1.4l1-0.3l5.9-5.9l0.7-1.7
	l1-1.4l1.4-1l1-0.7l1,1l0.7,1.4l0.3,4.2l0.3,2.1l1,1.4L1009.9,231.3L1009.9,231.3z M986.3,185.6l-0.7,0.7l-1.7-0.3h-1l-0.7-0.3v-0.7
	l0.3-0.7l0.7-0.7l1.4-0.7l0.7-0.7l0.7-1.4l0.3-0.7l0.3-0.3l0.7-0.3l0.7,0.3l-0.3,0.7l-0.3,1l-0.3,2.8L986.3,185.6L986.3,185.6z"/>
<path id="IDN1930" style="fill:#7D7D7D;stroke:#FFFFFF;stroke-width:6.936;stroke-linecap:round;stroke-linejoin:round;" d="
	M725.9,670.1l-1.4,0.3h-1.4l-0.7-0.7l-2.4-1.4l-2.1-1.4l-1-0.3h-1l-1.4,1l-0.3,0.7l-2.1,5.2l-0.7,0.7l-1.4,1l-6.2,1.7l-4.9,0.7
	l-3.5-0.3l-12.8-3.1h-2.8l-2.4,0.3l-26.7,13.2l-1,0.7l0.7,1.4l-0.7,9.4l0.3,2.1l0.7,1.7l0.3,0.7l1,1v0.7l-0.3,0.3l-0.7,0.7l-1,0.3
	l-1.4,0.3l-2.8,0.3l-0.7,0.3l-0.3,0.7l-0.3,1v1.4l0.7,3.5l0.3,2.1l-0.3,1v0.7v1l-0.3,1h-0.3h-1l-1.4-0.7l-8.7-8.3l-0.7-1l-0.3-1.7
	l-1.4-2.8l-1-1l-0.7-0.7l-1-0.3l-1.4,0.3l-1.7,3.1l-1,1.7l-0.7,1.4v1.4l0.7,0.7l0.7,0.7l0.7,1l0.3,1l0.3,1v1l-0.7,0.7l-0.7,0.7
	l-3.5,1l-1.4,0.3l-2.1-0.7l-3.8-1.4l-2.1,1l-2.4-0.3l-2.4-0.7l-2.4-0.3l-2.1-0.7l-1.4-0.3h-1l-0.7,1l-0.7,1l-0.3,1.4l0.3,1l0.3,0.7
	l0.7,0.7l0.7,0.7v0.7v1l-5.5,8l-1,1l-1,1l-1.4,0.7l-1,0.3l-0.7-0.7h-0.3l-1.4,1.4l-1.4,1l-3.5,2.1l-1.4,1l-0.3,1l-0.3,1l-0.7,0.7
	l-1.4,0.3l-4.9,0.3l-1,0.3l-1,0.3h-1.4h-1.7l-2.1-0.7l-1.7-0.7l-3.5-2.4l-3.8-0.7l-2.8-2.1l-2.1,3.1l-4.2,2.8l-1.4,0.3l-3.1,0.7
	l-1,0.7l-2.8,3.1l-0.7-0.7l-2.1-0.3l-1-0.3l-1.7-1.4l-2.4-1h-1l-0.7,0.3l-1.4,0.3l-0.7,0.3l-1-0.7l-1.4-1.7l-1-0.7l-1.7-0.7l-1-0.3
	l-4.2-2.1l-2.8-2.1l-2.4-2.8l-1.7-2.4l-2.8-2.4l-0.3-2.1l-0.7-0.7l-1-1l-2.4-0.7l-1-0.7l-0.7-1.4l-1.7-7.3l-1.4-2.1l-0.3-1.4
	l-0.3-0.7l-0.7-0.3l-1.4-0.7l-1.7-1.7l-0.7-0.7l-1-1h-1.4l-6.2,4.5l-2.8-8.7l-3.1-7.6l-1-1.7l-0.7-1l-2.4-1.7l-1-1.4l-1.4-2.1
	l-2.1-4.2l-1-4.2l-0.7-4.2l-0.3-8l2.8,0.7l1.4-0.3l1,0.7l1.4,0.7l1.7,0.3l13.2-2.1l1,0.7l2.4,0.3l1-0.3l1-0.7l2.1-2.8l1.4-2.1
	l2.8-2.4l6.2-4.9l1.7-1.7l1-1.4l0.7-2.4v-0.7l-0.7-1l-0.3-0.7l1-2.1v-1l-1.4-4.5l0.3-2.1l0.3-1.4l0.7-0.7l0.7-0.3h1.4l2.4-0.7
	l2.1-0.7l1.4-1.4l2.1-2.1l1-1.7l0.7-1.7v-0.7v-0.7h-0.7L522,626h-0.7l-1.4-0.7l-1-0.7l0.3-1.7v-1.7l-0.3-1.7l-1-1.7l8.3-3.1l0.7-0.3
	l1.4-1l1-2.4l1-1.7l1.4-1.4l1.7-1l1.4-0.7l1.4-0.3l4.2,0.3l3.8-0.7l1.4-0.3l2.1-0.7l1.7-0.3h1l3.1,1l0.7,0.3l0.7,0.3l0.3,1l0.7,1.7
	l0.3,0.7l3.8,3.5l0.7,1l0.3,0.7l0.3,0.7l0.3,0.3l2.1,0.7l0.7,0.3l1.4,1l0.7,1.4l0.7,0.3l1.7,0.7l6.9,1.4l1.4-0.3l1-1.4l1.4-3.8
	l0.7-1l2.1-1.4l1-1l0.7-0.7l1-2.4l1-1.7l0.7-0.3l2.1-1.7l0.7-0.3l2.8-3.5l1.4-1l0.7-0.7l1-0.7l8.3-2.1l3.1-0.3l10.8,1l24.6-1.7
	l0.7-0.3l1,0.3l1,0.7l0.3,0.7l-0.3,1l-1.4,1.4l-0.3,1l3.5-0.7h1.4l1.7,0.7l0.7,1l1,2.4l1,1h0.3h1l0.3,0.7l1.4,1.4l0.3,0.7l1.7,0.7
	l0.7,1.4l0.3,0.3l3.1,0.3l1,1l1.7,1.7l1,0.3l1.7,0.3l1.4,0.3l1,0.7l0.7,1.4l1,2.8l0.7,0.7l0.7-3.1l1.4-1.4l1.7-1l1.7-0.7l3.1-0.7
	l1-0.3l4.9,2.4l1.4,1l1.4,0.3l3.8,0.3h1.4l4.5,2.8l1.7,0.3l3.1-1.4l0.7-0.3l4.5-1l4.2-0.3l0.3,0.7l2.1,6.6l-0.7,4.9v2.8l1,2.4v0.7
	l2.4,2.4l0.3,1l0.3,4.9v11.4l0.7,3.1l1,3.1l3.1,5.5L725.9,670.1L725.9,670.1z"/>
<path id="IDN381" style="fill:#7D7D7D;stroke:#FFFFFF;stroke-width:6.936;stroke-linecap:round;stroke-linejoin:round;" d="
	M270.5,577.8l0.7,0.7l0.7,1v1.4l-0.3,1h-0.3v-0.7l-0.7-0.7l-1,0.7l-1-0.3l0.7-1l-0.3-0.7l-1-0.3l-1.4,0.7l-0.3,0.7l-0.3,1.4v1.4v0.3
	l-2.4-0.7l-5.5-3.1l-3.1-0.7l0.7-0.3l1-0.3l0.3-0.3h0.7l1.4,0.7l0.7-0.3l0.3-0.7l1.7-4.9v-1.4l-0.3-3.1l0.3-1.7l0.3-0.7l1.4-2.1
	l0.7-0.7l1.7-0.7l0.3-0.3v-0.7l-0.3-2.4l0.7-1l0.7,0.3l1,0.7l3.1,5.5l1,2.4l-0.7,1.7l0.7,1.4l0.3,1.4l-0.3,1.4l-0.3,1.4v1v1
	l-0.7,0.7L270.5,577.8L270.5,577.8z M276.1,560.1l-0.3,3.1l-0.7,1.4l-0.3,0.7v0.7l0.7,1v1h-0.7l-2.1-4.9l-8-11.1l-1.4-2.1l-2.1-5.2
	l-1.4-2.1l-0.7-0.7l-1.4-0.7l-1-0.7l-0.3-0.7l0.7-0.7l1.4-0.3l3.1-0.3l3.1,1.4l2.8,3.1l2.1,4.2l0.7,3.8l1.4,3.1l2.4,3.1L276.1,560.1
	L276.1,560.1z M280.9,526.1l3.8,0.3l3.1-0.3l2.1,0.7h1.7l3.1,0.3l2.1,1.4l1.4,2.4l-0.7,2.1l-3.1-0.3h-3.1l-2.8,1l-2.8,0.3l-5.2-1.4
	h-3.1l-2.8-0.3l-1-1.4v-2.8l1.7-1l3.1-0.7L280.9,526.1L280.9,526.1z M187,424.9l1.4,0.7l1-0.3l0.7-0.3l0.7,0.3l1,1.4v1l0.7,0.3h0.7
	h1h1l0.7,1.7l1.7,1.7l0.3,0.3l0.3,0.3l0.3,1.7l0.7,0.7l3.8,3.8l1,1.4l0.7,3.1l5.9,6.9l1.4,1l3.5,0.7l1.4,0.7l1,1l1,0.7l1,1.7l0.7,1
	l0.3,1l0.3,1l1.4,0.3h1.4l1.4,0.3l1,1l1.4,3.1l0.3,0.7l0.7,0.7l-0.3,1.7l-1,2.4v-0.3l-1.4,2.1v2.4l0.3,4.5l-0.3,1l-0.7,1.7l-0.3,4.5
	l-0.3,5.5l-0.7,1.7l-3.5,4.5l-0.7,0.3l-0.7-0.3l-0.7-0.3l-1.7-1.4l-1,1.4h-0.7l-2.1-1.4v0.3l-0.7,0.3l-1,0.3l-0.3-1l-1.4-1l1-2.1
	l-0.7-1.4l-1-1l-1-1.4v-0.7l0.3-2.1l-0.3-1l-0.7-0.7l-1-2.4l-0.3-1l-1-3.1l-3.1-2.8l-6.6-4.2l0.3-1.4l-0.7-0.7l-1.7-0.3h-1.7
	l-3.1,0.3l-0.3-0.7v-1.7v-3.1l-1.4-3.1l-3.8-6.2l-0.7-1.7l-0.3-0.7l-1.4-1.4l-0.7-0.7l-0.7-1.4l-1-1l-0.3-2.1l-0.3-0.3l-1-0.7
	l-0.7-0.3l-1.7-0.7l-0.7-0.7l-0.3-0.7l-0.7-1.7l-0.7-1l-3.1-2.8l-1.4-1.4l-2.1-0.7v0.3l-1,0.7l-0.3-1.4l1.4-1l2.1-0.7h1.7l1.4,0.7
	l0.7,0.7l0.3,0.7l0.3-0.7h1l1.7,0.3l2.4-0.3l1.4-0.3l1.7-1l3.1-2.8l0.7-1l0.3-1v-2.1v-0.7l1-0.7L187,424.9L187,424.9z M271.9,413.8
	l1.4,0.7l0.7-0.3l0.7-1l1-0.3l1.4,0.7l1.4,1.4l0.7,1.4l-1.4,0.7h-1.7h-2.4h-2.1l-2.4-1.4l-1-0.3h-1l-0.7-1v-1l0.3-1.4l0.7-0.7
	l1.4-0.3l1,0.3l1,1C270.9,412,271.9,413.8,271.9,413.8z M408.2,346.8l-1.4,4.5l-1.4,10.4l0.3,2.8v2.4l1.4,3.5l1,4.9l0.7,7.6
	l-0.3,2.4l-1,3.5l-0.7,2.8l-0.3,3.1l0.3,1.7l0.7,1l0.7,0.7l3.1,2.4l0.7,0.7l0.7,1.4l1.7,4.9l2.8,6.2l0.7,2.1v1.7v1.4l-0.7,1l-0.7,1
	l-0.7,0.7l-4.9,2.8l-18.4,8.3l-1.4,0.7l-0.7,0.7l-1,1v0.7l0.3,1l3.5,2.8l0.7,0.7l0.3,1l0.3,0.7v2.8v0.7l0.3,0.7l0.7,0.7l3.1,1.7
	l1,0.7l0.7,0.7l0.3,0.7l0.3,1l0.3,1l-0.3,1.7l-0.7,3.5l-0.3,0.7v1l0.7,1.7v1v1.7l-0.3,4.9v3.1v1l-0.3,0.7l-1.4,1.4l-0.3,0.7
	l-0.7,1.4l-0.3,1v1.4l0.3,2.1l-1,0.7l-1,0.3h-1h-1l-1-0.7l-1.4-0.7l-1.4-1.4l-0.7-0.7l-1.4-0.3l-2.8-1l-2.4-0.7l-1.4-0.7l-1-0.7
	l-3.1-0.3l-3.5-1.7l-2.1-0.3l-0.7,0.7l-1.7,0.3h-1.4l-1-0.3l-0.7-0.3l-2.4-1.4l-1-0.3l-0.3,0.7v0.7l0.7,1.7l0.7,0.7l1,1l1,1.7
	l0.7,0.3l1.7,0.7l1,0.7l0.3,0.3l0.3,1l0.7,2.8l0.3,1l3.5,3.5l0.3,0.7l0.7,1.4l1,1.4l1.7,3.8l0.3,0.3v1v1.7l-0.7,1.7l-0.7,0.7l-1,0.3
	l-3.1,1l-1,0.3h-1.4l-1.7-0.7l-1-0.7l-0.7-0.3h-4.5l-0.7-0.3l-0.7-0.3l-0.7-0.7l-1.4-1.7l-0.3-0.3h-1.4l-0.7-0.3l-2.1-1l-1-0.3h-1.7
	l-1.7,0.7l-5.5,2.8l-1.7,1l-1.4,0.3h-2.4l-2.1,0.7l-0.7,0.3l-1,0.7l-5.5,7.3l-8.7,9.4l-1-0.7v-0.7l1-1l0.3-1v-1.4l-0.7-1l-1.4-0.7
	l-1.4-0.3l1.4-3.5v-1.4l-0.3-5.5l-0.3-2.1l-0.7-1l-1,0.7v-1l0.3-3.8v-1.7l-1-1.4l-1-0.7l-2.1,0.7l-0.7-2.1l0.7-6.9l-0.3-2.8
	l-2.8-3.1l-0.7-0.3l-1-0.7l-0.3-1v-2.8l-0.3-2.8l-4.2-14.9l-5.2-11.8l-0.7-2.1l-0.3-0.7l0.7-1.7V438l-0.3-1l-3.1-3.1l-0.7-1l-1-2.8
	l-0.3-1.7l-0.3-1.4v-0.7l-0.7-0.3l-0.7-0.3h-0.7l-0.7-0.3l-0.3-0.7l-0.3-1.7l-0.7-1.4V421l1-0.3l0.7,0.3l0.3,0.3l0.3,0.7l0.7,1.4
	l1-0.7l1.7-3.1l0.7-0.7l1.4-1.7l0.3-0.7v-2.8l-0.3-1l-0.7-0.7h-1.4l-0.3-0.7v-1v-1.4l-0.7-1.4l-1-1l-2.8-2.1l-0.7,0.3l-0.3,0.7v1
	l1,0.3v0.7l-0.3,1l-0.7,0.7l-1.4-0.7l-2.4-2.1l-6.2-9.4l-3.1-3.8l-6.9-4.2l-1.4-0.3l-1.4-0.3h-1.4h-1.7h-0.7l-0.3-0.3l-0.3-1v-0.7
	l-1.4-0.7h-1.4h-1.7h-1.4l-0.7-0.7l-0.3-1.7l-0.7-1.4l-2.8-1.4l-4.2-3.8l-3.8-2.1l1.7-9.4v-1.4l-0.3-2.8l-1.4-2.8l-0.3-1.7l-0.7-0.7
	l-0.7-0.3h-0.7l-0.7-0.3l-0.3-1l-1.7-5.2l-0.7-3.8l0.3-1.7l0.3-1.4l0.3-0.7v-1.4v-0.3l1.4-1l1-1v-0.7v-0.3l-1-1.4l-0.7-2.4l-0.3-1.4
	l0.3-1.4l1-1.4l-0.3-1l-0.7-1l-0.7-0.3l-1.4-0.3l-1-0.7l-0.7-0.7l-2.4-3.1l-0.7-0.3l-1.4-0.3l-1-0.3l-0.7-0.7l-0.3-0.3v-1l0.3-3.1
	l-1.4-5.9l-0.3-1l0.3-1h0.3l1.4,0.3h0.7l0.7-0.7l0.3-2.1v-1l-0.3-0.7l-2.1-2.8l-0.3-0.7v-1.4l-0.7-1.4l-0.7-0.7l-1-1l-0.7-1l0.7-0.3
	l1-0.7l4.9-1l1.7-1l1-2.4l-1-2.1l-0.3-0.7l-3.1-2.1l-0.7-0.7l-0.3-1l-0.7-1v-1v-0.7l0.3-1.4l0.3-0.7l-0.3-0.7l-1-1l-0.7-1l-0.3-1.7
	l-0.3-0.7l-0.7-0.7l-1-0.7l-0.7-0.7l-0.7-1l-1-4.2l-1-1.7l-1.7-3.1l-0.7-1v-0.7l0.7-0.7l6.9-5.9l1-1.7l-0.3-1.4v-1.7l0.3-2.1l1.4,1
	h1h0.7l0.3-0.7v-0.7l0.7-0.7l0.7-1l2.4-1.7l1-1l0.3-1.4l0.3-1.4l0.7-1l0.3-1.7v-0.7l0.7-3.1l0.7-2.4l1-3.5l0.3-0.7l0.7-1l0.3-0.7
	v-0.7l-1-1.4l0.3-0.7l0.7-0.3h2.1l1-0.3l0.7-0.7l1-1l0.7-0.3l2.1-0.3l1-0.3l5.9,0.7l-0.3,5.5v0.7l-1.7,1l-3.5,1l-0.7,0.7l-0.3,0.7
	l-0.3,1.4v2.4l1.7-1.7l1.4-1l1.4-0.3l0.3-0.3l1.7-1.7l2.8,6.6l0.3,0.7l4.2-0.7l1.7,0.3l1.7,0.3l2.8,1.7l1.4,0.3l1,0.3l1.7,2.4
	l0.7,0.7l1.4,0.3l1.4-0.3l1,0.3l0.7,2.8l0.7,1l1.4,0.7l1,0.3l5.2,1.7l1.7,3.1v3.1l0.7,2.1l6.6,5.9l7.3,3.5l4.9,0.7l1.4,1l2.4,1.7
	l3.1,1l1.7,1l2.1,1.7l5.9,2.8l6.6,4.9l7.6,5.5l1,0.7l2.8,0.7l1,0.7l1.4,1.7l2.1,1l0.7,0.7l0.7,2.1l0.7,1l1.4,1.7l2.4,2.1l2.4,1.4
	l7.3,1.7l2.4,0.7l1.4,0.3l1,0.7l2.1,4.5l4.2,3.5l1.4,2.1l0.3,2.8l2.4-0.7l1.7,1.4l1.4,1.7l2.1,1l1.4,1l1,2.8l0.3,8.7v1l-0.7,1
	l-0.7,0.7l-0.7,1l-0.3,2.1l-0.7,1.4v0.3l0.3,0.7l1.4,0.3l0.3,0.3l0.7,0.7l-0.3,0.7v0.3l1.7,2.8l-0.3,0.7l0.3,0.7h0.3l0.7-0.7
	l0.3-0.7l-0.3-0.3l-0.3-0.7l-0.3-0.3v-2.4v-0.7l-2.4-1.4l-0.7-0.3l1-1.4l2.4-1l2.8,0.3l1.7,3.1v1l-0.3,2.1l0.3,1l0.7,2.4v0.7
	l0.7,1.7l1,1.7l1,1l1-0.3v-1l-1.4-2.8l-0.3-1.4v-3.1l0.3-1.4l0.7-1.4l1-1l1-0.3l1.7-0.3l1.7-0.3l0.7,0.3v1.4l0.3,0.7l0.7,0.3l1,0.7
	l0.7,0.3v0.3l0.3,2.1l0.3,0.7l1,2.1l2.1,1.4l0.7,0.3l0.3,0.3L408.2,346.8L408.2,346.8z"/>
<path id="IDN492" style="fill:#7D7D7D;stroke:#FFFFFF;stroke-width:6.936;stroke-linecap:round;stroke-linejoin:round;" d="
	M667.3,565.3l-0.3,0.3l-2.8-0.3l-1,0.3l-2.1,1l-1.7,0.3l-1.7,1l-1,0.3l-1.4-0.7l-1-0.3l-0.7,0.3l-1.7,0.3l-4.2-1.4l-2.4,0.3v-2.4
	l2.1-3.8l2.8-3.1l2.4-1.4h1.4l4.2,0.7l0.7,0.3l0.7,1l1.7,0.7l3.1,0.7l1.7,0.7l1.4,1.4l1,2.1L667.3,565.3L667.3,565.3z M601,517.8
	l-2.1,0.7l-0.7-1l1.4-1l2.1-0.7l2.4-0.7l0.7,1l-1.4,0.7L601,517.8z M616.6,495.6l-0.3,0.3h-0.3l-0.7-0.7l-0.3-1l-1-2.1v-1l-0.7-1
	v-0.3l0.7-0.3l0.7,0.3l0.7,0.7l0.7,1l0.7,0.7l0.3,1.4v1L616.6,495.6L616.6,495.6z M624.3,500.5h-1l-1.4-0.7l-0.7-1l-0.3-1.4V496
	l1.7-6.6l1.4-2.4l2.4-1l1.4,0.3l1.4,0.7l1,1l1,1l0.7,1.7l0.7,1.4l0.3,1.7v2.1l-0.3,2.1l-1,0.7l-6.2,1.4L624.3,500.5L624.3,500.5z
	 M618.4,483.8l-1,1H617l-0.3-0.7l-0.3-1.7v-0.3l0.7-1l0.7-1l0.7-0.3h0.7l0.3,1l-0.3,1.4L618.4,483.8L618.4,483.8z M583.7,464.1
	l1.4,0.3l1-0.3l2.1-1l1-0.3h1.7l1.7,0.3l1.4,0.7l3.8,3.1l5.5,2.8l8.7,5.9l1,1.4l0.3,0.7l1,3.1h0.3l-0.7,1.4l-0.3,2.8l-0.7,1.4
	l-1.4,0.7h-0.7l-0.7-0.3l-1.4-1.7l-3.8-3.5l-2.8-1.7l-3.1-0.3l-6.2,0.3h-1.7l-3.1-1h-1.7l-6.2,1.4l-3.1,0.7l-3.1-1l-3.5-2.8
	l-0.7-0.3l-4.2-3.1l0.3-1.4l1-1.7l1.7-1l3.1-0.7l1-1v-1.4l-2.4-7.3v-2.8l1.4-2.1l3.1-0.7l2.1,1l3.8,4.5l0.7,0.7v1l-0.7,1.4v1l1,0.7
	L583.7,464.1L583.7,464.1z M613.2,460.6l3.1,3.1l3.8,5.5l2.8,2.4l0.7,1l-0.3,1.7l-3.1,2.1l-3.1-0.7l-10.1-6.2v-0.3l-3.5-2.8l-1-0.7
	l-2.4-1h-1.4l-1.4-0.3l-1-1l-0.7-1l-0.7-0.7l-1.4-0.3l-4.5,0.3l-1.7,0.3l-1.4,1l-1.7,0.3h-1.7v-1l0.7-1.4l2.8-2.8l1-1.4l1-3.1l1-1.4
	l3.1-1l3.5,0.3l6.6,2.4l5.9,3.1L613.2,460.6L613.2,460.6z M570.2,466.8h-1.4l-0.7,0.3l-2.1,1.7l-0.7,0.3l-2.4-0.3l-2.4-2.1l-5.2-5.5
	l-1-2.4l-1-1l-0.3-1.4v-1.7l0.7-3.5v-2.8v-1l-1.7-1.4l-0.7-1.4l-0.7-1.7v-1.4v-0.7l0.7-1.4l0.3-0.7l-0.7-3.1l0.3-1.7l0.3-0.7l1-0.3
	h1.7l2.8,0.7l2.4,1.7l4.2,4.5l5.5,4.2l1.4,1l0.3,0.7l0.3,1.7l-0.3,2.1l-2.1,6.9v1.7v2.1l1.4,4.2l0.3,1.7L570.2,466.8L570.2,466.8z
	 M553.2,421l4.5,0.7h2.1h1l0.7,0.3l1.4,1l0.7,0.3l6.6,1.7l2.1,1.7l0.3,3.8v5.9l1,5.2v1.4l-2.4,0.3l-3.5-2.1l-4.5-4.5l-3.1-4.2
	l-1.4-0.7H558l-1.4-0.7l-11.4-1.7l-2.8-1.4l-3.1-2.8l-2.1-2.8l-1.7-2.8l0.3-2.4l3.5-1l1.4,0.3l3.5,1.7l1.4,1l1,0.7l1.7,0.3
	L553.2,421L553.2,421z M514.3,384.3l2.8,3.5l0.7,2.1l0.3,2.8l-0.3,1.7l-2.4,2.8l-0.7,1.7l0.3,3.5l-0.3,1.4l-1,1.7l-3.5,2.4l-0.7,0.7
	l-0.7,1l-1.7,0.7l-2.1,0.3h-1.7l-3.5-0.7l-2.8-1.4l-2.4-2.4l-1.4-2.8l-1-3.5l-0.3-1.7l-2.1-2.8l-0.3-1.4l1-6.2l1-2.4l1.7-1.7
	l2.8-0.3l1.4,0.3l2.4,0.7h1.7l1-0.7l3.8-3.8l2.4-0.7l2.4,1.4l2.1,2.1L514.3,384.3z M643.3,595.5l-0.7,0.3l-24.6,1.7l-10.8-1
	l-3.1,0.3l-8.3,2.1l-1,0.7l-0.7,0.7l-1.4,1l-2.8,3.5l-0.7,0.3l-2.1,1.7l-0.7,0.3l-1,1.7l-1,2.4l-0.7,0.7l-1,1l-2.1,1.4l-0.7,1
	l-1.4,3.8l-1,1.4l-1.4,0.3l-6.9-1.4l-1.7-0.7l-0.7-0.3l-0.7-1.4l-1.4-1l-0.7-0.3l-2.1-0.7l-0.3-0.3l-0.3-0.7l-0.3-0.7l-0.7-1
	l-3.8-3.5l-0.3-0.7l-0.7-1.7l-0.3-1l-0.7-0.3l-0.7-0.3l-3.1-1h-1l-1.7,0.3l-2.1,0.7l-1.4,0.3l-3.8,0.7l-4.2-0.3l-1.4,0.3l-1.4,0.7
	l-1.7,1l-1.4,1.4l-1,1.7l-1,2.4l-1.4,1l-0.7,0.3l-8.3,3.1l-0.7-1.7l-0.7-0.7l-1.4-1.4l-0.7-0.3l-3.8-1.4l-6.9-1.4l-4.2-1.4L497,608
	l-4.5-4.9l-7.6-4.5l-7.3-6.2L463,575l-3.1-5.5l-1.7-0.3l-2.8-1l-6.2-4.5l-2.8-4.5L445,557l-0.3-1l-0.7-1l-0.3-2.8l-0.3-1l-2.1-3.8
	l-0.3-1.7v-0.7v-0.7l1-0.7h0.7l3.5-0.3h1l0.7-0.3l0.3-0.7v-0.3l-0.3-4.9v-1.7l1-6.6v-1.4v-0.7l-0.3-1l-0.7-1l-0.7-1l-2.1-2.1l-1-1.4
	l-0.3-0.3h-0.7l-1.4,0.7l-0.3-0.3l-3.1-3.1l-1.7-1.4l-3.1-2.1l-5.5-2.4l-3.1-3.8l-1.4-1l-1.4-0.3l-1.4-0.3l-2.4,0.3l-1,0.3l-0.7,0.3
	l-1,1.4l-0.3,0.7h-2.4l-8-3.1l-2.8-5.5l-0.7-0.7l-1.4-1.7l-0.7-1l-2.1-5.9v-0.7l0.3-0.7l0.7-0.7l1.4-1.4l1-1v-1l-0.7-1.4l-1.7-1.4
	l-0.3-2.1v-1.4l0.3-1l0.7-1.4l0.3-0.7l1.4-1.4l0.3-0.7v-1v-3.1l0.3-4.9v-1.7v-1l-0.7-1.7v-1l0.3-0.7l0.7-3.5l0.3-1.7l-0.3-1l-0.3-1
	l-0.3-0.7l-0.7-0.7l-1-0.7l-3.1-1.7l-0.7-0.7l-0.3-0.7V445v-2.8l-0.3-0.7l-0.3-1l-0.7-0.7l-3.5-2.8l-0.3-1v-0.7l1-1l0.7-0.7l1.4-0.7
	l18.4-8.3l4.9-2.8l0.7-0.7l0.7-1l0.7-1v-1.4v-1.7l-0.7-2.1l-2.8-6.2l-1.7-4.9l-0.7-1.4l-0.7-0.7l-3.1-2.4l-0.7-0.7l-0.7-1l-0.3-1.7
	l0.3-3.1l0.7-2.8l1-3.5l0.3-2.4l-0.7-7.6l-1-4.9l-1.4-3.5v-2.4l-0.3-2.8l1.4-10.4l1.4-4.5l5.2,14.9l1.7,3.5l2.1,2.8l5.5,5.5l4.2,3.1
	l4.2,2.1l3.5-0.3l9.4,6.6l1.7,0.7l1.7,1.7l0.3,0.3l1.4,1l1,2.1l1,2.1l0.7,1.7v2.4l1,2.4l1,1.4l2.1,0.7l-0.7-1l0.3-1.4l0.3-1.7
	l-1-1.7l-1-1.4l-0.3-1.4l-0.7-3.5l-1.7-3.5l-4.5-6.2l-1.7-3.5v-3.5l0.7-3.1l2.1-2.4l3.5-1l1.7-0.3l10.8,0.7l0.7,1l-0.3,2.8l1,1.7
	l8.3,5.5l9,7.3l1.4,1.7l0.7,1.7v1.7l-0.3,3.1l0.3,1.7l1.7,4.2l2.1,6.6l1.4,2.8l2.4,2.1l4.9,2.1l2.8,0.7l2.8,1l1.7,0.3l6.2-1.4h2.8
	l3.1,0.7l2.1,1.4l18.4,15.6l7.3,3.8l1.7,2.1l0.7,3.5l-0.3,2.8v2.1l0.7,0.7l1.4,0.7l1,1l0.7,1l0.3,1.4l-0.7,5.9v2.8l1,3.5l2.4,3.1
	l6.2,4.9l7.6,8.3l3.1,2.4l3.5,1.7l1.7,0.7l1.4,0.3h3.1h1.7l2.4-0.7l1.4-0.3l8.7,1.4l7.3,0.3l2.8,1.4l2.8,2.4l7.6,9l2.1,3.1l0.7,3.5
	l-1.4,2.1l-2.8,1.7l-5.5,2.4l-3.1,2.1l-1.7,1L600,514l-8.7,4.5l-1,0.7l-1.4,0.7l-5.2,1l-1.4,0.7l-1,1l-1.4,2.8l-1,0.3l-1.7-0.3
	l-1.4-1l-2.8-2.8l-1-0.7l-2.1-0.3h-1.7l-0.3,0.3l0.7,0.3l0.7,0.3h1.7h0.3l0.7,0.3l0.7,1l1.7,1.7l2.1,1.7l2.4,1l2.4-1.4l0.3-0.3
	l1.4-1.7l0.7-0.3l1.7-1l0.7-0.3l1.4-0.3l3.5,0.3l1.7-0.3l4.2-1.7l4.9-0.7l1.4-0.3l5.2-3.5l1.7-0.3l1-0.3l3.8-3.8l1.4-0.7l1.7-0.7
	l1.7-0.3l1.4-0.3l1.7-0.7l1.4-1.4l1.4-3.1l1.7-1.4l4.2-0.7l2.1-1l2.1-1.4l2.1-0.3l2.1,0.3l2.4,1l4.5,2.4l4.5,3.8l3.5,4.2l1.4,5.2
	l0.7-1.7l0.7-0.7l0.7-0.3h0.7l1.7,0.7l1.7,0.7l1.7,1l1.4,1.4l1,1.4l1,2.8l3.1,15.6l0.7,0.7l0.3,0.3l-0.3,0.7l-0.7,1.4l-0.7,0.3h-1
	l-1.7-0.3l-6.2,0.7l-0.7,0.3v1.4l-0.3,0.3l-2.1,0.3l-0.7-0.3l-0.7-0.7l-0.7-1.4l-0.7-0.7l-1.4,0.3l-0.3,0.3l-0.3,0.3v1h1l0.3,0.7
	l-0.3,2.1l0.7,1.7l-1,0.7l-1.4,0.3l-1,0.3h-2.4l-1,0.3l-0.7,0.7l-0.3,2.4l-1,1.7l-2.1,1.4l-2.1,1l-8.3,1.7l-2.4,1.4h1.4l2.1,0.3h1
	h1.4l2.4-1l1-0.3l2.1-0.7l2.8-1.4l2.1-0.3l1,1.4l-0.3,1.7l-3.1,2.8l-0.7,2.1l-0.7,1.4l-2.1,1l-4.9,0.7v0.7l2.8,1l1.4,0.3l1.4-0.7
	l0.7-0.3h4.2l1.4,0.3l0.7,0.3l0.7,0.7l0.7,0.3l1.7,0.3l2.8,1.7l0.7,1l-0.3,1.4l-1.4,1.4l-2.1,1l-2.4,1l-7.3,1l-1.4-0.3l-0.7-1.4
	l-1.4-3.1l0.7,4.9l0.3,0.7l1.4,1l0.7,1l0.3,1.7l-0.7,2.1l-1,2.1l-1.7,1.4v0.3l1.4,1l-0.3,1l-1.4,1h-1.7l1,1.4l1.4,1l1.7,1
	L643.3,595.5L643.3,595.5z"/>
<path id="IDN539" style="fill:#7D7D7D;stroke:#FFFFFF;stroke-width:6.936;stroke-linecap:round;stroke-linejoin:round;" d="
	M424.9,778.6l-0.3,0.7l-1.7-0.3l-1-1.4v-1.7l1-1v1.4l0.7,0.7L424.9,778.6L424.9,778.6z M419.7,770.6l0.7,1.4v2.1l-0.7,1.4l-1.4-0.3
	l-0.7,0.3l-1,0.3l-0.7-0.3l-0.7-0.3l-1.4,1l-0.3,0.7l0.3,0.3l1,0.3v0.3v0.7l-0.3,0.7l1,2.1l1,2.1l3.1,3.5l1,2.4l-1.4,1.4l-1-0.7
	l-1.4-1.7l-0.7-0.7l-1-0.7l-1.4-0.7l-0.7-0.3v-0.3v-1.4v-0.7h-1.4l-1.7-1.4l-0.3-0.7v-1h0.3l0.3,0.7l1,0.3l0.3-0.3l-0.3-0.7l-0.7-1
	l-0.7-1.7v-0.7l0.3-1l0.3-1l-4.2-3.5l-1-0.3h-1.4l-0.7-0.3l0.3-1l-0.7-0.7l-2.4-3.1l-0.3-0.7l-0.3-1l-1-1l-0.3-1l0.3-1l0.7-0.7v-0.7
	v-2.1l-1.4-5.2v-1.7l0.7-0.7l2.8-1.4l1,0.3l0.7,0.3l0.3,0.7l1.7,2.1l0.3,0.3l1,0.7l4.5,4.5l2.1,1.4l2.4,4.2l3.8,3.5l0.3,1.7v1
	L419.7,770.6L419.7,770.6z M399.9,747.4l-2.4,0.3l-1,0.7l-0.3,0.7l-0.7,2.1l-0.3,0.7l-1.7,0.7l-2.1-0.3l-1.7-0.7l-1-0.7l-0.3,1
	l-0.7,1l-0.7,0.3l-1-0.3l-0.3-1l-0.3-2.8l-0.3-1.4h-1V746l1-4.2v-2.1l-0.3-1.7l-0.7-1l-1.4-0.7l0.7-0.7v-0.7l-0.7-1l-0.7-1.7v-0.3
	l0.7-3.1l0.3-1.4l0.7-0.7l1.4,0.3l1,1l0.7,1l0.7,0.7l4.2,3.8l1.4,1.7l0.7,0.7l2.8,0.7l1,0.7l0.3,1.4l0.3,0.7l2.1,1.7l0.3,1v1
	l0.7,1.4v1v1L399.9,747.4L399.9,747.4z M362.4,699.5l1,2.4l4.2,5.9v1.4l0.3,0.3l0.3,0.3l2.4,1.4l0.3,0.7l2.1,3.1l0.7,1.7v0.7l-0.3,1
	h-0.7l-0.3-0.3l-0.3-1.7l-0.7-0.3h-2.1l-0.7-0.3l-1.4-1l-0.7-0.7h-0.7l-2.1-0.3h-0.7l-1-1l-1-1.4l-1-1l-1.7-0.3l-3.1,0.3l-0.3-0.3
	v-0.7l0.7-1l0.3-0.7l-1-0.7l-0.7,0.3l-0.3-1.4h-0.7l-0.3,1l-0.7-0.7l-1-2.4l-1.7-2.1l-0.3-0.7l0.3-0.7l0.7-0.3l1,0.3l0.7-0.3v-0.7
	l-1-1.4v-3.1l1-2.4l2.4-1l2.8,0.3l0.7,0.7l0.7,1l1,0.7l1.4,0.3l0.7,0.7l0.7,1.7C362.1,696.8,362.4,699.5,362.4,699.5z M303.1,610.1
	l1.4,1.7l0.7,1.7l-0.3,1.4l-0.7-0.3l-0.7-0.3l-0.7-0.3h-0.7l0.7,1.4l0.7,0.7l0.3,1l0.3,1.4l0.3,1l1,1l1.4,0.3l0.7,1l0.7,1l1,2.8
	l0.7,1l1.4,1l0.3,0.7l0.3,1.7l0.7,0.7l1.4,1.4l0.3,1.4h-0.3l-0.7,0.7l-0.3,0.7l0.7,0.7l1.4,0.3l0.7,1l0.7,2.8l1.4,2.4l2.1,1.7
	l1.4,1.7l0.3,3.1l-0.7-0.3l-2.1-1.7h-0.3l0.3,1.7l1,1.4l2.8,2.8l0.7,0.3l0.7,0.3l0.3,0.3l0.3,0.7v2.1v1.4l0.7,0.3h1h1.4l1,0.7l0.7,1
	l0.3,1.4l-0.3,1l1,1.4l0.7,2.4l-0.3,2.4l-1.4,1.7l-0.7-5.2l-0.7-1.4l-2.1-2.8l-1,0.7l-1,0.3l0.7,0.7l2.8,5.9l0.7,3.1v1l-0.7,0.7
	l-1-0.3l-1.7-0.3h-2.1l-1.4,0.3l-1,0.7l-1,0.7l-1.4,0.7l-1-0.3l-8.7-4.5l-2.1-2.1l-4.5-1.7l-1-0.7l-3.1-4.5l-1.4-0.7l-0.3-0.3
	l0.7-2.8l-1.4-3.1L283,637.1l-1-0.7l-0.7-0.7l0.3-1l-1.4-2.8l-0.7-0.7l-0.7-1.7v-1.4l2.1-3.1l1.4-3.1l0.7-1.7v-1.7v-3.5v-1.7
	l0.7-1.4l0.7-0.7l1-0.3l1.4-0.3h1.7h1l2.4,1h1.4l1-0.7l1.7-1.7l1-0.3l3.1-0.7l1.4,0.3l-0.7,1.4L303.1,610.1L303.1,610.1z
	 M397.8,482.1l1.7,1.4l0.7,1.4v1l-1,1l-1.4,1.4l-0.7,0.7l-0.3,0.7v0.7l2.1,5.9l0.7,1l1.4,1.7l0.7,0.7l2.8,5.5l8,3.1h2.4l0.3-0.7
	l1-1.4l0.7-0.3l1-0.3l2.4-0.3l1.4,0.3l1.4,0.3l1.4,1l3.1,3.8l5.5,2.4l3.1,2.1l1.7,1.4l3.1,3.1l0.3,0.3l1.4-0.7h0.7l0.3,0.3l1,1.4
	l2.1,2.1l0.7,1l0.7,1l0.3,1v0.7v1.4l-1,6.6v1.7l0.3,4.9v0.3l-0.3,0.7l-0.7,0.3h-1l-3.5,0.3h-0.7l-1,0.7v0.7v0.7l0.3,1.7l2.1,3.8
	l0.3,1l0.3,2.8l0.7,1l0.3,1l1.4,2.1l2.8,4.5l6.2,4.5l2.8,1l1.7,0.3l3.1,5.5l14.6,17.3l7.3,6.2l7.6,4.5l4.5,4.9l2.4,1.4l4.2,1.4
	l6.9,1.4l3.8,1.4l0.7,0.3l1.4,1.4l0.7,0.7l0.7,1.7l1,1.7l0.3,1.7v1.7l-0.3,1.7l1,0.7l1.4,0.7h0.7l0.7-0.3h0.7v0.7v0.7l-0.7,1.7
	l-1,1.7l-2.1,2.1l-1.4,1.4l-2.1,0.7l-2.4,0.7h-1.4l-0.7,0.3l-0.7,0.7l-0.3,1.4l-0.3,2.1l1.4,4.5v1l-1,2.1l0.3,0.7l0.7,1v0.7
	l-0.7,2.4l-1,1.4l-1.7,1.7l-6.2,4.9l-2.8,2.4l-1.4,2.1l-2.1,2.8l-1,0.7l-1,0.3l-2.4-0.3l-1-0.7l-13.2,2.1l-1.7-0.3l-1.4-0.7l-1-0.7
	l-1.4,0.3l-2.8-0.7l0.3,8l0.7,4.2l1,4.2l2.1,4.2l1.4,2.1l1,1.4l2.4,1.7l0.7,1l1,1.7l3.1,7.6l2.8,8.7l-2.4,0.7l-3.5,2.4l-1.4,0.7
	l-3.8,1l-1.4,0.3l-6.9,5.2l-3.8,3.5l-0.7-1l-7.3-10.1l-6.2-12.5l-0.3-0.7l-0.3-1.4l1-1.7l2.8-2.8l0.3-3.1l-0.3-3.5l-0.7-3.1
	l-0.3-3.1l-0.7-1.4l-1.4-1.7l-4.2-4.2l-0.7-0.7l-0.3-0.7l-0.3-1.7l-3.5-5.5l-3.8-4.5l-1-1.7l-0.7-1.7l-0.7-3.1l-0.3-3.1l-0.7-1
	l-2.8-2.8l-1-1.4l0.7-0.7v-1l-0.7-1l0.7-0.7h0.3l-0.7-2.8l-0.7-2.1l-0.7-0.7l-1.4-0.3l-3.1-2.1l-1.4-0.3l-1-1l-0.7-0.3l-0.3,0.3
	l-2.1,0.3h-0.7l-0.7-0.7l0.3-0.7l1-1l0.7-1v-1.7l-0.3-1l-3.5-2.8l-1,0.3L412,626l0.3-1.4v-0.7l1-1v-0.3v-0.7l-1-1.7l1-0.3h0.7h0.7
	l0.7,0.3l0.7-1.4l-0.7-1h-1.4l-1-0.7l-1.7-4.2l-0.7-5.2l-1.4-3.5l-2.1-3.5l-10.4-11.1l-2.1-2.4l-3.1-5.9l-4.5-5.2l-2.4-2.4l-5.2-3.5
	l-1-1l-0.7-1.4l-1.4-1.4l-3.5-2.1l-1.4-1.4l-1-1.4v-1.7V558l-0.3-1.4l-0.7-1l-1-0.7l-0.7-0.7l-0.7-1.4l-0.3-0.7l-0.3-1v-1.4V548
	l0.7-1.4v-1.7l-0.3-1.7l-1-1.4l-4.5-3.8l-4.2-4.9l-1.7-1l-5.5-3.1l-3.5-1.4l-3.1-0.3h-1.7l-1.4-0.3l-1-0.3l-1-1.4l-1.7-2.8l-1-1
	l-2.1-0.3l-1.4,0.3l-2.8,1.4l-1,0.3h-1l-0.7-0.3l-0.7-0.3l-1.4-1.4h-0.3h-1.7l-1-0.7l8.7-9.4l5.5-7.3l1-0.7l0.7-0.3l2.1-0.7h2.4
	l1.4-0.3l1.7-1l5.5-2.8l1.7-0.7h1.7l1,0.3l2.1,1l0.7,0.3h1.4l0.3,0.3l1.4,1.7l0.7,0.7l0.7,0.3l0.7,0.3h4.5l0.7,0.3l1,0.7l1.7,0.7
	h1.4l1-0.3l3.1-1l1-0.3l0.7-0.7l0.7-1.7V498v-1l-0.3-0.3l-1.7-3.8l-1-1.4l-0.7-1.4l-0.3-0.7l-3.5-3.5l-0.3-1l-0.7-2.8l-0.3-1
	l-0.3-0.3l-1-0.7l-1.7-0.7l-0.7-0.3l-1-1.7l-1-1l-0.7-0.7l-0.7-1.7v-0.7l0.3-0.7l1,0.3l2.4,1.4l0.7,0.3l1,0.3h1.4l1.7-0.3l0.7-0.7
	l2.1,0.3l3.5,1.7l3.1,0.3l1,0.7l1.4,0.7l2.4,0.7l2.8,1l1.4,0.3l0.7,0.7l1.4,1.4l1.4,0.7l1,0.7h1h1l1-0.3L397.8,482.1L397.8,482.1z"
	/>
</svg>
